<svg xmlns="http://www.w3.org/2000/svg" xmlns:xlink="http://www.w3.org/1999/xlink" width="500" zoomAndPan="magnify" viewBox="0 0 375 374.999991" height="500" preserveAspectRatio="xMidYMid meet" version="1.0"><defs><clipPath id="7026dbb1fa"><path d="M 84.265625 127.492188 L 304.765625 127.492188 L 304.765625 262 L 84.265625 262 Z M 84.265625 127.492188 " clip-rule="nonzero"/></clipPath><clipPath id="a7351dc5f6"><path d="M 179 127.492188 L 304.765625 127.492188 L 304.765625 262 L 179 262 Z M 179 127.492188 " clip-rule="nonzero"/></clipPath><clipPath id="a21e201422"><path d="M 238 127.492188 L 304.765625 127.492188 L 304.765625 262 L 238 262 Z M 238 127.492188 " clip-rule="nonzero"/></clipPath><clipPath id="3c91d197a9"><path d="M 84.265625 157 L 140 157 L 140 262 L 84.265625 262 Z M 84.265625 157 " clip-rule="nonzero"/></clipPath><clipPath id="b6c90121a9"><path d="M 84.324219 261.707031 L 304.707031 261.707031 L 304.707031 267.730469 L 84.324219 267.730469 Z M 84.324219 261.707031 " clip-rule="nonzero"/></clipPath><clipPath id="fd20c2f768"><path d="M 84.265625 263 L 91 263 L 91 266 L 84.265625 266 Z M 84.265625 263 " clip-rule="nonzero"/></clipPath></defs><rect x="-37.5" width="450" fill="#ffffff" y="-37.499999" height="449.999989" fill-opacity="1"/><rect x="-37.5" width="450" fill="#ffffff" y="-37.499999" height="449.999989" fill-opacity="1"/><g clip-path="url(#7026dbb1fa)"><path fill="#9cd880" d="M 299.886719 127.511719 C 299.65625 127.484375 299.445312 127.675781 299.410156 127.9375 L 298.496094 135.535156 L 291.042969 135.238281 C 290.8125 135.226562 290.617188 135.433594 290.605469 135.699219 L 289.953125 151.988281 L 289.636719 150.5 C 289.578125 150.242188 289.351562 150.070312 289.125 150.121094 L 287.664062 150.433594 L 288.109375 145.207031 C 288.132812 144.945312 287.960938 144.714844 287.730469 144.695312 L 282.511719 144.253906 L 283.527344 139.847656 C 283.585938 139.589844 283.453125 139.335938 283.226562 139.285156 L 275.304688 137.46875 C 275.082031 137.417969 274.847656 137.585938 274.789062 137.84375 L 272.707031 146.886719 L 269.992188 146.777344 C 269.761719 146.769531 269.5625 146.976562 269.554688 147.238281 L 269.253906 154.765625 L 267.609375 154.785156 L 267.050781 151.328125 C 267.007812 151.066406 266.792969 150.882812 266.5625 150.921875 L 258.535156 152.207031 C 258.308594 152.242188 258.15625 152.484375 258.199219 152.746094 L 258.996094 157.695312 L 255.21875 158.507812 L 255.8125 143.601562 C 255.824219 143.335938 255.644531 143.113281 255.414062 143.105469 L 247.292969 142.78125 C 247.0625 142.773438 246.867188 142.980469 246.855469 143.246094 L 245.875 167.757812 L 238.507812 169.339844 C 238.28125 169.386719 238.140625 169.636719 238.199219 169.898438 L 241.558594 185.488281 C 240.550781 185.558594 239.539062 185.691406 238.605469 186.046875 L 234.34375 174.019531 C 234.285156 173.851562 234.121094 173.753906 233.980469 173.804688 L 229.003906 175.558594 C 228.863281 175.609375 228.796875 175.785156 228.855469 175.957031 L 229.96875 179.097656 L 228.308594 178.351562 C 228.167969 178.289062 228 178.371094 227.925781 178.535156 L 224.054688 187.140625 L 224.050781 187.03125 C 224.046875 186.851562 223.921875 186.707031 223.773438 186.710938 L 218.496094 186.832031 C 218.347656 186.835938 218.226562 186.984375 218.230469 187.160156 L 218.277344 189.21875 C 217.628906 189.394531 216.976562 189.554688 216.316406 189.671875 L 219.660156 182.242188 C 219.734375 182.078125 219.679688 181.898438 219.542969 181.835938 L 214.730469 179.679688 C 214.59375 179.617188 214.421875 179.699219 214.347656 179.863281 L 210.738281 187.886719 L 210.589844 184.75 C 210.578125 184.554688 210.449219 184.402344 210.300781 184.410156 L 205.027344 184.660156 C 204.878906 184.667969 204.765625 184.832031 204.773438 185.027344 L 205.277344 195.503906 L 201.265625 195.839844 C 201.085938 195.855469 200.949219 195.988281 200.964844 196.136719 L 201.40625 201.382812 C 201.417969 201.53125 201.574219 201.640625 201.75 201.625 L 204.667969 201.382812 L 204.378906 202.023438 C 203.992188 202.6875 203.574219 203.335938 203.214844 204.050781 C 202.800781 204.871094 202.476562 205.6875 202.078125 206.464844 L 200.777344 205.882812 L 201.835938 203.53125 C 201.910156 203.367188 201.855469 203.183594 201.71875 203.125 L 196.90625 200.964844 C 196.769531 200.90625 196.597656 200.988281 196.523438 201.152344 L 193.714844 207.398438 L 190.226562 205.835938 C 190.089844 205.773438 189.917969 205.855469 189.847656 206.019531 L 188.128906 209.839844 L 185.75 210.128906 L 185.914062 207.347656 C 185.925781 207.152344 185.8125 206.984375 185.664062 206.976562 L 183.179688 206.828125 L 180.019531 200.601562 C 179.933594 200.429688 179.75 200.339844 179.617188 200.410156 L 176.46875 202 L 176.761719 197.132812 C 176.773438 196.9375 176.660156 196.773438 176.511719 196.761719 L 171.242188 196.449219 C 171.09375 196.441406 170.960938 196.59375 170.949219 196.789062 L 170.40625 205.855469 L 167.390625 205.675781 C 167.238281 205.667969 167.109375 205.816406 167.097656 206.015625 L 166.960938 208.292969 L 165.207031 201.203125 C 165.164062 201.027344 165.011719 200.917969 164.863281 200.953125 L 159.742188 202.214844 C 159.59375 202.25 159.511719 202.417969 159.554688 202.59375 L 161.371094 209.929688 L 158 210.003906 C 157.851562 210.007812 157.734375 210.15625 157.738281 210.335938 L 157.804688 213.339844 C 157.300781 213.402344 156.789062 213.433594 156.273438 213.453125 L 156.300781 213.027344 C 156.3125 212.847656 156.199219 212.695312 156.046875 212.6875 L 151.320312 212.40625 L 151.226562 208.410156 C 151.222656 208.230469 151.097656 208.089844 150.949219 208.089844 L 145.671875 208.210938 C 145.523438 208.214844 145.402344 208.363281 145.40625 208.542969 L 145.527344 213.824219 C 144.675781 213.890625 143.808594 213.960938 142.9375 214.003906 L 141.574219 205.128906 C 141.546875 204.949219 141.402344 204.824219 141.253906 204.847656 L 136.039062 205.648438 C 135.890625 205.671875 135.792969 205.832031 135.820312 206.007812 L 136.886719 212.949219 C 135.636719 211.882812 135.5625 210.03125 135.261719 208.230469 C 135.140625 207.5 134.96875 206.824219 134.75 206.1875 L 139.21875 189.953125 C 139.265625 189.78125 139.117188 189.589844 138.886719 189.527344 L 131.171875 187.410156 L 133.148438 179.585938 C 133.191406 179.414062 133.046875 179.226562 132.820312 179.171875 L 125.515625 177.332031 L 123.875 163.050781 C 123.855469 162.875 123.652344 162.75 123.421875 162.777344 L 115.347656 163.703125 C 115.117188 163.726562 114.949219 163.894531 114.96875 164.070312 L 117.308594 184.445312 C 116.105469 183.855469 114.824219 183.390625 113.488281 183.066406 C 113.074219 182.96875 112.652344 182.90625 112.230469 182.878906 L 111.523438 173.894531 C 111.507812 173.714844 111.308594 173.585938 111.078125 173.605469 L 107.179688 173.910156 L 104.265625 166.210938 C 104.203125 166.042969 103.976562 165.972656 103.757812 166.054688 L 96.53125 168.773438 L 97.898438 163.8125 C 97.945312 163.640625 97.796875 163.453125 97.566406 163.386719 L 91.097656 161.613281 L 91.195312 158.214844 C 91.203125 158.035156 91.019531 157.882812 90.789062 157.878906 L 84.324219 157.6875 L 84.324219 261.8125 L 132.363281 261.8125 C 132.296875 261.785156 132.230469 261.753906 132.164062 261.722656 L 133.960938 256.972656 C 134.015625 256.832031 133.921875 256.667969 133.753906 256.605469 L 128.957031 254.796875 L 128.949219 251.082031 C 128.949219 250.929688 128.792969 250.808594 128.59375 250.808594 L 125.753906 250.8125 C 125.804688 250.421875 125.882812 250.039062 125.976562 249.664062 L 126.960938 249.660156 L 135.035156 253.097656 C 135.214844 253.175781 135.410156 253.125 135.46875 252.988281 L 137.539062 248.144531 C 137.601562 248.007812 137.5 247.832031 137.320312 247.757812 L 132.476562 245.695312 L 132.472656 244.117188 C 132.472656 243.964844 132.3125 243.84375 132.117188 243.84375 L 129.925781 243.847656 C 130.175781 243.65625 130.4375 243.476562 130.703125 243.304688 L 139.121094 242.597656 L 140.015625 246.703125 C 140.046875 246.847656 140.214844 246.9375 140.390625 246.898438 L 146.917969 245.488281 C 148.472656 247.292969 149.40625 249.558594 149.429688 252.023438 L 147.773438 257.609375 C 146.585938 259.421875 144.832031 260.890625 142.730469 261.8125 L 304.707031 261.8125 L 304.707031 128.09375 Z M 96.496094 176.667969 C 95.839844 175.304688 95.964844 173.242188 95.804688 171.421875 L 96.164062 170.121094 L 99.945312 180.121094 C 98.828125 178.886719 97.253906 178.226562 96.496094 176.667969 Z M 176.082031 208.480469 L 176.230469 205.992188 L 177.535156 208.566406 Z M 177.992188 210.257812 L 178.035156 209.550781 L 178.347656 210.164062 Z M 229.386719 189.46875 L 231.769531 184.175781 L 233.570312 189.253906 C 232.3125 189.605469 230.800781 189.582031 229.386719 189.46875 Z M 254.457031 183.738281 C 254.375 183.753906 254.289062 183.769531 254.207031 183.785156 L 254.492188 176.632812 L 256.003906 183.65625 C 255.480469 183.636719 254.960938 183.648438 254.457031 183.738281 " fill-opacity="1" fill-rule="nonzero"/></g><g clip-path="url(#a7351dc5f6)"><path fill="#97c0dd" d="M 304.707031 128.09375 L 299.886719 127.511719 C 299.65625 127.484375 299.445312 127.675781 299.410156 127.9375 L 298.496094 135.535156 L 291.042969 135.238281 C 290.8125 135.226562 290.617188 135.433594 290.605469 135.699219 L 289.953125 151.988281 L 289.636719 150.5 C 289.578125 150.242188 289.351562 150.070312 289.125 150.121094 L 287.664062 150.433594 L 288.109375 145.207031 C 288.132812 144.945312 287.960938 144.714844 287.730469 144.695312 L 282.511719 144.253906 L 283.527344 139.847656 C 283.585938 139.589844 283.453125 139.335938 283.226562 139.285156 L 275.304688 137.46875 C 275.082031 137.417969 274.847656 137.585938 274.789062 137.84375 L 272.707031 146.886719 L 269.992188 146.777344 C 269.761719 146.769531 269.5625 146.976562 269.554688 147.238281 L 269.253906 154.765625 L 267.609375 154.785156 L 267.050781 151.328125 C 267.007812 151.066406 266.792969 150.882812 266.5625 150.921875 L 258.535156 152.207031 C 258.308594 152.242188 258.15625 152.484375 258.199219 152.746094 L 258.996094 157.695312 L 255.21875 158.507812 L 255.8125 143.601562 C 255.824219 143.335938 255.644531 143.113281 255.414062 143.105469 L 247.292969 142.78125 C 247.0625 142.773438 246.867188 142.980469 246.855469 143.246094 L 245.875 167.757812 L 238.507812 169.339844 C 238.28125 169.386719 238.140625 169.636719 238.199219 169.898438 L 241.558594 185.488281 C 240.550781 185.558594 239.539062 185.691406 238.605469 186.046875 L 234.34375 174.019531 C 234.285156 173.851562 234.121094 173.753906 233.980469 173.804688 L 229.003906 175.558594 C 228.863281 175.609375 228.796875 175.785156 228.855469 175.957031 L 229.96875 179.097656 L 228.308594 178.351562 C 228.167969 178.289062 228 178.371094 227.925781 178.535156 L 224.054688 187.140625 L 224.050781 187.03125 C 224.046875 186.851562 223.921875 186.707031 223.773438 186.710938 L 218.496094 186.832031 C 218.347656 186.835938 218.226562 186.984375 218.230469 187.160156 L 218.277344 189.21875 C 217.628906 189.394531 216.976562 189.554688 216.316406 189.671875 L 219.660156 182.242188 C 219.734375 182.078125 219.679688 181.898438 219.542969 181.835938 L 214.730469 179.679688 C 214.59375 179.617188 214.421875 179.699219 214.347656 179.863281 L 210.738281 187.886719 L 210.589844 184.75 C 210.578125 184.554688 210.449219 184.402344 210.300781 184.410156 L 205.027344 184.660156 C 204.878906 184.667969 204.765625 184.832031 204.773438 185.027344 L 205.277344 195.503906 L 201.265625 195.839844 C 201.085938 195.855469 200.949219 195.988281 200.964844 196.136719 L 201.40625 201.382812 C 201.417969 201.53125 201.574219 201.640625 201.75 201.625 L 204.667969 201.382812 L 204.378906 202.023438 C 203.992188 202.6875 203.574219 203.335938 203.214844 204.050781 C 202.800781 204.871094 202.476562 205.6875 202.078125 206.464844 L 200.777344 205.882812 L 201.835938 203.53125 C 201.910156 203.367188 201.855469 203.183594 201.71875 203.125 L 196.90625 200.964844 C 196.769531 200.90625 196.597656 200.988281 196.523438 201.152344 L 193.714844 207.398438 L 190.226562 205.835938 C 190.089844 205.773438 189.917969 205.855469 189.847656 206.019531 L 188.1875 209.707031 L 189.472656 213.9375 L 187.738281 217.542969 L 191.929688 217.109375 L 192.652344 222.589844 L 185.570312 223.601562 L 182.535156 221.003906 L 179.351562 224.179688 L 183.691406 228.503906 L 189.617188 230.957031 L 190.339844 235.863281 L 184.992188 236.4375 L 185.425781 241.628906 L 192.074219 241.199219 L 194.242188 244.082031 L 191.351562 247.402344 L 195.109375 251.726562 L 201.761719 251.726562 L 201.90625 256.488281 L 205.519531 260.8125 L 205.570312 261.8125 L 304.707031 261.8125 Z M 229.386719 189.46875 L 231.769531 184.175781 L 233.570312 189.253906 C 232.3125 189.605469 230.800781 189.582031 229.386719 189.46875 Z M 254.457031 183.738281 C 254.375 183.753906 254.289062 183.769531 254.207031 183.785156 L 254.492188 176.632812 L 256.003906 183.65625 C 255.480469 183.636719 254.960938 183.648438 254.457031 183.738281 " fill-opacity="1" fill-rule="nonzero"/></g><g clip-path="url(#a21e201422)"><path fill="#e3846e" d="M 304.707031 128.09375 L 299.886719 127.511719 C 299.65625 127.484375 299.445312 127.675781 299.410156 127.9375 L 298.496094 135.535156 L 291.042969 135.238281 C 290.8125 135.226562 290.617188 135.433594 290.605469 135.699219 L 289.953125 151.988281 L 289.636719 150.5 C 289.578125 150.242188 289.351562 150.070312 289.125 150.121094 L 287.664062 150.433594 L 288.109375 145.207031 C 288.132812 144.945312 287.960938 144.714844 287.730469 144.695312 L 282.511719 144.253906 L 283.527344 139.847656 C 283.585938 139.589844 283.453125 139.335938 283.226562 139.285156 L 275.304688 137.46875 C 275.082031 137.417969 274.847656 137.585938 274.789062 137.84375 L 272.707031 146.886719 L 269.992188 146.777344 C 269.761719 146.769531 269.5625 146.976562 269.554688 147.238281 L 269.253906 154.765625 L 267.609375 154.785156 L 267.050781 151.328125 C 267.007812 151.066406 266.792969 150.882812 266.5625 150.921875 L 258.535156 152.207031 C 258.308594 152.242188 258.15625 152.484375 258.199219 152.746094 L 258.996094 157.695312 L 255.21875 158.507812 L 255.8125 143.601562 C 255.824219 143.335938 255.644531 143.113281 255.414062 143.105469 L 247.292969 142.78125 C 247.0625 142.773438 246.867188 142.980469 246.855469 143.246094 L 245.875 167.757812 L 238.507812 169.339844 C 238.28125 169.386719 238.140625 169.636719 238.199219 169.898438 L 240.304688 179.671875 L 244.929688 179.34375 L 246.730469 186.53125 L 250.152344 186.171875 L 251.234375 191.378906 L 244.210938 192.636719 L 244.75 197.308594 L 249.972656 201.621094 L 256.816406 205.753906 L 261.136719 204.136719 L 263.476562 209.34375 L 261.316406 210.0625 L 265.449219 213.4375 L 263.65625 218.148438 L 256.816406 220.125 L 255.195312 225.871094 L 260.59375 227.847656 L 264.738281 226.050781 L 267.617188 231.441406 L 258.074219 235.933594 L 264.917969 243.476562 L 260.59375 247.96875 L 255.554688 242.578125 L 250.511719 245.8125 L 251.414062 251.203125 L 258.433594 254.257812 L 256.996094 258.566406 L 263.65625 260.003906 L 263.851562 261.8125 L 304.707031 261.8125 Z M 254.457031 183.738281 C 254.375 183.753906 254.289062 183.769531 254.207031 183.785156 L 254.492188 176.632812 L 256.003906 183.65625 C 255.480469 183.636719 254.960938 183.648438 254.457031 183.738281 " fill-opacity="1" fill-rule="nonzero"/></g><g clip-path="url(#3c91d197a9)"><path fill="#fce67a" d="M 128.464844 229.082031 L 123.117188 225.1875 L 126.007812 221.4375 L 128.464844 223.167969 L 134.25 222.304688 L 133.382812 215.523438 L 130.058594 215.8125 L 128.902344 207.160156 L 134.75 206.1875 L 139.21875 189.953125 C 139.265625 189.78125 139.117188 189.589844 138.886719 189.527344 L 131.171875 187.410156 L 133.148438 179.585938 C 133.191406 179.414062 133.046875 179.226562 132.820312 179.171875 L 125.515625 177.332031 L 123.875 163.050781 C 123.855469 162.875 123.652344 162.75 123.421875 162.777344 L 115.347656 163.703125 C 115.117188 163.726562 114.949219 163.894531 114.96875 164.070312 L 117.308594 184.445312 C 116.105469 183.855469 114.824219 183.390625 113.488281 183.066406 C 113.074219 182.96875 112.652344 182.90625 112.230469 182.878906 L 111.523438 173.894531 C 111.507812 173.714844 111.308594 173.585938 111.078125 173.605469 L 107.179688 173.910156 L 104.265625 166.210938 C 104.203125 166.042969 103.976562 165.972656 103.757812 166.054688 L 96.53125 168.773438 L 97.898438 163.8125 C 97.945312 163.640625 97.796875 163.453125 97.566406 163.386719 L 91.097656 161.613281 L 91.195312 158.214844 C 91.203125 158.035156 91.019531 157.882812 90.789062 157.878906 L 84.324219 157.6875 L 84.324219 261.8125 L 126.011719 261.8125 L 124.996094 255.476562 L 122.105469 252.449219 L 123.984375 244.949219 L 121.671875 243.363281 L 123.117188 238.167969 L 126.875 239.035156 L 130.636719 235.574219 L 137.285156 235.429688 L 136.996094 228.9375 Z M 96.496094 176.667969 C 95.839844 175.304688 95.964844 173.242188 95.804688 171.421875 L 96.164062 170.121094 L 99.945312 180.121094 C 98.828125 178.886719 97.253906 178.226562 96.496094 176.667969 " fill-opacity="1" fill-rule="nonzero"/></g><g clip-path="url(#b6c90121a9)"><path fill="#9b9b9b" d="M 84.324219 267.730469 L 304.707031 267.730469 L 304.707031 261.804688 L 84.324219 261.804688 L 84.324219 267.730469 " fill-opacity="1" fill-rule="nonzero"/></g><path fill="#d9d9d9" d="M 125.953125 174.664062 L 125.960938 174.609375 C 125.992188 174.378906 125.800781 174.207031 125.488281 174.136719 C 125.460938 173.761719 125.300781 173.46875 125.058594 173.332031 L 125.316406 175.570312 C 125.429688 175.515625 125.539062 175.453125 125.625 175.386719 L 125.558594 175.835938 C 125.550781 175.894531 125.539062 175.949219 125.527344 176 C 125.496094 176.113281 125.453125 176.21875 125.402344 176.316406 L 125.449219 176.746094 C 125.636719 176.527344 125.777344 176.277344 125.84375 176 C 125.863281 175.9375 125.875 175.867188 125.882812 175.800781 L 126.035156 174.808594 C 126.046875 174.738281 126.011719 174.683594 125.953125 174.664062 Z M 115.472656 178.058594 C 115.289062 177.964844 115.164062 177.84375 115.089844 177.695312 C 115.015625 177.546875 114.992188 177.371094 115.027344 177.144531 L 115.027344 177.140625 L 115.09375 176.625 C 115.175781 176.703125 115.296875 176.761719 115.449219 176.796875 C 115.480469 177.355469 115.824219 177.734375 116.3125 177.675781 L 116.527344 177.648438 L 116.175781 174.574219 C 115.957031 174.777344 115.773438 175.058594 115.664062 175.371094 C 115.328125 175.515625 115.082031 175.734375 115.039062 175.957031 C 115.035156 175.957031 115.027344 175.953125 115.023438 175.957031 C 114.929688 175.96875 114.847656 176.050781 114.835938 176.140625 L 114.695312 177.1875 C 114.65625 177.464844 114.683594 177.703125 114.785156 177.898438 C 114.933594 178.195312 115.226562 178.386719 115.609375 178.503906 C 115.902344 178.589844 116.25 178.640625 116.644531 178.660156 L 116.605469 178.324219 C 116.128906 178.289062 115.738281 178.203125 115.472656 178.058594 " fill-opacity="1" fill-rule="nonzero"/><path fill="#e0ce85" d="M 125.953125 174.664062 L 125.960938 174.609375 C 125.992188 174.378906 125.800781 174.207031 125.488281 174.136719 C 125.449219 173.566406 125.101562 173.191406 124.621094 173.253906 L 116.820312 174.242188 C 116.339844 174.304688 115.867188 174.78125 115.664062 175.371094 C 115.328125 175.515625 115.082031 175.734375 115.039062 175.957031 C 115.035156 175.957031 115.027344 175.953125 115.023438 175.957031 C 114.929688 175.96875 114.847656 176.050781 114.835938 176.140625 L 114.695312 177.1875 C 114.65625 177.464844 114.683594 177.703125 114.785156 177.898438 C 114.933594 178.195312 115.226562 178.386719 115.609375 178.503906 C 115.996094 178.621094 116.480469 178.667969 117.039062 178.671875 C 117.703125 178.675781 118.476562 178.617188 119.3125 178.527344 L 115.109375 204.882812 C 114.160156 205.300781 113.210938 205.96875 112.929688 206.0625 C 112.5 206.207031 107.199219 206.488281 105.769531 206.773438 C 104.335938 207.0625 100.664062 211.375 100.664062 211.375 C 100.664062 211.375 96.875 210.390625 93.953125 215.421875 C 91.996094 218.792969 94.386719 220.207031 94.386719 220.207031 L 93.8125 221.207031 C 93.8125 221.207031 91.234375 222.707031 91.089844 225.78125 C 90.949219 228.851562 95.171875 235.710938 95.171875 235.710938 C 95.171875 235.710938 95.027344 238.78125 94.457031 242.355469 C 93.882812 245.925781 97.320312 252.355469 97.464844 254.496094 C 97.605469 256.640625 96.746094 261.785156 96.746094 261.785156 C 96.746094 261.785156 102.117188 263 104.050781 263.425781 C 105.984375 263.855469 107.558594 263.785156 107.558594 263.785156 C 107.558594 263.785156 115.578125 265.355469 116.4375 265.5 C 117.296875 265.640625 120.445312 265.570312 120.089844 265.140625 C 119.730469 264.714844 114.648438 264.285156 112.714844 263.855469 C 110.78125 263.425781 103.191406 261.855469 103.191406 261.855469 C 103.191406 261.855469 105.554688 255.925781 106.199219 250.140625 C 106.84375 244.351562 106.554688 238.136719 105.984375 236.496094 C 105.410156 234.851562 104.121094 230.78125 104.410156 230.28125 C 104.695312 229.78125 114.074219 223.992188 114.074219 223.992188 C 114.074219 223.992188 116.367188 219.777344 117.152344 218.992188 C 117.941406 218.207031 119.230469 217.351562 119.15625 216.707031 C 119.085938 216.0625 117.511719 214.992188 116.582031 215.207031 C 115.648438 215.421875 114.359375 219.136719 114.359375 219.136719 L 111.28125 223.207031 L 107.84375 223.992188 L 103.046875 224.921875 L 100.828125 222.351562 L 101.15625 220.738281 C 101.15625 220.738281 103.273438 219.820312 103.464844 218.601562 C 103.792969 216.46875 103.132812 214.003906 103.132812 214.003906 C 103.132812 214.003906 106.871094 209.546875 107.085938 209.402344 C 107.277344 209.273438 113.128906 207.65625 114.71875 207.332031 L 114.136719 210.960938 C 114.109375 211.144531 114.359375 211.28125 114.691406 211.261719 C 115.023438 211.246094 115.316406 211.082031 115.34375 210.898438 L 115.9375 207.125 C 116.71875 206.917969 117.675781 206.527344 117.726562 206.132812 C 117.796875 205.5625 117.652344 204.707031 116.507812 204.5625 C 116.457031 204.554688 116.398438 204.558594 116.339844 204.558594 L 120.457031 178.394531 C 121.742188 178.230469 122.90625 178.035156 123.832031 177.71875 C 124.34375 177.539062 124.789062 177.324219 125.136719 177.046875 C 125.488281 176.769531 125.742188 176.414062 125.84375 176 C 125.863281 175.9375 125.875 175.867188 125.882812 175.800781 L 126.035156 174.808594 C 126.046875 174.738281 126.011719 174.683594 125.953125 174.664062 Z M 125.558594 175.835938 C 125.550781 175.894531 125.539062 175.949219 125.527344 176 C 125.445312 176.320312 125.265625 176.574219 124.976562 176.804688 C 124.542969 177.152344 123.855469 177.425781 123.007812 177.632812 C 122.261719 177.816406 121.390625 177.953125 120.449219 178.074219 C 120.375 177.972656 120.195312 177.914062 119.972656 177.9375 C 119.734375 177.960938 119.515625 178.066406 119.410156 178.195312 C 118.5625 178.285156 117.785156 178.347656 117.125 178.34375 C 116.40625 178.339844 115.832031 178.253906 115.472656 178.058594 C 115.289062 177.964844 115.164062 177.84375 115.089844 177.695312 C 115.015625 177.546875 114.992188 177.371094 115.027344 177.144531 L 115.027344 177.140625 L 115.09375 176.625 C 115.175781 176.703125 115.296875 176.761719 115.449219 176.796875 C 115.480469 177.355469 115.824219 177.734375 116.3125 177.675781 L 124.15625 176.71875 C 124.640625 176.65625 125.105469 176.175781 125.296875 175.578125 C 125.421875 175.523438 125.535156 175.457031 125.625 175.386719 L 125.558594 175.835938 " fill-opacity="1" fill-rule="nonzero"/><path fill="#7b7b7b" d="M 96.839844 261.804688 C 97.554688 261.964844 102.265625 263.03125 104.050781 263.425781 C 105.984375 263.855469 107.558594 263.785156 107.558594 263.785156 C 107.558594 263.785156 115.578125 265.355469 116.4375 265.5 C 117.296875 265.640625 120.445312 265.570312 120.089844 265.140625 C 119.730469 264.714844 114.648438 264.285156 112.714844 263.855469 C 110.78125 263.425781 103.191406 261.855469 103.191406 261.855469 C 103.191406 261.855469 103.199219 261.835938 103.210938 261.804688 L 96.839844 261.804688 " fill-opacity="1" fill-rule="nonzero"/><path fill="#383220" d="M 125.761719 208.59375 C 125.761719 208.59375 125.835938 208.300781 125.835938 208.042969 C 125.835938 207.785156 125.453125 207.714844 125.453125 207.714844 C 125.453125 207.714844 125.542969 207.308594 125.394531 207.125 C 125.25 206.941406 124.789062 206.996094 124.789062 206.996094 C 124.863281 206.5 124.367188 206.628906 124.109375 206.757812 C 123.851562 206.886719 123.167969 207.65625 123.167969 207.65625 C 123.167969 207.65625 122.710938 207.585938 122.527344 207.730469 C 122.34375 207.878906 122.398438 208.503906 122.34375 208.90625 C 122.285156 209.308594 122.378906 210.960938 122.324219 211.308594 C 122.269531 211.660156 121.460938 213.660156 121.460938 213.660156 C 121.460938 213.660156 120.484375 211.382812 119.894531 210.429688 C 119.308594 209.476562 118.109375 209.199219 118.109375 209.199219 C 118.109375 209.199219 116.472656 208.136719 116.085938 207.859375 C 115.699219 207.585938 115.480469 207.730469 115.460938 207.730469 C 115.019531 207.253906 115.296875 206.703125 115.425781 206.007812 C 115.554688 205.308594 115.554688 204.0625 115.554688 204.042969 C 115.683594 203.878906 116.601562 203.457031 116.824219 203.160156 C 117.042969 202.867188 117.007812 202.371094 117.117188 201.988281 C 117.226562 201.601562 117.210938 200.296875 117.082031 200.1875 C 116.859375 199.96875 116.898438 199.800781 116.914062 199.601562 C 116.933594 199.398438 116.75 199.070312 116.75 199.070312 C 116.75 199.070312 118.957031 198.296875 119.398438 198.132812 C 119.839844 197.96875 120.90625 198.335938 121.332031 198.351562 C 121.753906 198.371094 122.542969 198.644531 122.875 198.703125 C 123.207031 198.757812 123.226562 198.5 123.371094 198.464844 C 123.519531 198.425781 124.273438 198.132812 124.402344 198.039062 C 124.53125 197.949219 124.441406 197.324219 124.441406 197.324219 C 124.511719 197.25 124.753906 196.996094 124.769531 196.738281 C 124.789062 196.480469 124.382812 196.386719 124.382812 196.386719 C 124.382812 196.386719 124.476562 196.261719 124.457031 196.058594 C 124.441406 195.855469 124.144531 195.800781 124.109375 195.78125 C 124.183594 195.527344 124.089844 195.324219 123.8125 195.304688 C 123.539062 195.289062 123.410156 195.453125 123.1875 195.414062 C 122.839844 195.378906 121.605469 195.765625 121.332031 196.003906 C 121.054688 196.242188 119.527344 196.515625 118.9375 196.609375 C 118.351562 196.699219 115.902344 196.828125 115.902344 196.828125 C 115.902344 196.828125 114.671875 195.820312 113.328125 195.597656 C 111.984375 195.378906 110.253906 196.277344 109.097656 198.152344 C 107.9375 200.023438 108.875 201.839844 108.875 201.839844 C 108.875 201.839844 108.175781 203.566406 107.832031 204.121094 C 107.492188 204.675781 106.570312 206.621094 106.527344 206.640625 C 105.863281 207.070312 105.242188 207.410156 104.921875 208.839844 C 104.601562 210.273438 105.5625 212.515625 105.886719 213.433594 C 106.207031 214.351562 107.125 218.367188 107.125 218.386719 C 106.996094 219.5 107.660156 220.140625 107.660156 220.140625 C 107.660156 220.140625 107.640625 220.800781 107.617188 220.824219 C 106.71875 222.53125 105.386719 224.558594 105.0625 227.679688 C 104.671875 231.464844 106.035156 238.101562 106.25 240.109375 C 106.464844 242.117188 106.65625 247.261719 106.632812 247.519531 C 106.398438 249.3125 106.890625 259.800781 106.914062 260.375 C 106.933594 260.953125 107.148438 260.78125 107.148438 260.78125 L 107.191406 261.164062 C 107.191406 261.164062 106.734375 261.8125 106.519531 262.539062 C 106.304688 263.265625 107.058594 263.398438 107.058594 263.398438 C 107.058594 263.398438 107.246094 263.722656 108.191406 263.722656 C 109.914062 263.722656 109.839844 263.3125 109.863281 263.289062 C 110.566406 263.226562 110.347656 263.09375 110.347656 262.753906 C 110.347656 262.410156 109.695312 261.25 109.695312 261.25 L 109.695312 260.761719 C 109.695312 260.761719 110.101562 260.738281 110.1875 259.96875 C 110.273438 259.199219 110.574219 253.753906 110.574219 253.753906 C 110.574219 253.753906 111.320312 250.574219 111.558594 248.222656 C 111.792969 245.875 111.621094 240.023438 111.769531 238.441406 C 111.921875 236.863281 112.199219 232.675781 112.199219 232.675781 C 112.605469 233.636719 113.3125 235.984375 113.3125 236.328125 C 113.3125 236.667969 113.871094 240.726562 113.871094 240.707031 C 113.914062 243.035156 114.363281 246.238281 114.363281 246.492188 C 114.425781 248.246094 115.902344 253.328125 115.925781 253.519531 C 115.945312 253.710938 116.308594 257 116.546875 258.582031 C 116.78125 260.164062 117.402344 260.164062 117.402344 260.183594 C 117.421875 260.78125 117.851562 261.742188 117.894531 262.085938 C 117.9375 262.425781 117.570312 263.882812 118.273438 264.207031 C 118.53125 264.324219 121.191406 263.921875 121.320312 263.898438 C 121.445312 263.878906 121.363281 263.238281 121.296875 263.023438 C 121.082031 262.019531 119.949219 259.734375 119.949219 259.734375 C 119.949219 259.734375 119.925781 259.480469 119.90625 259.457031 C 120.246094 259.351562 119.863281 250.144531 119.648438 247.988281 C 119.433594 245.832031 119.457031 245.167969 119.5 244.292969 C 119.542969 243.417969 119.65625 233.445312 118.9375 228.855469 C 118.222656 224.269531 116.988281 221.699219 116.859375 221.277344 C 116.730469 220.855469 116.527344 220.761719 116.527344 220.761719 C 116.527344 220.761719 116.566406 219.386719 116.546875 219.40625 C 116.988281 218.796875 117.0625 217.585938 117.0625 217.605469 C 117.191406 217.332031 117.835938 215.808594 117.835938 215.808594 C 117.835938 215.808594 118.644531 216.082031 118.71875 216.230469 C 118.792969 216.375 119.066406 216.449219 119.066406 216.449219 C 119.066406 216.449219 119.710938 217.21875 120.042969 217.550781 C 120.375 217.882812 121 218.816406 121.183594 219.164062 C 121.367188 219.515625 122.597656 219.679688 122.765625 219.605469 C 122.929688 219.535156 123.5 218.339844 123.445312 217.808594 C 123.390625 217.273438 123.703125 215.089844 123.851562 214.007812 C 123.996094 212.925781 124.347656 210.320312 124.367188 210.320312 C 124.640625 210.246094 125.617188 209.421875 125.820312 209.199219 C 126.023438 208.980469 125.761719 208.59375 125.761719 208.59375 Z M 110.679688 206.257812 L 111.152344 204.589844 C 111.257812 204.785156 111.601562 205.105469 111.558594 205.316406 C 111.515625 205.53125 110.679688 206.257812 110.679688 206.257812 " fill-opacity="1" fill-rule="nonzero"/><path fill="#95aa81" d="M 187.703125 261.8125 L 187.722656 261.8125 L 187.722656 259.171875 L 187.710938 259.171875 C 187.648438 258.804688 186.15625 258.511719 184.320312 258.511719 C 184.253906 258.511719 184.191406 258.515625 184.125 258.515625 C 184.242188 257.574219 184.355469 256.878906 184.511719 256.355469 C 184.785156 255.453125 186.636719 251.894531 186.5 250.40625 C 186.378906 249.089844 181.9375 246.394531 180.355469 245.042969 C 178.773438 243.6875 172.222656 239.675781 171.183594 239.765625 C 170.144531 239.859375 165.039062 239.453125 165.039062 239.453125 C 165.039062 239.453125 161.832031 233.636719 157.359375 235.125 C 152.886719 236.613281 158.351562 242.699219 158.351562 242.699219 C 158.351562 242.699219 154.4375 247.085938 153.609375 247.972656 C 152.976562 248.648438 150.898438 253.425781 149.996094 254.371094 C 149.089844 255.320312 144.300781 257.617188 144.03125 257.84375 C 143.824219 258.015625 142.898438 257.4375 141.910156 257.4375 C 141.679688 257.152344 141.449219 256.878906 141.285156 256.617188 C 141.023438 256.222656 140.984375 254.324219 140.984375 254.324219 C 140.988281 253.53125 140.824219 252.53125 140.371094 251.902344 C 140.109375 251.597656 139.773438 251.582031 139.527344 251.816406 C 139.125 251.378906 138.25 249.625 137.425781 248.015625 L 135.289062 252.757812 C 136.15625 253.367188 137.378906 255.21875 137.757812 255.75 C 137.726562 256.125 137.90625 256.527344 138.128906 256.882812 C 138.5625 257.472656 139.085938 257.683594 139.460938 257.617188 C 139.78125 257.621094 140.386719 257.675781 140.664062 258.019531 C 140.375 258.597656 140.289062 259.621094 140.460938 259.78125 C 140.667969 259.972656 141.113281 260.117188 141.640625 260.214844 C 141.878906 260.621094 142.140625 260.777344 142.441406 260.328125 C 143.226562 260.398438 144.023438 260.386719 144.4375 260.277344 C 145.296875 260.050781 149.179688 258.699219 150.355469 257.707031 C 151.53125 256.71875 160.523438 251.125 160.523438 251.125 C 160.523438 251.125 163.910156 252.300781 164.453125 254.148438 C 164.996094 255.996094 164.722656 259.78125 164.722656 259.78125 C 164.722656 259.78125 159.617188 260.546875 158.398438 260.820312 C 157.179688 261.089844 157.628906 262.214844 157.628906 262.214844 C 157.628906 262.214844 155.101562 262.304688 154.152344 262.488281 C 153.203125 262.667969 151.574219 263.929688 152.613281 264.652344 C 153.65625 265.371094 157.585938 264.605469 158.398438 264.335938 C 159.210938 264.066406 157.855469 263.703125 157.855469 263.703125 C 157.855469 263.703125 158.308594 263.433594 158.984375 263.476562 C 159.664062 263.523438 161.832031 263.613281 163.957031 263.703125 C 166.078125 263.792969 169.195312 263.523438 169.195312 263.523438 C 169.195312 263.523438 171.183594 263.972656 171.726562 263.929688 C 172.269531 263.882812 173.761719 263.929688 173.441406 264.46875 C 173.125 265.011719 173.894531 265.144531 174.980469 265.28125 C 176.0625 265.417969 179.542969 265.144531 180.128906 264.742188 C 180.71875 264.335938 179.089844 263.882812 178.367188 263.839844 C 177.644531 263.792969 177.058594 263.433594 177.871094 263.253906 C 178.683594 263.074219 181.757812 261.992188 181.757812 261.992188 C 181.757812 261.992188 181.722656 261.925781 181.667969 261.8125 L 182.125 261.8125 C 182.554688 262.234375 184 263.328125 187.847656 264.046875 C 188.632812 264.191406 189.285156 262.191406 189.285156 262.191406 Z M 182.707031 255.679688 C 182.164062 256.445312 181.167969 256.402344 181.214844 257.078125 C 181.234375 257.351562 182.164062 257.121094 182.34375 257.210938 C 182.480469 257.28125 182.566406 257.867188 182.660156 258.601562 C 181.660156 258.714844 180.976562 258.925781 180.933594 259.171875 L 180.921875 259.171875 L 180.921875 260.027344 C 180.894531 260.066406 180.867188 260.109375 180.84375 260.15625 C 179.980469 258.394531 178.714844 255.714844 177.960938 253.742188 C 176.742188 250.539062 174.4375 247.070312 174.4375 247.070312 C 174.4375 247.070312 179.542969 249.324219 179.722656 249.414062 C 179.902344 249.503906 183.15625 251.53125 183.335938 251.894531 C 183.519531 252.253906 183.246094 254.914062 182.707031 255.679688 " fill-opacity="1" fill-rule="nonzero"/><path fill="#d9d9d9" d="M 141.910156 257.4375 C 141.679688 257.152344 141.449219 256.878906 141.285156 256.617188 C 141.023438 256.222656 140.984375 254.324219 140.984375 254.324219 C 140.988281 253.53125 140.824219 252.53125 140.371094 251.902344 C 140.109375 251.597656 139.773438 251.582031 139.527344 251.816406 C 139.140625 251.394531 138.3125 249.753906 137.519531 248.195312 L 135.5 252.921875 C 136.339844 253.648438 137.40625 255.257812 137.757812 255.75 C 137.726562 256.125 137.90625 256.527344 138.128906 256.882812 C 138.5625 257.472656 139.085938 257.683594 139.460938 257.617188 C 139.78125 257.621094 140.386719 257.675781 140.664062 258.019531 C 140.375 258.597656 140.289062 259.621094 140.460938 259.78125 C 140.667969 259.972656 141.113281 260.117188 141.640625 260.214844 C 141.878906 260.621094 142.140625 260.777344 142.441406 260.328125 C 143.226562 260.398438 144.023438 260.386719 144.4375 260.277344 C 144.691406 260.210938 145.21875 260.042969 145.859375 259.816406 C 146.597656 259.160156 147.242188 258.417969 147.773438 257.609375 L 148.40625 255.46875 C 146.667969 256.488281 144.222656 257.683594 144.03125 257.84375 C 143.824219 258.015625 142.898438 257.4375 141.910156 257.4375 " fill-opacity="1" fill-rule="nonzero"/><path fill="#7b7b7b" d="M 187.722656 261.804688 L 157.550781 261.804688 C 157.558594 262.035156 157.628906 262.214844 157.628906 262.214844 C 157.628906 262.214844 155.101562 262.304688 154.152344 262.488281 C 153.203125 262.667969 151.574219 263.929688 152.613281 264.652344 C 153.65625 265.371094 157.585938 264.605469 158.398438 264.335938 C 159.210938 264.066406 157.855469 263.703125 157.855469 263.703125 C 157.855469 263.703125 158.308594 263.433594 158.984375 263.476562 C 159.664062 263.523438 161.832031 263.613281 163.957031 263.703125 C 166.078125 263.792969 169.195312 263.523438 169.195312 263.523438 C 169.195312 263.523438 171.183594 263.972656 171.726562 263.929688 C 172.269531 263.882812 173.761719 263.929688 173.441406 264.46875 C 173.125 265.011719 173.894531 265.144531 174.980469 265.28125 C 176.0625 265.417969 179.542969 265.144531 180.128906 264.742188 C 180.71875 264.335938 179.089844 263.882812 178.367188 263.839844 C 177.644531 263.792969 177.058594 263.433594 177.871094 263.253906 C 178.683594 263.074219 181.757812 261.992188 181.757812 261.992188 C 181.757812 261.992188 181.722656 261.925781 181.667969 261.8125 L 182.125 261.8125 C 182.554688 262.234375 184 263.328125 187.847656 264.046875 C 188.632812 264.191406 189.285156 262.191406 189.285156 262.191406 L 187.703125 261.8125 L 187.722656 261.8125 L 187.722656 261.804688 " fill-opacity="1" fill-rule="nonzero"/><path fill="#203d2b" d="M 158.402344 225.71875 C 158.402344 225.71875 157.613281 225.4375 157.308594 225.09375 C 157.308594 225.113281 157.328125 223.742188 156.640625 222.632812 C 155.953125 221.523438 154.597656 219.707031 153.042969 219.828125 C 151.484375 219.949219 149.910156 220.554688 148.636719 223.21875 C 148.292969 224.003906 148.675781 224.570312 148.898438 224.46875 C 148.917969 224.46875 148.9375 225.15625 149.160156 225.761719 C 149.382812 226.363281 149.484375 226.726562 149.585938 226.808594 C 149.6875 226.890625 149.988281 226.890625 150.050781 227.011719 C 150.109375 227.132812 150.71875 228.121094 151.183594 228.382812 C 151.203125 228.382812 151.101562 229.390625 151.890625 229.007812 C 151.910156 228.988281 152.679688 229.652344 152.757812 229.8125 C 152.839844 229.976562 152.941406 230.378906 153.304688 230.5 C 153.285156 230.5 152.496094 231.570312 152.09375 231.890625 C 151.6875 232.214844 150.109375 234.878906 149.929688 235.90625 C 149.746094 236.933594 149.542969 238.0625 149.542969 238.0625 C 149.542969 238.0625 148.351562 240.222656 148.046875 241.070312 C 147.746094 241.917969 148.230469 242.480469 148.230469 242.480469 C 148.230469 242.480469 148.089844 243.269531 148.191406 243.550781 C 148.210938 243.550781 147.664062 244.09375 147.199219 244.820312 C 146.734375 245.546875 146.085938 247 145.523438 249.320312 C 145.441406 249.601562 144.671875 250.851562 144.429688 251.054688 C 144.1875 251.257812 143.640625 250.914062 143.539062 251.960938 C 143.5625 251.984375 142.996094 252.75 142.710938 252.929688 C 142.429688 253.113281 142.285156 253.839844 142.429688 254.039062 C 142.570312 254.242188 142.894531 254.28125 142.894531 254.28125 C 142.894531 254.28125 142.996094 254.644531 143.15625 254.726562 C 143.316406 254.808594 143.683594 254.746094 143.683594 254.746094 C 143.683594 254.746094 143.78125 255.128906 143.984375 255.167969 C 144.1875 255.210938 144.671875 255.109375 144.671875 255.109375 C 144.671875 255.109375 144.8125 255.332031 145.058594 255.289062 C 145.300781 255.25 145.988281 254.523438 146.1875 254 C 146.390625 253.476562 146.59375 253.113281 146.574219 252.40625 C 146.59375 252.222656 147.683594 250.894531 148.554688 249.882812 C 149.421875 248.875 150.578125 245.667969 151.242188 244.960938 C 151.242188 244.984375 151.828125 244.941406 152.195312 244.335938 C 152.234375 244.335938 152.71875 244.359375 153.003906 243.492188 C 153.285156 242.621094 154.378906 239.273438 154.902344 238.871094 C 154.902344 238.890625 158.257812 241.957031 159.289062 242.460938 C 159.269531 242.421875 160.261719 243.710938 160.121094 244.09375 C 159.976562 244.476562 160.382812 244.78125 160.382812 244.78125 L 160.886719 245.6875 C 160.886719 245.6875 160.605469 246.796875 160.605469 247.445312 C 160.625 247.421875 159.007812 250.046875 158.28125 251.761719 C 157.550781 253.476562 156.480469 256.621094 156.015625 257.328125 C 155.550781 258.035156 155.246094 258.71875 155.246094 259.023438 C 155.246094 259.003906 153.8125 260.839844 155.042969 262.695312 C 155.042969 262.714844 154.230469 263.777344 154.332031 264.503906 C 154.433594 265.230469 157.125 265.136719 158.15625 265.09375 C 159.191406 265.054688 159.332031 264.449219 159.269531 263.945312 C 159.289062 263.964844 160.707031 263.058594 160.707031 262.25 C 160.707031 262.230469 164.285156 256.824219 164.386719 256.640625 C 164.488281 256.460938 168.347656 255.027344 168.8125 254.160156 C 168.8125 254.222656 170.160156 254.929688 170.503906 254.929688 C 170.527344 254.90625 173.097656 257.1875 174.027344 258.699219 C 174.960938 260.214844 176.191406 262.390625 176.453125 262.9375 C 176.71875 263.480469 178.113281 264.167969 179.40625 264.246094 C 179.425781 264.226562 179.609375 264.851562 180.054688 264.871094 C 180.5 264.894531 183.445312 265.417969 184.578125 264.773438 C 184.894531 264.59375 184.664062 263.636719 184.363281 262.566406 C 184.363281 262.527344 183.648438 260.414062 183.285156 260.09375 C 183.261719 260.070312 183.445312 257.726562 180.660156 257.792969 C 180.679688 257.8125 178.457031 253.214844 177.667969 250.933594 C 176.878906 248.652344 174.414062 245.890625 174.414062 245.890625 C 174.414062 245.890625 174.070312 244.175781 173.683594 243.894531 C 173.300781 243.613281 172.714844 242.238281 172.714844 242.238281 C 172.714844 242.238281 172.917969 242.078125 172.695312 241.515625 C 172.472656 240.949219 172.453125 240.746094 172.453125 240.746094 C 172.453125 240.746094 172.554688 239.234375 171.664062 238.933594 C 171.683594 238.914062 170.148438 236.835938 169.539062 235.320312 C 168.933594 233.808594 168.347656 231.648438 168.308594 231.429688 C 168.289062 231.429688 169.964844 232.738281 170.613281 233.121094 C 171.257812 233.507812 171.824219 233.34375 171.824219 233.34375 C 171.824219 233.34375 172.59375 233.527344 172.816406 233.082031 C 172.816406 233.121094 173.523438 233.363281 173.523438 233.363281 C 173.523438 233.363281 173.605469 234.394531 174.210938 235.824219 C 174.816406 237.257812 175.402344 238.527344 175.363281 239.539062 C 175.34375 239.800781 175.34375 240.101562 175.261719 240.222656 C 175.179688 240.34375 174.636719 241.351562 174.515625 241.574219 C 174.394531 241.796875 173.804688 242.28125 173.746094 242.503906 C 173.683594 242.726562 173.828125 242.96875 174.230469 242.925781 C 174.636719 242.886719 174.839844 242.542969 174.9375 242.5625 C 175.039062 242.582031 176.152344 243.046875 176.152344 243.046875 C 176.152344 243.046875 176.210938 243.570312 176.335938 243.773438 C 176.355469 243.734375 176.394531 244.460938 176.476562 244.703125 C 176.476562 244.660156 176.636719 245.609375 176.617188 245.972656 C 176.597656 246.335938 176.917969 246.496094 176.917969 246.496094 C 176.917969 246.496094 176.859375 246.960938 177.121094 247 C 177.386719 247.042969 177.527344 246.839844 177.527344 246.515625 C 177.527344 246.195312 177.609375 245.730469 177.609375 245.730469 C 177.609375 245.730469 177.871094 245.46875 177.871094 244.722656 C 177.871094 243.976562 178.03125 242.84375 177.871094 242.300781 C 177.707031 241.757812 177.628906 240.667969 177.648438 240.484375 C 177.667969 240.304688 177.992188 237.902344 178.03125 236.835938 C 178.074219 235.765625 178.171875 233.828125 177.75 232.941406 C 177.324219 232.054688 176.699219 230.882812 176.3125 230.640625 C 175.929688 230.398438 175.867188 230.21875 175.160156 230.136719 C 175.179688 230.136719 175.179688 229.511719 174.535156 228.988281 C 174.535156 228.949219 174.433594 228.34375 173.382812 227.839844 C 172.332031 227.335938 171.300781 226.992188 170.511719 226.265625 C 169.722656 225.539062 169.296875 225.136719 168.066406 224.671875 C 166.832031 224.207031 165.660156 223.886719 164.910156 224.085938 C 164.164062 224.289062 162.300781 224.914062 161.757812 224.996094 C 161.777344 224.972656 160.625 224.671875 160.199219 224.832031 C 159.777344 224.996094 158.402344 225.71875 158.402344 225.71875 " fill-opacity="1" fill-rule="nonzero"/><path fill="#b57e66" d="M 284.863281 188.597656 C 284.40625 188.597656 283.914062 188.996094 283.765625 189.488281 L 282.773438 192.832031 C 282.746094 192.828125 282.722656 192.824219 282.695312 192.824219 L 276.433594 192.824219 C 276.429688 192.25 276.402344 191.636719 276.335938 190.96875 C 275.613281 183.488281 271.636719 179.25 270.824219 179.023438 C 270.011719 178.796875 265.945312 177.71875 265.808594 177.402344 C 265.675781 177.085938 267.164062 172.984375 267.34375 171.632812 C 267.527344 170.277344 267.253906 164.6875 263.914062 164.871094 C 260.570312 165.050781 259.214844 168.070312 258.941406 169.0625 C 258.671875 170.054688 258.671875 172.667969 259.03125 173.480469 C 259.394531 174.292969 260.886719 174.695312 260.75 175.417969 C 260.613281 176.140625 256.953125 177.175781 256.59375 177.265625 C 256.230469 177.355469 250.105469 175.070312 250.105469 175.070312 C 250.105469 175.070312 249.226562 167.621094 248.914062 167.304688 C 248.597656 166.988281 247.917969 166.402344 247.917969 166.085938 C 247.917969 165.773438 248.054688 163.921875 246.96875 163.292969 C 246.71875 163.144531 246.410156 163.011719 246.082031 162.910156 L 250.734375 146.667969 C 250.789062 146.667969 250.847656 146.667969 250.90625 146.667969 C 252.234375 146.667969 253.425781 146.605469 254.363281 146.347656 C 254.832031 146.21875 255.238281 146.042969 255.5625 145.78125 C 255.890625 145.523438 256.128906 145.179688 256.234375 144.773438 L 256.234375 144.769531 L 256.511719 143.789062 C 256.53125 143.71875 256.503906 143.660156 256.453125 143.632812 L 256.464844 143.578125 C 256.523438 143.351562 256.363281 143.148438 256.078125 143.035156 C 256.113281 142.453125 255.832031 142.023438 255.367188 142.015625 L 247.808594 141.933594 C 247.339844 141.929688 246.832031 142.355469 246.566406 142.929688 C 246.230469 143.035156 245.96875 143.226562 245.902344 143.449219 C 245.898438 143.449219 245.890625 143.445312 245.886719 143.445312 C 245.796875 143.445312 245.707031 143.519531 245.6875 143.609375 L 245.425781 144.664062 L 245.421875 144.679688 C 245.367188 144.898438 245.355469 145.097656 245.390625 145.277344 C 245.449219 145.59375 245.636719 145.835938 245.917969 146.015625 C 246.335938 146.285156 246.953125 146.4375 247.707031 146.53125 C 248.28125 146.601562 248.9375 146.636719 249.640625 146.652344 L 245.03125 162.714844 C 244.246094 162.675781 243.527344 162.90625 243.308594 163.652344 C 242.902344 165.050781 242.542969 167.125 243.355469 167.347656 C 244.167969 167.574219 245.253906 168.296875 245.253906 168.296875 C 245.253906 168.296875 244.257812 169.105469 244.484375 170.324219 C 244.710938 171.542969 244.710938 176.351562 246.25 178.914062 C 247.105469 180.335938 251.125 183.171875 251.441406 183.621094 C 251.757812 184.074219 256.953125 196.378906 257.179688 197.417969 C 257.40625 198.453125 253.882812 208.097656 256.1875 209.902344 C 256.1875 209.902344 254.832031 221.128906 254.921875 225.273438 C 255.011719 229.421875 255.148438 238.617188 255.28125 239.609375 C 255.320312 239.875 255.410156 240.085938 255.519531 240.25 L 248.863281 261.945312 C 248.863281 261.945312 263.136719 263.921875 265.109375 264.25 C 267.082031 264.578125 270.203125 264.90625 270.53125 264.699219 C 271.191406 264.289062 270.65625 264.414062 269.832031 264.25 C 269.011719 264.085938 250.621094 261.945312 250.621094 261.945312 L 250.710938 261.65625 C 250.734375 261.65625 250.757812 261.660156 250.785156 261.660156 L 262.210938 261.660156 C 262.238281 261.660156 262.265625 261.65625 262.292969 261.65625 L 262.207031 261.945312 L 262.230469 261.945312 C 262.230469 261.945312 276.292969 263.921875 278.234375 264.25 C 280.179688 264.578125 283.253906 264.90625 283.578125 264.699219 C 284.222656 264.289062 283.699219 264.414062 282.890625 264.25 C 282.078125 264.085938 263.964844 261.945312 263.964844 261.945312 L 272.613281 232.753906 C 273.386719 235.554688 274.113281 238.074219 274.351562 238.484375 C 274.890625 239.429688 276.203125 239.519531 276.203125 239.519531 C 276.203125 239.519531 276.609375 241.1875 278.414062 241.140625 C 280.222656 241.097656 284.378906 239.835938 284.199219 238.527344 C 284.019531 237.21875 280.675781 236.453125 280.675781 236.453125 C 280.675781 236.453125 278.824219 223.335938 277.601562 220.632812 C 277.378906 220.136719 277.09375 219.484375 276.773438 218.71875 L 285.4375 189.488281 C 285.582031 188.996094 285.328125 188.597656 284.863281 188.597656 Z M 246.804688 146.011719 C 246.378906 145.886719 246.0625 145.71875 245.882812 145.503906 C 245.796875 145.394531 245.738281 145.277344 245.714844 145.144531 C 245.6875 145.007812 245.695312 144.859375 245.738281 144.679688 L 245.742188 144.664062 L 245.746094 144.664062 L 245.871094 144.144531 C 245.941406 144.234375 246.050781 144.308594 246.1875 144.363281 C 246.148438 144.945312 246.429688 145.375 246.898438 145.382812 L 254.46875 145.464844 C 254.9375 145.46875 255.441406 145.042969 255.707031 144.46875 C 255.832031 144.429688 255.945312 144.378906 256.042969 144.316406 L 255.917969 144.761719 L 255.917969 144.765625 C 255.828125 145.097656 255.660156 145.339844 255.402344 145.546875 C 255.210938 145.699219 254.960938 145.828125 254.664062 145.9375 C 254.222656 146.09375 253.671875 146.199219 253.046875 146.257812 C 252.425781 146.320312 251.730469 146.339844 250.988281 146.339844 C 250.933594 146.339844 250.875 146.339844 250.820312 146.339844 C 250.820312 146.238281 250.617188 146.148438 250.335938 146.140625 C 250.039062 146.128906 249.769531 146.210938 249.734375 146.320312 L 249.734375 146.324219 C 248.554688 146.296875 247.523438 146.21875 246.804688 146.011719 Z M 269.402344 221.753906 L 262.984375 221.753906 C 262.957031 221.753906 262.933594 221.757812 262.90625 221.761719 L 265.449219 213.4375 C 265.472656 213.441406 265.496094 213.445312 265.519531 213.445312 L 266.101562 213.445312 C 267.070312 215.484375 268.476562 219.210938 269.402344 221.753906 Z M 262.683594 260.335938 C 262.660156 260.332031 262.632812 260.328125 262.605469 260.328125 L 251.191406 260.328125 C 251.164062 260.328125 251.140625 260.332031 251.113281 260.335938 L 253.660156 252.011719 C 253.683594 252.015625 253.707031 252.019531 253.734375 252.019531 L 265.082031 252.019531 C 265.109375 252.019531 265.136719 252.015625 265.164062 252.011719 Z M 265.554688 250.691406 C 265.53125 250.691406 265.503906 250.683594 265.480469 250.683594 L 254.140625 250.683594 C 254.113281 250.683594 254.089844 250.6875 254.0625 250.691406 L 256.558594 242.53125 C 256.648438 242.558594 256.746094 242.578125 256.863281 242.585938 C 257.757812 242.640625 259.457031 242.507812 260.683594 242.375 L 267.953125 242.375 C 267.980469 242.375 268.007812 242.371094 268.035156 242.367188 Z M 268.429688 241.046875 C 268.402344 241.046875 268.375 241.042969 268.347656 241.042969 L 263.328125 241.042969 C 263.519531 240.789062 263.695312 240.503906 263.824219 240.195312 C 264.273438 239.113281 261.789062 237.445312 261.789062 237.445312 C 261.789062 237.445312 261.582031 235.304688 261.371094 232.734375 L 270.824219 232.734375 C 270.847656 232.734375 270.875 232.726562 270.90625 232.726562 Z M 271.296875 231.40625 C 271.269531 231.402344 271.246094 231.398438 271.222656 231.398438 L 261.265625 231.398438 C 261.175781 230.210938 261.09375 228.992188 261.03125 227.898438 L 262.503906 223.082031 C 262.527344 223.085938 262.550781 223.089844 262.574219 223.089844 L 269.882812 223.089844 C 270.113281 223.742188 270.277344 224.203125 270.328125 224.371094 C 270.460938 224.78125 271.074219 227.101562 271.792969 229.746094 Z M 274.863281 213.445312 L 276.5625 213.445312 C 276.589844 213.445312 276.617188 213.441406 276.644531 213.4375 L 275.808594 216.246094 C 275.484375 215.367188 275.160156 214.425781 274.863281 213.445312 Z M 277.035156 212.117188 C 277.011719 212.117188 276.988281 212.109375 276.960938 212.109375 L 274.476562 212.109375 C 273.839844 209.785156 273.390625 207.351562 273.445312 205.214844 C 273.457031 204.710938 273.5 204.242188 273.566406 203.804688 L 279.429688 203.804688 C 279.457031 203.804688 279.484375 203.796875 279.511719 203.796875 Z M 279.902344 202.476562 C 279.878906 202.472656 279.855469 202.46875 279.828125 202.46875 L 273.84375 202.46875 C 274.582031 199.742188 276.105469 197.882812 276.386719 194.160156 L 282.300781 194.160156 C 282.328125 194.160156 282.351562 194.15625 282.378906 194.152344 L 279.902344 202.476562 " fill-opacity="1" fill-rule="nonzero"/><path fill="#7b7b7b" d="M 269.832031 264.25 C 269.011719 264.085938 250.621094 261.945312 250.621094 261.945312 L 250.664062 261.804688 L 248.90625 261.804688 L 248.863281 261.945312 C 248.863281 261.945312 263.136719 263.921875 265.109375 264.25 C 267.082031 264.578125 270.203125 264.90625 270.53125 264.699219 C 271.191406 264.289062 270.65625 264.414062 269.832031 264.25 Z M 282.890625 264.25 C 282.078125 264.085938 263.964844 261.945312 263.964844 261.945312 L 264.003906 261.804688 L 262.246094 261.804688 L 262.207031 261.945312 L 262.230469 261.945312 C 262.230469 261.945312 276.292969 263.921875 278.234375 264.25 C 280.179688 264.578125 283.253906 264.90625 283.578125 264.699219 C 284.222656 264.289062 283.699219 264.414062 282.890625 264.25 " fill-opacity="1" fill-rule="nonzero"/><path fill="#86a8b7" d="M 267.617188 231.441406 L 267.59375 231.398438 L 261.265625 231.398438 C 261.175781 230.210938 261.09375 228.992188 261.03125 227.898438 L 261.117188 227.621094 L 260.59375 227.847656 L 255.195312 225.871094 L 256.816406 220.125 L 263.65625 218.148438 L 265.449219 213.4375 L 261.316406 210.0625 L 263.476562 209.34375 L 261.136719 204.136719 L 256.816406 205.753906 L 255.609375 205.023438 C 255.277344 207.203125 255.265625 209.179688 256.1875 209.902344 C 256.1875 209.902344 254.832031 221.128906 254.921875 225.273438 C 255.011719 229.421875 255.148438 238.617188 255.28125 239.609375 C 255.320312 239.875 255.410156 240.085938 255.519531 240.25 L 254.621094 243.175781 L 255.554688 242.578125 L 256.300781 243.375 L 256.558594 242.53125 C 256.648438 242.558594 256.746094 242.578125 256.863281 242.585938 C 257.757812 242.640625 259.457031 242.507812 260.683594 242.375 L 263.917969 242.375 L 258.074219 235.933594 L 261.503906 234.316406 C 261.460938 233.820312 261.417969 233.285156 261.371094 232.734375 L 264.875 232.734375 Z M 262.835938 259.828125 L 262.683594 260.335938 C 262.660156 260.332031 262.632812 260.328125 262.605469 260.328125 L 251.191406 260.328125 C 251.164062 260.328125 251.140625 260.332031 251.113281 260.335938 L 253.613281 252.160156 L 252.070312 251.488281 L 248.902344 261.8125 L 250.660156 261.8125 L 250.710938 261.65625 C 250.734375 261.65625 250.757812 261.660156 250.785156 261.660156 L 262.210938 261.660156 C 262.238281 261.660156 262.265625 261.65625 262.292969 261.65625 L 262.246094 261.8125 L 263.851562 261.8125 L 263.65625 260.003906 Z M 246.246094 158.484375 L 245.875 167.757812 Z M 246.246094 158.484375 " fill-opacity="1" fill-rule="nonzero"/><path fill="#d9d9d9" d="M 256.453125 143.632812 L 256.464844 143.578125 C 256.523438 143.351562 256.363281 143.148438 256.078125 143.035156 C 256.113281 142.453125 255.832031 142.023438 255.367188 142.015625 L 247.808594 141.933594 C 247.339844 141.929688 246.832031 142.355469 246.566406 142.929688 C 246.230469 143.035156 245.96875 143.226562 245.902344 143.449219 C 245.898438 143.449219 245.890625 143.445312 245.886719 143.445312 C 245.796875 143.445312 245.707031 143.519531 245.6875 143.609375 L 245.425781 144.664062 L 245.421875 144.679688 C 245.367188 144.898438 245.355469 145.097656 245.390625 145.277344 C 245.449219 145.59375 245.636719 145.835938 245.917969 146.015625 C 246.136719 146.15625 246.410156 146.265625 246.730469 146.351562 L 246.746094 145.992188 C 246.347656 145.871094 246.054688 145.707031 245.882812 145.503906 C 245.796875 145.394531 245.738281 145.277344 245.714844 145.144531 C 245.6875 145.007812 245.695312 144.859375 245.738281 144.679688 L 245.742188 144.664062 L 245.746094 144.664062 L 245.871094 144.144531 C 245.941406 144.234375 246.050781 144.308594 246.1875 144.363281 C 246.152344 144.890625 246.378906 145.289062 246.769531 145.363281 L 246.855469 143.246094 C 246.867188 142.980469 247.0625 142.773438 247.292969 142.78125 L 255.414062 143.105469 C 255.644531 143.113281 255.824219 143.335938 255.8125 143.601562 L 255.78125 144.4375 C 255.875 144.402344 255.964844 144.363281 256.042969 144.316406 L 255.917969 144.761719 L 255.917969 144.765625 C 255.878906 144.910156 255.820312 145.035156 255.753906 145.148438 L 255.734375 145.628906 C 255.972656 145.394531 256.148438 145.105469 256.234375 144.773438 L 256.234375 144.769531 L 256.511719 143.789062 C 256.53125 143.71875 256.503906 143.660156 256.453125 143.632812 Z M 243.308594 163.652344 C 242.902344 165.050781 242.542969 167.125 243.355469 167.347656 C 243.820312 167.476562 244.375 167.769531 244.765625 167.996094 L 245.875 167.757812 L 246.246094 158.484375 L 245.03125 162.714844 C 244.246094 162.675781 243.527344 162.90625 243.308594 163.652344 " fill-opacity="1" fill-rule="nonzero"/><path fill="#86a8b7" d="M 226.953125 263.535156 C 225.058594 263.445312 212.496094 261.777344 212.496094 261.777344 C 212.496094 261.777344 214.304688 258.441406 214.9375 256.863281 C 215.570312 255.285156 215.90625 249.453125 216.269531 246.660156 C 216.628906 243.863281 215.527344 240.054688 215.574219 237.492188 C 215.628906 234.507812 214.082031 228.535156 214.398438 228.21875 C 215.210938 227.226562 214.847656 224.8125 215.253906 224.542969 C 215.660156 224.269531 220.449219 222.695312 220.765625 222.378906 C 221.082031 222.0625 221.195312 217.078125 221.558594 215.90625 C 221.917969 214.734375 222.199219 212.761719 220.3125 213.226562 C 219.523438 213.421875 218.957031 215.347656 219.003906 216.023438 C 219.046875 216.699219 217.789062 220.367188 217.335938 220.277344 C 216.886719 220.1875 210.410156 220.933594 209.914062 221.023438 C 209.414062 221.113281 209.875 220.53125 209.964844 220.171875 C 210.054688 219.808594 211.140625 219.496094 211.546875 218.773438 C 211.953125 218.050781 213.671875 215.933594 213.808594 214.625 C 213.941406 213.316406 211.730469 211.0625 209.921875 210.75 C 208.113281 210.433594 206.125 211.832031 205.359375 214.085938 C 204.589844 216.339844 205.898438 218.910156 206.082031 219.089844 C 206.261719 219.269531 205.640625 220.863281 205.640625 220.863281 C 205.640625 220.863281 202.375 221.65625 200.839844 222.109375 C 199.304688 222.558594 199.710938 226.527344 199.710938 226.527344 C 199.710938 226.527344 200.207031 230.175781 200.207031 232.117188 C 200.207031 234.054688 199.890625 236.445312 199.53125 238.652344 C 199.46875 239.027344 199.496094 239.308594 199.585938 239.527344 C 199.046875 239.703125 198.5625 239.996094 198.167969 240.375 C 197.507812 241.015625 197.097656 241.902344 197.101562 242.882812 C 197.101562 242.980469 197.179688 243.058594 197.277344 243.0625 L 197.277344 248.921875 L 197.285156 248.921875 C 197.3125 249.296875 198.539062 249.605469 200.136719 249.664062 C 199.914062 252.519531 199.480469 256.542969 199.257812 257.132812 C 198.988281 257.855469 195.871094 261.824219 195.914062 261.824219 C 199.03125 262.949219 215.480469 264.933594 216.699219 265.066406 C 217.917969 265.203125 219.953125 264.84375 219.726562 264.527344 C 219.5 264.210938 206.984375 262.8125 206.035156 262.589844 C 205.085938 262.363281 200.523438 261.824219 200.613281 261.824219 C 202.511719 260.515625 204.589844 256.1875 205.269531 255.375 C 205.945312 254.566406 207.707031 247.351562 208.203125 247.53125 C 208.703125 247.710938 210.824219 255.917969 210.328125 256.910156 C 209.832031 257.902344 207.074219 261.824219 207.074219 261.824219 C 207.074219 261.824219 222.976562 264.03125 224.921875 264.257812 C 226.863281 264.480469 231.609375 264.707031 232.152344 264.4375 C 232.691406 264.167969 228.851562 263.625 226.953125 263.535156 Z M 198.421875 240.632812 C 198.796875 240.269531 199.261719 239.992188 199.785156 239.839844 C 200.425781 240.492188 201.90625 240.144531 201.972656 240.675781 C 202 240.886719 201.875 241.378906 201.683594 242.035156 C 201.371094 242.015625 201.039062 242.007812 200.695312 242.007812 C 199.226562 242.007812 197.976562 242.179688 197.5 242.421875 C 197.601562 241.730469 197.933594 241.109375 198.421875 240.632812 " fill-opacity="1" fill-rule="nonzero"/><path fill="#7b7b7b" d="M 226.953125 263.535156 C 225.203125 263.453125 214.363281 262.023438 212.707031 261.804688 L 207.085938 261.804688 C 207.078125 261.816406 207.074219 261.824219 207.074219 261.824219 C 207.074219 261.824219 222.976562 264.03125 224.921875 264.257812 C 226.863281 264.480469 231.609375 264.707031 232.152344 264.4375 C 232.691406 264.167969 228.851562 263.625 226.953125 263.535156 Z M 206.035156 262.589844 C 205.085938 262.363281 200.523438 261.824219 200.613281 261.824219 C 200.621094 261.816406 200.628906 261.8125 200.636719 261.804688 L 195.925781 261.804688 C 195.917969 261.816406 195.914062 261.824219 195.914062 261.824219 C 199.03125 262.949219 215.480469 264.933594 216.699219 265.066406 C 217.917969 265.203125 219.953125 264.84375 219.726562 264.527344 C 219.5 264.210938 206.984375 262.8125 206.035156 262.589844 " fill-opacity="1" fill-rule="nonzero"/><path fill="#202b38" d="M 225.160156 203.457031 C 225.160156 203.457031 226.128906 202.558594 226.335938 201.960938 C 226.425781 201.800781 226.519531 200.242188 226.472656 199.757812 C 226.449219 199.734375 226.222656 199.484375 226.152344 199.046875 C 226.128906 198.886719 225.714844 197.761719 226.40625 197.53125 C 226.40625 197.53125 226.703125 195.761719 227.808594 195.140625 C 228.914062 194.523438 230.664062 194.199219 231.882812 195.1875 C 233.101562 196.175781 233.285156 197.597656 232.800781 198.953125 C 232.710938 199.183594 232.640625 199.527344 232.550781 199.828125 C 232.457031 200.125 232.367188 200.769531 231.90625 201.320312 C 231.445312 201.871094 230.339844 203.410156 229.925781 203.25 C 229.925781 203.226562 229.464844 204.097656 229.398438 204.257812 C 229.375 204.304688 229.71875 204.375 229.855469 204.765625 C 229.855469 204.765625 230.6875 204.601562 231.03125 204.96875 C 231.054688 204.96875 231.351562 204.351562 232.757812 204.351562 C 234.160156 204.351562 234.714844 204.488281 235.128906 204.601562 C 235.128906 204.601562 236.460938 204.625 236.714844 204.601562 C 236.96875 204.578125 236.992188 204.785156 236.992188 204.785156 L 239.085938 204.765625 C 239.085938 204.765625 238.738281 202.902344 238.761719 200.792969 C 238.785156 200.378906 238.464844 197.578125 238.347656 197.003906 C 238.234375 196.429688 238.347656 195.714844 238.304688 195.394531 C 238.257812 195.074219 237.636719 194.566406 237.613281 194.339844 C 237.589844 194.109375 237.429688 193.304688 237.660156 193.167969 C 237.890625 193.03125 237.957031 192.871094 238.648438 193.144531 C 238.648438 193.097656 239.386719 192.5 239.59375 192.480469 C 239.800781 192.457031 240.121094 192.410156 240.328125 192.546875 C 240.535156 192.683594 240.351562 193.054688 240.421875 193.121094 C 240.488281 193.191406 240.925781 193.097656 241.042969 193.257812 C 241.15625 193.421875 241.019531 193.765625 241.066406 193.832031 C 241.109375 193.902344 241.433594 193.878906 241.480469 194.0625 C 241.523438 194.246094 241.296875 194.429688 241.320312 194.523438 C 241.339844 194.613281 241.546875 194.753906 241.523438 194.9375 C 241.503906 195.121094 240.996094 195.417969 240.835938 195.578125 C 240.671875 195.738281 240.28125 196.039062 240.03125 196.085938 C 240.050781 196.0625 240.558594 198.425781 241.089844 200.285156 C 241.617188 202.144531 242.03125 204.765625 242.078125 205.0625 C 242.125 205.359375 242.308594 206.441406 242.167969 206.691406 C 242.03125 206.945312 241.132812 207.222656 240.652344 207.242188 C 240.167969 207.265625 237.222656 207.792969 236.945312 207.863281 C 236.945312 207.886719 236.992188 208.140625 236.855469 208.183594 C 236.714844 208.230469 233.65625 208.667969 233.285156 208.851562 C 232.917969 209.035156 232.273438 209.585938 232.226562 209.769531 C 232.179688 209.953125 232.527344 211.355469 232.226562 212.570312 C 231.929688 213.789062 231.398438 214.613281 231.398438 215.027344 C 231.398438 215.441406 231.007812 217.023438 232.179688 219.183594 C 232.664062 220.011719 232.503906 221.320312 232.503906 221.320312 C 232.503906 221.320312 234.621094 224.28125 234.921875 226.785156 C 235.21875 229.285156 235.058594 231.308594 234.691406 232.984375 C 234.320312 234.660156 233.148438 238.699219 233.011719 239.941406 C 232.871094 241.179688 232.574219 243.773438 232.433594 244.578125 C 232.296875 245.382812 232.203125 249.171875 232.273438 254.359375 C 232.34375 259.550781 232.042969 262.488281 231.929688 262.558594 C 231.8125 262.628906 230.753906 262.765625 230.753906 262.765625 C 230.753906 262.765625 231.191406 263.15625 231.101562 263.660156 C 231.054688 263.9375 230.730469 264.097656 229.558594 263.984375 C 229.535156 263.984375 229.417969 264.488281 228.546875 264.535156 C 227.671875 264.578125 226.566406 264.371094 226.519531 264.257812 C 226.472656 264.144531 226.3125 262.765625 226.660156 262.421875 C 226.636719 262.445312 226.058594 262.097656 226.035156 261.824219 C 226.015625 261.546875 226.773438 248.140625 227.09375 247.21875 C 227.417969 246.300781 227.992188 243.914062 227.992188 242.375 C 227.992188 240.835938 228.039062 237.117188 228.152344 235.875 C 228.269531 234.636719 227.738281 231.535156 227.992188 229.101562 C 227.96875 229.078125 227.117188 230.824219 226.382812 231.671875 C 226.222656 231.835938 224.519531 235.992188 223.78125 238.21875 C 223.042969 240.445312 222.101562 243.339844 222.101562 243.339844 C 222.101562 243.339844 222.195312 248.023438 222.007812 252.042969 C 221.824219 256.058594 221.640625 259.367188 221.6875 259.710938 C 221.734375 260.054688 221.089844 260.285156 221.089844 260.285156 C 221.089844 260.285156 221.226562 261.386719 221.113281 261.824219 C 220.996094 262.261719 220.167969 262.878906 220.167969 262.878906 C 220.167969 262.878906 220.121094 264.167969 219.109375 264.304688 C 218.097656 264.441406 217.128906 264.464844 215.980469 263.683594 C 215.679688 263.429688 215.726562 263.132812 215.957031 262.878906 C 216.1875 262.628906 217.0625 262.121094 217.0625 262.121094 C 217.0625 262.121094 217.40625 261.480469 218.027344 261.113281 C 218.074219 261.089844 216.234375 260.605469 216.164062 260.492188 C 216.09375 260.378906 216.648438 250.183594 217.152344 247.65625 C 217.5 246.070312 217.292969 242.464844 217.5 241.640625 C 217.707031 240.8125 218.28125 239.207031 218.464844 236.542969 C 218.648438 233.878906 219.363281 228.804688 220.46875 226.53125 C 221.179688 225.085938 221.410156 222.789062 221.6875 222.671875 C 221.710938 222.695312 221.59375 217.804688 221.480469 216.726562 C 221.363281 215.648438 220.882812 213.257812 221.113281 212.066406 C 221.136719 212.042969 220.859375 211.925781 220.859375 211.925781 C 220.859375 211.925781 219.914062 214.199219 219.179688 215.300781 C 219.15625 215.324219 219.203125 216.863281 218.71875 218.632812 C 218.234375 220.398438 217.132812 223.914062 217.132812 224.511719 C 217.132812 224.808594 217.222656 225.519531 217.132812 225.84375 C 217.039062 226.164062 216.417969 227.058594 216.324219 227.335938 C 216.324219 227.3125 216.601562 227.449219 216.578125 227.679688 C 216.554688 227.65625 216.855469 227.75 216.785156 228.277344 C 216.785156 228.300781 217.109375 228.484375 216.945312 228.871094 C 216.832031 229.078125 215.726562 229.769531 215.519531 229.816406 C 215.3125 229.859375 214.160156 228.941406 214.023438 228.597656 C 213.886719 228.253906 213.910156 228.113281 214.117188 227.679688 C 214.324219 227.242188 215.425781 224.992188 215.542969 224.761719 C 215.65625 224.535156 215.726562 221.363281 215.839844 219.367188 C 215.957031 217.367188 216.441406 215.1875 216.578125 214.75 C 216.714844 214.316406 218.050781 210.6875 218.050781 210.6875 C 218.050781 210.6875 217.753906 210.113281 217.980469 209.585938 C 218.050781 209.425781 218.582031 206.945312 219.0625 206.1875 C 219.546875 205.429688 220.351562 204.761719 220.8125 204.761719 C 221.273438 204.761719 223.527344 204.601562 224.21875 204.144531 C 224.242188 204.121094 224.472656 203.546875 225.160156 203.457031 " fill-opacity="1" fill-rule="nonzero"/><path fill="#472020" d="M 295.699219 222.753906 C 295.699219 222.753906 296.160156 221.9375 296.015625 221.316406 C 295.871094 220.695312 295.511719 220.167969 295.511719 220.167969 C 295.511719 220.167969 295.367188 218.46875 294.667969 216.335938 C 294.476562 215.808594 293.253906 209.847656 291.5 205.683594 C 291.238281 205.179688 290.109375 203.167969 289.894531 201.5625 C 289.679688 199.960938 288.550781 198.640625 286.628906 192.609375 C 286.605469 192.609375 287.160156 192.632812 287.351562 192.609375 C 287.542969 192.585938 288.140625 191.484375 288.359375 191.242188 C 288.574219 191.003906 287.878906 188.347656 287.949219 187.628906 C 287.949219 187.605469 288.453125 187.390625 288.597656 187.195312 C 288.742188 187.003906 288.453125 186.574219 288.453125 186.574219 C 288.453125 186.574219 288.40625 180.875 287.351562 176.734375 C 287.328125 176.734375 286.988281 174.386719 285.839844 172.183594 C 285.863281 172.207031 284.644531 167.140625 283.34375 165.863281 C 281.878906 164.429688 279.8125 163.925781 279.121094 163.710938 C 278.421875 163.492188 277.078125 163.015625 277.078125 163.015625 C 277.078125 163.015625 276.695312 162.367188 276.742188 161.769531 C 276.742188 161.722656 277.484375 160.046875 277.800781 159.46875 C 278.113281 158.894531 278.230469 156.238281 277.65625 155.375 C 277.078125 154.515625 276.167969 153.796875 274.128906 153.84375 C 272.089844 153.890625 271.128906 154.585938 270.769531 155.425781 C 270.410156 156.261719 270.121094 156.621094 270.09375 157.003906 C 270.070312 157.386719 270.097656 157.9375 270.070312 158.203125 C 270.070312 158.179688 269.808594 158.609375 269.375 159.039062 C 269.234375 159.230469 269.328125 159.496094 269.519531 159.566406 C 269.710938 159.636719 269.902344 159.664062 269.902344 159.664062 C 269.902344 159.664062 269.953125 159.949219 269.808594 160.117188 C 269.664062 160.285156 269.6875 160.574219 269.808594 160.667969 C 269.785156 160.667969 269.6875 160.957031 269.761719 161.097656 C 269.832031 161.242188 269.925781 161.363281 269.882812 161.480469 C 269.832031 161.601562 269.472656 162.082031 269.882812 162.441406 C 270.289062 162.800781 270.671875 162.847656 270.671875 162.847656 C 270.671875 162.847656 268.847656 163.0625 268.007812 163.160156 C 267.625 163.183594 266.015625 163.0625 265.105469 163.277344 C 264.191406 163.492188 263.691406 163.542969 262.65625 164.089844 C 262.65625 164.117188 259.535156 164.019531 258.097656 164.066406 C 258.074219 164.117188 255.839844 162.105469 255.21875 161.578125 C 254.59375 161.050781 254.042969 160.117188 253.824219 159.613281 C 253.609375 159.113281 252.890625 159.230469 252.890625 159.230469 C 252.890625 159.230469 252.53125 158.800781 252.480469 158.511719 C 252.433594 158.226562 252.625 157.292969 252.289062 157.21875 C 251.953125 157.148438 251.59375 157.460938 251.59375 157.460938 C 251.59375 157.460938 250.796875 157.019531 250.460938 156.875 C 250.125 156.730469 249.53125 156.535156 249.21875 156.628906 C 248.90625 156.726562 248.679688 157.148438 248.785156 157.332031 C 248.785156 157.332031 248.5 157.507812 248.402344 157.746094 C 248.304688 157.988281 248.421875 158.160156 248.421875 158.160156 C 248.421875 158.160156 248.027344 158.503906 248.195312 158.839844 C 248.21875 158.816406 247.972656 159.328125 248.203125 159.527344 C 248.539062 159.816406 248.855469 159.921875 248.96875 160.003906 C 249.253906 160.199219 250.609375 161.148438 251.042969 161.242188 C 251.019531 161.265625 252.074219 163.230469 253.203125 164.523438 C 254.328125 165.816406 255.21875 166.867188 255.21875 166.867188 C 255.21875 166.867188 255.839844 167.898438 256.730469 168.136719 C 257.617188 168.378906 258.578125 168.378906 259.34375 168.664062 C 260.113281 168.953125 263.976562 169 264.863281 169.597656 C 265.753906 170.199219 269.375 181.402344 269.425781 181.691406 C 269.472656 181.976562 269.328125 187.054688 269.351562 187.316406 C 269.375 187.582031 269.542969 187.652344 269.542969 187.652344 C 269.542969 187.652344 269.738281 198.066406 269.925781 200.867188 C 270.121094 203.667969 271.082031 207.308594 271.082031 207.308594 C 271.082031 207.308594 270.386719 212.554688 271.441406 216.074219 C 271.535156 216.40625 271.632812 220.359375 272.304688 222.585938 C 272.28125 222.539062 272.421875 225.027344 272.519531 225.433594 C 272.617188 225.839844 273.625 225.792969 273.625 225.792969 C 273.625 225.792969 272.617188 228.308594 272.519531 228.761719 C 272.421875 229.21875 272.425781 229.984375 272.625 230.078125 C 274.1875 230.832031 277.070312 230.339844 277.746094 229.96875 C 277.996094 229.832031 278.105469 228.777344 277.746094 228.035156 C 277.71875 228.058594 277.605469 226.152344 277.34375 225.289062 C 277.34375 225.265625 278.804688 225.21875 278.832031 224.691406 C 278.855469 224.164062 278.925781 223.472656 278.710938 223.253906 C 278.710938 223.230469 278.230469 218.273438 278.304688 215.378906 C 278.375 212.480469 277.246094 209.679688 277.273438 209.273438 C 277.296875 208.867188 277.703125 204.699219 277.65625 201.707031 C 277.605469 198.714844 277.222656 191.027344 277.222656 191.027344 C 277.222656 191.027344 280.101562 196.4375 280.773438 198.257812 C 281.449219 200.078125 282.910156 202.785156 284.0625 204.9375 C 285.214844 207.09375 285.625 208.363281 285.625 208.363281 C 285.625 208.363281 288.335938 219.902344 288.984375 221.53125 C 288.957031 221.601562 288.695312 221.84375 289.128906 222.871094 C 289.558594 223.902344 289.703125 224.023438 290.039062 224.046875 C 290.375 224.070312 290.613281 224.070312 290.613281 224.070312 C 290.613281 224.070312 290.664062 224.859375 290.566406 225.265625 C 290.46875 225.671875 290.328125 226.511719 289.941406 227.519531 C 289.558594 228.523438 290.085938 230.390625 290.589844 230.703125 C 291.09375 231.011719 292.871094 230.796875 294.019531 229.625 C 295.171875 228.453125 295.511719 227.710938 295.484375 225.699219 C 295.503906 225.714844 295.804688 225.824219 295.894531 225.554688 C 295.988281 225.265625 296.109375 224.164062 296.132812 223.734375 C 296.160156 223.304688 295.699219 222.753906 295.699219 222.753906 Z M 285.046875 188.441406 C 284.375 187.507812 283.726562 184.992188 283.726562 184.992188 C 283.726562 184.992188 283.917969 184.730469 283.75 184.445312 C 283.582031 184.15625 282.765625 181.640625 282.71875 181.089844 C 282.671875 180.542969 281.253906 176.972656 281.132812 175.945312 C 281.015625 174.914062 281.808594 173.214844 281.808594 173.214844 C 281.949219 175.082031 284.132812 179.75 284.132812 179.796875 C 284.160156 181.113281 284.855469 182.550781 285.023438 183.054688 C 285.191406 183.558594 285.503906 186.167969 285.453125 186.8125 C 285.40625 187.460938 285.671875 187.460938 285.671875 187.460938 C 285.671875 187.460938 285.644531 187.769531 285.644531 187.796875 C 285.359375 187.9375 285.046875 188.464844 285.046875 188.441406 Z M 286.101562 190.714844 C 286.101562 190.742188 285.644531 189.757812 285.644531 189.757812 C 285.644531 189.757812 286.339844 189.902344 286.484375 189.902344 C 286.628906 189.902344 287.015625 190.597656 287.015625 190.597656 C 287.015625 190.597656 286.558594 191.003906 286.535156 191.363281 C 286.511719 191.363281 286.460938 190.621094 286.101562 190.714844 " fill-opacity="1" fill-rule="nonzero"/><path fill="#472020" d="M 285.914062 188.597656 C 285.46875 188.597656 285.09375 188.988281 285.074219 189.464844 L 284.949219 192.710938 C 284.925781 192.710938 284.902344 192.707031 284.875 192.707031 L 274.367188 192.707031 C 274.34375 192.707031 274.324219 192.710938 274.300781 192.710938 L 274.445312 189.464844 C 274.46875 188.988281 274.125 188.597656 273.679688 188.597656 C 273.234375 188.597656 272.855469 188.988281 272.832031 189.464844 L 269.367188 263.816406 C 269.34375 264.292969 269.707031 264.679688 270.175781 264.679688 C 270.640625 264.679688 271.039062 264.292969 271.058594 263.816406 L 271.253906 259.59375 C 271.277344 259.597656 271.300781 259.601562 271.324219 259.601562 L 282.300781 259.601562 C 282.328125 259.601562 282.351562 259.597656 282.378906 259.59375 L 282.214844 263.816406 C 282.195312 264.292969 282.5625 264.679688 283.03125 264.679688 C 283.5 264.679688 283.890625 264.292969 283.910156 263.816406 L 286.6875 189.464844 C 286.707031 188.988281 286.359375 188.597656 285.914062 188.597656 Z M 283.429688 230.191406 L 272.664062 230.191406 C 272.636719 230.191406 272.617188 230.195312 272.59375 230.199219 L 272.960938 222.109375 C 272.984375 222.113281 273.007812 222.117188 273.03125 222.117188 L 283.742188 222.117188 C 283.769531 222.117188 283.792969 222.113281 283.820312 222.109375 L 283.507812 230.199219 C 283.480469 230.195312 283.457031 230.191406 283.429688 230.191406 Z M 283.457031 231.480469 L 283.148438 239.570312 C 283.121094 239.566406 283.097656 239.5625 283.070312 239.5625 L 272.234375 239.5625 C 272.210938 239.5625 272.1875 239.566406 272.164062 239.570312 L 272.535156 231.480469 C 272.554688 231.484375 272.578125 231.488281 272.605469 231.488281 L 283.382812 231.488281 C 283.410156 231.488281 283.433594 231.484375 283.457031 231.480469 Z M 283.792969 220.820312 L 273.089844 220.820312 C 273.066406 220.820312 273.042969 220.824219 273.019531 220.828125 L 273.386719 212.738281 C 273.410156 212.742188 273.433594 212.746094 273.457031 212.746094 L 284.101562 212.746094 C 284.128906 212.746094 284.152344 212.742188 284.179688 212.738281 L 283.871094 220.828125 C 283.84375 220.824219 283.820312 220.820312 283.792969 220.820312 Z M 284.152344 211.449219 L 273.515625 211.449219 C 273.492188 211.449219 273.46875 211.453125 273.445312 211.453125 L 273.8125 203.367188 C 273.835938 203.371094 273.859375 203.375 273.882812 203.375 L 284.464844 203.375 C 284.492188 203.375 284.515625 203.371094 284.539062 203.367188 L 284.230469 211.457031 C 284.203125 211.453125 284.179688 211.449219 284.152344 211.449219 Z M 272.105469 240.851562 C 272.128906 240.855469 272.152344 240.859375 272.175781 240.859375 L 283.019531 240.859375 C 283.046875 240.859375 283.074219 240.855469 283.097656 240.851562 L 282.789062 248.941406 C 282.761719 248.9375 282.738281 248.933594 282.710938 248.933594 L 271.808594 248.933594 C 271.785156 248.933594 271.761719 248.9375 271.738281 248.941406 Z M 274.308594 194.003906 L 284.824219 194.003906 C 284.851562 194.003906 284.875 193.996094 284.902344 193.996094 L 284.589844 202.085938 C 284.566406 202.082031 284.539062 202.078125 284.515625 202.078125 L 273.941406 202.078125 C 273.917969 202.078125 273.894531 202.082031 273.871094 202.082031 L 274.242188 193.996094 C 274.261719 194 274.285156 194.003906 274.308594 194.003906 Z M 282.351562 258.304688 L 271.382812 258.304688 C 271.359375 258.304688 271.335938 258.308594 271.3125 258.3125 L 271.679688 250.222656 C 271.703125 250.226562 271.726562 250.230469 271.75 250.230469 L 282.660156 250.230469 C 282.6875 250.230469 282.710938 250.226562 282.738281 250.222656 L 282.425781 258.3125 C 282.402344 258.308594 282.375 258.304688 282.351562 258.304688 " fill-opacity="1" fill-rule="nonzero"/><path fill="#383220" d="M 126.566406 174.941406 L 126.460938 173.921875 C 126.453125 173.851562 126.402344 173.792969 126.332031 173.777344 L 126.328125 173.71875 C 126.296875 173.484375 126.042969 173.308594 125.6875 173.234375 C 125.492188 172.652344 125.015625 172.265625 124.511719 172.328125 L 116.398438 173.355469 C 115.898438 173.421875 115.53125 173.914062 115.488281 174.527344 C 115.167969 174.683594 114.972656 174.910156 114.988281 175.140625 C 114.984375 175.140625 114.976562 175.136719 114.972656 175.136719 C 114.875 175.152344 114.8125 175.238281 114.824219 175.332031 L 114.984375 176.417969 L 114.988281 176.417969 C 115.023438 176.703125 115.125 176.953125 115.289062 177.15625 C 115.535156 177.460938 115.902344 177.65625 116.34375 177.777344 C 116.789062 177.894531 117.320312 177.941406 117.914062 177.941406 C 118.625 177.941406 119.433594 177.875 120.296875 177.777344 L 123.691406 211.089844 C 123.710938 211.277344 123.992188 211.40625 124.316406 211.371094 C 124.644531 211.335938 124.894531 211.160156 124.875 210.972656 L 121.480469 177.628906 C 122.800781 177.453125 123.988281 177.242188 124.890625 176.914062 C 125.390625 176.726562 125.804688 176.507812 126.105469 176.21875 C 126.402344 175.929688 126.582031 175.566406 126.578125 175.144531 C 126.578125 175.078125 126.574219 175.011719 126.566406 174.941406 Z M 125.867188 175.972656 C 125.496094 176.332031 124.839844 176.613281 123.988281 176.832031 C 123.242188 177.023438 122.347656 177.171875 121.378906 177.296875 C 121.273438 177.195312 121.066406 177.140625 120.832031 177.164062 C 120.585938 177.1875 120.382812 177.296875 120.304688 177.429688 C 119.429688 177.53125 118.617188 177.597656 117.914062 177.597656 C 117.144531 177.601562 116.507812 177.515625 116.066406 177.316406 C 115.847656 177.21875 115.679688 177.09375 115.554688 176.941406 C 115.433594 176.789062 115.355469 176.605469 115.324219 176.371094 L 115.246094 175.835938 C 115.355469 175.914062 115.503906 175.972656 115.675781 176.007812 C 115.871094 176.589844 116.347656 176.976562 116.851562 176.914062 L 124.964844 175.886719 C 125.46875 175.820312 125.832031 175.328125 125.878906 174.714844 C 125.996094 174.65625 126.097656 174.589844 126.175781 174.515625 L 126.226562 174.976562 C 126.234375 175.035156 126.234375 175.09375 126.234375 175.144531 C 126.234375 175.472656 126.109375 175.730469 125.867188 175.972656 " fill-opacity="1" fill-rule="nonzero"/><path fill="#202020" d="M 256.902344 142.71875 L 256.902344 142.660156 C 256.90625 142.421875 256.679688 142.214844 256.339844 142.09375 C 256.222656 141.492188 255.804688 141.042969 255.296875 141.035156 L 247.117188 140.949219 C 246.613281 140.945312 246.183594 141.386719 246.054688 141.984375 C 245.71875 142.097656 245.492188 142.292969 245.480469 142.523438 C 245.472656 142.523438 245.46875 142.519531 245.460938 142.519531 C 245.367188 142.523438 245.289062 142.597656 245.289062 142.695312 L 245.300781 143.789062 L 245.300781 143.808594 C 245.300781 144.035156 245.34375 144.242188 245.429688 144.429688 C 245.578125 144.757812 245.847656 145.007812 246.199219 145.195312 C 246.722656 145.476562 247.429688 145.636719 248.265625 145.730469 C 248.90625 145.804688 249.621094 145.839844 250.382812 145.859375 L 249.65625 166.199219 C 249.652344 166.316406 249.914062 166.417969 250.242188 166.429688 C 250.566406 166.441406 250.832031 166.355469 250.835938 166.242188 L 251.5625 145.875 C 251.625 145.875 251.6875 145.875 251.746094 145.875 C 253.175781 145.875 254.445312 145.808594 255.382812 145.542969 C 255.851562 145.410156 256.242188 145.222656 256.523438 144.953125 C 256.804688 144.683594 256.96875 144.328125 256.972656 143.902344 L 256.972656 143.898438 L 257.007812 142.878906 C 257.011719 142.808594 256.96875 142.746094 256.902344 142.71875 Z M 256.632812 143.890625 L 256.632812 143.894531 C 256.625 144.238281 256.507812 144.492188 256.285156 144.707031 C 256.121094 144.867188 255.886719 145.003906 255.597656 145.113281 C 255.164062 145.277344 254.597656 145.386719 253.945312 145.449219 C 253.289062 145.511719 252.546875 145.535156 251.746094 145.535156 C 251.6875 145.535156 251.628906 145.53125 251.566406 145.53125 C 251.539062 145.425781 251.296875 145.335938 250.992188 145.324219 C 250.664062 145.3125 250.398438 145.394531 250.394531 145.511719 L 250.394531 145.515625 C 249.117188 145.488281 247.984375 145.40625 247.152344 145.191406 C 246.660156 145.0625 246.273438 144.886719 246.023438 144.664062 C 245.898438 144.550781 245.804688 144.425781 245.742188 144.289062 C 245.675781 144.148438 245.644531 143.992188 245.644531 143.808594 L 245.644531 143.789062 L 245.636719 143.246094 C 245.734375 143.339844 245.875 143.421875 246.039062 143.476562 C 246.15625 144.082031 246.574219 144.53125 247.082031 144.535156 L 255.257812 144.621094 C 255.765625 144.625 256.195312 144.1875 256.324219 143.585938 C 256.449219 143.542969 256.558594 143.492188 256.648438 143.429688 L 256.632812 143.890625 " fill-opacity="1" fill-rule="nonzero"/><path fill="#203d2b" d="M 143.511719 252.351562 C 143.101562 252.199219 142.632812 250.847656 142.632812 250.847656 L 142.632812 250.851562 C 142.472656 250.265625 142.085938 249.589844 141.457031 249.289062 C 141.113281 249.15625 140.730469 249.273438 140.488281 249.558594 C 139.964844 249.371094 138.347656 248.738281 137.292969 247.65625 L 135.234375 252.769531 C 136.441406 252.78125 138.300781 253.40625 138.882812 253.609375 C 138.886719 253.9375 139.1875 254.152344 139.542969 254.289062 C 140.234375 254.476562 140.976562 254.308594 141.457031 254.035156 C 141.898438 253.84375 142.753906 253.515625 143.164062 253.664062 C 144.050781 253.984375 145.480469 255.445312 146.011719 254.097656 C 146.542969 252.75 144.488281 252.71875 143.511719 252.351562 " fill-opacity="1" fill-rule="nonzero"/><path fill="#202b38" d="M 239.636719 192.546875 C 239.445312 192.152344 240.039062 190.855469 240.039062 190.855469 L 240.035156 190.855469 C 240.324219 190.320312 240.511719 189.566406 240.261719 188.917969 C 240.109375 188.582031 239.746094 188.40625 239.375 188.445312 C 239.125 187.949219 238.390625 186.378906 238.375 184.867188 L 233.351562 187.15625 C 234.21875 187.996094 235.132812 189.726562 235.414062 190.273438 C 235.191406 190.515625 235.261719 190.878906 235.421875 191.222656 C 235.792969 191.832031 236.449219 192.222656 236.988281 192.355469 C 237.4375 192.519531 238.28125 192.871094 238.476562 193.257812 C 238.902344 194.101562 238.925781 196.144531 240.242188 195.53125 C 241.558594 194.921875 240.089844 193.488281 239.636719 192.546875 " fill-opacity="1" fill-rule="nonzero"/><path fill="#203d2b" d="M 193.460938 256.679688 C 193.394531 256.3125 191.90625 256.019531 190.070312 256.019531 C 188.234375 256.019531 186.746094 256.3125 186.679688 256.679688 L 186.667969 256.679688 L 186.667969 257.535156 C 186.609375 257.628906 186.546875 257.734375 186.484375 257.84375 C 186.339844 258.101562 186.195312 258.394531 186.085938 258.691406 C 185.976562 258.988281 185.898438 259.289062 185.898438 259.578125 C 185.898438 259.832031 185.960938 260.082031 186.125 260.28125 C 186.234375 260.410156 186.363281 260.503906 186.507812 260.566406 C 186.558594 260.585938 186.613281 260.601562 186.667969 260.613281 L 186.667969 263.480469 L 186.675781 263.480469 C 186.707031 263.929688 188.214844 264.292969 190.070312 264.292969 C 191.925781 264.292969 193.433594 263.929688 193.464844 263.480469 L 193.472656 263.480469 L 193.472656 256.679688 Z M 186.648438 260.234375 C 186.554688 260.195312 186.476562 260.136719 186.402344 260.050781 C 186.304688 259.933594 186.257812 259.777344 186.257812 259.578125 C 186.257812 259.355469 186.320312 259.085938 186.421875 258.816406 C 186.492188 258.628906 186.578125 258.445312 186.667969 258.265625 L 186.667969 260.238281 C 186.660156 260.238281 186.652344 260.234375 186.648438 260.234375 " fill-opacity="1" fill-rule="nonzero"/><path fill="#202b38" d="M 217.636719 228.789062 C 216.976562 228.148438 216.066406 227.753906 215.0625 227.753906 C 214.058594 227.753906 213.144531 228.148438 212.484375 228.789062 C 211.824219 229.429688 211.414062 230.316406 211.414062 231.296875 C 211.414062 231.394531 211.492188 231.472656 211.589844 231.476562 L 211.589844 237.335938 L 211.597656 237.335938 C 211.632812 237.753906 213.144531 238.089844 215.007812 238.089844 C 216.875 238.089844 218.386719 237.753906 218.417969 237.335938 L 218.425781 237.335938 L 218.425781 231.441406 C 218.457031 231.460938 218.488281 231.476562 218.527344 231.476562 C 218.625 231.476562 218.707031 231.394531 218.707031 231.296875 C 218.707031 230.316406 218.296875 229.429688 217.636719 228.789062 Z M 215.007812 230.417969 C 213.539062 230.417969 212.292969 230.59375 211.8125 230.835938 C 211.917969 230.140625 212.246094 229.519531 212.734375 229.046875 C 213.332031 228.46875 214.152344 228.113281 215.0625 228.113281 C 215.972656 228.113281 216.792969 228.46875 217.386719 229.046875 C 217.890625 229.535156 218.226562 230.183594 218.320312 230.902344 C 217.957031 230.625 216.613281 230.417969 215.007812 230.417969 " fill-opacity="1" fill-rule="nonzero"/><g clip-path="url(#fd20c2f768)"><path fill="#7b7b7b" d="M 84.324219 263.679688 L 84.324219 264.671875 C 85.769531 265.023438 87.992188 265.574219 88.410156 265.753906 C 89.035156 266.027344 90.378906 265.863281 90.378906 265.863281 L 88.683594 263.75 L 84.324219 263.679688 " fill-opacity="1" fill-rule="nonzero"/></g><path fill="#95aa81" d="M 200.625 261.8125 C 201.589844 261.144531 202.597656 259.699219 203.449219 258.335938 L 201.90625 256.488281 L 201.761719 251.726562 L 199.957031 251.726562 C 199.726562 254.164062 199.429688 256.675781 199.257812 257.132812 C 198.992188 257.839844 196.015625 261.640625 195.917969 261.8125 L 200.625 261.8125 " fill-opacity="1" fill-rule="nonzero"/><path fill="#383220" d="M 100.980469 263.074219 L 89.242188 263.136719 C 89.109375 263.136719 88.21875 263.433594 88.21875 263.566406 C 88.21875 263.699219 88.328125 263.804688 88.460938 263.804688 L 88.652344 263.804688 L 89.324219 265.621094 C 89.324219 265.777344 89.570312 265.902344 89.875 265.902344 L 98.902344 265.902344 C 99.207031 265.902344 99.9375 265.339844 99.9375 265.183594 L 100.492188 263.785156 C 100.675781 263.761719 100.785156 263.726562 101.035156 263.429688 C 101.09375 263.308594 101.242188 263.082031 100.980469 263.074219 " fill-opacity="1" fill-rule="nonzero"/></svg>