<svg xmlns="http://www.w3.org/2000/svg" xmlns:xlink="http://www.w3.org/1999/xlink" width="500" zoomAndPan="magnify" viewBox="0 0 375 374.999991" height="500" preserveAspectRatio="xMidYMid meet" version="1.0"><defs><clipPath id="af91b3c6c9"><path d="M 118.121094 123.59375 L 257.25 123.59375 L 257.25 262.496094 L 118.121094 262.496094 Z M 118.121094 123.59375 " clip-rule="nonzero"/></clipPath><clipPath id="1538adf86a"><path d="M 159.652344 227.390625 L 218.242188 227.390625 L 218.242188 262.496094 L 159.652344 262.496094 Z M 159.652344 227.390625 " clip-rule="nonzero"/></clipPath><clipPath id="0d1b7d3121"><path d="M 165 112.5 L 199 112.5 L 199 139 L 165 139 Z M 165 112.5 " clip-rule="nonzero"/></clipPath><clipPath id="6f4c4c38ba"><path d="M 178 112.5 L 184 112.5 L 184 125 L 178 125 Z M 178 112.5 " clip-rule="nonzero"/></clipPath></defs><rect x="-37.5" width="450" fill="#ffffff" y="-37.499999" height="449.999989" fill-opacity="1"/><rect x="-37.5" width="450" fill="#ffffff" y="-37.499999" height="449.999989" fill-opacity="1"/><g clip-path="url(#af91b3c6c9)"><path fill="#f0ebe7" d="M 257.25 193.117188 C 257.25 231.433594 226.105469 262.496094 187.6875 262.496094 C 149.265625 262.496094 118.121094 231.433594 118.121094 193.117188 C 118.121094 154.800781 149.265625 123.738281 187.6875 123.738281 C 226.105469 123.738281 257.25 154.800781 257.25 193.117188 " fill-opacity="1" fill-rule="nonzero"/></g><path fill="#382f35" d="M 165.574219 227.394531 C 165.574219 227.394531 157.6875 244.140625 155.226562 254.488281 C 164.914062 259.597656 175.960938 261.625 187.6875 261.625 C 198.566406 261.625 208.863281 260 218.035156 255.558594 C 214.75 244.386719 208.355469 227.394531 208.355469 227.394531 L 165.574219 227.394531 " fill-opacity="1" fill-rule="nonzero"/><path fill="#eae4dd" d="M 193.285156 176.308594 L 171.089844 176.308594 L 171.089844 158.625 L 194.226562 158.5 L 193.285156 176.308594 " fill-opacity="1" fill-rule="nonzero"/><path fill="#f7995a" d="M 174.167969 148.238281 C 173.375 154.792969 176.570312 162.601562 163.082031 165.765625 C 162.460938 171.273438 176.746094 185.351562 181.628906 188.675781 C 186.339844 191.890625 197.492188 185.390625 202.03125 179.644531 C 203.886719 177.289062 202.984375 173.617188 201.546875 166.054688 C 198.636719 165.472656 193.203125 162.640625 192.539062 160.492188 C 191.546875 157.292969 190.464844 151.609375 190.898438 148.339844 L 174.167969 148.238281 " fill-opacity="1" fill-rule="nonzero"/><path fill="#3a3438" d="M 229.308594 220.023438 C 224.867188 223.480469 210.117188 208.230469 210.117188 208.230469 L 206.277344 187.863281 L 211.140625 167.652344 C 211.140625 167.652344 215.496094 169.269531 217.125 173.652344 C 221.5 185.394531 233.910156 215.429688 229.308594 220.023438 " fill-opacity="1" fill-rule="nonzero"/><path fill="#ffffff" d="M 228.738281 206.15625 C 230.53125 212.855469 231.054688 218.277344 229.308594 220.023438 C 224.867188 223.480469 210.117188 208.230469 210.117188 208.230469 C 210.117188 208.230469 225.820312 195.238281 228.738281 206.15625 " fill-opacity="1" fill-rule="nonzero"/><path fill="#382f35" d="M 200.730469 164.917969 C 197.46875 165.390625 190.429688 169.261719 190.429688 169.261719 L 191.539062 184.4375 L 183.117188 171.113281 C 183.117188 171.113281 177.601562 166.085938 175.964844 165.816406 C 167.054688 164.351562 150.386719 167.609375 150.386719 167.609375 C 150.386719 167.609375 159.308594 176.308594 163.082031 186.144531 C 160.851562 190.902344 162.933594 227.914062 161.613281 233.289062 C 160.625 237.3125 159.929688 238.542969 159.363281 241.929688 C 188.742188 243.335938 213.023438 241.433594 212.394531 238.5 C 211.269531 233.285156 209.800781 229.515625 209.40625 223.554688 C 208.800781 214.410156 213.058594 207.363281 215.605469 198.144531 C 216.601562 194.542969 207.894531 186.09375 209.15625 182.742188 C 210.914062 178.078125 211.140625 167.652344 211.140625 167.652344 C 211.140625 167.652344 208.015625 168.027344 200.730469 164.917969 " fill-opacity="1" fill-rule="nonzero"/><path fill="#3a3438" d="M 205.605469 204.765625 L 212.925781 199.523438 L 214.652344 202.351562 L 209.683594 226.246094 L 188.757812 233.1875 L 162.238281 233.914062 L 168.753906 207.796875 L 179.527344 202.691406 L 205.605469 204.765625 " fill-opacity="1" fill-rule="nonzero"/><g clip-path="url(#1538adf86a)"><path fill="#ffffff" d="M 165.574219 227.394531 C 165.574219 227.394531 160.992188 246.703125 159.742188 256.667969 C 168.296875 260.410156 177.746094 262.496094 187.6875 262.496094 C 198.613281 262.496094 208.953125 259.980469 218.152344 255.5 C 215.222656 244.328125 209.835938 227.394531 209.835938 227.394531 L 165.574219 227.394531 " fill-opacity="1" fill-rule="nonzero"/></g><path fill="#f7995a" d="M 194.996094 138.398438 C 199.613281 134.390625 198.121094 142.503906 197.035156 144.617188 C 196.632812 145.394531 195.753906 146.925781 194.746094 147.109375 L 194.996094 138.398438 " fill-opacity="1" fill-rule="nonzero"/><path fill="#f7995a" d="M 168.632812 138.398438 C 164.015625 134.390625 165.507812 142.503906 166.59375 144.617188 C 166.996094 145.394531 168.027344 147.078125 169.035156 147.261719 L 168.632812 138.398438 " fill-opacity="1" fill-rule="nonzero"/><path fill="#f7ac6f" d="M 195.90625 140.53125 C 195.90625 135.222656 196.199219 126.796875 193.910156 123.285156 C 191.246094 119.203125 186.175781 118.828125 181.816406 118.828125 C 177.453125 118.828125 172.382812 119.203125 169.71875 123.285156 C 167.429688 126.796875 167.363281 135.234375 167.722656 140.53125 C 168.179688 147.289062 170.457031 151.929688 175.628906 156.117188 C 177.15625 157.351562 179.820312 158.273438 181.816406 158.304688 C 183.808594 158.273438 186.472656 157.351562 188 156.117188 C 193.171875 151.929688 195.90625 147.289062 195.90625 140.53125 " fill-opacity="1" fill-rule="nonzero"/><path fill="#fabc84" d="M 193.128906 141.3125 C 193.128906 136.308594 194.488281 134.84375 192.328125 131.539062 C 189.816406 127.6875 185.792969 126.589844 181.679688 126.585938 C 177.570312 126.589844 173.808594 127.265625 171.296875 131.117188 C 169.136719 134.421875 169.804688 136.320312 170.140625 141.3125 C 170.574219 147.683594 167.542969 147.71875 175.851562 156.003906 C 177.164062 157.308594 179.800781 158.035156 181.679688 158.0625 C 183.5625 158.035156 186.199219 157.308594 187.507812 156.003906 C 195.996094 147.539062 193.128906 147.683594 193.128906 141.3125 " fill-opacity="1" fill-rule="nonzero"/><path fill="#f48c45" d="M 180.996094 145.875 C 180.789062 145.871094 180.113281 145.792969 180.402344 145.40625 C 180.613281 145.117188 181.078125 145.253906 181.308594 145.429688 C 181.625 145.671875 181.777344 145.929688 182.1875 145.9375 C 182.195312 145.996094 182.195312 146.089844 182.1875 146.144531 C 182.003906 146.167969 181.746094 146.199219 181.558594 146.148438 C 181.386719 146.097656 181.265625 145.859375 181.074219 145.886719 L 180.996094 145.875 " fill-opacity="1" fill-rule="nonzero"/><path fill="#f48c45" d="M 183.378906 145.875 C 183.585938 145.871094 184.261719 145.792969 183.96875 145.40625 C 183.757812 145.117188 183.296875 145.253906 183.066406 145.429688 C 182.75 145.671875 182.597656 145.929688 182.1875 145.9375 C 182.175781 145.996094 182.175781 146.089844 182.1875 146.144531 C 182.371094 146.167969 182.628906 146.199219 182.808594 146.148438 C 182.984375 146.097656 183.105469 145.859375 183.296875 145.886719 L 183.378906 145.875 " fill-opacity="1" fill-rule="nonzero"/><path fill="#5f1b02" d="M 184.679688 134.683594 C 185.738281 133.570312 189.75 133.238281 191.503906 133.699219 C 192.136719 133.863281 192.632812 133.859375 192.699219 134.433594 C 189.320312 133.703125 186.363281 135.28125 184.757812 134.765625 L 184.679688 134.683594 " fill-opacity="1" fill-rule="nonzero"/><path fill="#5f1b02" d="M 185.664062 138.320312 C 185.664062 138.320312 186.09375 136.824219 186.667969 136.648438 C 187.792969 136.304688 191.710938 137.0625 191.710938 137.0625 L 191.175781 139.144531 L 190.40625 137.980469 C 190.40625 137.980469 187.871094 136.992188 187.046875 137.191406 C 186.425781 137.34375 185.664062 138.320312 185.664062 138.320312 " fill-opacity="1" fill-rule="nonzero"/><path fill="#5f1b02" d="M 189.546875 138.164062 C 189.546875 138.777344 188.894531 139.273438 188.085938 139.273438 C 187.28125 139.273438 186.628906 138.777344 186.628906 138.164062 C 186.628906 137.550781 187.28125 137.054688 188.085938 137.054688 C 188.894531 137.054688 189.546875 137.550781 189.546875 138.164062 " fill-opacity="1" fill-rule="nonzero"/><path fill="#ffffff" d="M 190.09375 138.332031 C 190.09375 138.527344 189.679688 138.683594 189.167969 138.683594 C 188.652344 138.683594 188.238281 138.527344 188.238281 138.332031 C 188.238281 138.136719 188.652344 137.980469 189.167969 137.980469 C 189.679688 137.980469 190.09375 138.136719 190.09375 138.332031 " fill-opacity="1" fill-rule="nonzero"/><path fill="#5f1b02" d="M 178.949219 134.683594 C 177.890625 133.570312 173.878906 133.238281 172.125 133.699219 C 171.496094 133.863281 170.996094 133.859375 170.929688 134.433594 C 174.308594 133.703125 177.265625 135.28125 178.871094 134.765625 L 178.949219 134.683594 " fill-opacity="1" fill-rule="nonzero"/><path fill="#5f1b02" d="M 177.964844 138.320312 C 177.964844 138.320312 177.535156 136.824219 176.960938 136.648438 C 175.839844 136.304688 171.917969 137.0625 171.917969 137.0625 L 172.453125 139.144531 L 173.226562 137.980469 C 173.226562 137.980469 175.757812 136.992188 176.578125 137.191406 C 177.203125 137.34375 177.964844 138.320312 177.964844 138.320312 " fill-opacity="1" fill-rule="nonzero"/><path fill="#5f1b02" d="M 174.082031 138.164062 C 174.082031 138.777344 174.738281 139.273438 175.542969 139.273438 C 176.347656 139.273438 177 138.777344 177 138.164062 C 177 137.550781 176.347656 137.054688 175.542969 137.054688 C 174.738281 137.054688 174.082031 137.550781 174.082031 138.164062 " fill-opacity="1" fill-rule="nonzero"/><path fill="#ffffff" d="M 173.535156 138.332031 C 173.535156 138.527344 173.949219 138.683594 174.460938 138.683594 C 174.976562 138.683594 175.390625 138.527344 175.390625 138.332031 C 175.390625 138.136719 174.976562 137.980469 174.460938 137.980469 C 173.949219 137.980469 173.535156 138.136719 173.535156 138.332031 " fill-opacity="1" fill-rule="nonzero"/><path fill="#f68894" d="M 186.851562 148.59375 C 185.183594 149.179688 183.625 148.773438 181.96875 149.230469 C 180.339844 148.78125 178.8125 149.160156 177.167969 148.625 C 177.09375 148.570312 176.964844 148.519531 176.96875 148.550781 C 176.929688 148.535156 176.933594 148.550781 176.972656 148.574219 C 177.316406 150.488281 179.539062 151.863281 181.613281 151.898438 C 181.722656 151.902344 181.875 151.902344 182.007812 151.902344 C 182.140625 151.902344 182.296875 151.902344 182.402344 151.894531 C 184.464844 151.839844 186.527344 150.734375 187.035156 148.53125 C 187.050781 148.523438 186.921875 148.542969 186.851562 148.59375 " fill-opacity="1" fill-rule="nonzero"/><path fill="#f36070" d="M 181.96875 150.132812 C 183.148438 150.144531 186.023438 149.152344 186.425781 148.804688 C 186.855469 148.53125 186.960938 148.078125 187.316406 147.8125 C 187.445312 147.714844 187.535156 147.632812 187.726562 147.597656 C 188.742188 148.621094 182.34375 150.792969 181.96875 150.421875 C 181.96875 150.328125 181.96875 150.230469 181.96875 150.132812 " fill-opacity="1" fill-rule="nonzero"/><path fill="#f36070" d="M 181.96875 150.132812 C 180.792969 150.144531 177.914062 149.152344 177.511719 148.804688 C 177.082031 148.53125 176.980469 148.078125 176.625 147.8125 C 176.492188 147.714844 176.402344 147.632812 176.210938 147.597656 C 175.195312 148.621094 181.59375 150.792969 181.96875 150.421875 C 181.96875 150.328125 181.96875 150.230469 181.96875 150.132812 " fill-opacity="1" fill-rule="nonzero"/><g clip-path="url(#0d1b7d3121)"><path fill="#913000" d="M 194.996094 138.398438 C 196.003906 137.882812 196.660156 137.15625 197.699219 137.597656 C 200.4375 126.644531 196.199219 120.457031 193.910156 118.171875 C 190.457031 114.730469 186.175781 112.5 181.816406 112.5 C 177.453125 112.5 173.175781 114.730469 169.71875 118.171875 C 166.8125 121.070312 163.554688 128.601562 165.996094 137.53125 C 166.851562 137.375 167.726562 137.738281 168.632812 138.398438 C 167.433594 135.925781 168.5625 125.230469 173.6875 124.90625 C 176.085938 122.511719 180.558594 122.292969 182.554688 124.613281 C 185.171875 121.0625 188.300781 121.496094 189.824219 126.570312 C 193.894531 125.703125 196.441406 133.3125 194.996094 138.398438 " fill-opacity="1" fill-rule="nonzero"/></g><g clip-path="url(#6f4c4c38ba)"><path fill="#7c2900" d="M 182.609375 124.277344 C 182.105469 122.300781 180.625 121.738281 179.371094 120.304688 C 177.929688 118.648438 178.019531 116.417969 179.230469 114.664062 C 179.769531 113.886719 180.46875 113.230469 181.152344 112.582031 C 180.378906 113.480469 181.3125 115.515625 181.671875 116.464844 C 182.222656 117.9375 183.308594 119.160156 183.550781 120.761719 C 183.65625 121.464844 183.648438 122.1875 183.203125 122.765625 L 182.609375 124.277344 " fill-opacity="1" fill-rule="nonzero"/></g><path fill="#7c2900" d="M 173.636719 124.3125 C 173.769531 121.710938 168.496094 121.589844 169.425781 118.933594 C 168.359375 120.386719 168.101562 122.421875 169.878906 123.484375 C 170.292969 123.730469 170.765625 123.867188 171.226562 123.988281 C 170.050781 123.597656 168.042969 124.535156 167.535156 122.96875 C 167.402344 125.914062 171.300781 124.332031 172.933594 124.546875 L 173.636719 124.3125 " fill-opacity="1" fill-rule="nonzero"/><path fill="#7c2900" d="M 190.394531 125.355469 C 190.265625 122.753906 195.539062 122.632812 194.609375 119.976562 C 195.675781 121.429688 195.933594 123.464844 194.15625 124.527344 C 193.742188 124.773438 193.269531 124.910156 192.804688 125.03125 C 193.984375 124.640625 195.992188 125.574219 196.5 124.011719 C 196.632812 126.957031 192.734375 125.375 191.101562 125.589844 L 190.394531 125.355469 " fill-opacity="1" fill-rule="nonzero"/><path fill="#f7ac6f" d="M 170.144531 213.277344 L 211.992188 222.785156 C 211.992188 222.785156 194.464844 229.019531 188.394531 230.207031 C 182.386719 231.375 163.984375 232.175781 163.984375 232.175781 C 163.984375 232.175781 156.03125 227.265625 146.785156 188.371094 C 154.5 184.785156 163.082031 186.144531 163.082031 186.144531 L 170.144531 213.277344 " fill-opacity="1" fill-rule="nonzero"/><path fill="#f7ac6f" d="M 218.152344 206.019531 L 206.785156 206.6875 L 211.601562 200.847656 L 218.503906 204.253906 L 218.152344 206.019531 " fill-opacity="1" fill-rule="nonzero"/><path fill="#f7ac6f" d="M 222.339844 206.4375 C 222.339844 206.4375 231.039062 216.621094 229.308594 220.023438 C 227.320312 223.917969 211.992188 222.785156 211.992188 222.785156 L 170.144531 213.277344 L 169 208.890625 L 175.023438 206.550781 L 182.8125 208.175781 L 189.09375 208.640625 L 215.363281 205.742188 L 222.339844 206.4375 " fill-opacity="1" fill-rule="nonzero"/><path fill="#f7995a" d="M 172.179688 215.304688 L 166.433594 218.15625 L 164.828125 192.855469 L 170.144531 213.277344 L 207.53125 221.769531 L 172.179688 215.304688 " fill-opacity="1" fill-rule="nonzero"/><path fill="#f7995a" d="M 219.40625 206.144531 L 215.015625 207.796875 L 206.785156 206.6875 L 215.363281 205.742188 L 219.40625 206.144531 " fill-opacity="1" fill-rule="nonzero"/><path fill="#3a3438" d="M 170.144531 213.277344 C 170.144531 213.277344 162.890625 231.5 161.050781 228.675781 C 157.914062 223.875 152.605469 212.859375 146.785156 188.371094 C 144.921875 183.730469 143.222656 172.132812 150.386719 167.609375 C 156.589844 167.300781 163.261719 186.144531 163.261719 186.144531 L 170.144531 213.277344 " fill-opacity="1" fill-rule="nonzero"/><path fill="#ffffff" d="M 183.117188 171.113281 C 183.117188 171.113281 185.082031 189.289062 179.054688 190.457031 C 170.585938 192.09375 161.042969 165.921875 161.042969 165.921875 L 171.089844 158.625 L 183.117188 171.113281 " fill-opacity="1" fill-rule="nonzero"/><path fill="#ffffff" d="M 190.429688 169.261719 C 190.429688 169.261719 197.050781 187.605469 203.015625 186.15625 C 209.464844 184.59375 201.171875 164.683594 201.171875 164.683594 L 194.226562 158.5 L 190.429688 169.261719 " fill-opacity="1" fill-rule="nonzero"/><path fill="#ffffff" d="M 170.144531 213.277344 C 170.144531 213.277344 163.765625 231.382812 161.050781 228.675781 C 158.503906 226.140625 156.234375 222.007812 156.550781 219.9375 C 157.167969 215.824219 169 208.890625 169 208.890625 L 170.144531 213.277344 " fill-opacity="1" fill-rule="nonzero"/></svg>