<svg xmlns="http://www.w3.org/2000/svg" xmlns:xlink="http://www.w3.org/1999/xlink" width="500" zoomAndPan="magnify" viewBox="0 0 375 374.999991" height="500" preserveAspectRatio="xMidYMid meet" version="1.0"><defs><clipPath id="7b006d8840"><path d="M 186 119.0625 L 195 119.0625 L 195 127 L 186 127 Z M 186 119.0625 " clip-rule="nonzero"/></clipPath><clipPath id="e516aa2ba8"><path d="M 242 158 L 262.5 158 L 262.5 180 L 242 180 Z M 242 158 " clip-rule="nonzero"/></clipPath><clipPath id="7fa3ca3860"><path d="M 112.5 143 L 191 143 L 191 230 L 112.5 230 Z M 112.5 143 " clip-rule="nonzero"/></clipPath><clipPath id="a563f39a43"><path d="M 139 193 L 231 193 L 231 256.3125 L 139 256.3125 Z M 139 193 " clip-rule="nonzero"/></clipPath></defs><rect x="-37.5" width="450" fill="#ffffff" y="-37.499999" height="449.999989" fill-opacity="1"/><rect x="-37.5" width="450" fill="#ffffff" y="-37.499999" height="449.999989" fill-opacity="1"/><path fill="#308180" d="M 191.121094 168.203125 L 191.121094 170.964844 C 194.824219 171.21875 195.929688 171.871094 195.929688 173.300781 C 195.929688 174.367188 195.582031 174.71875 195.464844 174.832031 C 194.746094 175.546875 192.988281 175.527344 191.574219 175.519531 L 191.007812 175.515625 L 191.007812 178.25 L 191.554688 178.25 C 191.753906 178.253906 191.957031 178.257812 192.160156 178.257812 C 192 178.238281 191.828125 178.234375 191.828125 178.234375 L 191.828125 175.5625 C 191.828125 175.5625 192.148438 175.570312 192.328125 175.5625 C 192.390625 175.554688 192.566406 175.566406 192.757812 175.578125 C 192.957031 175.589844 193.148438 175.625 193.371094 175.660156 C 193.824219 175.761719 194.394531 175.945312 194.992188 176.378906 C 195.398438 176.679688 195.789062 177.117188 196.070312 177.65625 C 196.550781 177.445312 196.996094 177.160156 197.382812 176.773438 C 198.226562 175.933594 198.65625 174.765625 198.65625 173.300781 C 198.65625 169.507812 195.496094 168.480469 191.121094 168.203125 " fill-opacity="1" fill-rule="nonzero"/><path fill="#47bab5" d="M 191.828125 178.234375 C 191.828125 178.234375 192.042969 178.238281 192.21875 178.261719 C 192.328125 178.269531 192.367188 178.292969 192.429688 178.308594 C 192.484375 178.320312 192.578125 178.359375 192.671875 178.386719 C 192.851562 178.457031 193.039062 178.558594 193.167969 178.691406 C 193.289062 178.824219 193.378906 178.96875 193.402344 179.160156 C 193.425781 179.351562 193.40625 179.59375 193.273438 179.796875 C 193.140625 180 192.945312 180.171875 192.617188 180.285156 C 192.449219 180.335938 192.253906 180.375 192.027344 180.375 C 191.675781 180.382812 191.320312 180.382812 190.960938 180.382812 C 190.230469 180.398438 189.476562 180.402344 188.691406 180.429688 C 188.296875 180.445312 187.894531 180.464844 187.46875 180.519531 C 187.042969 180.574219 186.59375 180.640625 186.078125 180.816406 C 185.816406 180.910156 185.53125 181.027344 185.238281 181.226562 C 184.945312 181.417969 184.652344 181.710938 184.449219 182.050781 C 184.035156 182.746094 184.042969 183.417969 184.074219 183.863281 C 184.089844 184.039062 184.105469 184.214844 184.125 184.386719 C 184.15625 184.589844 184.183594 184.796875 184.214844 184.996094 C 184.246094 185.203125 184.304688 185.386719 184.351562 185.574219 C 184.394531 185.757812 184.449219 185.941406 184.519531 186.121094 C 184.773438 186.832031 185.132812 187.484375 185.585938 188 C 186.03125 188.519531 186.5625 188.882812 187.058594 189.105469 C 187.546875 189.34375 188.019531 189.40625 188.382812 189.421875 C 188.566406 189.425781 188.726562 189.414062 188.867188 189.394531 C 189.007812 189.382812 189.121094 189.355469 189.214844 189.328125 C 189.398438 189.28125 189.488281 189.246094 189.488281 189.246094 C 189.488281 189.246094 189.398438 189.210938 189.226562 189.136719 C 189.140625 189.109375 189.042969 189.050781 188.933594 188.996094 C 188.816406 188.945312 188.691406 188.871094 188.566406 188.78125 C 188.433594 188.707031 188.300781 188.589844 188.160156 188.484375 C 188.035156 188.355469 187.894531 188.230469 187.769531 188.078125 C 187.519531 187.78125 186.007812 186.207031 186.523438 184.34375 C 186.648438 184.035156 186.910156 183.457031 187.554688 183.433594 L 188.734375 183.457031 C 189.445312 183.464844 190.195312 183.496094 190.933594 183.519531 C 191.3125 183.535156 191.664062 183.539062 192.058594 183.535156 C 192.550781 183.53125 193.066406 183.457031 193.570312 183.304688 C 194.074219 183.148438 194.566406 182.894531 194.992188 182.554688 C 195.414062 182.214844 195.761719 181.789062 196.011719 181.328125 C 196.515625 180.40625 196.621094 179.347656 196.375 178.449219 C 196.140625 177.539062 195.578125 176.8125 194.992188 176.378906 C 194.394531 175.945312 193.824219 175.761719 193.371094 175.660156 C 193.148438 175.625 192.957031 175.589844 192.757812 175.578125 C 192.566406 175.566406 192.390625 175.554688 192.328125 175.5625 C 192.148438 175.570312 191.828125 175.5625 191.828125 175.5625 L 191.828125 178.234375 " fill-opacity="1" fill-rule="nonzero"/><path fill="#47bab5" d="M 198.679688 148.800781 C 202.574219 148.800781 204.609375 146.257812 204.609375 143.75 C 204.609375 142.519531 204.125 141.390625 203.25 140.566406 C 202.21875 139.59375 200.683594 139.078125 198.804688 139.054688 C 197.539062 139.148438 196.742188 139.898438 196.457031 140.207031 C 196.425781 140.25 196.390625 140.292969 196.355469 140.328125 L 196.339844 140.347656 L 196.339844 140.34375 C 196.085938 140.589844 195.691406 140.761719 195.226562 140.792969 L 194.234375 140.855469 C 192.769531 140.953125 191.796875 140.628906 191.6875 139.367188 C 191.378906 136.78125 192.472656 135.96875 194.292969 135.851562 L 195.433594 135.777344 C 198.722656 135.777344 202.011719 136.796875 202.011719 136.796875 L 202.007812 136.804688 C 203.210938 137.179688 204.265625 137.769531 205.117188 138.570312 C 206.546875 139.921875 207.335938 141.757812 207.335938 143.75 C 207.335938 147.523438 204.304688 151.53125 198.679688 151.53125 C 187.644531 151.53125 183.730469 152.152344 183.730469 155.632812 C 183.730469 156.816406 184 157.664062 184.5625 158.222656 C 185.761719 159.410156 188.28125 159.386719 190.515625 159.371094 C 190.789062 159.371094 191.058594 159.371094 191.320312 159.371094 L 191.320312 162.101562 C 191.066406 162.101562 190.804688 162.105469 190.539062 162.105469 C 190.261719 162.109375 189.976562 162.109375 189.683594 162.109375 C 187.238281 162.109375 184.433594 161.941406 182.644531 160.164062 C 181.554688 159.082031 181.003906 157.554688 181.003906 155.632812 C 181.003906 148.800781 189.195312 148.800781 198.679688 148.800781 " fill-opacity="1" fill-rule="nonzero"/><g clip-path="url(#7b006d8840)"><path fill="#13272e" d="M 194.277344 122.855469 C 194.277344 124.90625 192.617188 126.570312 190.574219 126.570312 C 188.53125 126.570312 186.871094 124.90625 186.871094 122.855469 C 186.871094 120.804688 188.53125 119.144531 190.574219 119.144531 C 192.617188 119.144531 194.277344 120.804688 194.277344 122.855469 " fill-opacity="1" fill-rule="nonzero"/></g><path fill="#13272e" d="M 191.824219 191.921875 C 191.800781 193.300781 191.238281 194.414062 190.574219 194.414062 C 189.90625 194.414062 189.347656 193.300781 189.320312 191.921875 C 188.984375 169.554688 188.644531 147.1875 188.308594 124.820312 C 188.28125 123.445312 189.300781 122.332031 190.574219 122.332031 C 191.851562 122.332031 192.863281 123.445312 192.839844 124.820312 C 192.5 147.1875 192.160156 169.554688 191.824219 191.921875 " fill-opacity="1" fill-rule="nonzero"/><path fill="#13272e" d="M 222.085938 126.058594 L 196.050781 126.058594 L 196.050781 128.253906 C 196.050781 129.535156 195.015625 130.570312 193.742188 130.570312 L 187.40625 130.570312 C 186.132812 130.570312 185.097656 129.535156 185.097656 128.253906 L 185.097656 126.058594 L 159.058594 126.058594 C 157.28125 126.058594 155.839844 126.816406 155.839844 127.75 C 155.839844 128.683594 157.28125 129.441406 159.058594 129.441406 L 179.449219 129.441406 L 180.210938 129.984375 L 163.457031 129.984375 C 161.925781 129.984375 160.683594 130.652344 160.683594 131.472656 C 160.683594 132.296875 161.925781 132.964844 163.457031 132.964844 L 184.390625 132.964844 L 185.34375 133.640625 L 167.039062 133.640625 C 165.707031 133.640625 164.632812 134.210938 164.632812 134.910156 C 164.632812 135.613281 165.707031 136.183594 167.039062 136.183594 L 186.726562 136.183594 C 186.726562 137.121094 187.488281 137.886719 188.425781 137.886719 L 192.722656 137.886719 C 193.660156 137.886719 194.421875 137.121094 194.421875 136.183594 L 214.109375 136.183594 C 215.4375 136.183594 216.515625 135.613281 216.515625 134.910156 C 216.515625 134.210938 215.4375 133.640625 214.109375 133.640625 L 195.804688 133.640625 L 196.753906 132.964844 L 217.6875 132.964844 C 219.222656 132.964844 220.464844 132.296875 220.464844 131.472656 C 220.464844 130.652344 219.222656 129.984375 217.6875 129.984375 L 200.9375 129.984375 L 201.695312 129.441406 L 222.085938 129.441406 C 223.867188 129.441406 225.308594 128.683594 225.308594 127.75 C 225.308594 126.816406 223.867188 126.058594 222.085938 126.058594 " fill-opacity="1" fill-rule="nonzero"/><path fill="#13272e" d="M 193.488281 126.570312 C 193.488281 127.089844 193.066406 127.511719 192.546875 127.511719 L 188.601562 127.511719 C 188.078125 127.511719 187.660156 127.089844 187.660156 126.570312 C 187.660156 126.046875 188.078125 125.621094 188.601562 125.621094 L 192.546875 125.621094 C 193.066406 125.621094 193.488281 126.046875 193.488281 126.570312 " fill-opacity="1" fill-rule="nonzero"/><path fill="#308180" d="M 182.464844 148.800781 C 178.574219 148.800781 176.535156 146.257812 176.535156 143.75 C 176.535156 142.519531 177.019531 141.390625 177.898438 140.566406 C 178.929688 139.59375 180.464844 139.078125 182.34375 139.054688 C 183.605469 139.148438 184.40625 139.898438 184.691406 140.207031 C 184.722656 140.25 184.757812 140.292969 184.796875 140.328125 L 184.804688 140.347656 L 184.804688 140.34375 C 185.0625 140.589844 185.457031 140.761719 185.917969 140.792969 L 186.910156 140.855469 C 188.378906 140.953125 189.347656 140.628906 189.460938 139.367188 C 189.769531 136.78125 188.671875 135.96875 186.855469 135.851562 L 185.714844 135.777344 C 182.421875 135.777344 179.132812 136.796875 179.132812 136.796875 L 179.140625 136.804688 C 177.9375 137.179688 176.882812 137.769531 176.03125 138.570312 C 174.597656 139.921875 173.808594 141.757812 173.808594 143.75 C 173.808594 147.523438 176.847656 151.53125 182.464844 151.53125 C 193.503906 151.53125 197.417969 152.152344 197.417969 155.632812 C 197.417969 156.816406 197.144531 157.664062 196.585938 158.222656 C 195.386719 159.410156 192.863281 159.386719 190.632812 159.371094 C 190.464844 159.371094 190.308594 159.371094 190.148438 159.371094 L 190.109375 159.371094 C 190.015625 159.371094 189.917969 159.371094 189.828125 159.371094 L 189.828125 159.375 C 187.988281 159.429688 186.261719 159.988281 185.148438 161.035156 C 184.058594 162.058594 183.460938 163.453125 183.460938 164.964844 C 183.460938 167.679688 185.152344 170.558594 189.003906 170.8125 L 188.960938 168.027344 C 186.769531 167.808594 186.1875 166.363281 186.1875 164.964844 C 186.1875 164.21875 186.417969 163.449219 187.015625 163.027344 C 188.273438 162.136719 188.992188 162.105469 190.183594 162.105469 C 190.324219 162.105469 190.460938 162.105469 190.605469 162.105469 C 190.882812 162.109375 191.171875 162.109375 191.460938 162.109375 C 193.910156 162.109375 196.714844 161.941406 198.503906 160.164062 C 199.59375 159.082031 200.144531 157.554688 200.144531 155.632812 C 200.144531 148.800781 191.953125 148.800781 182.464844 148.800781 " fill-opacity="1" fill-rule="nonzero"/><path fill="#308180" d="M 189.015625 178.136719 C 189.015625 178.136719 189.195312 178.109375 189.015625 178.136719 C 188.902344 178.140625 188.863281 178.164062 188.796875 178.183594 C 188.742188 178.195312 188.644531 178.234375 188.546875 178.265625 C 188.363281 178.335938 188.167969 178.4375 188.039062 178.578125 C 187.910156 178.710938 187.820312 178.863281 187.792969 179.0625 C 187.773438 179.257812 187.792969 179.503906 187.929688 179.71875 C 188.0625 179.925781 188.265625 180.101562 188.605469 180.21875 C 188.773438 180.273438 188.980469 180.308594 189.210938 180.3125 C 189.574219 180.316406 189.941406 180.320312 190.3125 180.320312 C 191.066406 180.332031 191.839844 180.339844 192.648438 180.367188 C 193.050781 180.382812 193.46875 180.402344 193.910156 180.457031 C 194.34375 180.515625 194.808594 180.585938 195.34375 180.765625 C 195.613281 180.859375 195.90625 180.984375 196.207031 181.1875 C 196.503906 181.386719 196.8125 181.6875 197.019531 182.039062 C 197.441406 182.753906 197.433594 183.449219 197.402344 183.90625 C 197.390625 184.085938 197.371094 184.265625 197.359375 184.441406 C 197.324219 184.65625 197.289062 184.867188 197.257812 185.074219 C 197.226562 185.285156 197.167969 185.472656 197.117188 185.667969 C 197.074219 185.859375 197.019531 186.046875 196.945312 186.230469 C 196.683594 186.964844 196.316406 187.636719 195.847656 188.167969 C 195.386719 188.699219 194.84375 189.078125 194.332031 189.304688 C 193.828125 189.550781 193.34375 189.613281 192.96875 189.628906 C 192.777344 189.636719 192.613281 189.625 192.46875 189.605469 C 192.324219 189.589844 192.207031 189.5625 192.109375 189.535156 C 191.921875 189.484375 191.828125 189.449219 191.828125 189.449219 C 191.828125 189.449219 191.921875 189.410156 192.097656 189.339844 C 192.183594 189.308594 192.285156 189.25 192.402344 189.191406 C 192.519531 189.136719 192.644531 189.0625 192.777344 188.972656 C 192.917969 188.890625 193.050781 188.773438 193.195312 188.664062 C 193.328125 188.535156 193.46875 188.40625 193.597656 188.246094 C 193.859375 187.9375 195.414062 186.316406 194.886719 184.398438 C 194.753906 184.082031 194.484375 183.488281 193.820312 183.460938 L 192.605469 183.488281 C 191.871094 183.496094 191.101562 183.527344 190.335938 183.550781 C 189.949219 183.566406 189.589844 183.566406 189.179688 183.566406 C 188.671875 183.566406 188.140625 183.492188 187.621094 183.328125 C 187.101562 183.164062 186.59375 182.910156 186.15625 182.558594 C 185.722656 182.207031 185.363281 181.769531 185.105469 181.292969 C 184.589844 180.34375 184.476562 179.253906 184.730469 178.324219 C 184.972656 177.386719 185.554688 176.640625 186.15625 176.195312 C 186.769531 175.746094 187.363281 175.558594 187.824219 175.453125 C 188.058594 175.417969 188.253906 175.378906 188.460938 175.371094 C 188.65625 175.355469 188.835938 175.34375 188.902344 175.355469 C 189.085938 175.363281 189.074219 175.351562 189.074219 175.351562 L 189.015625 178.136719 " fill-opacity="1" fill-rule="nonzero"/><path fill="#47bab5" d="M 194.234375 140.855469 L 195.226562 140.792969 C 195.691406 140.761719 196.085938 140.589844 196.339844 140.34375 L 196.339844 140.347656 L 196.355469 140.328125 C 196.390625 140.292969 196.425781 140.25 196.457031 140.207031 C 196.742188 139.898438 197.539062 139.148438 198.804688 139.054688 L 198.871094 139.058594 L 199.980469 136.292969 C 198.9375 136.117188 196.632812 135.777344 195.433594 135.777344 L 194.292969 135.851562 C 192.472656 135.96875 191.378906 136.78125 191.6875 139.367188 C 191.796875 140.628906 192.769531 140.953125 194.234375 140.855469 " fill-opacity="1" fill-rule="nonzero"/><path fill="#47bab5" d="M 196.734375 161.335938 C 195.253906 161.832031 193.722656 162.109375 192.179688 162.109375 C 192.0625 162.109375 191.949219 162.109375 191.835938 162.109375 C 193 162.140625 193.945312 162.464844 194.574219 163.054688 C 195.109375 163.558594 195.398438 164.246094 195.398438 164.996094 C 195.398438 166.503906 194.226562 168.128906 191.644531 168.128906 L 191.539062 168.128906 L 191.539062 170.859375 L 191.644531 170.859375 C 195.855469 170.859375 198.125 167.839844 198.125 164.996094 C 198.125 163.707031 197.535156 162.296875 196.734375 161.335938 " fill-opacity="1" fill-rule="nonzero"/><path fill="#47bab5" d="M 191.730469 168.128906 C 186.707031 168.296875 183.355469 169.175781 183.355469 173.332031 C 183.355469 174.792969 183.785156 175.960938 184.625 176.800781 C 185.996094 178.160156 187.320312 178.257812 189.117188 178.257812 L 189.074219 175.351562 C 187.660156 175.359375 187.265625 175.574219 186.546875 174.859375 C 186.433594 174.746094 186.082031 174.398438 186.082031 173.332031 C 186.082031 171.75 187.433594 171.050781 192.167969 170.859375 " fill-opacity="1" fill-rule="nonzero"/><path fill="#ffffff" d="M 194.664062 137.355469 C 194.664062 137.628906 194.445312 137.847656 194.171875 137.847656 C 193.898438 137.847656 193.679688 137.628906 193.679688 137.355469 C 193.679688 137.085938 193.898438 136.863281 194.171875 136.863281 C 194.445312 136.863281 194.664062 137.085938 194.664062 137.355469 " fill-opacity="1" fill-rule="nonzero"/><path fill="#ffffff" d="M 187.46875 137.355469 C 187.46875 137.628906 187.246094 137.847656 186.976562 137.847656 C 186.703125 137.847656 186.484375 137.628906 186.484375 137.355469 C 186.484375 137.085938 186.703125 136.863281 186.976562 136.863281 C 187.246094 136.863281 187.46875 137.085938 187.46875 137.355469 " fill-opacity="1" fill-rule="nonzero"/><path fill="#cfd2d5" d="M 217.757812 153.3125 C 217.757812 150.382812 215.386719 148.007812 212.464844 148.007812 L 212.222656 148.007812 C 209.300781 148.007812 206.929688 150.382812 206.929688 153.3125 L 206.929688 191.351562 C 206.929688 191.925781 207.023438 192.472656 207.191406 192.992188 L 207.195312 193.003906 C 207.363281 193.519531 207.613281 194 207.921875 194.433594 C 209.769531 198.355469 209.972656 201.277344 209.972656 201.277344 L 209.972656 203.851562 C 209.972656 205.136719 211.011719 206.179688 212.289062 206.179688 L 212.398438 206.179688 C 213.679688 206.179688 214.714844 205.136719 214.714844 203.851562 L 214.714844 201.277344 C 214.714844 201.277344 214.921875 198.355469 216.769531 194.433594 C 217.078125 194 217.324219 193.519531 217.492188 193.003906 L 217.5 192.992188 L 217.496094 192.992188 C 217.667969 192.472656 217.757812 191.925781 217.757812 191.351562 L 217.757812 153.3125 " fill-opacity="1" fill-rule="nonzero"/><path fill="#a2a3aa" d="M 216.488281 186.679688 C 216.488281 186.960938 216.332031 187.1875 216.140625 187.1875 L 208.550781 187.1875 C 208.355469 187.1875 208.199219 186.960938 208.199219 186.679688 C 208.199219 186.398438 208.355469 186.167969 208.550781 186.167969 L 216.140625 186.167969 C 216.332031 186.167969 216.488281 186.398438 216.488281 186.679688 " fill-opacity="1" fill-rule="nonzero"/><path fill="#a2a3aa" d="M 216.488281 186.679688 C 216.488281 186.960938 216.332031 187.1875 216.140625 187.1875 L 208.550781 187.1875 C 208.355469 187.1875 208.199219 186.960938 208.199219 186.679688 C 208.199219 186.398438 208.355469 186.167969 208.550781 186.167969 L 216.140625 186.167969 C 216.332031 186.167969 216.488281 186.398438 216.488281 186.679688 " fill-opacity="1" fill-rule="nonzero"/><path fill="#a2a3aa" d="M 216.488281 159.5 C 216.488281 159.78125 216.332031 160.007812 216.140625 160.007812 L 208.550781 160.007812 C 208.355469 160.007812 208.199219 159.78125 208.199219 159.5 C 208.199219 159.21875 208.355469 158.992188 208.550781 158.992188 L 216.140625 158.992188 C 216.332031 158.992188 216.488281 159.21875 216.488281 159.5 " fill-opacity="1" fill-rule="nonzero"/><path fill="#a2a3aa" d="M 215.492188 162.90625 C 215.492188 163.183594 215.371094 163.410156 215.226562 163.410156 L 209.464844 163.410156 C 209.320312 163.410156 209.199219 163.183594 209.199219 162.90625 C 209.199219 162.625 209.320312 162.398438 209.464844 162.398438 L 215.226562 162.398438 C 215.371094 162.398438 215.492188 162.625 215.492188 162.90625 " fill-opacity="1" fill-rule="nonzero"/><path fill="#a2a3aa" d="M 216.488281 166.308594 C 216.488281 166.589844 216.332031 166.820312 216.140625 166.820312 L 208.550781 166.820312 C 208.355469 166.820312 208.199219 166.589844 208.199219 166.308594 C 208.199219 166.03125 208.355469 165.800781 208.550781 165.800781 L 216.140625 165.800781 C 216.332031 165.800781 216.488281 166.03125 216.488281 166.308594 " fill-opacity="1" fill-rule="nonzero"/><path fill="#a2a3aa" d="M 215.492188 169.714844 C 215.492188 169.996094 215.371094 170.222656 215.226562 170.222656 L 209.464844 170.222656 C 209.320312 170.222656 209.199219 169.996094 209.199219 169.714844 C 209.199219 169.433594 209.320312 169.207031 209.464844 169.207031 L 215.226562 169.207031 C 215.371094 169.207031 215.492188 169.433594 215.492188 169.714844 " fill-opacity="1" fill-rule="nonzero"/><path fill="#a2a3aa" d="M 216.488281 173.089844 C 216.488281 173.367188 216.332031 173.597656 216.140625 173.597656 L 208.550781 173.597656 C 208.355469 173.597656 208.199219 173.367188 208.199219 173.089844 C 208.199219 172.808594 208.355469 172.582031 208.550781 172.582031 L 216.140625 172.582031 C 216.332031 172.582031 216.488281 172.808594 216.488281 173.089844 " fill-opacity="1" fill-rule="nonzero"/><path fill="#a2a3aa" d="M 215.492188 176.492188 C 215.492188 176.773438 215.371094 177.003906 215.226562 177.003906 L 209.464844 177.003906 C 209.320312 177.003906 209.199219 176.773438 209.199219 176.492188 C 209.199219 176.210938 209.320312 175.984375 209.464844 175.984375 L 215.226562 175.984375 C 215.371094 175.984375 215.492188 176.210938 215.492188 176.492188 " fill-opacity="1" fill-rule="nonzero"/><path fill="#a2a3aa" d="M 216.488281 179.902344 C 216.488281 180.179688 216.332031 180.410156 216.140625 180.410156 L 208.550781 180.410156 C 208.355469 180.410156 208.199219 180.179688 208.199219 179.902344 C 208.199219 179.617188 208.355469 179.390625 208.550781 179.390625 L 216.140625 179.390625 C 216.332031 179.390625 216.488281 179.617188 216.488281 179.902344 " fill-opacity="1" fill-rule="nonzero"/><path fill="#a2a3aa" d="M 215.492188 183.304688 C 215.492188 183.585938 215.371094 183.8125 215.226562 183.8125 L 209.464844 183.8125 C 209.320312 183.8125 209.199219 183.585938 209.199219 183.304688 C 209.199219 183.023438 209.320312 182.800781 209.464844 182.800781 L 215.226562 182.800781 C 215.371094 182.800781 215.492188 183.023438 215.492188 183.304688 " fill-opacity="1" fill-rule="nonzero"/><path fill="#a2a3aa" d="M 215.492188 190.082031 C 215.492188 190.363281 215.371094 190.59375 215.226562 190.59375 L 209.464844 190.59375 C 209.320312 190.59375 209.199219 190.363281 209.199219 190.082031 C 209.199219 189.800781 209.320312 189.574219 209.464844 189.574219 L 215.226562 189.574219 C 215.371094 189.574219 215.492188 189.800781 215.492188 190.082031 " fill-opacity="1" fill-rule="nonzero"/><path fill="#a2a3aa" d="M 213.296875 205.226562 C 213.296875 205.753906 212.871094 206.179688 212.34375 206.179688 C 211.820312 206.179688 211.390625 205.753906 211.390625 205.226562 L 211.390625 153.363281 C 211.390625 152.835938 211.820312 152.40625 212.34375 152.40625 C 212.871094 152.40625 213.296875 152.835938 213.296875 153.363281 L 213.296875 205.226562 " fill-opacity="1" fill-rule="nonzero"/><path fill="#e84944" d="M 211.390625 166.820312 L 211.390625 205.226562 C 211.390625 205.753906 211.820312 206.179688 212.34375 206.179688 C 212.871094 206.179688 213.296875 205.753906 213.296875 205.226562 L 213.296875 166.820312 L 211.390625 166.820312 " fill-opacity="1" fill-rule="nonzero"/><path fill="#acaeb5" d="M 215.492188 153.625 C 215.492188 155.367188 214.082031 156.777344 212.34375 156.777344 C 210.605469 156.777344 209.199219 155.367188 209.199219 153.625 C 209.199219 151.882812 210.605469 150.472656 212.34375 150.472656 C 214.082031 150.472656 215.492188 151.882812 215.492188 153.625 " fill-opacity="1" fill-rule="nonzero"/><path fill="#a2a3aa" d="M 216.488281 166.277344 C 216.488281 166.558594 216.332031 166.785156 216.140625 166.785156 L 208.550781 166.785156 C 208.355469 166.785156 208.199219 166.558594 208.199219 166.277344 C 208.199219 165.996094 208.355469 165.769531 208.550781 165.769531 L 216.140625 165.769531 C 216.332031 165.769531 216.488281 165.996094 216.488281 166.277344 " fill-opacity="1" fill-rule="nonzero"/><g clip-path="url(#e516aa2ba8)"><path fill="#adb1b6" d="M 261.765625 160.804688 L 262.53125 158.808594 L 242.703125 178.6875 L 243.320312 179.300781 L 261.765625 160.804688 " fill-opacity="1" fill-rule="nonzero"/></g><path fill="#9b9ba2" d="M 229.296875 200.53125 C 229.414062 200.445312 229.53125 200.351562 229.636719 200.246094 L 247.460938 182.371094 C 248.519531 181.3125 248.644531 179.726562 247.742188 178.824219 L 243.183594 174.25 C 242.285156 173.347656 240.699219 173.472656 239.644531 174.53125 L 221.820312 192.410156 C 221.710938 192.511719 221.621094 192.632812 221.535156 192.746094 L 229.296875 200.53125 " fill-opacity="1" fill-rule="nonzero"/><path fill="#213c47" d="M 235.402344 182.039062 L 235.109375 182.328125 L 239.6875 186.917969 L 239.976562 186.628906 L 240.84375 187.496094 L 241.425781 186.914062 L 235.113281 180.585938 L 234.535156 181.167969 L 235.402344 182.039062 " fill-opacity="1" fill-rule="nonzero"/><path fill="#e84944" d="M 241.425781 186.914062 L 245.804688 182.519531 C 246.753906 181.570312 246.933594 180.210938 246.207031 179.480469 L 242.527344 175.789062 C 241.800781 175.0625 240.445312 175.242188 239.496094 176.195312 L 235.113281 180.585938 L 241.425781 186.914062 " fill-opacity="1" fill-rule="nonzero"/><path fill="#213c47" d="M 244.167969 175.234375 L 246.757812 177.835938 C 246.984375 178.0625 247.378906 178.03125 247.636719 177.765625 C 247.902344 177.503906 247.933594 177.109375 247.707031 176.886719 L 247.375 176.550781 L 248.082031 175.84375 C 248.292969 175.628906 248.316406 175.316406 248.136719 175.136719 L 246.859375 173.855469 C 246.679688 173.675781 246.367188 173.699219 246.15625 173.914062 L 245.449219 174.621094 L 245.117188 174.285156 C 244.890625 174.0625 244.5 174.089844 244.238281 174.355469 C 243.976562 174.617188 243.941406 175.011719 244.167969 175.234375 " fill-opacity="1" fill-rule="nonzero"/><path fill="#484c50" d="M 214.664062 205.578125 L 216.5 207.421875 L 238.316406 185.542969 L 236.480469 183.703125 L 214.664062 205.578125 " fill-opacity="1" fill-rule="nonzero"/><path fill="#d3d7d9" d="M 245.703125 182.621094 L 242.160156 179.070312 C 242.050781 178.960938 242.066406 178.765625 242.195312 178.640625 C 242.324219 178.507812 242.515625 178.496094 242.625 178.605469 L 246.167969 182.160156 L 245.703125 182.621094 " fill-opacity="1" fill-rule="nonzero"/><path fill="#d3d7d9" d="M 244.710938 183.621094 L 242.5 181.402344 C 242.414062 181.320312 242.449219 181.148438 242.578125 181.019531 C 242.707031 180.890625 242.878906 180.855469 242.964844 180.941406 L 245.171875 183.15625 L 244.710938 183.621094 " fill-opacity="1" fill-rule="nonzero"/><path fill="#d3d7d9" d="M 243.710938 184.621094 L 240.167969 181.066406 C 240.0625 180.957031 240.078125 180.761719 240.203125 180.636719 C 240.332031 180.507812 240.523438 180.492188 240.632812 180.601562 L 244.175781 184.152344 L 243.710938 184.621094 " fill-opacity="1" fill-rule="nonzero"/><path fill="#d3d7d9" d="M 242.714844 185.617188 L 240.507812 183.402344 C 240.421875 183.316406 240.457031 183.148438 240.589844 183.019531 C 240.714844 182.890625 240.886719 182.855469 240.96875 182.9375 L 243.179688 185.152344 L 242.714844 185.617188 " fill-opacity="1" fill-rule="nonzero"/><path fill="#d3d7d9" d="M 241.722656 186.617188 L 238.179688 183.0625 C 238.070312 182.953125 238.082031 182.761719 238.210938 182.632812 C 238.339844 182.503906 238.535156 182.488281 238.644531 182.601562 L 242.183594 186.152344 L 241.722656 186.617188 " fill-opacity="1" fill-rule="nonzero"/><path fill="#d3d7d9" d="M 240.726562 187.613281 L 238.515625 185.398438 C 238.433594 185.316406 238.46875 185.144531 238.597656 185.015625 C 238.726562 184.886719 238.894531 184.851562 238.980469 184.933594 L 241.1875 187.152344 L 240.726562 187.613281 " fill-opacity="1" fill-rule="nonzero"/><path fill="#d3d7d9" d="M 239.730469 188.609375 L 236.1875 185.058594 C 236.078125 184.949219 236.09375 184.757812 236.21875 184.628906 C 236.347656 184.5 236.542969 184.484375 236.652344 184.597656 L 240.195312 188.144531 L 239.730469 188.609375 " fill-opacity="1" fill-rule="nonzero"/><path fill="#d3d7d9" d="M 238.734375 189.609375 L 236.523438 187.394531 C 236.441406 187.3125 236.476562 187.140625 236.605469 187.011719 C 236.734375 186.882812 236.90625 186.84375 236.988281 186.929688 L 239.199219 189.148438 L 238.734375 189.609375 " fill-opacity="1" fill-rule="nonzero"/><path fill="#d3d7d9" d="M 237.738281 190.609375 L 234.199219 187.058594 C 234.085938 186.949219 234.101562 186.753906 234.230469 186.625 C 234.359375 186.5 234.550781 186.480469 234.660156 186.59375 L 238.203125 190.148438 L 237.738281 190.609375 " fill-opacity="1" fill-rule="nonzero"/><path fill="#d3d7d9" d="M 236.742188 191.609375 L 234.535156 189.390625 C 234.449219 189.308594 234.484375 189.136719 234.613281 189.007812 C 234.742188 188.878906 234.914062 188.84375 234.996094 188.929688 L 237.207031 191.140625 L 236.742188 191.609375 " fill-opacity="1" fill-rule="nonzero"/><path fill="#d3d7d9" d="M 235.746094 192.605469 L 232.203125 189.054688 C 232.09375 188.945312 232.113281 188.75 232.238281 188.625 C 232.367188 188.496094 232.558594 188.480469 232.667969 188.589844 L 236.210938 192.140625 L 235.746094 192.605469 " fill-opacity="1" fill-rule="nonzero"/><path fill="#d3d7d9" d="M 234.75 193.605469 L 232.542969 191.386719 C 232.460938 191.304688 232.496094 191.132812 232.621094 191.003906 C 232.75 190.878906 232.921875 190.839844 233.007812 190.921875 L 235.214844 193.140625 L 234.75 193.605469 " fill-opacity="1" fill-rule="nonzero"/><path fill="#d3d7d9" d="M 233.757812 194.601562 L 230.214844 191.050781 C 230.101562 190.941406 230.121094 190.746094 230.246094 190.621094 C 230.375 190.488281 230.566406 190.476562 230.679688 190.589844 L 234.21875 194.140625 L 233.757812 194.601562 " fill-opacity="1" fill-rule="nonzero"/><path fill="#d3d7d9" d="M 232.761719 195.597656 L 230.550781 193.386719 C 230.464844 193.304688 230.503906 193.128906 230.632812 193 C 230.757812 192.875 230.929688 192.835938 231.015625 192.921875 L 233.226562 195.136719 L 232.761719 195.597656 " fill-opacity="1" fill-rule="nonzero"/><path fill="#d3d7d9" d="M 231.765625 196.601562 L 228.222656 193.046875 C 228.113281 192.9375 228.128906 192.746094 228.253906 192.617188 C 228.382812 192.488281 228.574219 192.472656 228.6875 192.582031 L 232.230469 196.132812 L 231.765625 196.601562 " fill-opacity="1" fill-rule="nonzero"/><path fill="#d3d7d9" d="M 230.769531 197.597656 L 228.558594 195.382812 C 228.476562 195.296875 228.511719 195.125 228.640625 194.996094 C 228.765625 194.871094 228.941406 194.832031 229.023438 194.917969 L 231.234375 197.132812 L 230.769531 197.597656 " fill-opacity="1" fill-rule="nonzero"/><path fill="#d3d7d9" d="M 229.773438 198.597656 L 226.234375 195.046875 C 226.121094 194.933594 226.136719 194.742188 226.265625 194.613281 C 226.394531 194.484375 226.585938 194.46875 226.695312 194.578125 L 230.238281 198.128906 L 229.773438 198.597656 " fill-opacity="1" fill-rule="nonzero"/><path fill="#9b9ba2" d="M 219.558594 191.632812 C 219.796875 191.394531 220.453125 191.664062 221.019531 192.234375 L 229.8125 201.046875 C 230.378906 201.617188 230.644531 202.273438 230.40625 202.515625 C 230.164062 202.753906 229.511719 202.488281 228.945312 201.914062 L 220.152344 193.105469 C 219.585938 192.535156 219.316406 191.875 219.558594 191.632812 " fill-opacity="1" fill-rule="nonzero"/><path fill="#213c47" d="M 211.542969 203.089844 L 218.980469 210.550781 C 219.1875 210.753906 219.515625 210.753906 219.71875 210.550781 C 219.921875 210.34375 219.921875 210.015625 219.71875 209.8125 L 216.941406 207.03125 L 217.507812 206.464844 L 215.621094 204.570312 L 215.054688 205.136719 L 212.277344 202.351562 C 212.074219 202.152344 211.746094 202.152344 211.542969 202.351562 C 211.339844 202.558594 211.339844 202.886719 211.542969 203.089844 " fill-opacity="1" fill-rule="nonzero"/><path fill="#cfd2d5" d="M 213.628906 193.789062 C 212.839844 195.742188 214.125 198.105469 216.492188 199.066406 L 216.589844 199.105469 L 216.6875 199.148438 C 219.058594 200.105469 221.617188 199.300781 222.40625 197.34375 L 232.628906 171.976562 C 232.785156 171.59375 237.351562 153.140625 237.351562 153.140625 L 238.046875 151.421875 C 238.394531 150.566406 237.832031 149.527344 236.792969 149.109375 L 236.75 149.089844 L 236.707031 149.074219 C 235.667969 148.652344 234.546875 149.003906 234.203125 149.863281 L 233.507812 151.582031 C 233.507812 151.582031 223.875 168.363281 223.855469 168.417969 L 213.628906 193.789062 " fill-opacity="1" fill-rule="nonzero"/><path fill="#060709" d="M 219.300781 192.378906 C 220.871094 193.015625 222.660156 192.257812 223.296875 190.679688 C 223.933594 189.105469 223.171875 187.3125 221.601562 186.675781 C 220.03125 186.039062 218.242188 186.800781 217.605469 188.375 C 216.972656 189.953125 217.730469 191.742188 219.300781 192.378906 " fill-opacity="1" fill-rule="nonzero"/><path fill="#213c47" d="M 219.40625 192.121094 C 220.835938 192.695312 222.460938 192.007812 223.035156 190.574219 C 223.613281 189.144531 222.921875 187.515625 221.496094 186.933594 C 220.070312 186.359375 218.445312 187.046875 217.867188 188.480469 C 217.292969 189.910156 217.980469 191.539062 219.40625 192.121094 " fill-opacity="1" fill-rule="nonzero"/><path fill="#ffffff" d="M 218.816406 188.476562 L 220.253906 189.058594 L 220.835938 187.617188 L 221.5 187.886719 L 220.917969 189.328125 L 222.355469 189.910156 L 222.085938 190.582031 L 220.648438 189.996094 L 220.070312 191.4375 L 219.402344 191.167969 L 219.984375 189.726562 L 218.546875 189.144531 L 218.816406 188.476562 " fill-opacity="1" fill-rule="nonzero"/><path fill="#213c47" d="M 214.535156 191.539062 L 213.628906 193.789062 C 212.839844 195.742188 214.125 198.105469 216.492188 199.066406 L 216.6875 199.148438 C 219.058594 200.105469 221.617188 199.300781 222.40625 197.34375 L 223.3125 195.09375 L 214.535156 191.539062 " fill-opacity="1" fill-rule="nonzero"/><path fill="#213c47" d="M 237.375 153.085938 L 238.046875 151.421875 C 238.394531 150.566406 237.832031 149.527344 236.792969 149.109375 L 236.707031 149.074219 C 235.667969 148.652344 234.546875 149.003906 234.203125 149.863281 L 233.53125 151.527344 L 237.375 153.085938 " fill-opacity="1" fill-rule="nonzero"/><path fill="#213c47" d="M 223.167969 177.09375 L 227.113281 178.691406 L 224.394531 185.429688 L 220.453125 183.828125 L 223.167969 177.09375 " fill-opacity="1" fill-rule="nonzero"/><path fill="#060709" d="M 223.226562 177.484375 L 226.800781 178.933594 L 224.339844 185.039062 L 220.765625 183.589844 L 223.226562 177.484375 " fill-opacity="1" fill-rule="nonzero"/><path fill="#9b9ba2" d="M 223.4375 177.878906 L 226.375 179.070312 L 224.128906 184.640625 L 221.191406 183.453125 L 223.4375 177.878906 " fill-opacity="1" fill-rule="nonzero"/><g clip-path="url(#7fa3ca3860)"><path fill="#47bab5" d="M 190.808594 208.835938 L 136.765625 229.003906 L 112.515625 163.664062 L 166.558594 143.496094 L 190.808594 208.835938 " fill-opacity="1" fill-rule="nonzero"/></g><path fill="#ffffff" d="M 183.9375 204.945312 L 139.429688 221.554688 L 119.457031 167.75 L 163.964844 151.136719 L 183.9375 204.945312 " fill-opacity="1" fill-rule="nonzero"/><path fill="#13272e" d="M 137.113281 154.433594 C 136.59375 153.039062 137.300781 151.488281 138.695312 150.96875 C 140.082031 150.453125 141.628906 151.160156 142.148438 152.554688 C 142.304688 152.980469 142.335938 153.417969 142.28125 153.839844 L 137.847656 155.496094 C 137.53125 155.210938 137.269531 154.859375 137.113281 154.433594 Z M 155.421875 152.558594 L 152.828125 153.527344 C 152.128906 151.769531 150.878906 150.632812 149.984375 150.964844 L 143.738281 153.296875 C 143.71875 152.878906 143.65625 152.460938 143.503906 152.050781 C 142.707031 149.90625 140.328125 148.8125 138.1875 149.609375 C 136.050781 150.410156 134.957031 152.796875 135.753906 154.9375 C 135.90625 155.351562 136.132812 155.710938 136.394531 156.039062 L 129.925781 158.453125 C 129.03125 158.785156 128.828125 160.46875 129.441406 162.25 L 126.851562 163.222656 C 125.574219 163.699219 125.289062 166.09375 126.164062 168.636719 L 159.472656 156.207031 C 158.472656 153.710938 156.695312 152.082031 155.421875 152.558594 " fill-opacity="1" fill-rule="nonzero"/><path fill="#47bab5" d="M 149.398438 168.984375 L 146.277344 170.152344 L 147.441406 173.277344 L 146.398438 173.667969 L 145.238281 170.539062 L 142.117188 171.703125 L 141.726562 170.660156 L 144.851562 169.496094 L 143.691406 166.363281 L 144.730469 165.976562 L 145.890625 169.105469 L 149.011719 167.9375 Z M 143.390625 163.957031 C 140.160156 165.164062 138.519531 168.765625 139.71875 172.003906 C 140.917969 175.238281 144.511719 176.886719 147.738281 175.683594 C 150.964844 174.476562 152.609375 170.878906 151.410156 167.640625 C 150.207031 164.402344 146.613281 162.753906 143.390625 163.957031 " fill-opacity="1" fill-rule="nonzero"/><path fill="#b8bbc1" d="M 158.644531 174.054688 L 138.425781 181.601562 L 138.210938 181.023438 L 158.429688 173.480469 L 158.644531 174.054688 " fill-opacity="1" fill-rule="nonzero"/><path fill="#b8bbc1" d="M 159.074219 175.210938 L 138.855469 182.757812 L 138.640625 182.175781 L 158.859375 174.628906 L 159.074219 175.210938 " fill-opacity="1" fill-rule="nonzero"/><path fill="#b8bbc1" d="M 159.5 176.359375 L 139.28125 183.90625 L 139.070312 183.328125 L 159.285156 175.78125 L 159.5 176.359375 " fill-opacity="1" fill-rule="nonzero"/><path fill="#b8bbc1" d="M 170.09375 175.03125 L 130.402344 189.847656 L 130.1875 189.269531 L 169.878906 174.457031 L 170.09375 175.03125 " fill-opacity="1" fill-rule="nonzero"/><path fill="#b8bbc1" d="M 170.523438 176.1875 L 130.828125 191 L 130.617188 190.425781 L 170.308594 175.613281 L 170.523438 176.1875 " fill-opacity="1" fill-rule="nonzero"/><path fill="#b8bbc1" d="M 170.949219 177.339844 L 131.257812 192.152344 L 131.042969 191.578125 L 170.734375 176.761719 L 170.949219 177.339844 " fill-opacity="1" fill-rule="nonzero"/><path fill="#b8bbc1" d="M 171.375 178.492188 L 131.6875 193.304688 L 131.472656 192.730469 L 171.164062 177.917969 L 171.375 178.492188 " fill-opacity="1" fill-rule="nonzero"/><path fill="#b8bbc1" d="M 171.804688 179.648438 L 132.113281 194.457031 L 131.902344 193.882812 L 171.589844 179.070312 L 171.804688 179.648438 " fill-opacity="1" fill-rule="nonzero"/><path fill="#b8bbc1" d="M 172.234375 180.800781 L 132.542969 195.613281 L 132.328125 195.035156 L 172.019531 180.21875 L 172.234375 180.800781 " fill-opacity="1" fill-rule="nonzero"/><path fill="#b8bbc1" d="M 172.664062 181.953125 L 132.96875 196.765625 L 132.753906 196.191406 L 172.445312 181.375 L 172.664062 181.953125 " fill-opacity="1" fill-rule="nonzero"/><path fill="#b8bbc1" d="M 173.515625 184.257812 L 153.605469 191.6875 L 153.390625 191.113281 L 173.304688 183.679688 L 173.515625 184.257812 " fill-opacity="1" fill-rule="nonzero"/><path fill="#b8bbc1" d="M 173.945312 185.410156 L 154.03125 192.839844 L 153.816406 192.265625 L 173.730469 184.832031 L 173.945312 185.410156 " fill-opacity="1" fill-rule="nonzero"/><path fill="#b8bbc1" d="M 174.371094 186.5625 L 154.457031 193.996094 L 154.246094 193.417969 L 174.160156 185.988281 L 174.371094 186.5625 " fill-opacity="1" fill-rule="nonzero"/><path fill="#b8bbc1" d="M 174.800781 187.714844 L 154.886719 195.148438 L 154.675781 194.570312 L 174.585938 187.140625 L 174.800781 187.714844 " fill-opacity="1" fill-rule="nonzero"/><path fill="#b8bbc1" d="M 175.230469 188.867188 L 155.316406 196.300781 L 155.101562 195.722656 L 175.015625 188.292969 L 175.230469 188.867188 " fill-opacity="1" fill-rule="nonzero"/><path fill="#b8bbc1" d="M 175.65625 190.023438 L 155.746094 197.453125 L 155.53125 196.878906 L 175.445312 189.445312 L 175.65625 190.023438 " fill-opacity="1" fill-rule="nonzero"/><path fill="#b8bbc1" d="M 176.085938 191.175781 L 156.171875 198.605469 L 155.957031 198.03125 L 175.871094 190.597656 L 176.085938 191.175781 " fill-opacity="1" fill-rule="nonzero"/><path fill="#b8bbc1" d="M 176.511719 192.328125 L 156.597656 199.761719 L 156.382812 199.183594 L 176.296875 191.75 L 176.511719 192.328125 " fill-opacity="1" fill-rule="nonzero"/><path fill="#b8bbc1" d="M 177.417969 194.761719 L 157.503906 202.195312 L 157.289062 201.617188 L 177.203125 194.1875 L 177.417969 194.761719 " fill-opacity="1" fill-rule="nonzero"/><path fill="#b8bbc1" d="M 177.84375 195.917969 L 157.929688 203.347656 L 157.71875 202.773438 L 177.628906 195.34375 L 177.84375 195.917969 " fill-opacity="1" fill-rule="nonzero"/><path fill="#b8bbc1" d="M 178.273438 197.070312 L 158.359375 204.5 L 158.144531 203.925781 L 178.058594 196.492188 L 178.273438 197.070312 " fill-opacity="1" fill-rule="nonzero"/><path fill="#b8bbc1" d="M 178.699219 198.222656 L 158.789062 205.65625 L 158.574219 205.078125 L 178.488281 197.644531 L 178.699219 198.222656 " fill-opacity="1" fill-rule="nonzero"/><path fill="#b8bbc1" d="M 179.128906 199.375 L 159.214844 206.808594 L 159 206.230469 L 178.914062 198.800781 L 179.128906 199.375 " fill-opacity="1" fill-rule="nonzero"/><path fill="#b8bbc1" d="M 179.554688 200.527344 L 159.644531 207.960938 L 159.429688 207.386719 L 179.34375 199.949219 L 179.554688 200.527344 " fill-opacity="1" fill-rule="nonzero"/><path fill="#b8bbc1" d="M 179.984375 201.679688 L 160.070312 209.113281 L 159.855469 208.535156 L 179.769531 201.105469 L 179.984375 201.679688 " fill-opacity="1" fill-rule="nonzero"/><path fill="#b8bbc1" d="M 180.414062 202.832031 L 160.5 210.265625 L 160.285156 209.691406 L 180.199219 202.257812 L 180.414062 202.832031 " fill-opacity="1" fill-rule="nonzero"/><path fill="#b8bbc1" d="M 136.824219 207.140625 L 155.65625 200.113281 L 152.445312 191.464844 L 133.613281 198.492188 L 136.824219 207.140625 " fill-opacity="1" fill-rule="nonzero"/><path fill="#b8bbc1" d="M 140.722656 217.648438 L 159.550781 210.617188 L 156.34375 201.972656 L 137.511719 209 L 140.722656 217.648438 " fill-opacity="1" fill-rule="nonzero"/><path fill="#213c47" d="M 170.074219 194.5 L 170.074219 190.347656 C 170.074219 186.222656 173.492188 182.882812 177.714844 182.882812 L 192.535156 182.882812 C 196.761719 182.882812 200.179688 186.222656 200.179688 190.347656 L 200.179688 194.5 L 203.175781 194.5 L 203.175781 189.191406 C 203.175781 184.117188 199.074219 180.007812 194.011719 180.007812 L 176.242188 180.007812 C 171.183594 180.007812 167.078125 184.117188 167.078125 189.191406 L 167.078125 194.5 L 170.074219 194.5 " fill-opacity="1" fill-rule="nonzero"/><path fill="#13272e" d="M 172.71875 193.296875 C 172.71875 194.269531 171.929688 195.054688 170.960938 195.054688 L 165.871094 195.054688 C 164.902344 195.054688 164.113281 194.269531 164.113281 193.296875 C 164.113281 192.320312 164.902344 191.535156 165.871094 191.535156 L 170.960938 191.535156 C 171.929688 191.535156 172.71875 192.320312 172.71875 193.296875 " fill-opacity="1" fill-rule="nonzero"/><path fill="#13272e" d="M 206.070312 193.394531 C 206.070312 194.363281 205.28125 195.152344 204.3125 195.152344 L 199.226562 195.152344 C 198.253906 195.152344 197.46875 194.363281 197.46875 193.394531 C 197.46875 192.417969 198.253906 191.628906 199.226562 191.628906 L 204.3125 191.628906 C 205.28125 191.628906 206.070312 192.417969 206.070312 193.394531 " fill-opacity="1" fill-rule="nonzero"/><path fill="#081215" d="M 197.152344 181.59375 C 197.152344 183.066406 195.964844 184.261719 194.496094 184.261719 L 175.761719 184.261719 C 174.289062 184.261719 173.101562 183.066406 173.101562 181.59375 C 173.101562 180.121094 174.289062 178.925781 175.761719 178.925781 L 194.496094 178.925781 C 195.964844 178.925781 197.152344 180.121094 197.152344 181.59375 " fill-opacity="1" fill-rule="nonzero"/><g clip-path="url(#a563f39a43)"><path fill="#9b9ba2" d="M 230.957031 247.285156 C 230.957031 252.199219 226.980469 256.1875 222.078125 256.1875 L 148.175781 256.1875 C 143.273438 256.1875 139.296875 252.199219 139.296875 247.285156 L 139.296875 202.199219 C 139.296875 197.28125 143.273438 193.296875 148.175781 193.296875 L 222.078125 193.296875 C 226.980469 193.296875 230.957031 197.28125 230.957031 202.199219 L 230.957031 247.285156 " fill-opacity="1" fill-rule="nonzero"/></g><path fill="#cfd2d5" d="M 228.453125 245.34375 C 228.453125 249.839844 224.695312 253.480469 220.058594 253.480469 L 150.191406 253.480469 C 145.554688 253.480469 141.796875 249.839844 141.796875 245.34375 L 141.796875 204.136719 C 141.796875 199.640625 145.554688 196 150.191406 196 L 220.058594 196 C 224.695312 196 228.453125 199.640625 228.453125 204.136719 L 228.453125 245.34375 " fill-opacity="1" fill-rule="nonzero"/><path fill="#2c7879" d="M 185.128906 204.054688 C 173.734375 204.054688 164.5 213.316406 164.5 224.742188 C 164.5 236.164062 173.734375 245.425781 185.128906 245.425781 C 196.519531 245.425781 205.753906 236.164062 205.753906 224.742188 C 205.753906 213.316406 196.519531 204.054688 185.128906 204.054688 " fill-opacity="1" fill-rule="nonzero"/><path fill="#47bab5" d="M 185.128906 205.949219 C 174.777344 205.949219 166.386719 214.363281 166.386719 224.742188 C 166.386719 235.117188 174.777344 243.53125 185.128906 243.53125 C 195.480469 243.53125 203.867188 235.117188 203.867188 224.742188 C 203.867188 214.363281 195.480469 205.949219 185.128906 205.949219 " fill-opacity="1" fill-rule="nonzero"/><path fill="#ffffff" d="M 197.960938 227.160156 L 187.542969 227.160156 L 187.542969 237.609375 L 182.714844 237.609375 L 182.714844 227.160156 L 172.292969 227.160156 L 172.292969 222.320312 L 182.714844 222.320312 L 182.714844 211.871094 L 187.542969 211.871094 L 187.542969 222.320312 L 197.960938 222.320312 L 197.960938 227.160156 " fill-opacity="1" fill-rule="nonzero"/></svg>