<svg xmlns="http://www.w3.org/2000/svg" xmlns:xlink="http://www.w3.org/1999/xlink" width="500" zoomAndPan="magnify" viewBox="0 0 375 374.999991" height="500" preserveAspectRatio="xMidYMid meet" version="1.0"><defs><clipPath id="efdca006dc"><path d="M 125 112.5 L 250 112.5 L 250 262.5 L 125 262.5 Z M 125 112.5 " clip-rule="nonzero"/></clipPath></defs><rect x="-37.5" width="450" fill="#ffffff" y="-37.499999" height="449.999989" fill-opacity="1"/><rect x="-37.5" width="450" fill="#ffffff" y="-37.499999" height="449.999989" fill-opacity="1"/><path fill="#000000" d="M 246.492188 204.101562 C 246.054688 210.28125 244.699219 216.207031 242.558594 221.746094 C 240.054688 223.539062 236.679688 224.457031 233.03125 224.695312 C 229.152344 224.949219 226.703125 223.878906 223.914062 222.789062 C 221.328125 217.675781 218.273438 212.6875 214.707031 208.570312 C 213.511719 207.191406 212.496094 205.488281 210.714844 204.839844 C 216.03125 211.941406 219.496094 219.816406 223.21875 228.078125 C 223.269531 228.199219 223.328125 228.320312 223.382812 228.449219 C 224.746094 231.492188 225.960938 234.515625 226.773438 237.910156 C 226.9375 238.609375 227.089844 239.324219 227.21875 240.058594 C 227.246094 240.03125 227.273438 240.003906 227.296875 239.976562 C 228.078125 239.167969 228.835938 238.332031 229.566406 237.476562 C 229.566406 237.476562 230.390625 239.886719 230.609375 241.019531 C 230.125 241.550781 229.628906 242.074219 229.125 242.589844 L 229.109375 242.601562 C 228.730469 242.988281 228.347656 243.371094 227.957031 243.746094 C 227.957031 243.746094 227.953125 243.75 227.953125 243.75 C 216.90625 254.425781 201.859375 260.996094 185.273438 260.996094 C 182.523438 260.996094 179.820312 260.816406 177.167969 260.464844 C 179.296875 259.351562 181.0625 257.898438 182.839844 256.429688 C 183.722656 255.703125 184.5625 254.820312 185.53125 254.261719 C 187.15625 253.324219 189.394531 252.6875 191.347656 251.835938 C 192.296875 251.421875 193.292969 250.984375 194.214844 250.535156 C 195.15625 250.078125 196.007812 249.394531 196.90625 249.058594 C 197.964844 248.667969 199.421875 248.507812 200.726562 248.28125 C 202.066406 248.046875 203.359375 247.699219 204.460938 247.414062 C 206.421875 246.902344 210.214844 245.898438 210.105469 243.769531 C 210.03125 242.292969 207.5625 241.558594 206.285156 241.082031 C 204.527344 240.429688 202.644531 240.078125 201.25 239.609375 C 201.40625 233.058594 199.375 228.277344 196.734375 224.4375 C 194.371094 221.003906 191.289062 218.34375 187.527344 216.632812 C 191.367188 213.328125 194.417969 209.234375 196.734375 204.40625 C 200.390625 201.351562 203.460938 197.714844 206.542969 194.089844 C 212.539062 195.320312 217.152344 197.859375 221.132812 201.285156 C 221.648438 201.726562 222.59375 202.429688 222.699219 202.847656 C 222.832031 203.390625 222.585938 204.3125 222.609375 205.015625 C 222.792969 210.335938 223.902344 214.390625 226.257812 217.585938 C 225.621094 214.808594 225.414062 211.605469 224.867188 208.742188 C 225.480469 209.664062 226.089844 210.585938 226.777344 211.429688 C 226.777344 211.476562 226.847656 211.527344 226.867188 211.429688 C 225.492188 207.167969 224.695312 202.316406 223.390625 197.730469 C 222.488281 194.554688 221.394531 191.148438 220.785156 187.5 C 220.617188 186.46875 220.191406 184.675781 221.566406 184.464844 C 220.730469 186.8125 222.066406 188.820312 223.480469 189.753906 C 228.417969 193.015625 238.738281 190.371094 240.0625 185.070312 C 240.476562 183.414062 239.871094 181.359375 239.28125 180.390625 C 239.0625 180.03125 238.402344 179.6875 238.761719 179.089844 C 240.476562 179.851562 240.496094 181.492188 241.105469 183.597656 C 242.992188 190.105469 245.414062 196.949219 246.492188 204.101562 " fill-opacity="1" fill-rule="nonzero"/><path fill="#000000" d="M 233.03125 224.695312 C 236.679688 224.457031 240.054688 223.539062 242.558594 221.746094 C 242.027344 223.125 241.445312 224.480469 240.816406 225.8125 C 236.371094 227.621094 230.691406 228.195312 225.734375 226.515625 C 226.515625 228.800781 227.738281 231.019531 228.601562 233.625 C 229.007812 234.855469 229.316406 236.136719 229.566406 237.476562 C 228.808594 238.363281 228.027344 239.222656 227.21875 240.058594 C 226.429688 235.613281 224.929688 231.878906 223.21875 228.078125 C 219.496094 219.816406 216.03125 211.941406 210.714844 204.839844 C 212.496094 205.488281 213.511719 207.191406 214.707031 208.570312 C 218.273438 212.6875 221.328125 217.675781 223.914062 222.789062 C 226.703125 223.878906 229.152344 224.949219 233.03125 224.695312 " fill-opacity="1" fill-rule="nonzero"/><path fill="#eca457" d="M 185.792969 250.101562 C 178.230469 250.78125 170.417969 250.566406 162.867188 250.273438 C 163.972656 250.757812 165.417969 250.90625 166.515625 251.402344 C 165.539062 251.496094 164.550781 251.578125 163.476562 251.574219 C 165.023438 252.804688 167.1875 253.417969 168.945312 254.4375 C 167.847656 254.523438 166.773438 254.121094 165.820312 254.347656 C 168.136719 255.960938 172.109375 257.347656 176.152344 256.605469 C 178.734375 256.128906 181.394531 254.570312 183.882812 253.394531 C 186.550781 252.132812 189.035156 250.835938 191.175781 249.753906 C 187.410156 249.722656 185.441406 251.945312 182.40625 252.355469 C 183.390625 251.460938 184.722656 250.910156 185.792969 250.101562 " fill-opacity="1" fill-rule="nonzero"/><path fill="#ffffff" d="M 200.988281 242.472656 C 197.464844 244.265625 192.90625 244.4375 188.222656 244.984375 C 183.539062 245.535156 178.585938 245.503906 173.636719 245.503906 C 168.679688 245.503906 163.746094 245.511719 159.046875 244.984375 C 154.402344 244.464844 149.816406 244.257812 146.371094 242.382812 C 146.054688 242.203125 146.65625 241.640625 146.195312 241.605469 C 143.785156 242.171875 141.109375 242.476562 139.511719 243.859375 C 140.453125 245.101562 142.214844 245.492188 143.765625 245.851562 C 149 247.070312 154.761719 247.441406 160.699219 247.761719 C 168.726562 248.1875 177.433594 248.464844 185.359375 247.933594 C 191.542969 247.519531 197.941406 247.136719 203.246094 245.9375 C 204.9375 245.558594 206.863281 245.195312 207.847656 243.859375 C 206.261719 242.4375 203.546875 242.140625 201.074219 241.605469 C 200.839844 241.851562 201.417969 242.253906 200.988281 242.472656 " fill-opacity="1" fill-rule="nonzero"/><path fill="#b3b2b3" d="M 176.066406 214.378906 C 176.507812 213.566406 176.699219 212.996094 176.5 212.382812 C 175.921875 210.59375 171.882812 210.5 171.03125 212.039062 C 170.703125 212.628906 170.792969 213.78125 171.289062 214.292969 C 172.15625 215.175781 174.984375 215.070312 176.066406 214.378906 " fill-opacity="1" fill-rule="nonzero"/><path fill="#ffffff" d="M 173.203125 208.828125 C 167.746094 208.023438 162.363281 206.746094 159.914062 203.625 C 159.910156 203.574219 159.902344 203.523438 159.828125 203.539062 C 156.132812 206.097656 152.820312 210 150.277344 214.636719 C 147.761719 219.226562 146.140625 224.625 145.761719 230.417969 C 145.683594 231.636719 145.675781 232.71875 145.761719 233.800781 C 145.824219 234.582031 145.894531 235.59375 146.28125 236.402344 C 148.261719 223.261719 155.769531 215.640625 169.640625 214.378906 C 167.578125 210.179688 172.890625 208.328125 176.242188 209.609375 C 177.898438 210.242188 178.488281 212.25 177.804688 214.378906 C 180.746094 214.589844 183.3125 215.179688 185.707031 215.9375 C 188.125 214.003906 190.417969 211.652344 192.21875 209.175781 C 192.832031 208.332031 193.460938 207.464844 193.78125 206.488281 C 192.253906 207.347656 190.566406 208.765625 188.65625 209.175781 C 184.136719 210.144531 178.125 209.558594 173.203125 208.828125 " fill-opacity="1" fill-rule="nonzero"/><path fill="#ffffff" d="M 161.828125 202.5 C 163.121094 203.652344 164.855469 204.273438 166.601562 204.925781 C 171.820312 206.886719 178.222656 207.785156 185.617188 207.527344 C 185.664062 206.777344 184.671875 206.339844 184.140625 205.882812 C 174.183594 205.683594 166.960938 202.746094 161.828125 197.730469 C 161.925781 199.238281 161.773438 200.800781 161.828125 202.5 " fill-opacity="1" fill-rule="nonzero"/><path fill="#c7c7c7" d="M 173.636719 216.371094 C 172.445312 216.367188 171.234375 216.207031 169.988281 216.285156 C 164.019531 216.667969 158.828125 219.007812 155.140625 222.613281 C 150.707031 226.949219 147.40625 233.285156 148.195312 241.429688 C 155.386719 243.339844 164.554688 244.117188 173.636719 244.117188 C 182.757812 244.117188 191.953125 243.371094 199.164062 241.429688 C 199.960938 236.195312 198.507812 232.03125 196.648438 228.425781 C 194.007812 223.304688 189.511719 219.59375 184.054688 217.585938 C 180.992188 216.460938 177.613281 216.386719 173.636719 216.371094 " fill-opacity="1" fill-rule="nonzero"/><path fill="#ffffff" d="M 162.953125 157.585938 C 169.511719 153.78125 177.183594 150.898438 186.402344 150.390625 C 190.027344 150.1875 192.746094 150.621094 195.691406 151.082031 C 195.0625 148.328125 194.390625 145.621094 193.78125 142.847656 C 186.207031 144.449219 176.898438 143.355469 171.378906 140.59375 C 165.4375 141.8125 160.363281 144.003906 155.3125 146.835938 C 151.851562 148.777344 148.679688 151.125 146.023438 153.945312 C 145.296875 154.714844 143.554688 156.25 143.503906 156.980469 C 143.484375 157.265625 143.878906 157.949219 144.113281 158.539062 C 144.738281 160.121094 145.390625 161.929688 145.847656 163.308594 C 146.550781 165.414062 147.523438 167.972656 147.671875 170.160156 C 147.742188 171.195312 147.25 172.453125 148.105469 173.367188 C 151.324219 166.984375 156.433594 161.371094 162.953125 157.585938 " fill-opacity="1" fill-rule="nonzero"/><path fill="#ffffff" d="M 134.90625 156.285156 C 137.238281 157.355469 140.613281 156.921875 142.460938 155.679688 C 143.292969 154.375 144.355469 152.917969 145.414062 151.863281 C 145.753906 151.527344 146.414062 151.210938 146.28125 150.738281 C 143.945312 150.5625 141.65625 149.757812 141.332031 148.046875 C 143.179688 148.917969 146.011719 150.019531 148.453125 149.089844 C 148.882812 148.925781 149.269531 148.410156 149.757812 148.046875 C 151.164062 147.007812 152.886719 146.003906 154.097656 145.101562 C 152.382812 144.441406 151.078125 143.378906 150.539062 141.546875 C 152.019531 142.839844 153.519531 144.117188 156.703125 143.714844 C 160.007812 141.753906 163.875 140.355469 167.90625 139.117188 C 164.339844 137.324219 159.238281 136.351562 153.925781 136.777344 C 152.242188 136.910156 150.714844 137.4375 149.148438 137.472656 C 151.757812 135.925781 154.964844 134.824219 159.222656 135.042969 C 163.847656 135.28125 167.863281 136.886719 171.8125 138.25 C 175.785156 139.625 179.636719 141.191406 184.316406 141.546875 C 195.746094 142.410156 202.527344 137.410156 204.113281 127.585938 C 204.652344 132.984375 201.882812 137.199219 199.164062 139.898438 C 198.265625 140.789062 197.367188 141.425781 196.300781 142.066406 C 196.558594 143.371094 196.914062 144.574219 197.082031 145.96875 C 200.390625 144.546875 202.707031 142.109375 204.546875 139.03125 C 206.40625 135.921875 207.707031 131.796875 207.414062 127.5 C 206.957031 120.824219 202.886719 117.285156 196.90625 115.96875 C 193.996094 115.328125 190.140625 114.867188 186.746094 115.273438 C 179.722656 116.117188 174.210938 117.355469 168.511719 119.003906 C 166.738281 119.515625 164.832031 120.285156 162.78125 119.695312 C 164.09375 119.15625 165.671875 118.882812 166.949219 118.308594 C 156.386719 115.183594 146.207031 118.75 140.03125 124.203125 C 134.734375 128.882812 131.457031 135.941406 132.390625 145.449219 C 129.992188 147.9375 126.855469 151.414062 128.308594 156.199219 C 129.335938 159.585938 132.136719 161.601562 135.777344 162.527344 C 137.503906 164.820312 140.265625 166.082031 144.546875 165.824219 C 143.707031 163.019531 142.601562 160.484375 141.769531 157.671875 C 139.449219 158.433594 135.695312 158.488281 134.90625 156.285156 " fill-opacity="1" fill-rule="nonzero"/><path fill="#ffffff" d="M 194.5625 203.019531 C 192.707031 204.113281 190.488281 204.847656 188.136719 205.449219 C 187.902344 206.078125 187.636719 206.679688 187.527344 207.441406 C 190.289062 206.410156 192.558594 204.890625 194.648438 203.191406 C 194.667969 203.085938 194.785156 203.015625 194.5625 203.019531 " fill-opacity="1" fill-rule="nonzero"/><path fill="#ffffff" d="M 174.503906 258.765625 C 174.445312 258.765625 174.386719 258.765625 174.332031 258.765625 C 167.808594 259.761719 162.546875 257.351562 161.304688 252.179688 C 160.113281 250.828125 157.046875 251.347656 156.09375 249.753906 C 154.105469 249.570312 152.101562 249.40625 150.277344 249.058594 C 154.40625 255.351562 163.234375 261.914062 174.242188 258.941406 C 174.21875 258.78125 175.007812 258.890625 174.503906 258.765625 " fill-opacity="1" fill-rule="nonzero"/><path fill="#4d4e4e" d="M 183.449219 155.851562 C 183.144531 157.089844 183.871094 158.042969 184.054688 159.234375 C 185.988281 157.222656 190.246094 155.480469 193.953125 156.894531 C 194.078125 156.0625 194.292969 155.320312 194.390625 154.464844 C 193.609375 153.453125 192.308594 152.632812 190.65625 152.46875 C 187.75 152.183594 183.835938 154.273438 183.449219 155.851562 " fill-opacity="1" fill-rule="nonzero"/><path fill="#4d4e4e" d="M 157.746094 163.570312 C 157.738281 163.515625 157.730469 163.464844 157.660156 163.480469 C 156.824219 164.300781 155.933594 165.054688 155.054688 165.996094 C 153.582031 167.570312 152.152344 169.460938 150.886719 171.371094 C 150.355469 172.175781 149.066406 173.574219 149.0625 174.320312 C 149.058594 175.121094 149.921875 175.773438 150.015625 176.488281 C 150.949219 175.714844 152.558594 175.273438 153.925781 175.621094 C 157.03125 176.410156 157.710938 180.160156 158.179688 183.511719 C 158.757812 184.40625 159.253906 185.386719 160.261719 185.851562 C 159.292969 183.363281 159.164062 180.105469 159.308594 176.921875 C 159.53125 172.035156 158.960938 167.257812 157.746094 163.570312 " fill-opacity="1" fill-rule="nonzero"/><path fill="#4d4e4e" d="M 174.675781 164.78125 C 172.914062 161.820312 166.539062 161.570312 163.300781 163.394531 C 163.5 165.078125 163.988281 166.46875 164.691406 167.644531 C 167.277344 166.296875 170.191406 164.523438 174.675781 164.78125 " fill-opacity="1" fill-rule="nonzero"/><path fill="#4d4e4e" d="M 191.957031 178.65625 C 190.992188 179.414062 190.132812 180.042969 188.917969 180.390625 C 187.578125 180.773438 186.117188 180.625 184.488281 180.824219 C 184.140625 180.867188 183.703125 181.082031 183.273438 181.171875 C 182.761719 181.273438 182.160156 181.199219 181.796875 181.34375 C 181.234375 181.570312 180.738281 182.363281 180.234375 182.730469 C 178.539062 183.980469 176.398438 185 173.808594 185.246094 C 169.925781 185.617188 167.6875 184.035156 165.734375 182.558594 C 166.722656 185.882812 169.449219 188.054688 173.027344 188.714844 C 178.671875 189.753906 184.242188 187.414062 186.746094 184.550781 C 187.113281 184.136719 187.699219 183.328125 188.050781 183.25 C 188.492188 183.152344 189.097656 183.449219 189.527344 183.511719 C 192.53125 183.945312 195.605469 183.308594 197.429688 182.125 C 200.414062 180.179688 201.847656 174.472656 200.121094 170.070312 C 200.390625 175.578125 196.890625 178.058594 191.957031 178.65625 " fill-opacity="1" fill-rule="nonzero"/><path fill="#eca457" d="M 218.09375 169.292969 C 218.28125 167.917969 218.414062 166.207031 217.398438 165.5625 C 216.679688 165.105469 215.300781 165.359375 215.140625 166.171875 C 214.988281 166.964844 215.726562 167.738281 215.664062 168.683594 C 216.648438 168.390625 217.5 168.910156 218.09375 169.292969 " fill-opacity="1" fill-rule="nonzero"/><path fill="#eca457" d="M 196.90625 183.566406 C 197.53125 191.148438 192.417969 197.457031 185.445312 198.0625 C 178.757812 198.644531 174.742188 194.828125 173.289062 189.917969 C 168.667969 188.894531 164.042969 186.03125 165.300781 180.039062 C 166.800781 185.421875 177.222656 184.402344 180.0625 180.90625 C 178.335938 180.207031 178.378906 176.574219 180.410156 176.226562 C 178.929688 178.121094 179.988281 180.324219 182.925781 179.78125 C 183.414062 179.691406 183.902344 179.40625 184.488281 179.347656 C 185.582031 179.242188 186.800781 179.464844 187.789062 179.347656 C 190.988281 178.980469 193.242188 175.222656 191.4375 172.5 C 189.808594 170.046875 184.621094 171.695312 184.835938 167.296875 C 185.1875 167.816406 185.347656 168.648438 185.964844 169.117188 C 187.707031 170.4375 190.207031 169.660156 191.871094 171.199219 C 193.320312 172.539062 193.824219 175.332031 192.652344 177.441406 C 196.570312 177.054688 200.167969 173.488281 199.078125 168.742188 C 198.953125 168.191406 198.566406 167.6875 198.296875 167.066406 C 198.355469 167.066406 198.414062 167.066406 198.46875 167.066406 C 203.664062 169.933594 202.566406 181.964844 196.90625 183.566406 Z M 186.835938 202.328125 C 183.390625 202.667969 180.269531 201.605469 178.84375 199.203125 C 181.304688 199.78125 183.179688 200.730469 186.3125 200.503906 C 188.558594 200.34375 190.421875 199.535156 192.042969 198.683594 C 192.660156 198.363281 193.128906 197.910156 193.78125 197.644531 C 192.9375 199.796875 190.011719 202.011719 186.835938 202.328125 Z M 163.128906 166.605469 C 162.824219 165.660156 162.328125 164.476562 162.609375 163.480469 C 162.992188 162.105469 166.136719 161.523438 167.730469 161.402344 C 170.585938 161.179688 172.863281 161.988281 174.417969 163.222656 C 175.191406 163.839844 176.074219 164.617188 176.242188 165.5625 C 173.222656 165.59375 170.773438 165.851562 168.339844 166.863281 C 167.835938 167.074219 167.128906 167.503906 166.429688 167.902344 C 165.882812 168.21875 164.859375 168.972656 164.519531 168.945312 C 163.703125 168.878906 163.359375 167.3125 163.128906 166.605469 Z M 155.574219 188.714844 C 153.625 188.660156 153.027344 185.503906 154.445312 184.117188 C 153.898438 183.144531 153.292969 181.3125 152.015625 181.34375 C 150.921875 181.367188 150.40625 182.734375 150.539062 184.378906 C 149.375 182.789062 150.671875 180.285156 152.449219 180.476562 C 153.449219 180.585938 154.183594 181.621094 154.792969 182.46875 C 155.164062 182.988281 155.761719 183.699219 155.746094 184.203125 C 155.730469 184.855469 154.820312 185.480469 154.707031 186.285156 C 154.558594 187.3125 154.796875 188.046875 155.574219 188.714844 Z M 203.332031 167.210938 C 201.71875 165.28125 199.828125 163.503906 198.816406 161.226562 C 197.738281 158.800781 197.125 156.25 196.300781 153.164062 C 195.382812 152.808594 194.5 152.417969 193.347656 152.296875 C 193.734375 152.964844 194.984375 153.054688 195.257812 154.292969 C 195.421875 155.035156 194.984375 157.636719 194.390625 157.847656 C 193.710938 158.085938 192.851562 157.328125 192.21875 157.238281 C 189.867188 156.90625 187.089844 157.703125 185.617188 158.886719 C 184.933594 159.4375 184.851562 160.109375 183.96875 160.535156 C 183.269531 159.355469 182.3125 157.585938 182.492188 156.027344 C 182.761719 153.703125 185.648438 152.933594 187.355469 151.949219 C 174.765625 152.5 166.132812 157.003906 158.613281 162.613281 C 159.457031 165.128906 160.652344 167.941406 160.871094 171.546875 C 161.101562 175.332031 160.226562 179.292969 160.609375 182.816406 C 160.734375 183.96875 162.210938 186.765625 161.652344 187.328125 C 161.167969 187.808594 160.222656 187.1875 159.742188 186.894531 C 157.152344 185.300781 156.679688 181.96875 155.660156 179.003906 C 154.324219 177.449219 151.285156 177.996094 150.191406 179.175781 C 146.640625 183 149.839844 192.636719 155.402344 191.921875 C 156.945312 191.722656 157.46875 190.226562 158.441406 189.148438 C 161.726562 196.816406 167.769531 201.792969 177.023438 203.625 C 180.117188 204.238281 183.742188 204.816406 187.179688 204.320312 C 189.910156 203.925781 192.609375 202.671875 194.824219 201.460938 C 197.148438 200.183594 199.152344 198.71875 200.816406 196.949219 C 204.226562 193.324219 207.125 188.617188 208.023438 183.078125 C 209.230469 175.609375 206.617188 171.132812 203.332031 167.210938 " fill-opacity="1" fill-rule="nonzero"/><path fill="#eca457" d="M 228.773438 180.042969 C 228 175.644531 230.324219 172.871094 233.464844 171.804688 C 231.5 173.804688 229.578125 176.59375 228.773438 180.042969 Z M 237.632812 167.644531 C 237.363281 166.511719 236.722656 165.316406 236.328125 164.089844 C 235.933594 162.847656 235.523438 161.644531 235.113281 160.449219 C 234.265625 157.976562 233.8125 155.140625 231.988281 153.859375 C 230.917969 154.535156 230.828125 156.421875 230.945312 157.847656 C 231.078125 159.414062 231.851562 161.667969 232.421875 162.960938 C 233.140625 164.589844 234.25 165.828125 234.941406 166.863281 C 233.085938 166.445312 232.050781 164.808594 231.207031 163.308594 C 230.351562 161.796875 229.699219 159.894531 229.382812 157.761719 C 229.269531 156.992188 229.421875 156.148438 229.296875 155.332031 C 229.128906 154.246094 228.53125 152.929688 227.992188 151.777344 C 227.691406 151.128906 226.605469 149.128906 225.648438 149.261719 C 225.007812 149.351562 224.753906 150.519531 224.695312 151.34375 C 224.164062 158.710938 228.4375 163.066406 232.683594 165.996094 C 231.71875 166.140625 230.769531 166.074219 230.078125 165.824219 C 226.617188 164.558594 224.003906 158.710938 223.128906 154.898438 C 222.585938 152.515625 222.027344 149.867188 220.179688 148.828125 C 218.5625 147.921875 217.753906 150.179688 217.921875 151.605469 C 218.175781 153.757812 219.429688 155.457031 220.527344 157.5 C 221.453125 159.226562 222.421875 161.542969 223.824219 162.789062 C 225.109375 163.925781 227.355469 164.195312 228.515625 165.128906 C 227.441406 165.433594 225.855469 165.839844 224.953125 165.476562 C 222.421875 164.453125 220.511719 161.300781 219.222656 159.148438 C 215.761719 158.4375 214.066406 161.464844 214.96875 165.128906 C 216.976562 163.898438 219.445312 165.5625 219.050781 168.335938 C 219.921875 166.660156 219.917969 163.664062 220.003906 161.488281 C 220.902344 162.355469 221.21875 163.804688 221.308594 165.476562 C 221.960938 165.40625 222.734375 164.996094 223.390625 165.214844 C 223.121094 166.480469 221.890625 166.78125 221.132812 167.558594 C 220.816406 168.886719 221.699219 169.765625 222.175781 170.59375 C 222.578125 170.296875 223.726562 170.15625 224 170.679688 C 222.707031 171.238281 221.640625 172.023438 221.046875 173.28125 C 222.746094 174.011719 223.523438 175.660156 223.824219 177.789062 C 222.433594 176.722656 221.765625 174.929688 219.742188 174.492188 C 219.417969 174.976562 219.28125 175.648438 218.875 176.054688 C 218.953125 174.445312 219.078125 172.347656 218.269531 171.371094 C 218.421875 173.789062 215.414062 175.003906 214.1875 173.105469 C 214.183594 174.890625 213.554688 176.960938 214.359375 178.222656 C 214.773438 178.867188 216.253906 179.492188 217.140625 179.871094 C 220.25 181.203125 223.761719 182.855469 226.953125 183.511719 C 225.90625 184.113281 224.746094 184.601562 223.128906 184.636719 C 223.660156 185.699219 223.996094 186.957031 224.433594 188.105469 C 228.4375 190.117188 235.125 188.113281 237.285156 185.332031 C 238.421875 183.867188 237.625 182.632812 237.285156 180.738281 C 236.164062 181.207031 235.152344 182.242188 233.898438 182.296875 C 235.730469 179.429688 238.074219 176.5625 238.066406 172.328125 C 238.0625 170.933594 237.972656 169.074219 237.632812 167.644531 " fill-opacity="1" fill-rule="nonzero"/><path fill="#eca457" d="M 215.75 173.367188 C 217.183594 173.484375 217.585938 172.085938 217.574219 170.332031 C 215.746094 167.292969 212.867188 173.128906 215.75 173.367188 " fill-opacity="1" fill-rule="nonzero"/><path fill="#ed2a2f" d="M 182.925781 188.800781 C 182.621094 188.730469 182.332031 188.726562 182.144531 188.800781 C 180.089844 189.601562 177.445312 190.101562 174.589844 190.015625 C 175.554688 192.6875 177.300781 194.734375 180.0625 195.648438 C 182.714844 196.527344 187.234375 196.523438 189.4375 195.042969 C 188.417969 191.925781 186.070312 189.527344 182.925781 188.800781 " fill-opacity="1" fill-rule="nonzero"/><path fill="#ffffff" d="M 185.269531 257.871094 C 201.746094 257.871094 216.625 251.042969 227.21875 240.0625 C 226.433594 235.617188 224.929688 231.878906 223.21875 228.078125 C 219.5 219.816406 216.03125 211.941406 210.714844 204.839844 C 212.496094 205.488281 213.515625 207.1875 214.707031 208.570312 C 218.273438 212.6875 221.328125 217.675781 223.914062 222.789062 C 226.703125 223.878906 229.152344 224.949219 233.03125 224.695312 C 239.75 224.257812 245.554688 221.511719 246.664062 215.246094 C 247.035156 213.136719 247.128906 210.585938 246.921875 207.875 C 246.277344 199.34375 243.324219 191.238281 241.105469 183.597656 C 240.496094 181.492188 240.480469 179.851562 238.761719 179.089844 C 238.40625 179.6875 239.0625 180.03125 239.28125 180.390625 C 239.871094 181.359375 240.476562 183.414062 240.0625 185.070312 C 238.738281 190.375 228.421875 193.015625 223.476562 189.753906 C 222.066406 188.820312 220.730469 186.8125 221.566406 184.464844 C 220.191406 184.675781 220.613281 186.46875 220.785156 187.5 C 221.394531 191.148438 222.488281 194.558594 223.390625 197.730469 C 224.695312 202.3125 225.492188 207.167969 226.863281 211.429688 C 226.847656 211.527344 226.777344 211.476562 226.777344 211.429688 C 226.089844 210.585938 225.480469 209.664062 224.867188 208.742188 C 225.414062 211.605469 225.621094 214.808594 226.257812 217.585938 C 223.898438 214.390625 222.792969 210.335938 222.609375 205.015625 C 222.585938 204.3125 222.832031 203.390625 222.695312 202.847656 C 222.59375 202.429688 221.648438 201.726562 221.132812 201.285156 C 217.152344 197.859375 212.539062 195.320312 206.546875 194.089844 C 203.460938 197.714844 200.390625 201.351562 196.734375 204.40625 C 194.417969 209.234375 191.367188 213.324219 187.527344 216.632812 C 191.289062 218.34375 194.371094 221.003906 196.734375 224.4375 C 199.375 228.277344 201.40625 233.058594 201.25 239.609375 C 202.644531 240.078125 204.523438 240.429688 206.285156 241.082031 C 207.5625 241.558594 210.027344 242.289062 210.105469 243.769531 C 210.214844 245.898438 206.425781 246.902344 204.460938 247.414062 C 203.359375 247.699219 202.066406 248.046875 200.726562 248.28125 C 199.421875 248.507812 197.964844 248.667969 196.90625 249.058594 C 196.007812 249.394531 195.152344 250.078125 194.214844 250.535156 C 193.292969 250.984375 192.296875 251.421875 191.351562 251.835938 C 189.394531 252.6875 187.15625 253.324219 185.53125 254.261719 C 184.5625 254.820312 183.722656 255.703125 182.839844 256.429688 C 182.308594 256.871094 181.777344 257.308594 181.238281 257.734375 C 182.570312 257.824219 183.914062 257.871094 185.269531 257.871094 " fill-opacity="1" fill-rule="nonzero"/><path fill="#d08b40" d="M 229.210938 166.257812 C 230.679688 167.171875 233.933594 168.410156 235.546875 166.863281 C 235.304688 166.816406 235.0625 166.761719 234.832031 166.703125 C 234.867188 166.757812 234.90625 166.808594 234.941406 166.863281 C 233.085938 166.445312 232.050781 164.808594 231.207031 163.308594 C 230.351562 161.796875 229.699219 159.894531 229.382812 157.761719 C 229.277344 157.035156 229.402344 156.238281 229.3125 155.464844 C 228.996094 156.050781 228.910156 156.847656 228.863281 157.585938 C 228.671875 160.449219 229.890625 162.894531 230.980469 164.730469 C 231.539062 165.183594 232.109375 165.601562 232.683594 165.996094 C 231.71875 166.140625 230.769531 166.074219 230.078125 165.824219 C 226.617188 164.558594 224.003906 158.710938 223.128906 154.898438 C 222.933594 154.035156 222.734375 153.132812 222.46875 152.289062 C 222.316406 152.851562 222.296875 153.550781 222.347656 154.203125 C 222.601562 157.410156 224.8125 162.109375 226.691406 164.003906 C 226.851562 164.164062 227.042969 164.292969 227.210938 164.417969 C 227.707031 164.625 228.160156 164.84375 228.515625 165.128906 C 227.441406 165.433594 225.855469 165.839844 224.953125 165.476562 C 222.421875 164.453125 220.511719 161.300781 219.222656 159.148438 C 218.949219 159.089844 218.683594 159.058594 218.429688 159.050781 C 218.246094 159.089844 218.074219 159.175781 217.921875 159.320312 C 218.457031 160.453125 218.765625 162.757812 218.617188 165.128906 C 218.601562 165.382812 218.5625 165.621094 218.515625 165.855469 C 218.960938 166.484375 219.191406 167.339844 219.050781 168.335938 C 219.921875 166.660156 219.917969 163.664062 220.003906 161.488281 C 220.902344 162.355469 221.21875 163.804688 221.308594 165.476562 C 221.960938 165.40625 222.734375 164.996094 223.390625 165.214844 C 223.15625 166.328125 222.167969 166.695312 221.421875 167.296875 C 222.355469 167.226562 223.101562 166.96875 223.738281 166.605469 C 225.390625 167.253906 227.851562 166.894531 229.210938 166.257812 " fill-opacity="1" fill-rule="nonzero"/><path fill="#d08b40" d="M 220.445312 174.71875 C 220.230469 174.625 220 174.546875 219.742188 174.492188 C 219.417969 174.976562 219.28125 175.648438 218.875 176.054688 C 218.894531 175.628906 218.917969 175.167969 218.929688 174.707031 C 218.816406 175.917969 218.480469 177.257812 218.09375 178.136719 C 219.347656 177.5 220.636719 176.386719 220.445312 174.71875 " fill-opacity="1" fill-rule="nonzero"/><path fill="#d08b40" d="M 229.816406 171.027344 C 228.304688 170.910156 226.511719 170.410156 225.648438 170.851562 C 225.355469 172.136719 226.410156 172.527344 226.863281 173.714844 C 227.519531 175.421875 227 177.84375 227.558594 179.609375 C 227.722656 180.121094 228.070312 180.683594 228.339844 181.082031 C 228.597656 181.464844 229.125 182.152344 229.382812 182.039062 C 229.230469 181.136719 229.074219 180.132812 229.015625 179.140625 C 228.929688 179.4375 228.847656 179.738281 228.773438 180.042969 C 228 175.644531 230.324219 172.871094 233.464844 171.804688 C 233.1875 172.085938 232.914062 172.382812 232.644531 172.691406 C 233.136719 172.316406 233.585938 171.902344 233.898438 171.371094 C 232.871094 170.753906 231.351562 171.144531 229.816406 171.027344 " fill-opacity="1" fill-rule="nonzero"/><path fill="#d08b40" d="M 180.0625 180.921875 C 178.492188 180.28125 178.386719 177.171875 179.902344 176.421875 C 179.8125 176.421875 179.71875 176.421875 179.628906 176.421875 C 177.890625 178.292969 176.453125 180.546875 174.9375 182.480469 C 174.632812 182.871094 174.207031 183.234375 173.972656 183.6875 C 176.515625 183.34375 178.910156 182.335938 180.0625 180.921875 " fill-opacity="1" fill-rule="nonzero"/><path fill="#d08b40" d="M 154.445312 184.117188 C 153.898438 183.144531 153.292969 181.3125 152.015625 181.34375 C 151.1875 181.363281 150.691406 182.144531 150.554688 183.234375 C 150.480469 185.957031 152.421875 188.335938 155.054688 188.714844 C 155.054688 188.679688 155.050781 188.644531 155.046875 188.613281 C 153.527344 188.0625 153.164062 185.371094 154.445312 184.117188 " fill-opacity="1" fill-rule="nonzero"/><path fill="#c7c7c7" d="M 173.636719 245.503906 C 168.679688 245.503906 163.746094 245.511719 159.046875 244.984375 C 154.402344 244.464844 149.816406 244.257812 146.371094 242.382812 C 146.25 242.3125 146.261719 242.191406 146.300781 242.058594 C 145.40625 242.460938 144.453125 243.316406 144.460938 243.769531 C 144.476562 245.128906 147.371094 245.289062 149.148438 245.503906 C 158.90625 246.695312 170.03125 246.808594 179.976562 246.027344 C 185.003906 245.628906 189.945312 245.351562 194.066406 244.335938 C 192.1875 244.585938 190.21875 244.75 188.222656 244.984375 C 183.539062 245.535156 178.585938 245.503906 173.636719 245.503906 " fill-opacity="1" fill-rule="nonzero"/><path fill="#b3b3b4" d="M 198.035156 240.128906 C 197.957031 234.96875 196.601562 231.570312 194.390625 228.597656 C 193.773438 227.769531 193.191406 226.789062 192.304688 226.515625 C 193.320312 229.460938 194.160156 232.585938 194.390625 236.316406 C 192.644531 237.535156 190.472656 238.035156 187.964844 238.570312 C 180.46875 240.167969 169.304688 239.46875 163.390625 236.835938 C 163.460938 230.28125 165.074219 225.066406 167.382812 220.792969 C 168.167969 219.347656 169.371094 218.273438 169.988281 216.804688 C 168.171875 216.851562 166.925781 217.574219 165.386719 218.28125 C 157.976562 221.679688 153.515625 227.832031 152.621094 237.789062 C 152.539062 238.714844 152.085938 241.074219 152.191406 242.339844 C 158.632812 243.589844 166.164062 244.117188 173.636719 244.117188 C 182.296875 244.117188 191.023438 243.441406 198.054688 241.714844 C 198.082031 241.199219 198.042969 240.617188 198.035156 240.128906 " fill-opacity="1" fill-rule="nonzero"/><path fill="#d08b40" d="M 182.320312 156.113281 C 181.863281 157.992188 181.789062 160.355469 182.144531 162.269531 C 182.597656 164.699219 183.734375 166.261719 184.84375 167.914062 C 184.828125 167.722656 184.828125 167.519531 184.835938 167.296875 C 185.1875 167.816406 185.347656 168.648438 185.964844 169.117188 C 187 169.898438 188.296875 169.945312 189.53125 170.171875 C 188.082031 168.910156 186.59375 167.613281 186.3125 165.390625 C 185.9375 162.414062 187.015625 159.066406 189.179688 158.28125 C 189.890625 158.019531 190.949219 157.941406 191.871094 158.019531 C 192.683594 158.089844 193.660156 158.640625 194.300781 158.019531 C 194.304688 157.964844 194.300781 157.917969 194.292969 157.871094 C 193.628906 158.015625 192.820312 157.324219 192.21875 157.238281 C 191.800781 157.179688 191.371094 157.15625 190.9375 157.164062 C 190.804688 157.195312 190.683594 157.222656 190.566406 157.238281 C 190.273438 157.285156 189.980469 157.285156 189.691406 157.269531 C 188.097656 157.507812 186.578125 158.113281 185.617188 158.886719 C 184.933594 159.4375 184.851562 160.109375 183.96875 160.535156 C 183.269531 159.355469 182.3125 157.585938 182.492188 156.027344 C 182.761719 153.703125 185.648438 152.933594 187.355469 151.949219 C 179.980469 152.273438 173.964844 153.949219 168.738281 156.414062 C 172.921875 156.007812 178.050781 155.25 182.320312 156.113281 " fill-opacity="1" fill-rule="nonzero"/><path fill="#d08b40" d="M 172.421875 253.570312 C 175.75 254.230469 179.980469 253.730469 182.492188 252.789062 C 183.191406 252.527344 183.808594 252.167969 184.441406 251.804688 C 183.796875 252.054688 183.132812 252.257812 182.40625 252.355469 C 183.390625 251.460938 184.722656 250.910156 185.792969 250.101562 C 178.230469 250.78125 170.417969 250.566406 162.867188 250.273438 C 163.972656 250.757812 165.417969 250.90625 166.515625 251.402344 C 166.398438 251.414062 166.285156 251.421875 166.167969 251.433594 C 166.488281 251.523438 166.808594 251.625 167.125 251.75 C 168.855469 252.417969 170.582031 253.203125 172.421875 253.570312 " fill-opacity="1" fill-rule="nonzero"/><path fill="#c7c7c7" d="M 204.15625 129.746094 C 203.886719 134.113281 201.507812 137.574219 199.164062 139.898438 C 198.265625 140.789062 197.367188 141.425781 196.300781 142.066406 C 196.527344 143.214844 196.828125 144.289062 197.015625 145.480469 C 201.269531 142.351562 204.984375 137.164062 204.15625 129.746094 " fill-opacity="1" fill-rule="nonzero"/><path fill="#c7c7c7" d="M 150.539062 141.546875 C 150.695312 141.683594 150.855469 141.835938 151.015625 141.972656 C 150.925781 141.820312 150.851562 141.613281 150.796875 141.488281 C 150.710938 141.488281 150.625 141.488281 150.539062 141.488281 C 150.269531 143.359375 150.640625 145.476562 151.707031 146.730469 C 152.570312 146.167969 153.414062 145.617188 154.097656 145.109375 C 152.382812 144.449219 151.078125 143.378906 150.539062 141.546875 " fill-opacity="1" fill-rule="nonzero"/><path fill="#c7c7c7" d="M 153.695312 147.789062 C 153.652344 147.816406 153.605469 147.84375 153.558594 147.871094 C 153.566406 147.871094 153.570312 147.875 153.578125 147.875 C 153.660156 147.851562 153.691406 147.824219 153.695312 147.789062 " fill-opacity="1" fill-rule="nonzero"/><path fill="#c7c7c7" d="M 144.886719 152.421875 C 145.0625 152.226562 145.238281 152.039062 145.414062 151.863281 C 145.753906 151.527344 146.414062 151.210938 146.28125 150.738281 C 144.070312 150.570312 141.902344 149.84375 141.402344 148.316406 C 141.320312 148.234375 141.238281 148.144531 141.160156 148.046875 C 141.089844 150.476562 143.125 151.527344 144.886719 152.421875 " fill-opacity="1" fill-rule="nonzero"/><path fill="#c7c7c7" d="M 229.992188 208.394531 C 231.289062 213.910156 233.308594 219.660156 238.066406 221.660156 C 236.90625 219.960938 235.96875 218.289062 235.289062 216.113281 C 234.605469 213.929688 234.441406 211.519531 234.070312 208.914062 C 233.542969 205.167969 233.464844 201.035156 233.464844 197.039062 C 233.464844 195.71875 233.695312 194.324219 233.03125 193.222656 C 228.941406 193.601562 225.6875 192.484375 223.128906 191.054688 C 223.144531 191.15625 223.117188 191.300781 223.21875 191.316406 C 223.558594 193.648438 225.078125 194.730469 226.257812 196.171875 C 227.0625 197.152344 227.726562 198.238281 228.167969 199.550781 C 229.042969 202.183594 229.300781 205.46875 229.992188 208.394531 " fill-opacity="1" fill-rule="nonzero"/><path fill="#c7c7c7" d="M 158.699219 254.695312 C 161.054688 256.34375 163.34375 257.664062 166.339844 258 C 163.789062 256.917969 161.96875 254.953125 161.304688 252.183594 C 160.113281 250.832031 157.046875 251.347656 156.09375 249.753906 C 155.082031 249.660156 154.0625 249.574219 153.066406 249.460938 C 154.304688 251.539062 156.4375 253.113281 158.699219 254.695312 " fill-opacity="1" fill-rule="nonzero"/><path fill="#c7c7c7" d="M 193.179688 150.707031 C 193.089844 148.101562 192.3125 145.480469 191.582031 143.230469 C 184.476562 144.226562 176.375 143.09375 171.378906 140.59375 C 166.804688 141.53125 162.75 143.046875 158.820312 144.984375 C 159.5 144.734375 160.207031 144.527344 160.957031 144.492188 C 166.617188 144.25 171.136719 148.078125 169.207031 153.945312 C 169.105469 154.164062 168.863281 154.234375 168.859375 154.550781 C 168.859375 154.5625 168.855469 154.574219 168.855469 154.585938 C 174.019531 152.328125 179.816406 150.753906 186.402344 150.390625 C 188.984375 150.246094 191.105469 150.425781 193.179688 150.707031 " fill-opacity="1" fill-rule="nonzero"/><path fill="#c7c7c7" d="M 161.390625 134.695312 C 168.992188 135.089844 174.773438 138.917969 181.796875 139.8125 C 183.488281 140.027344 185.707031 140.019531 187.269531 139.8125 C 194.042969 138.914062 199.082031 135.34375 201.25 129.839844 C 201.894531 128.199219 202.621094 125.644531 201.769531 124.203125 C 198.539062 130.554688 192.367188 134.019531 184.140625 134.609375 C 178.15625 135.039062 172.957031 133.773438 169.035156 131.835938 C 165.914062 130.292969 163.0625 127.746094 159.742188 127.066406 C 157.199219 126.542969 154.90625 126.96875 152.621094 127.414062 C 151.1875 127.691406 149.566406 128.222656 148.367188 127.414062 C 148.464844 125.511719 150.011719 124.609375 149.84375 122.730469 C 148.265625 122.828125 146.8125 123.707031 145.414062 124.464844 C 140.421875 127.167969 135.410156 131.011719 135.429688 138.335938 C 135.429688 139.183594 135.394531 140.695312 135.601562 141.632812 C 136.585938 146.019531 142.402344 147.65625 148.105469 146.75 C 148.902344 146.621094 149.675781 146.316406 149.757812 145.707031 C 149.851562 145.003906 149.125 144.375 148.800781 143.714844 C 148.128906 142.34375 147.851562 141.003906 148.453125 139.464844 C 150.558594 137.863281 157.109375 138.242188 158.789062 140.160156 C 159.628906 141.121094 158.90625 142.125 158.027344 142.972656 C 161.023438 141.390625 164.402344 140.191406 167.90625 139.117188 C 164.339844 137.324219 159.238281 136.351562 153.925781 136.777344 C 152.242188 136.910156 150.714844 137.4375 149.148438 137.472656 C 149.789062 137.089844 150.46875 136.738281 151.191406 136.421875 C 151.175781 136.425781 151.160156 136.429688 151.144531 136.429688 C 153.707031 134.769531 157.476562 134.492188 161.390625 134.695312 " fill-opacity="1" fill-rule="nonzero"/><path fill="#c7c7c7" d="M 214.707031 208.570312 C 217.824219 212.167969 220.550781 216.429688 222.910156 220.859375 C 223.589844 220.957031 224.355469 221.011719 225.128906 221.140625 C 226.332031 221.339844 227.847656 221.53125 227.90625 220.535156 C 227.921875 220.300781 227.453125 219.625 227.210938 219.148438 C 226.808594 218.347656 226.421875 217.527344 226.066406 216.679688 C 226.125 216.988281 226.1875 217.289062 226.257812 217.585938 C 224.042969 214.585938 222.933594 210.824219 222.652344 205.96875 C 222.328125 208.175781 222.960938 210.972656 223.304688 212.992188 C 218.773438 210.433594 214.921875 207.199219 210.628906 204.40625 C 210.734375 204.585938 210.847656 204.765625 210.960938 204.941406 C 212.59375 205.652344 213.570312 207.253906 214.707031 208.570312 " fill-opacity="1" fill-rule="nonzero"/><path fill="#c7c7c7" d="M 226.777344 211.429688 C 226.089844 210.585938 225.480469 209.664062 224.867188 208.742188 C 224.992188 209.386719 225.097656 210.046875 225.195312 210.71875 C 226.53125 213.695312 228.570312 216.070312 230.773438 217.847656 C 229.636719 216.164062 228.789062 214.25 227.644531 212.382812 C 227.253906 211.742188 226.875 210.996094 226.5 210.238281 C 226.617188 210.640625 226.738281 211.039062 226.863281 211.429688 C 226.847656 211.527344 226.777344 211.476562 226.777344 211.429688 " fill-opacity="1" fill-rule="nonzero"/><path fill="#c7c7c7" d="M 190.035156 249.816406 C 189.101562 249.925781 188.28125 250.167969 187.515625 250.46875 C 188.367188 250.25 189.234375 250.101562 190.035156 249.816406 " fill-opacity="1" fill-rule="nonzero"/><path fill="#c7c7c7" d="M 138.988281 160.792969 C 140.339844 161.644531 141.871094 162.878906 143.703125 163.269531 C 143.042969 161.417969 142.339844 159.609375 141.769531 157.671875 C 139.675781 158.359375 136.425781 158.46875 135.226562 156.875 C 135.605469 158.824219 137.453125 159.824219 138.988281 160.792969 " fill-opacity="1" fill-rule="nonzero"/><path fill="#d08b40" d="M 199.511719 189.234375 C 197.863281 192.515625 196.074219 195.652344 193.347656 197.859375 C 193.484375 197.78125 193.628906 197.707031 193.78125 197.644531 C 192.9375 199.796875 190.011719 202.011719 186.835938 202.328125 C 183.390625 202.667969 180.269531 201.605469 178.84375 199.203125 C 179.292969 199.308594 179.722656 199.425781 180.144531 199.546875 C 177.363281 198.390625 174.761719 197.011719 172.941406 195.042969 C 172.550781 194.621094 172.296875 193.894531 171.898438 194.003906 C 172.214844 199.550781 175.347656 202.292969 179.449219 204.066406 C 181.929688 204.460938 184.605469 204.691406 187.179688 204.320312 C 189.910156 203.925781 192.609375 202.671875 194.824219 201.460938 C 194.828125 201.457031 194.835938 201.453125 194.84375 201.449219 C 195.132812 201.144531 195.417969 200.828125 195.691406 200.503906 C 197.972656 197.796875 200.394531 193.953125 199.511719 189.234375 " fill-opacity="1" fill-rule="nonzero"/><path fill="#f8b76e" d="M 203.332031 167.210938 C 201.980469 165.59375 200.4375 164.085938 199.375 162.300781 C 199.328125 162.234375 199.285156 162.167969 199.25 162.09375 C 199.246094 162.085938 199.242188 162.074219 199.238281 162.0625 C 199.085938 161.792969 198.945312 161.511719 198.816406 161.226562 C 197.738281 158.800781 197.125 156.25 196.300781 153.164062 C 196.132812 153.097656 195.964844 153.03125 195.796875 152.964844 C 195.882812 153.578125 196.167969 154.304688 196.300781 154.898438 C 196.785156 157.054688 197.089844 158.679688 197.515625 160.621094 C 197.726562 161.589844 197.789062 162.695312 198.121094 163.480469 C 198.320312 163.945312 198.925781 164.46875 199.339844 164.957031 C 202.25 168.421875 204.773438 172.292969 205.765625 177.527344 C 206.621094 182.058594 206.25 186.644531 205.269531 190.898438 C 206.578125 188.53125 207.5625 185.914062 208.023438 183.078125 C 209.230469 175.609375 206.617188 171.132812 203.332031 167.210938 " fill-opacity="1" fill-rule="nonzero"/><path fill="#f8b76e" d="M 191.4375 172.5 C 190.25 170.710938 187.175781 171.101562 185.679688 169.746094 C 185.65625 169.738281 185.636719 169.734375 185.617188 169.726562 C 186.019531 172.382812 190.304688 172.796875 190.742188 175.449219 C 190.898438 176.40625 190.5625 177.410156 190.214844 178.3125 C 191.941406 176.925781 192.730469 174.449219 191.4375 172.5 " fill-opacity="1" fill-rule="nonzero"/><path fill="#e6e6e5" d="M 153.75 142.238281 C 152.273438 141.6875 151.242188 141.023438 150.363281 140.59375 C 150.359375 140.539062 150.351562 140.488281 150.277344 140.503906 C 150.191406 140.503906 150.175781 140.574219 150.105469 140.59375 C 150.164062 140.984375 150.328125 141.328125 150.566406 141.628906 C 150.554688 141.601562 150.546875 141.574219 150.539062 141.546875 C 151.132812 142.066406 151.730469 142.582031 152.441406 142.988281 C 152.648438 143.09375 152.855469 143.1875 153.054688 143.28125 C 153.160156 143.328125 153.269531 143.378906 153.378906 143.425781 C 154.261719 143.746094 155.324219 143.886719 156.703125 143.714844 C 156.835938 143.636719 156.96875 143.558594 157.101562 143.484375 C 156.644531 142.675781 154.59375 142.554688 153.75 142.238281 " fill-opacity="1" fill-rule="nonzero"/><path fill="#e6e6e5" d="M 135.777344 162.527344 C 137.503906 164.820312 140.265625 166.082031 144.546875 165.824219 C 144.46875 165.566406 144.386719 165.316406 144.308594 165.0625 C 140.558594 164.933594 138.023438 163.082031 136.382812 160.707031 C 134.109375 160.242188 132.507812 158.925781 131.78125 157.066406 C 131.074219 155.253906 131.03125 152.324219 131.433594 150.304688 C 131.785156 148.53125 132.898438 147.03125 132.738281 145.449219 C 132.601562 145.417969 132.488281 145.421875 132.390625 145.433594 C 132.390625 145.441406 132.390625 145.445312 132.390625 145.449219 C 129.992188 147.9375 126.855469 151.414062 128.308594 156.199219 C 128.472656 156.742188 128.683594 157.25 128.9375 157.726562 C 129.167969 158.132812 129.429688 158.535156 129.71875 158.921875 C 131.125 160.710938 133.246094 161.882812 135.777344 162.527344 " fill-opacity="1" fill-rule="nonzero"/><path fill="#e6e6e5" d="M 157.398438 159.320312 C 153.832031 158.324219 153.230469 153.511719 153.492188 149.261719 C 150.863281 151.03125 148.21875 152.785156 146.28125 155.246094 C 148.464844 157.949219 149.433594 161.867188 149.84375 166.34375 C 151.28125 165.375 152.570312 164.203125 153.839844 163.046875 C 155.089844 161.902344 156.460938 160.777344 157.398438 159.320312 " fill-opacity="1" fill-rule="nonzero"/><path fill="#e6e6e5" d="M 172.625 211.0625 C 172.101562 212.761719 175.464844 213.777344 176.574219 212.777344 C 176.566406 212.648438 176.542969 212.515625 176.5 212.382812 C 176.109375 211.171875 174.125 210.738281 172.625 211.0625 " fill-opacity="1" fill-rule="nonzero"/><path fill="#e6e6e5" d="M 196.648438 228.425781 C 194.007812 223.304688 189.511719 219.59375 184.054688 217.585938 C 183.496094 217.378906 182.925781 217.210938 182.339844 217.070312 C 182.90625 217.378906 183.515625 217.617188 184.054688 217.933594 C 185 218.484375 185.949219 219.113281 186.835938 219.753906 C 190.296875 222.25 193.714844 225.28125 195.691406 229.292969 C 196.703125 231.34375 197.726562 233.828125 197.949219 236.316406 C 198.039062 237.300781 198 238.542969 198.035156 239.695312 C 198.054688 240.335938 197.980469 241.097656 198.113281 241.699219 C 198.46875 241.613281 198.820312 241.523438 199.164062 241.429688 C 199.960938 236.195312 198.507812 232.03125 196.648438 228.425781 " fill-opacity="1" fill-rule="nonzero"/><path fill="#e6e6e5" d="M 178.5 217.671875 C 182.28125 219.675781 184.65625 223.082031 185.269531 228.25 C 183.613281 225.601562 182.648438 222.886719 180.234375 221.054688 C 177.890625 219.273438 175.121094 218.050781 171.550781 217.414062 C 168.75 221.644531 167.546875 227.910156 167.816406 234.925781 C 172.183594 236.488281 179.050781 237.101562 184.664062 236.226562 C 187.183594 235.835938 189.65625 235.285156 191.089844 233.886719 C 191.097656 231.402344 191.082031 229.152344 190.742188 227.210938 C 189.636719 220.890625 184.738281 218.839844 178.5 217.671875 " fill-opacity="1" fill-rule="nonzero"/><path fill="#e6e6e5" d="M 150.796875 239.871094 C 150.824219 239.316406 150.855469 238.65625 150.886719 238.050781 C 151.363281 228.769531 155.597656 222.34375 161.390625 218.453125 C 161.492188 218.386719 161.617188 218.308594 161.738281 218.230469 C 159.222656 219.3125 156.992188 220.804688 155.140625 222.613281 C 150.707031 226.949219 147.40625 233.285156 148.195312 241.429688 C 149.023438 241.652344 149.882812 241.855469 150.761719 242.046875 C 150.886719 241.308594 150.777344 240.300781 150.796875 239.871094 " fill-opacity="1" fill-rule="nonzero"/><path fill="#e6e6e5" d="M 187.441406 169.726562 C 187.347656 169.710938 187.25 169.710938 187.148438 169.710938 C 187.59375 169.851562 188.058594 169.9375 188.53125 170.011719 C 188.183594 169.875 187.820312 169.773438 187.441406 169.726562 " fill-opacity="1" fill-rule="nonzero"/><path fill="#e6e6e5" d="M 163.308594 119.496094 C 164.464844 119.09375 165.753906 118.824219 166.84375 118.355469 C 166.65625 118.277344 166.464844 118.199219 166.273438 118.117188 C 156.945312 115.605469 147.972656 118.25 141.871094 122.722656 C 141.953125 122.691406 142.035156 122.664062 142.113281 122.644531 C 141.746094 122.894531 141.375 123.140625 141.003906 123.390625 C 140.667969 123.65625 140.34375 123.925781 140.03125 124.203125 C 139.160156 124.972656 138.34375 125.808594 137.589844 126.710938 C 142.378906 122.800781 148.128906 119.824219 156.269531 119.175781 C 158.867188 118.96875 161.132812 119.242188 163.308594 119.496094 " fill-opacity="1" fill-rule="nonzero"/><path fill="#e6e6e5" d="M 204.546875 139.03125 C 206.40625 135.921875 207.707031 131.796875 207.414062 127.5 C 206.957031 120.824219 202.886719 117.285156 196.90625 115.96875 C 193.996094 115.328125 190.140625 114.867188 186.746094 115.273438 C 179.722656 116.117188 174.210938 117.355469 168.511719 119.003906 C 167.671875 119.246094 166.804688 119.542969 165.90625 119.730469 C 166.257812 119.734375 166.609375 119.722656 166.949219 119.695312 C 174.464844 119.148438 181.847656 117.269531 189.875 117.269531 C 192.15625 117.269531 194.382812 117.449219 195.863281 118.394531 C 197.160156 119.222656 197.582031 120.898438 196.648438 122.210938 C 194.621094 125.054688 189.617188 126.511719 185.269531 126.980469 C 181.066406 127.433594 176.386719 126.972656 172.160156 126.980469 C 169.9375 126.984375 166.457031 127.402344 168.511719 129.40625 C 169.601562 130.46875 171.703125 131.152344 173.460938 131.574219 C 175.433594 132.050781 177.5625 132.527344 179.539062 132.613281 C 190.800781 133.109375 199.617188 129.324219 202.550781 121.605469 C 202.804688 122.390625 202.875 123.304688 202.8125 124.292969 C 202.417969 130.59375 199.429688 134.53125 195.863281 137.382812 C 194.800781 138.234375 193.640625 139.105469 192.476562 139.550781 C 189.621094 140.648438 186.332031 140.789062 183.363281 140.679688 C 179.519531 140.535156 176.707031 139.007812 173.175781 138.730469 C 176.679688 139.96875 180.175781 141.230469 184.316406 141.546875 C 188.941406 141.894531 192.800781 141.285156 195.867188 139.785156 C 196.402344 139.445312 196.921875 139.125 197.441406 138.890625 C 201.035156 136.542969 203.285156 132.722656 204.113281 127.585938 C 204.125 127.683594 204.128906 127.78125 204.136719 127.878906 C 204.289062 127.164062 204.449219 126.433594 204.636719 125.679688 C 206.882812 132.988281 204.21875 139.277344 200.671875 143.738281 C 202.203125 142.445312 203.460938 140.851562 204.546875 139.03125 " fill-opacity="1" fill-rule="nonzero"/><path fill="#000000" d="M 172.433594 171.117188 C 172.789062 172.875 171.953125 174.527344 170.570312 174.808594 C 169.183594 175.085938 167.773438 173.886719 167.421875 172.125 C 167.066406 170.367188 167.898438 168.714844 169.285156 168.4375 C 170.667969 168.15625 172.078125 169.359375 172.433594 171.117188 " fill-opacity="1" fill-rule="nonzero"/><path fill="#000000" d="M 191.5 163.414062 C 192.132812 165.09375 191.574219 166.855469 190.25 167.351562 C 188.925781 167.847656 187.34375 166.886719 186.710938 165.207031 C 186.082031 163.523438 186.640625 161.761719 187.964844 161.265625 C 189.285156 160.769531 190.871094 161.730469 191.5 163.414062 " fill-opacity="1" fill-rule="nonzero"/><path fill="#ffffff" d="M 168.820312 170.230469 C 168.820312 170.515625 168.585938 170.746094 168.300781 170.746094 C 168.011719 170.746094 167.78125 170.515625 167.78125 170.230469 C 167.78125 169.941406 168.011719 169.710938 168.300781 169.710938 C 168.585938 169.710938 168.820312 169.941406 168.820312 170.230469 " fill-opacity="1" fill-rule="nonzero"/><path fill="#ffffff" d="M 187.652344 163.730469 C 187.652344 164.015625 187.417969 164.246094 187.132812 164.246094 C 186.84375 164.246094 186.613281 164.015625 186.613281 163.730469 C 186.613281 163.441406 186.84375 163.210938 187.132812 163.210938 C 187.417969 163.210938 187.652344 163.441406 187.652344 163.730469 " fill-opacity="1" fill-rule="nonzero"/><path fill="#000000" d="M 163.300781 163.394531 C 166.539062 161.570312 172.914062 161.820312 174.675781 164.78125 C 170.191406 164.523438 167.277344 166.296875 164.691406 167.644531 C 163.988281 166.46875 163.5 165.078125 163.300781 163.394531 Z M 168.339844 166.863281 C 170.773438 165.851562 173.222656 165.59375 176.242188 165.5625 C 176.074219 164.617188 175.191406 163.839844 174.417969 163.222656 C 172.863281 161.988281 170.585938 161.179688 167.730469 161.402344 C 166.136719 161.523438 162.992188 162.105469 162.609375 163.480469 C 162.328125 164.476562 162.824219 165.660156 163.128906 166.605469 C 163.359375 167.3125 163.703125 168.878906 164.519531 168.945312 C 164.859375 168.972656 165.882812 168.21875 166.429688 167.902344 C 167.128906 167.503906 167.835938 167.074219 168.339844 166.863281 " fill-opacity="1" fill-rule="nonzero"/><path fill="#000000" d="M 197.429688 182.125 C 195.605469 183.308594 192.53125 183.945312 189.527344 183.511719 C 189.097656 183.449219 188.492188 183.152344 188.050781 183.25 C 187.699219 183.328125 187.113281 184.136719 186.746094 184.550781 C 184.242188 187.414062 178.671875 189.753906 173.027344 188.714844 C 169.449219 188.054688 166.722656 185.882812 165.734375 182.558594 C 167.6875 184.035156 169.925781 185.617188 173.808594 185.246094 C 176.398438 185 178.539062 183.980469 180.234375 182.730469 C 180.738281 182.363281 181.234375 181.570312 181.796875 181.34375 C 182.160156 181.199219 182.761719 181.273438 183.273438 181.171875 C 183.703125 181.082031 184.140625 180.867188 184.488281 180.824219 C 186.117188 180.625 187.578125 180.773438 188.917969 180.390625 C 190.132812 180.042969 190.992188 179.414062 191.957031 178.65625 C 196.890625 178.058594 200.390625 175.578125 200.121094 170.070312 C 201.847656 174.472656 200.414062 180.179688 197.429688 182.125 Z M 180.0625 195.648438 C 177.300781 194.734375 175.554688 192.6875 174.589844 190.015625 C 177.445312 190.101562 180.089844 189.601562 182.144531 188.800781 C 182.332031 188.726562 182.621094 188.730469 182.925781 188.800781 C 186.070312 189.527344 188.417969 191.925781 189.4375 195.042969 C 187.234375 196.523438 182.714844 196.527344 180.0625 195.648438 Z M 198.46875 167.066406 C 198.414062 167.066406 198.355469 167.066406 198.296875 167.066406 C 198.566406 167.6875 198.953125 168.191406 199.078125 168.742188 C 200.167969 173.488281 196.570312 177.039062 192.652344 177.425781 C 193.824219 175.316406 193.320312 172.53125 191.871094 171.191406 C 190.207031 169.652344 187.707031 170.433594 185.964844 169.113281 C 185.347656 168.644531 185.1875 167.8125 184.835938 167.296875 C 184.621094 171.695312 189.808594 170.046875 191.4375 172.5 C 193.242188 175.222656 190.988281 178.976562 187.789062 179.347656 C 186.800781 179.464844 185.582031 179.242188 184.488281 179.347656 C 183.902344 179.40625 183.414062 179.691406 182.925781 179.78125 C 179.988281 180.324219 178.929688 178.121094 180.410156 176.226562 C 178.378906 176.574219 178.335938 180.207031 180.0625 180.910156 C 177.222656 184.402344 166.800781 185.425781 165.300781 180.042969 C 164.042969 186.035156 168.667969 188.902344 173.289062 189.925781 C 174.742188 194.832031 178.757812 198.660156 185.445312 198.078125 C 192.417969 197.46875 197.53125 191.148438 196.90625 183.566406 C 202.566406 181.964844 203.664062 169.933594 198.46875 167.066406 " fill-opacity="1" fill-rule="nonzero"/><path fill="#000000" d="M 228.773438 180.042969 C 229.578125 176.59375 231.5 173.804688 233.464844 171.804688 C 230.324219 172.871094 228 175.644531 228.773438 180.042969 " fill-opacity="1" fill-rule="nonzero"/><path fill="#000000" d="M 155.746094 184.203125 C 155.761719 183.699219 155.164062 182.988281 154.792969 182.46875 C 154.183594 181.621094 153.449219 180.585938 152.449219 180.476562 C 150.671875 180.285156 149.375 182.789062 150.539062 184.378906 C 150.40625 182.734375 150.921875 181.367188 152.015625 181.34375 C 153.292969 181.3125 153.898438 183.144531 154.445312 184.117188 C 153.027344 185.503906 153.625 188.660156 155.574219 188.714844 C 154.796875 188.046875 154.558594 187.3125 154.707031 186.285156 C 154.820312 185.480469 155.730469 184.855469 155.746094 184.203125 " fill-opacity="1" fill-rule="nonzero"/><path fill="#000000" d="M 186.3125 200.503906 C 183.179688 200.730469 181.304688 199.78125 178.84375 199.203125 C 180.269531 201.605469 183.390625 202.667969 186.835938 202.328125 C 190.011719 202.011719 192.9375 199.796875 193.78125 197.644531 C 193.128906 197.910156 192.660156 198.363281 192.042969 198.683594 C 190.421875 199.535156 188.558594 200.34375 186.3125 200.503906 " fill-opacity="1" fill-rule="nonzero"/><g clip-path="url(#efdca006dc)"><path fill="#000000" d="M 248.398438 198.945312 C 247.660156 195.679688 246.757812 192.726562 245.84375 189.78125 C 245.234375 187.804688 244.625 185.832031 244.058594 183.769531 C 243.566406 181.992188 243.222656 179.886719 242.496094 178.828125 C 241.902344 177.96875 240.828125 177.382812 240.148438 176.746094 C 240.457031 175.636719 240.625 174.484375 240.675781 173.3125 C 240.832031 169.832031 239.972656 166.175781 238.847656 162.875 C 238.273438 161.183594 237.648438 159.59375 237.109375 158.019531 C 236.550781 156.375 235.988281 154.554688 235.199219 153.339844 C 234.367188 152.050781 232.671875 150.722656 230.6875 151.601562 C 229.675781 149.722656 227.964844 145.753906 224.605469 146.835938 C 223.960938 147.042969 223.609375 147.671875 223.042969 148.132812 C 221.605469 145.738281 218.546875 145.59375 216.792969 147.113281 C 216.566406 147.3125 216.363281 147.535156 216.183594 147.789062 C 214.3125 150.449219 215.785156 154.253906 216.964844 156.546875 C 214.652344 157.117188 212.984375 158.511719 212.363281 160.621094 C 211.644531 163.0625 212.449219 166.074219 212.886719 168.769531 C 211.707031 170.328125 211.175781 174.625 211.582031 177.269531 C 211.832031 178.890625 213.132812 180.0625 214.1875 180.738281 C 214.777344 181.113281 215.425781 181.203125 216.011719 181.515625 C 216.957031 182.023438 217.640625 182.953125 218.703125 183.339844 C 218.027344 184.105469 217.8125 185.109375 217.921875 186.460938 C 218.214844 190.148438 219.621094 194.011719 220.351562 197.125 C 216.796875 194.722656 212.929688 192.625 208.109375 191.488281 C 210.355469 187.238281 211.894531 181.203125 210.886719 175.363281 C 210.070312 170.609375 206.839844 167.058594 204.289062 164.003906 C 203.359375 162.886719 202.261719 161.835938 201.597656 160.621094 C 199.730469 157.214844 199.09375 152.703125 197.863281 148.828125 C 201.167969 147.152344 203.964844 144.996094 206.046875 142.023438 C 206.097656 141.953125 206.148438 141.878906 206.199219 141.804688 C 208.253906 138.78125 209.910156 134.871094 210.191406 130.363281 C 210.882812 119.226562 204.289062 113.894531 194.734375 112.847656 C 192.609375 112.613281 190.175781 112.5 187.703125 112.5 C 185.34375 112.5 183.035156 112.886719 180.929688 113.191406 C 177.8125 113.644531 174.628906 114.3125 171.726562 115.101562 C 170.742188 115.367188 169.621094 115.976562 168.859375 115.96875 C 168.386719 115.960938 167.675781 115.683594 167.125 115.535156 C 165.441406 115.082031 163.4375 114.597656 161.476562 114.492188 C 152.382812 114.011719 145.917969 116.378906 140.726562 120.128906 C 134.304688 124.769531 129.496094 131.285156 129.613281 142.238281 C 129.617188 142.910156 129.847656 143.8125 129.699219 144.40625 C 129.609375 144.765625 129.054688 145.179688 128.742188 145.535156 C 126.511719 148.078125 124.261719 152.015625 125.53125 156.71875 C 126.5625 160.550781 129.460938 162.992188 132.652344 164.4375 C 133.105469 164.644531 133.714844 164.769531 134.214844 165.042969 C 134.316406 165.101562 134.417969 165.171875 134.511719 165.246094 C 134.917969 165.578125 135.230469 166.050781 135.601562 166.34375 C 137.726562 168.023438 140.488281 168.796875 144.546875 168.597656 C 144.851562 171.363281 144.648438 173.769531 146.023438 175.449219 C 146.695312 176.269531 147.664062 176.777344 147.761719 177.960938 C 143.8125 183.539062 147.171875 193.332031 153.144531 194.609375 C 154.882812 194.980469 156.609375 194.496094 157.65625 193.917969 C 157.972656 194.835938 159.207031 195.417969 159.394531 196.515625 C 159.601562 197.730469 158.957031 199.125 159.222656 200.765625 C 150.671875 206.570312 143.800781 216.691406 142.984375 230.15625 C 142.761719 233.796875 143.214844 236.648438 143.851562 239.4375 C 142.542969 239.683594 140.957031 240.074219 139.625 240.679688 C 138.609375 241.140625 137.738281 241.726562 137.253906 242.472656 C 135.390625 245.316406 139.285156 247.273438 141.160156 247.847656 C 143.21875 248.476562 145.175781 248.84375 147.324219 249.144531 C 149.625 253.089844 151.972656 255.722656 155.574219 258.078125 C 159.046875 260.347656 162.988281 262.5 168.425781 262.5 C 172.097656 262.5 174.851562 261.683594 177.167969 260.464844 C 179.296875 259.351562 181.0625 257.898438 182.839844 256.429688 C 183.722656 255.703125 184.5625 254.820312 185.53125 254.261719 C 187.15625 253.324219 189.394531 252.6875 191.347656 251.835938 C 192.296875 251.421875 193.292969 250.984375 194.214844 250.535156 C 195.15625 250.078125 196.007812 249.394531 196.90625 249.058594 C 197.964844 248.667969 199.421875 248.507812 200.726562 248.28125 C 202.066406 248.046875 203.359375 247.699219 204.460938 247.414062 C 206.421875 246.902344 210.214844 245.898438 210.105469 243.769531 C 210.03125 242.292969 207.5625 241.558594 206.285156 241.082031 C 204.527344 240.429688 202.644531 240.078125 201.25 239.609375 C 201.40625 233.058594 199.375 228.277344 196.734375 224.4375 C 194.371094 221.003906 191.289062 218.34375 187.527344 216.632812 C 191.367188 213.328125 194.417969 209.234375 196.734375 204.40625 C 200.390625 201.351562 203.460938 197.714844 206.542969 194.089844 C 212.539062 195.320312 217.152344 197.859375 221.132812 201.285156 C 221.648438 201.726562 222.59375 202.429688 222.699219 202.847656 C 222.832031 203.390625 222.585938 204.3125 222.609375 205.015625 C 222.792969 210.335938 223.902344 214.390625 226.257812 217.585938 C 225.621094 214.808594 225.414062 211.605469 224.867188 208.742188 C 225.480469 209.664062 226.089844 210.585938 226.777344 211.429688 C 226.777344 211.476562 226.847656 211.527344 226.867188 211.429688 C 225.492188 207.167969 224.695312 202.316406 223.390625 197.730469 C 222.488281 194.554688 221.394531 191.148438 220.785156 187.5 C 220.617188 186.46875 220.191406 184.675781 221.566406 184.464844 C 220.730469 186.8125 222.066406 188.820312 223.480469 189.753906 C 228.417969 193.015625 238.738281 190.371094 240.0625 185.070312 C 240.476562 183.414062 239.871094 181.359375 239.28125 180.390625 C 239.0625 180.03125 238.402344 179.6875 238.761719 179.089844 C 240.476562 179.851562 240.496094 181.492188 241.105469 183.597656 C 242.992188 190.105469 245.414062 196.949219 246.492188 204.101562 C 246.679688 205.351562 246.828125 206.609375 246.921875 207.875 C 247.128906 210.589844 247.035156 213.136719 246.664062 215.246094 C 246.15625 218.109375 244.667969 220.238281 242.558594 221.746094 C 240.054688 223.539062 236.679688 224.457031 233.03125 224.695312 C 229.152344 224.949219 226.703125 223.878906 223.914062 222.789062 C 221.328125 217.675781 218.273438 212.6875 214.707031 208.570312 C 213.511719 207.191406 212.496094 205.488281 210.714844 204.839844 C 216.03125 211.941406 219.496094 219.816406 223.21875 228.078125 C 223.269531 228.199219 223.328125 228.320312 223.382812 228.449219 C 224.457031 230.886719 225.804688 234.417969 226.773438 237.910156 C 226.964844 238.601562 227.140625 239.292969 227.296875 239.976562 C 227.605469 241.296875 227.832031 242.574219 227.953125 243.75 C 227.953125 243.75 227.957031 243.746094 227.957031 243.746094 C 228.304688 243.386719 228.707031 242.996094 229.109375 242.601562 L 229.125 242.589844 C 229.65625 242.066406 230.1875 241.539062 230.613281 241.042969 C 230.613281 241.03125 230.609375 241.027344 230.609375 241.019531 C 230.390625 239.886719 229.441406 236.421875 228.886719 234.558594 C 228.769531 234.164062 228.671875 233.839844 228.601562 233.625 C 227.738281 231.019531 226.515625 228.800781 225.734375 226.515625 C 230.691406 228.195312 236.371094 227.621094 240.816406 225.8125 C 243.683594 224.648438 246.035156 222.972656 247.355469 221.054688 C 250.921875 215.886719 249.9375 205.730469 248.398438 198.945312 Z M 237.285156 180.738281 C 237.625 182.632812 238.421875 183.867188 237.285156 185.332031 C 235.125 188.113281 228.4375 190.117188 224.433594 188.105469 C 223.996094 186.953125 223.660156 185.699219 223.132812 184.636719 C 224.746094 184.601562 225.90625 184.113281 226.953125 183.511719 C 223.761719 182.855469 220.25 181.203125 217.140625 179.871094 C 216.257812 179.488281 214.773438 178.867188 214.359375 178.222656 C 213.554688 176.964844 214.183594 174.890625 214.1875 173.105469 C 215.417969 175.003906 218.421875 173.789062 218.269531 171.371094 C 219.078125 172.351562 218.953125 174.445312 218.875 176.054688 C 219.28125 175.648438 219.417969 174.976562 219.746094 174.496094 C 221.765625 174.929688 222.433594 176.722656 223.824219 177.789062 C 223.527344 175.660156 222.742188 174.011719 221.046875 173.28125 C 221.640625 172.023438 222.707031 171.238281 224 170.679688 C 223.726562 170.15625 222.578125 170.296875 222.175781 170.589844 C 221.699219 169.765625 220.816406 168.886719 221.132812 167.558594 C 221.890625 166.78125 223.121094 166.480469 223.390625 165.214844 C 222.734375 164.996094 221.960938 165.40625 221.308594 165.476562 C 221.21875 163.804688 220.902344 162.355469 220.003906 161.488281 C 219.917969 163.664062 219.921875 166.660156 219.050781 168.339844 C 219.445312 165.5625 216.980469 163.898438 214.96875 165.128906 C 214.066406 161.464844 215.761719 158.441406 219.222656 159.144531 C 220.511719 161.300781 222.421875 164.453125 224.953125 165.476562 C 225.855469 165.839844 227.441406 165.433594 228.515625 165.128906 C 227.355469 164.195312 225.109375 163.925781 223.824219 162.789062 C 222.421875 161.542969 221.453125 159.226562 220.527344 157.5 C 219.429688 155.457031 218.175781 153.757812 217.921875 151.601562 C 217.789062 150.496094 218.25 148.882812 219.226562 148.648438 C 219.503906 148.582031 219.820312 148.628906 220.179688 148.828125 C 220.796875 149.179688 221.273438 149.707031 221.652344 150.347656 C 222.398438 151.613281 222.769531 153.316406 223.132812 154.898438 C 224.003906 158.710938 226.613281 164.558594 230.078125 165.824219 C 230.769531 166.078125 231.71875 166.144531 232.683594 165.996094 C 228.703125 163.25 224.703125 159.253906 224.648438 152.703125 C 224.648438 152.261719 224.660156 151.808594 224.695312 151.34375 C 224.753906 150.519531 225.007812 149.351562 225.648438 149.261719 C 226.605469 149.128906 227.691406 151.128906 227.992188 151.777344 C 228.527344 152.929688 229.128906 154.246094 229.296875 155.332031 C 229.382812 155.902344 229.335938 156.488281 229.339844 157.054688 C 229.339844 157.292969 229.347656 157.53125 229.382812 157.757812 C 229.699219 159.894531 230.351562 161.792969 231.207031 163.308594 C 232.050781 164.808594 233.085938 166.445312 234.941406 166.863281 C 234.25 165.828125 233.140625 164.589844 232.421875 162.960938 C 231.976562 161.953125 231.40625 160.359375 231.117188 158.960938 C 231.035156 158.566406 230.976562 158.191406 230.945312 157.847656 C 230.828125 156.421875 230.917969 154.535156 231.988281 153.859375 C 233.8125 155.140625 234.265625 157.976562 235.113281 160.449219 C 235.523438 161.644531 235.933594 162.847656 236.328125 164.089844 C 236.722656 165.316406 237.363281 166.511719 237.632812 167.644531 C 237.644531 167.683594 237.652344 167.726562 237.660156 167.765625 C 237.976562 169.179688 238.0625 170.972656 238.066406 172.328125 C 238.074219 176.5625 235.726562 179.429688 233.898438 182.296875 C 235.152344 182.242188 236.164062 181.207031 237.285156 180.738281 Z M 217.574219 170.332031 C 217.585938 172.085938 217.183594 173.484375 215.75 173.367188 C 212.867188 173.128906 215.746094 167.292969 217.574219 170.332031 Z M 215.144531 166.167969 C 215.300781 165.359375 216.683594 165.105469 217.398438 165.5625 C 218.414062 166.207031 218.28125 167.917969 218.09375 169.292969 C 217.5 168.910156 216.648438 168.390625 215.664062 168.683594 C 215.726562 167.738281 214.984375 166.964844 215.144531 166.167969 Z M 200.816406 196.953125 C 199.152344 198.71875 197.148438 200.1875 194.824219 201.460938 C 192.609375 202.671875 189.910156 203.925781 187.179688 204.320312 C 183.742188 204.816406 180.117188 204.238281 177.019531 203.625 C 167.769531 201.792969 161.726562 196.816406 158.441406 189.144531 C 157.46875 190.226562 156.945312 191.722656 155.402344 191.921875 C 149.839844 192.636719 146.636719 182.996094 150.191406 179.175781 C 151.285156 177.996094 154.324219 177.449219 155.660156 179.003906 C 156.679688 181.972656 157.152344 185.300781 159.742188 186.894531 C 160.226562 187.191406 161.167969 187.808594 161.652344 187.328125 C 162.214844 186.765625 160.734375 183.96875 160.609375 182.816406 C 160.226562 179.292969 161.101562 175.332031 160.871094 171.546875 C 160.652344 167.941406 159.457031 165.128906 158.613281 162.613281 C 166.132812 157 174.765625 152.496094 187.355469 151.949219 C 185.648438 152.933594 182.761719 153.703125 182.492188 156.027344 C 182.3125 157.585938 183.269531 159.355469 183.96875 160.535156 C 184.851562 160.113281 184.933594 159.4375 185.621094 158.886719 C 187.089844 157.703125 189.867188 156.90625 192.21875 157.238281 C 192.851562 157.328125 193.710938 158.085938 194.390625 157.847656 C 194.984375 157.636719 195.421875 155.035156 195.257812 154.292969 C 194.984375 153.054688 193.734375 152.964844 193.347656 152.296875 C 194.5 152.417969 195.382812 152.808594 196.300781 153.164062 C 197.125 156.25 197.738281 158.804688 198.816406 161.226562 C 199.828125 163.503906 201.71875 165.28125 203.332031 167.210938 C 206.617188 171.132812 209.230469 175.609375 208.023438 183.078125 C 207.125 188.617188 204.226562 193.324219 200.816406 196.953125 Z M 194.648438 203.191406 C 192.558594 204.890625 190.289062 206.410156 187.527344 207.441406 C 187.636719 206.679688 187.902344 206.078125 188.136719 205.449219 C 190.488281 204.847656 192.707031 204.113281 194.5625 203.019531 C 194.785156 203.015625 194.667969 203.085938 194.648438 203.191406 Z M 161.824219 197.730469 C 166.960938 202.746094 174.183594 205.683594 184.140625 205.882812 C 184.671875 206.339844 185.664062 206.777344 185.621094 207.527344 C 178.21875 207.785156 171.820312 206.886719 166.601562 204.929688 C 164.855469 204.269531 163.121094 203.652344 161.824219 202.5 C 161.773438 200.800781 161.925781 199.238281 161.824219 197.730469 Z M 192.21875 209.175781 C 190.417969 211.652344 188.125 214.003906 185.707031 215.941406 C 183.3125 215.179688 180.746094 214.589844 177.804688 214.378906 C 178.488281 212.25 177.898438 210.242188 176.238281 209.609375 C 172.890625 208.328125 167.578125 210.179688 169.640625 214.378906 C 155.769531 215.640625 148.261719 223.261719 146.28125 236.402344 C 145.894531 235.59375 145.824219 234.582031 145.761719 233.800781 C 145.675781 232.71875 145.683594 231.636719 145.761719 230.417969 C 146.140625 224.625 147.761719 219.226562 150.277344 214.636719 C 152.820312 210 156.132812 206.097656 159.828125 203.539062 C 159.902344 203.523438 159.910156 203.574219 159.914062 203.625 C 162.363281 206.746094 167.746094 208.023438 173.203125 208.828125 C 178.125 209.558594 184.136719 210.144531 188.660156 209.175781 C 190.566406 208.765625 192.253906 207.351562 193.78125 206.488281 C 193.460938 207.464844 192.832031 208.332031 192.21875 209.175781 Z M 171.03125 212.039062 C 171.882812 210.5 175.921875 210.59375 176.5 212.386719 C 176.699219 212.996094 176.507812 213.566406 176.066406 214.378906 C 174.984375 215.070312 172.15625 215.175781 171.292969 214.292969 C 170.792969 213.78125 170.703125 212.632812 171.03125 212.039062 Z M 196.648438 228.425781 C 198.507812 232.03125 199.960938 236.191406 199.164062 241.429688 C 191.953125 243.371094 182.757812 244.117188 173.636719 244.117188 C 164.554688 244.117188 155.386719 243.339844 148.195312 241.429688 C 147.40625 233.285156 150.707031 226.949219 155.140625 222.613281 C 158.828125 219.011719 164.019531 216.667969 169.988281 216.285156 C 171.234375 216.207031 172.445312 216.367188 173.636719 216.371094 C 177.613281 216.386719 180.992188 216.460938 184.054688 217.585938 C 189.511719 219.59375 194.007812 223.304688 196.648438 228.425781 Z M 201.074219 241.601562 C 203.546875 242.140625 206.261719 242.4375 207.847656 243.859375 C 206.863281 245.195312 204.941406 245.554688 203.246094 245.941406 C 197.9375 247.136719 191.542969 247.519531 185.359375 247.933594 C 177.433594 248.464844 168.726562 248.1875 160.699219 247.761719 C 155.316406 247.472656 150.078125 247.136719 145.246094 246.171875 C 144.75 246.074219 144.253906 245.964844 143.765625 245.851562 C 142.214844 245.492188 140.453125 245.101562 139.507812 243.859375 C 140.078125 243.367188 140.78125 243.011719 141.5625 242.734375 C 142.976562 242.226562 144.640625 241.96875 146.195312 241.601562 C 146.65625 241.644531 146.054688 242.203125 146.371094 242.386719 C 149.816406 244.257812 154.40625 244.464844 159.046875 244.984375 C 163.746094 245.511719 168.679688 245.503906 173.636719 245.503906 C 178.585938 245.503906 183.539062 245.53125 188.222656 244.984375 C 192.90625 244.4375 197.46875 244.269531 200.988281 242.472656 C 201.417969 242.253906 200.839844 241.851562 201.074219 241.601562 Z M 183.882812 253.394531 C 181.394531 254.570312 178.734375 256.128906 176.152344 256.601562 C 172.109375 257.347656 168.136719 255.960938 165.820312 254.351562 C 166.773438 254.121094 167.847656 254.519531 168.945312 254.4375 C 167.1875 253.417969 165.023438 252.804688 163.476562 251.574219 C 164.550781 251.578125 165.539062 251.496094 166.515625 251.402344 C 165.417969 250.90625 163.972656 250.761719 162.867188 250.273438 C 170.417969 250.566406 178.230469 250.78125 185.792969 250.101562 C 184.722656 250.910156 183.390625 251.460938 182.40625 252.355469 C 185.441406 251.945312 187.410156 249.722656 191.175781 249.753906 C 189.035156 250.835938 186.550781 252.136719 183.882812 253.394531 Z M 151.738281 251.046875 C 151.199219 250.390625 150.710938 249.722656 150.277344 249.058594 C 152.101562 249.40625 154.105469 249.570312 156.09375 249.753906 C 157.046875 251.347656 160.113281 250.828125 161.304688 252.179688 C 161.976562 254.980469 163.828125 256.972656 166.421875 258.050781 C 167.105469 258.335938 167.835938 258.554688 168.609375 258.710938 C 170.332031 259.054688 172.269531 259.078125 174.332031 258.765625 L 174.503906 258.765625 C 175.007812 258.890625 174.21875 258.78125 174.246094 258.941406 C 173.359375 259.179688 172.492188 259.355469 171.636719 259.476562 C 162.972656 260.707031 155.886719 256.132812 151.738281 251.046875 Z M 160.261719 185.851562 C 159.25 185.386719 158.757812 184.40625 158.179688 183.511719 C 157.710938 180.160156 157.03125 176.410156 153.925781 175.621094 C 152.558594 175.273438 150.949219 175.714844 150.015625 176.488281 C 149.921875 175.773438 149.058594 175.121094 149.0625 174.320312 C 149.066406 173.574219 150.355469 172.175781 150.882812 171.371094 C 152.152344 169.460938 153.582031 167.570312 155.054688 165.996094 C 155.933594 165.054688 156.828125 164.300781 157.65625 163.484375 C 157.734375 163.464844 157.738281 163.515625 157.746094 163.570312 C 158.960938 167.257812 159.53125 172.035156 159.308594 176.921875 C 159.164062 180.105469 159.292969 183.363281 160.261719 185.851562 Z M 190.65625 152.472656 C 192.308594 152.632812 193.609375 153.453125 194.390625 154.464844 C 194.292969 155.320312 194.078125 156.0625 193.957031 156.894531 C 190.242188 155.480469 185.988281 157.226562 184.054688 159.234375 C 183.871094 158.042969 183.144531 157.089844 183.449219 155.851562 C 183.835938 154.269531 187.75 152.183594 190.65625 152.472656 Z M 147.671875 170.15625 C 147.523438 167.972656 146.550781 165.417969 145.847656 163.308594 C 145.390625 161.929688 144.738281 160.121094 144.113281 158.539062 C 143.878906 157.949219 143.484375 157.265625 143.503906 156.980469 C 143.554688 156.25 145.296875 154.714844 146.023438 153.945312 C 148.679688 151.125 151.851562 148.777344 155.316406 146.835938 C 160.363281 144.003906 165.4375 141.8125 171.378906 140.589844 C 176.898438 143.355469 186.207031 144.449219 193.78125 142.847656 C 194.390625 145.621094 195.0625 148.328125 195.691406 151.082031 C 192.746094 150.621094 190.027344 150.191406 186.402344 150.390625 C 177.183594 150.898438 169.511719 153.78125 162.957031 157.585938 C 156.433594 161.371094 151.320312 166.984375 148.105469 173.367188 C 147.25 172.453125 147.742188 171.195312 147.671875 170.15625 Z M 136.136719 162.976562 C 136.011719 162.828125 135.890625 162.679688 135.777344 162.527344 C 132.136719 161.601562 129.335938 159.585938 128.308594 156.199219 C 126.855469 151.414062 129.992188 147.9375 132.390625 145.449219 C 131.457031 135.941406 134.734375 128.882812 140.03125 124.203125 C 146.207031 118.75 156.390625 115.183594 166.949219 118.308594 C 165.671875 118.882812 164.09375 119.15625 162.78125 119.695312 C 164.832031 120.28125 166.734375 119.515625 168.511719 119.003906 C 174.210938 117.355469 179.722656 116.117188 186.746094 115.273438 C 190.140625 114.867188 194 115.328125 196.90625 115.96875 C 202.886719 117.285156 206.957031 120.824219 207.414062 127.5 C 207.707031 131.796875 206.410156 135.921875 204.550781 139.03125 C 204.121094 139.75 203.664062 140.429688 203.175781 141.074219 C 201.574219 143.191406 199.621094 144.875 197.082031 145.96875 C 196.914062 144.574219 196.558594 143.371094 196.300781 142.066406 C 197.332031 141.445312 198.210938 140.832031 199.078125 139.984375 C 199.105469 139.953125 199.136719 139.925781 199.164062 139.898438 C 201.878906 137.203125 204.652344 132.984375 204.113281 127.585938 C 203.214844 133.152344 200.648438 137.171875 196.511719 139.453125 C 193.347656 141.195312 189.269531 141.921875 184.316406 141.546875 C 180.824219 141.28125 177.792969 140.339844 174.828125 139.308594 C 173.820312 138.960938 172.820312 138.601562 171.8125 138.25 C 167.863281 136.886719 163.847656 135.28125 159.222656 135.042969 C 154.964844 134.824219 151.757812 135.925781 149.148438 137.472656 C 150.714844 137.4375 152.242188 136.910156 153.925781 136.777344 C 159.238281 136.351562 164.339844 137.324219 167.90625 139.117188 C 163.875 140.355469 160.007812 141.753906 156.703125 143.714844 C 153.519531 144.117188 152.019531 142.839844 150.539062 141.546875 C 151.078125 143.378906 152.386719 144.441406 154.097656 145.101562 C 152.890625 146.003906 151.164062 147.007812 149.757812 148.046875 C 149.269531 148.40625 148.882812 148.925781 148.453125 149.089844 C 146.011719 150.019531 143.179688 148.917969 141.332031 148.046875 C 141.65625 149.757812 143.945312 150.5625 146.28125 150.738281 C 146.414062 151.210938 145.753906 151.523438 145.414062 151.863281 C 144.359375 152.917969 143.292969 154.375 142.460938 155.679688 C 140.613281 156.921875 137.238281 157.355469 134.90625 156.285156 C 135.539062 158.054688 138.09375 158.371094 140.277344 158.027344 C 140.804688 157.941406 141.316406 157.820312 141.765625 157.671875 C 142.601562 160.484375 143.707031 163.019531 144.546875 165.824219 C 140.550781 166.066406 137.882812 164.980469 136.136719 162.976562 " fill-opacity="1" fill-rule="nonzero"/></g></svg>