<svg xmlns="http://www.w3.org/2000/svg" xmlns:xlink="http://www.w3.org/1999/xlink" width="500" zoomAndPan="magnify" viewBox="0 0 375 374.999991" height="500" preserveAspectRatio="xMidYMid meet" version="1.0"><defs><clipPath id="f67855bbe5"><path d="M 141.933594 146.71875 L 186.457031 146.71875 L 186.457031 156.097656 L 141.933594 156.097656 Z M 141.933594 146.71875 " clip-rule="nonzero"/></clipPath><clipPath id="bf43bf0219"><path d="M 186.40625 146.785156 C 186.40625 146.785156 176.945312 146.570312 166.113281 149.917969 C 155.28125 153.265625 153.503906 156.046875 149.285156 156.039062 C 145.0625 156.03125 141.957031 152.070312 141.957031 152.070312 C 141.957031 152.070312 145.296875 154.898438 149.21875 154.851562 C 153.136719 154.808594 157.914062 151.449219 165.832031 149.289062 C 176.878906 146.277344 186.40625 146.785156 186.40625 146.785156 Z M 186.40625 146.785156 " clip-rule="nonzero"/></clipPath><clipPath id="0257f4871c"><path d="M 186.40625 146.785156 C 186.40625 146.785156 176.945312 146.570312 166.113281 149.917969 C 155.28125 153.265625 153.503906 156.046875 149.285156 156.039062 C 145.0625 156.035156 141.957031 152.070312 141.957031 152.070312 C 141.957031 152.070312 145.296875 154.898438 149.21875 154.851562 C 153.136719 154.808594 157.914062 151.449219 165.832031 149.289062 C 176.878906 146.277344 186.40625 146.785156 186.40625 146.785156 " clip-rule="nonzero"/></clipPath></defs><rect x="-37.5" width="450" fill="#ffffff" y="-37.499999" height="449.999989" fill-opacity="1"/><rect x="-37.5" width="450" fill="#ffffff" y="-37.499999" height="449.999989" fill-opacity="1"/><path fill="#f5f4f3" d="M 186.472656 192.898438 C 191.140625 193.269531 199.46875 200.527344 202.136719 202.964844 C 204.617188 205.230469 200.601562 213.296875 196.859375 210.917969 C 193.121094 208.535156 186.742188 202.960938 185.558594 201.929688 C 182.792969 199.53125 180.257812 192.410156 186.472656 192.898438 " fill-opacity="1" fill-rule="nonzero"/><path fill="#f5f4f3" d="M 211.285156 199.496094 C 207.746094 199.820312 198.125 203 196.667969 204.972656 C 195.320312 206.800781 195.269531 212.042969 200.199219 212.066406 C 203.972656 212.082031 210.277344 210.960938 213.097656 210.460938 C 215.917969 209.960938 215.234375 199.132812 211.285156 199.496094 " fill-opacity="1" fill-rule="nonzero"/><path fill="#d39374" d="M 222.957031 196.492188 C 226.378906 198.296875 222.800781 203.640625 222.800781 203.640625 C 222.800781 203.640625 223.320312 203.59375 224.105469 203.523438 C 223.582031 207.207031 222.199219 211.554688 218.578125 211.664062 C 213.632812 211.816406 211.699219 208.6875 211.910156 202.710938 C 212.101562 197.269531 221.3125 195.628906 222.957031 196.492188 " fill-opacity="1" fill-rule="nonzero"/><path fill="#bec0c2" d="M 223.113281 165.992188 L 217.558594 165.992188 L 217.558594 155.441406 L 223.113281 155.441406 L 223.113281 165.992188 " fill-opacity="1" fill-rule="nonzero"/><path fill="#eae8e9" d="M 222.1875 158.308594 L 222.1875 149.0625 C 222.1875 146.617188 218.488281 146.617188 218.488281 149.0625 L 218.488281 158.308594 L 222.1875 158.308594 " fill-opacity="1" fill-rule="nonzero"/><path fill="#bec0c2" d="M 223.988281 190.6875 L 216.792969 190.6875 C 215.761719 190.6875 214.917969 189.84375 214.917969 188.8125 C 214.917969 187.785156 215.761719 186.941406 216.792969 186.941406 L 223.988281 186.941406 C 225.019531 186.941406 225.863281 187.785156 225.863281 188.8125 C 225.863281 189.84375 225.019531 190.6875 223.988281 190.6875 " fill-opacity="1" fill-rule="nonzero"/><path fill="#d4d4d4" d="M 215.875 163.480469 L 215.875 166.25 C 215.875 166.929688 215.320312 167.480469 214.648438 167.480469 L 211.871094 167.480469 C 211.195312 167.480469 210.640625 166.929688 210.640625 166.25 L 210.640625 163.480469 C 210.640625 163.371094 210.65625 163.257812 210.6875 163.148438 C 210.832031 162.628906 211.308594 162.25 211.871094 162.25 L 214.648438 162.25 C 215.210938 162.25 215.683594 162.628906 215.828125 163.148438 C 215.863281 163.257812 215.875 163.371094 215.875 163.480469 " fill-opacity="1" fill-rule="nonzero"/><path fill="#376bb3" d="M 215.828125 163.148438 C 215.683594 163.664062 215.210938 164.046875 214.648438 164.046875 L 211.871094 164.046875 C 211.308594 164.046875 210.832031 163.664062 210.6875 163.148438 C 210.832031 162.628906 211.308594 162.25 211.871094 162.25 L 214.648438 162.25 C 215.210938 162.25 215.683594 162.628906 215.828125 163.148438 " fill-opacity="1" fill-rule="nonzero"/><path fill="#d4d4d4" d="M 229.105469 167.855469 L 226.328125 167.855469 C 225.652344 167.855469 225.097656 167.300781 225.097656 166.625 L 225.097656 163.851562 C 225.097656 163.175781 225.652344 162.625 226.328125 162.625 L 229.105469 162.625 C 229.78125 162.625 230.335938 163.175781 230.335938 163.851562 L 230.335938 166.625 C 230.335938 167.300781 229.78125 167.855469 229.105469 167.855469 " fill-opacity="1" fill-rule="nonzero"/><path fill="#d92226" d="M 230.289062 163.523438 C 230.140625 164.035156 229.667969 164.421875 229.105469 164.421875 L 226.328125 164.421875 C 225.765625 164.421875 225.292969 164.035156 225.148438 163.523438 C 225.292969 163 225.765625 162.621094 226.328125 162.621094 L 229.105469 162.621094 C 229.667969 162.621094 230.140625 163 230.289062 163.523438 " fill-opacity="1" fill-rule="nonzero"/><path fill="#80cae1" d="M 202.417969 166.640625 C 202.417969 166.640625 202.386719 164.738281 210.289062 165.496094 C 218.195312 166.25 228.851562 165.496094 230.785156 165.496094 C 232.714844 165.496094 247.324219 165.054688 249.332031 165.238281 C 251.804688 165.464844 261.003906 166.695312 259.421875 176.15625 C 257.207031 189.414062 261.847656 200.09375 259.796875 200.09375 C 256.152344 200.09375 257.207031 189.414062 255.914062 195.4375 C 255.328125 198.171875 260.761719 212.742188 256.046875 213.527344 C 249.773438 214.566406 253.527344 197.738281 254.199219 190.28125 C 254.703125 184.675781 255.121094 171.703125 254.785156 169.023438 C 254.449219 166.339844 239.679688 167.855469 239.679688 167.855469 L 207.53125 166.953125 L 202.417969 166.640625 " fill-opacity="1" fill-rule="nonzero"/><path fill="#d4d4d4" d="M 235.085938 166.953125 L 204.445312 166.953125 C 198.425781 166.953125 191.78125 169.6875 191.78125 175.699219 C 191.78125 181.710938 198.425781 188.8125 204.445312 188.8125 L 235.085938 188.8125 C 241.105469 188.8125 247.75 181.710938 247.75 175.699219 C 247.75 169.6875 241.105469 166.953125 235.085938 166.953125 " fill-opacity="1" fill-rule="nonzero"/><path fill="#eae8e9" d="M 254.257812 175.699219 L 186.523438 175.699219 C 186.234375 175.699219 185.996094 175.460938 185.996094 175.171875 L 185.996094 166.964844 C 185.996094 166.785156 186.140625 166.640625 186.320312 166.640625 L 254.460938 166.640625 C 254.640625 166.640625 254.785156 166.785156 254.785156 166.964844 L 254.785156 175.171875 C 254.785156 175.460938 254.546875 175.699219 254.257812 175.699219 " fill-opacity="1" fill-rule="nonzero"/><path fill="#eae8e9" d="M 207.78125 214.984375 L 207.53125 219.351562 L 210.292969 219.351562 L 210.292969 214.984375 L 207.78125 214.984375 " fill-opacity="1" fill-rule="nonzero"/><path fill="#d4d4d4" d="M 218.371094 214.203125 L 222.417969 214.203125 L 222.417969 193.808594 L 218.371094 193.808594 L 218.371094 214.203125 " fill-opacity="1" fill-rule="nonzero"/><path fill="#d4d4d4" d="M 210.175781 214.664062 L 210.175781 219.671875 L 220.855469 219.671875 L 220.855469 214.664062 L 210.175781 214.664062 " fill-opacity="1" fill-rule="nonzero"/><path fill="#eae8e9" d="M 213.28125 215.957031 L 213.28125 218.378906 C 213.28125 219.648438 214.320312 220.683594 215.589844 220.683594 L 217.46875 220.683594 C 217.730469 220.683594 217.945312 220.46875 217.945312 220.207031 L 217.945312 214.128906 C 217.945312 213.867188 217.730469 213.648438 217.46875 213.648438 L 215.589844 213.648438 C 214.320312 213.648438 213.28125 214.6875 213.28125 215.957031 " fill-opacity="1" fill-rule="nonzero"/><path fill="#d4d4d4" d="M 216.636719 223.253906 L 224.039062 223.253906 L 223.230469 214.394531 L 217.445312 214.394531 L 216.636719 223.253906 " fill-opacity="1" fill-rule="nonzero"/><path fill="#d4d4d4" d="M 216.636719 223.253906 L 224.039062 223.253906 L 223.636719 226.09375 C 223.402344 227.734375 221.996094 228.953125 220.335938 228.953125 C 218.675781 228.953125 217.269531 227.734375 217.039062 226.09375 L 216.636719 223.253906 " fill-opacity="1" fill-rule="nonzero"/><path fill="#eae8e9" d="M 217.957031 195.476562 L 222.714844 195.476562 C 223.34375 195.476562 223.859375 194.960938 223.859375 194.332031 C 223.859375 193.703125 223.34375 193.191406 222.714844 193.191406 L 217.957031 193.191406 C 217.328125 193.191406 216.816406 193.703125 216.816406 194.332031 C 216.816406 194.960938 217.328125 195.476562 217.957031 195.476562 " fill-opacity="1" fill-rule="nonzero"/><path fill="#eae8e9" d="M 217.957031 214.394531 L 222.714844 214.394531 C 223.34375 214.394531 223.859375 213.878906 223.859375 213.253906 C 223.859375 212.625 223.34375 212.109375 222.714844 212.109375 L 217.957031 212.109375 C 217.328125 212.109375 216.816406 212.625 216.816406 213.253906 C 216.816406 213.878906 217.328125 214.394531 217.957031 214.394531 " fill-opacity="1" fill-rule="nonzero"/><path fill="#eae8e9" d="M 216.820312 224.394531 L 223.851562 224.394531 C 224.394531 224.394531 224.835938 223.953125 224.835938 223.414062 L 224.835938 223.09375 C 224.835938 222.550781 224.394531 222.109375 223.851562 222.109375 L 216.820312 222.109375 C 216.28125 222.109375 215.835938 222.550781 215.835938 223.09375 L 215.835938 223.414062 C 215.835938 223.953125 216.28125 224.394531 216.820312 224.394531 " fill-opacity="1" fill-rule="nonzero"/><path fill="#d4d4d4" d="M 223.550781 190.6875 L 222.804688 193.488281 L 217.867188 193.488281 L 217.125 190.6875 L 223.550781 190.6875 " fill-opacity="1" fill-rule="nonzero"/><path fill="#a4d9e2" d="M 222.804688 193.488281 C 222.804688 193.488281 226.683594 190.648438 229.527344 193.488281 C 232.367188 196.324219 235.425781 203.1875 232.347656 203.1875 C 229.273438 203.1875 229.683594 201.652344 230.109375 199.148438 C 230.53125 196.648438 228.925781 190.742188 222.804688 193.488281 " fill-opacity="1" fill-rule="nonzero"/><path fill="#a4d9e2" d="M 220.335938 193.75 C 220.335938 193.75 224.085938 192.902344 226.679688 195.972656 C 229.734375 199.589844 229.035156 207.074219 226.132812 206.058594 C 223.230469 205.042969 224.125 203.730469 225.355469 201.507812 C 226.582031 199.289062 227.019531 193.183594 220.335938 193.75 " fill-opacity="1" fill-rule="nonzero"/><path fill="#80cae1" d="M 225.101562 192.792969 C 228.367188 192.492188 231.382812 193.085938 233.871094 194.242188 C 237.167969 196.097656 238.378906 197.492188 239.117188 197.9375 C 239.777344 198.417969 239.960938 197.957031 239.371094 196.898438 C 238.667969 195.023438 233.265625 190.171875 225.101562 192.792969 " fill-opacity="1" fill-rule="nonzero"/><path fill="#a4d9e2" d="M 238.347656 202.050781 L 238.714844 209.070312 C 238.5 212.855469 242.492188 212.191406 238.347656 202.050781 " fill-opacity="1" fill-rule="nonzero"/><path fill="#a4d9e2" d="M 246.980469 166.640625 C 246.980469 166.640625 254.671875 164.113281 254.785156 169.023438 C 254.898438 173.933594 257.460938 185.082031 255.121094 185.082031 C 249.289062 185.082031 258.414062 170.402344 250.238281 169.847656 C 242.082031 169.296875 250.863281 183.070312 246.015625 183.070312 C 239.574219 183.070312 247.75 172.363281 242.050781 172.363281 C 238.90625 172.363281 244.695312 193.644531 237.246094 193.644531 C 230.738281 193.644531 237.351562 191.265625 238.023438 188.332031 C 238.480469 186.332031 240.132812 169.972656 236.699219 169.972656 C 230.335938 169.972656 234.871094 176.324219 233.632812 176.324219 C 230.722656 176.324219 229.886719 169.746094 229.554688 169.410156 C 229.492188 169.347656 229.59375 168.714844 229.570312 168.539062 C 229.394531 167.191406 230.515625 166.023438 231.875 166.074219 L 246.980469 166.640625 " fill-opacity="1" fill-rule="nonzero"/><path fill="#d9a889" d="M 226.460938 197.214844 C 227.769531 197.269531 230.101562 200.167969 228.582031 201.710938 C 227.066406 203.257812 220.261719 202.429688 220.429688 199.535156 C 220.628906 196.109375 224.035156 197.171875 224.035156 197.171875 L 226.460938 197.214844 " fill-opacity="1" fill-rule="nonzero"/><path fill="#d9a889" d="M 211.910156 201.195312 C 212.171875 200.117188 212.910156 198.292969 214.265625 197.4375 C 217.117188 195.640625 219.882812 193.765625 221.523438 195.230469 C 223.164062 196.699219 224.816406 199.882812 225.429688 200.585938 C 226.042969 201.289062 222.742188 203.847656 220.621094 201.097656 C 219.398438 199.773438 219.1875 198.882812 219.1875 198.882812 C 219.1875 198.882812 218.945312 204.878906 214.546875 205.449219 C 213.835938 205.734375 212.339844 205.351562 211.988281 204.792969 C 211.507812 204.03125 211.699219 202.070312 211.910156 201.195312 " fill-opacity="1" fill-rule="nonzero"/><path fill="#a1a4a5" d="M 128.773438 187.777344 C 130.199219 190.304688 144.976562 216.425781 146.902344 219.648438 L 141.757812 222.527344 C 138.972656 217.460938 124.09375 191.0625 123.894531 190.738281 C 123.269531 189.738281 121.992188 189.484375 121.003906 189.292969 C 118.097656 188.730469 116.503906 187.144531 115.488281 185.65625 C 114.476562 184.171875 113.347656 181.519531 114.660156 179.648438 C 114.660156 179.648438 114.957031 179.816406 115.144531 179.992188 C 114.820312 180.5 114.242188 181.789062 115.199219 183.558594 C 116.445312 185.863281 118.160156 187.605469 120.3125 188.019531 C 122.910156 188.519531 125.367188 187.742188 126.847656 185.1875 C 127.84375 183.460938 128.90625 180.589844 127.382812 178.4375 C 125.324219 175.523438 122.824219 174.160156 119.628906 174.863281 C 119.507812 174.75 119.296875 174.484375 119.296875 174.484375 C 119.296875 174.484375 122.578125 172.761719 126.453125 176.265625 C 129.253906 178.800781 129.019531 181.359375 128.414062 183.414062 C 127.734375 185.714844 128.15625 186.679688 128.773438 187.777344 " fill-opacity="1" fill-rule="nonzero"/><path fill="#bfc0c1" d="M 127.382812 178.4375 C 128.90625 180.589844 127.84375 183.460938 126.847656 185.1875 C 125.367188 187.742188 122.910156 188.519531 120.3125 188.019531 C 118.160156 187.605469 116.445312 185.863281 115.199219 183.558594 C 114.242188 181.789062 114.820312 180.5 115.144531 179.992188 C 115.859375 180.664062 117.59375 182.261719 118.511719 183.089844 C 119.222656 183.730469 120.847656 183.019531 122.023438 181.671875 C 123.40625 180.082031 123.554688 179.125 123.058594 178.488281 C 122.046875 177.1875 120.21875 175.421875 119.628906 174.863281 C 122.824219 174.160156 125.324219 175.523438 127.382812 178.4375 " fill-opacity="1" fill-rule="nonzero"/><path fill="#bfc0c1" d="M 142.367188 217.269531 C 143.230469 216.773438 143.527344 215.671875 143.03125 214.8125 L 129.914062 191.851562 C 129.417969 190.992188 128.316406 190.691406 127.453125 191.1875 C 126.589844 191.683594 126.292969 192.785156 126.789062 193.648438 L 139.90625 216.605469 C 140.402344 217.46875 141.503906 217.765625 142.367188 217.269531 " fill-opacity="1" fill-rule="nonzero"/><path fill="#a1a4a5" d="M 145.75 227.585938 C 145.824219 227.074219 145.65625 226.625 145.324219 226.53125 C 145.011719 226.4375 144.648438 226.699219 144.429688 227.136719 C 144.113281 226.949219 143.828125 226.710938 143.585938 226.421875 C 143.960938 226.097656 144.128906 225.675781 143.957031 225.390625 C 143.792969 225.121094 143.375 225.0625 142.9375 225.210938 C 142.84375 224.890625 142.800781 224.566406 142.804688 224.242188 C 143.292969 224.28125 143.707031 224.109375 143.792969 223.792969 C 143.882812 223.460938 143.589844 223.085938 143.113281 222.878906 C 143.304688 222.460938 143.582031 222.082031 143.9375 221.765625 C 144.242188 222.15625 144.65625 222.34375 144.953125 222.1875 C 145.25 222.027344 145.320312 221.566406 145.15625 221.085938 C 145.640625 220.933594 146.148438 220.902344 146.636719 220.972656 C 146.585938 221.457031 146.75 221.871094 147.066406 221.964844 C 147.359375 222.050781 147.695312 221.828125 147.917969 221.445312 C 148.183594 221.609375 148.425781 221.8125 148.636719 222.050781 C 148.296875 222.367188 148.15625 222.765625 148.320312 223.039062 C 148.480469 223.304688 148.886719 223.367188 149.320312 223.226562 C 149.429688 223.558594 149.488281 223.902344 149.488281 224.246094 C 149.046875 224.234375 148.679688 224.402344 148.601562 224.699219 C 148.511719 225.015625 148.78125 225.371094 149.21875 225.582031 C 149.027344 226.03125 148.738281 226.445312 148.355469 226.777344 C 148.050781 226.375 147.625 226.179688 147.328125 226.339844 C 147.023438 226.503906 146.953125 226.976562 147.132812 227.464844 C 146.675781 227.605469 146.207031 227.640625 145.75 227.585938 Z M 141.558594 226.839844 C 142.976562 229.367188 146.179688 230.269531 148.714844 228.855469 C 151.246094 227.4375 152.148438 224.238281 150.730469 221.710938 C 149.3125 219.183594 146.109375 218.277344 143.578125 219.695312 C 141.046875 221.109375 140.140625 224.308594 141.558594 226.839844 " fill-opacity="1" fill-rule="nonzero"/><path fill="#111010" d="M 177.167969 252.492188 C 177.367188 252.675781 180.96875 255.21875 182.3125 255.925781 C 183.65625 256.636719 183.945312 256.921875 183.996094 257.054688 C 184.046875 257.183594 184.714844 257.25 185.589844 257.34375 C 186.9375 257.488281 187.570312 258.746094 187.570312 258.785156 C 187.570312 258.824219 187.59375 260.082031 187.570312 260.148438 C 187.546875 260.214844 185.347656 261.175781 183.308594 261.683594 C 180.355469 262.414062 174.8125 261.183594 173.976562 261.132812 C 173.976562 261.132812 172.195312 261.09375 171.199219 260.800781 C 170.199219 260.515625 169.816406 260.59375 169.789062 260.015625 C 169.765625 259.441406 169.816406 258.613281 169.890625 258.5625 C 169.964844 258.511719 169.964844 258.417969 170.015625 257.839844 C 170.0625 257.265625 170.152344 256.542969 170.214844 256.332031 C 170.277344 256.121094 170.265625 256.304688 170.277344 256.003906 C 170.289062 255.703125 170.238281 255.007812 170.488281 254.667969 C 170.738281 254.328125 171.222656 254.234375 171.558594 254.484375 C 171.894531 254.734375 172.40625 255.390625 173.21875 255.457031 C 174.027344 255.519531 175.121094 255.179688 175.472656 254.617188 C 175.820312 254.050781 176.644531 252.78125 176.816406 252.808594 C 176.992188 252.832031 177.167969 252.492188 177.167969 252.492188 " fill-opacity="1" fill-rule="nonzero"/><path fill="#111010" d="M 169.890625 258.5625 C 169.929688 258.535156 169.945312 258.496094 169.964844 258.390625 C 170.910156 258.558594 171.855469 258.757812 172.792969 258.984375 C 174.09375 259.296875 175.398438 259.539062 176.726562 259.703125 C 178.035156 259.863281 179.359375 260.066406 180.675781 260.117188 C 182.9375 260.207031 185.351562 259.816406 187.347656 258.640625 C 187.582031 258.503906 187.570312 258.746094 187.570312 258.785156 C 187.570312 258.824219 187.625 260.105469 187.570312 260.148438 C 186.457031 260.996094 185.347656 261.175781 183.308594 261.683594 C 180.355469 262.414062 174.8125 261.183594 173.976562 261.132812 C 173.976562 261.132812 172.195312 261.09375 171.199219 260.800781 C 170.199219 260.515625 169.816406 260.59375 169.789062 260.015625 C 169.765625 259.441406 169.816406 258.613281 169.890625 258.5625 " fill-opacity="1" fill-rule="nonzero"/><path fill="#45484e" d="M 185.335938 260.101562 C 184.492188 260.339844 183.628906 260.519531 182.757812 260.617188 C 180.921875 260.824219 179.09375 260.726562 177.269531 260.453125 C 175.375 260.171875 170.402344 259.09375 169.796875 259.007812 C 169.804688 258.824219 169.828125 258.746094 169.839844 258.726562 C 170.492188 258.84375 178.042969 261.179688 183.332031 260.363281 C 184.75 260.144531 186.3125 259.742188 187.578125 258.976562 C 187.582031 259.046875 187.582031 259.132812 187.585938 259.222656 C 186.925781 259.65625 186.082031 259.890625 185.335938 260.101562 " fill-opacity="1" fill-rule="nonzero"/><path fill="#408ea8" d="M 177.550781 226.75 C 177.535156 226.78125 177.519531 226.8125 177.503906 226.847656 C 178.527344 238.378906 179.539062 250.132812 180.125 254.46875 C 177.648438 254.578125 172.464844 256.683594 169.394531 256.824219 L 170.730469 227.085938 L 177.550781 226.75 " fill-opacity="1" fill-rule="nonzero"/><path fill="#111010" d="M 146.703125 244.464844 C 146.582031 244.707031 145.128906 248.863281 144.820312 250.351562 C 144.511719 251.839844 144.3125 252.195312 144.199219 252.277344 C 144.085938 252.363281 144.210938 253.019531 144.363281 253.886719 C 144.597656 255.222656 143.5625 256.175781 143.523438 256.1875 C 143.484375 256.199219 142.28125 256.570312 142.210938 256.566406 C 142.140625 256.558594 140.609375 254.714844 139.558594 252.898438 C 138.035156 250.265625 137.691406 244.605469 137.507812 243.789062 C 137.507812 243.789062 137.054688 242.066406 137.058594 241.03125 C 137.058594 239.992188 136.875 239.644531 137.421875 239.460938 C 137.972656 239.277344 138.78125 239.097656 138.851562 239.15625 C 138.921875 239.210938 139.011719 239.1875 139.582031 239.074219 C 140.148438 238.964844 140.867188 238.847656 141.085938 238.851562 C 141.304688 238.851562 141.125 238.890625 141.417969 238.820312 C 141.710938 238.75 142.367188 238.507812 142.761719 238.65625 C 143.160156 238.800781 143.382812 239.242188 143.234375 239.632812 C 143.089844 240.023438 142.597656 240.695312 142.761719 241.492188 C 142.921875 242.285156 143.550781 243.242188 144.191406 243.421875 C 144.828125 243.601562 146.28125 244.039062 146.304688 244.214844 C 146.328125 244.390625 146.703125 244.464844 146.703125 244.464844 " fill-opacity="1" fill-rule="nonzero"/><path fill="#111010" d="M 138.851562 239.15625 C 138.886719 239.1875 138.929688 239.191406 139.039062 239.179688 C 139.136719 240.136719 139.203125 241.09375 139.246094 242.058594 C 139.308594 243.394531 139.429688 244.714844 139.644531 246.035156 C 139.851562 247.335938 140.019531 248.660156 140.335938 249.9375 C 140.871094 252.136719 141.914062 254.34375 143.601562 255.933594 C 143.796875 256.121094 143.5625 256.175781 143.523438 256.1875 C 143.484375 256.199219 142.265625 256.605469 142.210938 256.566406 C 141.085938 255.730469 140.609375 254.714844 139.558594 252.898438 C 138.035156 250.265625 137.691406 244.605469 137.507812 243.789062 C 137.507812 243.789062 137.054688 242.066406 137.058594 241.03125 C 137.058594 239.992188 136.875 239.644531 137.421875 239.460938 C 137.972656 239.277344 138.78125 239.097656 138.851562 239.15625 " fill-opacity="1" fill-rule="nonzero"/><path fill="#45484e" d="M 141.636719 254.40625 C 141.175781 253.664062 140.761719 252.882812 140.429688 252.074219 C 139.722656 250.367188 139.308594 248.585938 139.070312 246.757812 C 138.820312 244.863281 138.480469 239.792969 138.398438 239.191406 C 138.574219 239.148438 138.65625 239.148438 138.679688 239.152344 C 138.75 239.8125 138.585938 247.707031 140.832031 252.554688 C 141.433594 253.855469 142.253906 255.242188 143.339844 256.246094 C 143.273438 256.269531 143.191406 256.292969 143.105469 256.324219 C 142.507812 255.808594 142.046875 255.0625 141.636719 254.40625 " fill-opacity="1" fill-rule="nonzero"/><path fill="#408ea8" d="M 145.558594 245.738281 L 139.664062 238.488281 C 139.664062 238.488281 149.113281 238.523438 153.28125 236.371094 C 157.488281 234.195312 156.261719 227.402344 156.261719 227.402344 L 165.15625 229.371094 C 165.15625 229.371094 162.296875 241.179688 157.695312 243.558594 C 153.230469 245.863281 145.558594 245.738281 145.558594 245.738281 " fill-opacity="1" fill-rule="nonzero"/><path fill="#d39374" d="M 172.328125 184.691406 C 172.328125 184.691406 167.210938 184.207031 167.097656 184.695312 C 166.707031 186.371094 165.570312 190.324219 164.449219 190.914062 C 162.839844 191.761719 163.085938 192.132812 160.902344 192.132812 C 160.902344 197.992188 169.109375 218.019531 169.109375 218.019531 C 169.109375 218.019531 177.863281 198.1875 177.863281 192.328125 C 175.546875 192.328125 175.394531 191.59375 174.214844 191.175781 C 172.828125 190.683594 172.328125 184.691406 172.328125 184.691406 " fill-opacity="1" fill-rule="nonzero"/><path fill="#eae8e9" d="M 148.355469 198.03125 C 148.199219 194.695312 148.707031 192.007812 153.875 192.007812 L 160.3125 192.007812 L 172.3125 197.921875 L 177.863281 192.242188 L 181.261719 192.007812 C 185.53125 192.515625 185.53125 196.488281 185.53125 198.300781 C 185.53125 198.300781 183.644531 209.726562 183.644531 214.542969 C 183.644531 216.628906 182.316406 221.074219 182.316406 221.074219 C 182.316406 224.222656 175.199219 224.289062 171.855469 224.527344 C 170.476562 224.621094 163.882812 224.621094 162.503906 224.527344 C 159.160156 224.289062 151.710938 224.222656 151.710938 221.074219 C 151.710938 221.074219 150.714844 216.628906 150.714844 214.542969 C 150.714844 209.726562 148.355469 198.03125 148.355469 198.03125 " fill-opacity="1" fill-rule="nonzero"/><path fill="#408ea8" d="M 151.105469 222.820312 C 150.636719 224.894531 150.554688 230.746094 167.445312 230.746094 C 185.003906 230.746094 183.097656 222.820312 183.097656 222.820312 C 166.058594 224.117188 166.042969 224.558594 151.105469 222.820312 " fill-opacity="1" fill-rule="nonzero"/><path fill="#408ea8" d="M 150.191406 211.019531 C 152.59375 209.847656 155.953125 205.585938 156.972656 205.492188 C 163.675781 204.886719 173.714844 203.503906 183.199219 204.894531 C 184.257812 205.050781 181.285156 209.367188 184.339844 210.011719 C 183.960938 213.042969 183.667969 212.851562 183.667969 214.542969 C 183.667969 216.628906 183.097656 222.820312 183.097656 222.820312 C 183.097656 225.96875 177.550781 224.289062 174.207031 224.527344 C 172.828125 224.621094 166.230469 224.621094 164.851562 224.527344 C 161.507812 224.289062 151.105469 225.96875 151.105469 222.820312 C 151.105469 222.820312 150.738281 216.628906 150.738281 214.542969 C 150.738281 214.542969 150.507812 213.671875 150.191406 211.019531 " fill-opacity="1" fill-rule="nonzero"/><path fill="#3c8395" d="M 155.789062 192.285156 C 155.789062 192.285156 156.960938 195.988281 157.785156 204.1875 C 158.21875 208.492188 158.6875 209.453125 159.707031 209.234375 C 163.144531 208.492188 161.550781 206.339844 160.914062 199.3125 C 160.53125 195.070312 159.484375 192.8125 159.484375 192.8125 C 159.484375 192.8125 159.273438 191.460938 158.765625 191.5 C 158.265625 191.535156 155.617188 191.109375 155.789062 192.285156 " fill-opacity="1" fill-rule="nonzero"/><path fill="#100f0f" d="M 161.308594 206.703125 C 161.308594 207.230469 160.882812 207.65625 160.355469 207.65625 C 159.828125 207.65625 159.402344 207.230469 159.402344 206.703125 C 159.402344 206.179688 159.828125 205.75 160.355469 205.75 C 160.882812 205.75 161.308594 206.179688 161.308594 206.703125 " fill-opacity="1" fill-rule="nonzero"/><path fill="#ffffff" d="M 161.015625 206.703125 C 161.015625 207.230469 160.585938 207.65625 160.0625 207.65625 C 159.535156 207.65625 159.105469 207.230469 159.105469 206.703125 C 159.105469 206.179688 159.535156 205.75 160.0625 205.75 C 160.585938 205.75 161.015625 206.179688 161.015625 206.703125 " fill-opacity="1" fill-rule="nonzero"/><path fill="#9bab8f" d="M 160.628906 206.703125 C 160.628906 207.019531 160.375 207.273438 160.0625 207.273438 C 159.746094 207.273438 159.492188 207.019531 159.492188 206.703125 C 159.492188 206.390625 159.746094 206.136719 160.0625 206.136719 C 160.375 206.136719 160.628906 206.390625 160.628906 206.703125 " fill-opacity="1" fill-rule="nonzero"/><path fill="#3c8395" d="M 182.804688 192.34375 C 182.804688 192.34375 182.839844 195.117188 182.015625 203.316406 C 181.585938 207.621094 181.410156 208.582031 180.390625 208.363281 C 176.953125 207.621094 178.546875 205.46875 179.183594 198.441406 C 179.566406 194.199219 179.761719 191.972656 179.761719 191.972656 C 179.761719 191.972656 179.96875 191.445312 180.476562 191.480469 C 180.976562 191.519531 182.972656 191.167969 182.804688 192.34375 " fill-opacity="1" fill-rule="nonzero"/><path fill="#100f0f" d="M 179.378906 205.96875 C 179.378906 206.492188 179.804688 206.921875 180.332031 206.921875 C 180.859375 206.921875 181.285156 206.492188 181.285156 205.96875 C 181.285156 205.441406 180.859375 205.015625 180.332031 205.015625 C 179.804688 205.015625 179.378906 205.441406 179.378906 205.96875 " fill-opacity="1" fill-rule="nonzero"/><path fill="#ffffff" d="M 179.082031 205.96875 C 179.082031 206.492188 179.511719 206.921875 180.039062 206.921875 C 180.5625 206.921875 180.992188 206.492188 180.992188 205.96875 C 180.992188 205.441406 180.5625 205.015625 180.039062 205.015625 C 179.511719 205.015625 179.082031 205.441406 179.082031 205.96875 " fill-opacity="1" fill-rule="nonzero"/><path fill="#9bab8f" d="M 179.46875 205.96875 C 179.46875 206.28125 179.722656 206.535156 180.039062 206.535156 C 180.351562 206.535156 180.605469 206.28125 180.605469 205.96875 C 180.605469 205.652344 180.351562 205.398438 180.039062 205.398438 C 179.722656 205.398438 179.46875 205.652344 179.46875 205.96875 " fill-opacity="1" fill-rule="nonzero"/><path fill="#bec0c2" d="M 159.636719 191.832031 C 161.296875 194.03125 162.996094 194.410156 164.910156 195.792969 C 165.964844 196.554688 172.234375 199.679688 172.234375 199.679688 C 172.234375 199.679688 173.851562 198.699219 175.097656 197.082031 C 176.253906 195.582031 176.960938 194.425781 178.253906 192.273438 C 176.945312 191.710938 175.675781 191.773438 175.675781 191.773438 C 175.675781 191.773438 175.152344 193.371094 174.367188 194.253906 C 173.328125 195.421875 172.078125 197.011719 172.078125 197.011719 C 172.078125 197.011719 166.660156 194.253906 165.578125 193.492188 C 163.464844 192.007812 162.671875 191.28125 162.671875 191.28125 C 162.671875 191.28125 160.804688 191.117188 159.636719 191.832031 " fill-opacity="1" fill-rule="nonzero"/><path fill="#292828" d="M 150.722656 219.511719 C 157.273438 222.058594 163.742188 221.953125 170.214844 221.710938 C 170.308594 221.707031 170.402344 221.707031 170.496094 221.703125 L 170.5 221.703125 C 170.617188 221.820312 170.664062 221.867188 170.78125 221.984375 L 170.296875 226.972656 C 169.226562 227.011719 168.089844 227.046875 166.910156 227.070312 L 167.308594 233.664062 C 167.519531 237.199219 164.933594 240.261719 161.53125 240.507812 C 158.125 240.757812 155.195312 238.09375 154.980469 234.558594 L 154.476562 226.210938 C 153.054688 225.929688 152.609375 226.175781 151.304688 225.628906 C 150.796875 225.414062 150.832031 219.460938 150.722656 219.511719 " fill-opacity="1" fill-rule="nonzero"/><path fill="#211a19" d="M 170.304688 227.066406 C 170.386719 227.0625 170.476562 227.054688 170.558594 227.046875 C 174.554688 226.695312 177.503906 225.996094 177.882812 225.902344 L 182.964844 224.515625 C 182.964844 224.515625 183.242188 223.886719 183.171875 221.996094 C 183.160156 221.640625 183.550781 218.824219 183.386719 218.863281 C 183.296875 218.886719 174.519531 221.460938 170.578125 221.804688 C 170.65625 221.804688 170.730469 221.804688 170.804688 221.804688 L 170.304688 227.066406 " fill-opacity="1" fill-rule="nonzero"/><path fill="#292828" d="M 174.074219 224.121094 C 174.054688 223.890625 174.171875 223.675781 174.335938 223.632812 C 174.496094 223.59375 174.644531 223.746094 174.660156 223.976562 C 174.679688 224.203125 174.5625 224.421875 174.398438 224.460938 C 174.238281 224.5 174.089844 224.347656 174.074219 224.121094 Z M 176.609375 224.058594 C 176.589844 223.832031 176.707031 223.613281 176.871094 223.570312 C 177.035156 223.53125 177.179688 223.683594 177.199219 223.914062 C 177.214844 224.140625 177.097656 224.359375 176.9375 224.398438 C 176.773438 224.441406 176.625 224.285156 176.609375 224.058594 Z M 179.101562 223.769531 C 179.082031 223.542969 179.199219 223.324219 179.363281 223.28125 C 179.523438 223.242188 179.671875 223.394531 179.6875 223.625 C 179.707031 223.855469 179.589844 224.070312 179.425781 224.113281 C 179.265625 224.152344 179.117188 224 179.101562 223.769531 Z M 170.558594 227.046875 L 170.558594 227.054688 C 175.460938 227.015625 179.175781 226.433594 179.628906 226.363281 L 179.652344 226.355469 C 181.144531 225.394531 181.324219 221.386719 179.453125 221.023438 L 178.242188 221.296875 C 178.21875 221.300781 178 221.332031 177.617188 221.382812 C 177.59375 221.382812 177.570312 221.386719 177.546875 221.390625 C 176.367188 221.539062 173.789062 221.804688 170.578125 221.804688 L 170.574219 221.804688 C 170.507812 221.804688 170.441406 221.808594 170.371094 221.804688 L 170.371094 221.820312 L 170.558594 227.046875 " fill-opacity="1" fill-rule="nonzero"/><path fill="#eae8e9" d="M 170.578125 222.605469 L 170.523438 226.164062 C 170.519531 226.367188 170.570312 226.550781 170.671875 226.6875 C 170.769531 226.824219 170.902344 226.898438 171.042969 226.886719 L 174.46875 226.679688 C 174.613281 226.671875 174.746094 226.585938 174.851562 226.4375 C 174.953125 226.289062 175.011719 226.09375 175.015625 225.890625 L 175.070312 222.335938 C 175.078125 221.917969 174.84375 221.59375 174.546875 221.609375 L 171.121094 221.816406 C 171.097656 221.820312 171.074219 221.824219 171.050781 221.828125 C 170.789062 221.894531 170.582031 222.222656 170.578125 222.605469 Z M 174.460938 227.285156 L 171.035156 227.492188 C 170.777344 227.507812 170.539062 227.382812 170.363281 227.136719 C 170.183594 226.890625 170.089844 226.554688 170.097656 226.191406 L 170.152344 222.632812 C 170.164062 221.882812 170.601562 221.242188 171.132812 221.214844 L 174.558594 221.003906 C 175.085938 220.972656 175.507812 221.558594 175.496094 222.308594 L 175.441406 225.867188 C 175.4375 226.230469 175.332031 226.578125 175.144531 226.847656 C 174.992188 227.070312 174.796875 227.214844 174.589844 227.265625 C 174.546875 227.277344 174.503906 227.28125 174.460938 227.285156 " fill-opacity="1" fill-rule="nonzero"/><path fill="#eae8e9" d="M 172.539062 224.398438 C 172.617188 224.378906 172.675781 224.28125 172.679688 224.167969 C 172.679688 224.042969 172.613281 223.945312 172.523438 223.949219 L 170.679688 224.0625 C 170.589844 224.066406 170.515625 224.171875 170.515625 224.296875 C 170.511719 224.421875 170.582031 224.519531 170.671875 224.515625 L 172.515625 224.402344 C 172.523438 224.402344 172.53125 224.402344 172.539062 224.398438 " fill-opacity="1" fill-rule="nonzero"/><path fill="#515358" d="M 161.816406 235.972656 C 161.667969 235.597656 161.625 235.175781 161.714844 234.746094 C 161.867188 234.050781 162.339844 233.511719 162.9375 233.265625 L 162.546875 225.488281 C 161.671875 225.121094 161.152344 224.144531 161.367188 223.148438 C 161.457031 222.710938 161.679688 222.335938 161.976562 222.058594 L 162.160156 221.6875 L 162.566406 221.675781 L 162.21875 223.289062 L 163.152344 224.199219 L 164.382812 223.808594 L 164.628906 222.667969 L 164.363281 222.628906 L 164.335938 222.167969 L 164.738281 222.15625 C 165.175781 222.632812 165.378906 223.316406 165.234375 224.011719 C 165.09375 224.660156 164.675781 225.167969 164.136719 225.4375 L 164.535156 233.335938 C 165.328125 233.742188 165.785156 234.671875 165.582031 235.613281 C 165.433594 236.304688 164.96875 236.839844 164.378906 237.089844 L 163.976562 237.117188 L 164.300781 236.734375 L 164.457031 236.722656 L 164.726562 235.433594 L 163.765625 234.554688 L 162.546875 234.984375 L 162.207031 236.601562 L 161.800781 236.609375 L 161.714844 236.039062 L 161.816406 235.972656 " fill-opacity="1" fill-rule="nonzero"/><path fill="#7f8287" d="M 161.3125 234.757812 C 161.460938 234.058594 161.9375 233.519531 162.535156 233.277344 L 162.144531 225.496094 C 161.269531 225.132812 160.75 224.152344 160.960938 223.160156 C 161.109375 222.46875 161.574219 221.933594 162.160156 221.6875 L 161.8125 223.296875 L 162.746094 224.210938 L 163.980469 223.820312 L 164.335938 222.167969 C 164.769531 222.644531 164.976562 223.328125 164.828125 224.019531 C 164.691406 224.671875 164.269531 225.179688 163.734375 225.445312 L 164.128906 233.347656 C 164.925781 233.753906 165.382812 234.679688 165.179688 235.625 C 165.03125 236.316406 164.5625 236.851562 163.972656 237.097656 L 164.324219 235.445312 L 163.363281 234.566406 L 162.144531 234.996094 L 161.800781 236.609375 C 161.371094 236.132812 161.164062 235.449219 161.3125 234.757812 " fill-opacity="1" fill-rule="nonzero"/><path fill="#2c2d2e" d="M 163.363281 233.765625 L 163.257812 233.773438 C 163.085938 233.78125 162.9375 233.644531 162.929688 233.464844 L 162.570312 225.582031 C 162.5625 225.402344 162.699219 225.25 162.871094 225.238281 L 162.972656 225.234375 C 163.144531 225.222656 163.292969 225.363281 163.300781 225.539062 L 163.660156 233.425781 C 163.667969 233.601562 163.535156 233.757812 163.363281 233.765625 " fill-opacity="1" fill-rule="nonzero"/><path fill="#383538" d="M 162.929688 233.464844 C 162.9375 233.644531 163.085938 233.78125 163.257812 233.773438 L 163.363281 233.765625 C 163.375 233.765625 163.390625 233.761719 163.40625 233.761719 C 163.242188 233.757812 163.105469 233.625 163.097656 233.453125 L 162.742188 225.570312 C 162.734375 225.40625 162.84375 225.265625 162.992188 225.234375 L 162.976562 225.234375 L 162.871094 225.238281 C 162.699219 225.25 162.5625 225.402344 162.570312 225.582031 L 162.929688 233.464844 " fill-opacity="1" fill-rule="nonzero"/><path fill="#515358" d="M 163.097656 233.453125 C 163.105469 233.625 163.242188 233.757812 163.40625 233.761719 C 163.554688 233.730469 163.667969 233.585938 163.660156 233.425781 L 163.300781 225.539062 C 163.292969 225.367188 163.15625 225.234375 162.992188 225.234375 C 162.84375 225.265625 162.734375 225.40625 162.742188 225.570312 L 163.097656 233.453125 " fill-opacity="1" fill-rule="nonzero"/><path fill="#515358" d="M 160.15625 242.449219 C 160.332031 241.933594 160.363281 241.363281 160.214844 240.792969 C 159.972656 239.863281 159.300781 239.167969 158.480469 238.875 L 158.535156 228.386719 C 159.695312 227.84375 160.332031 226.496094 159.988281 225.171875 C 159.835938 224.585938 159.515625 224.097656 159.097656 223.738281 L 158.828125 223.25 L 158.285156 223.257812 L 158.847656 225.410156 L 157.648438 226.6875 L 155.96875 226.238281 L 155.570312 224.722656 L 155.925781 224.652344 L 155.933594 224.027344 L 155.390625 224.039062 C 154.832031 224.703125 154.597656 225.640625 154.835938 226.5625 C 155.0625 227.425781 155.65625 228.085938 156.394531 228.414062 L 156.339844 239.066406 C 155.296875 239.660156 154.738281 240.9375 155.066406 242.191406 C 155.308594 243.113281 155.96875 243.808594 156.777344 244.105469 L 157.320312 244.117188 L 156.859375 243.621094 L 156.652344 243.617188 L 156.207031 241.898438 L 157.445312 240.660156 L 159.113281 241.164062 L 159.667969 243.316406 L 160.214844 243.304688 L 160.296875 242.535156 L 160.15625 242.449219 " fill-opacity="1" fill-rule="nonzero"/><path fill="#7f8287" d="M 160.761719 240.785156 C 160.515625 239.851562 159.84375 239.15625 159.027344 238.863281 L 159.082031 228.375 C 160.238281 227.832031 160.875 226.484375 160.53125 225.160156 C 160.292969 224.238281 159.632812 223.546875 158.828125 223.25 L 159.390625 225.398438 L 158.191406 226.679688 L 156.511719 226.230469 L 155.933594 224.027344 C 155.375 224.695312 155.140625 225.628906 155.378906 226.550781 C 155.605469 227.417969 156.199219 228.078125 156.941406 228.402344 L 156.882812 239.054688 C 155.839844 239.648438 155.28125 240.925781 155.609375 242.183594 C 155.851562 243.105469 156.511719 243.796875 157.320312 244.09375 L 156.75 241.890625 L 157.988281 240.648438 L 159.65625 241.15625 L 160.214844 243.304688 C 160.765625 242.636719 161 241.703125 160.761719 240.785156 " fill-opacity="1" fill-rule="nonzero"/><path fill="#2c2d2e" d="M 157.941406 239.574219 L 158.085938 239.574219 C 158.316406 239.578125 158.503906 239.382812 158.507812 239.144531 L 158.511719 228.515625 C 158.511719 228.273438 158.320312 228.074219 158.089844 228.074219 L 157.949219 228.070312 C 157.71875 228.066406 157.527344 228.261719 157.527344 228.503906 L 157.523438 239.132812 C 157.523438 239.371094 157.710938 239.570312 157.941406 239.574219 " fill-opacity="1" fill-rule="nonzero"/><path fill="#383538" d="M 158.507812 239.140625 C 158.507812 239.382812 158.316406 239.578125 158.085938 239.574219 L 157.945312 239.574219 C 157.925781 239.574219 157.902344 239.570312 157.882812 239.570312 C 158.101562 239.554688 158.277344 239.367188 158.277344 239.136719 L 158.28125 228.507812 C 158.28125 228.289062 158.125 228.105469 157.925781 228.070312 C 157.933594 228.070312 157.941406 228.070312 157.949219 228.070312 L 158.089844 228.074219 C 158.324219 228.074219 158.511719 228.273438 158.511719 228.515625 L 158.507812 239.140625 " fill-opacity="1" fill-rule="nonzero"/><path fill="#515358" d="M 158.277344 239.136719 C 158.277344 239.367188 158.101562 239.554688 157.882812 239.570312 C 157.679688 239.535156 157.523438 239.351562 157.523438 239.132812 L 157.527344 228.503906 C 157.527344 228.269531 157.703125 228.082031 157.925781 228.070312 C 158.125 228.105469 158.28125 228.289062 158.28125 228.507812 L 158.277344 239.136719 " fill-opacity="1" fill-rule="nonzero"/><path fill="#211a19" d="M 161.609375 230.898438 C 162.960938 231.3125 163.714844 231.375 165.074219 231.027344 C 165.042969 230.113281 165.042969 229.050781 165.003906 228.011719 C 163.910156 228.476562 162.757812 228.628906 161.605469 228.464844 C 161.652344 229.246094 161.683594 230.109375 161.609375 230.898438 " fill-opacity="1" fill-rule="nonzero"/><path fill="#211a19" d="M 155.4375 231.257812 C 157.355469 231.597656 158.421875 231.617188 160.34375 231.195312 C 160.289062 230.28125 160.277344 229.21875 160.214844 228.183594 C 158.671875 228.707031 157.042969 228.925781 155.414062 228.824219 C 155.488281 229.605469 155.535156 230.464844 155.4375 231.257812 " fill-opacity="1" fill-rule="nonzero"/><path fill="#d39374" d="M 133.273438 171.878906 C 135.136719 174.933594 138.933594 176.023438 141.75 174.308594 C 144.570312 172.59375 145.347656 168.726562 143.484375 165.667969 C 141.621094 162.613281 137.824219 161.523438 135.003906 163.238281 C 132.1875 164.953125 131.410156 168.820312 133.273438 171.878906 " fill-opacity="1" fill-rule="nonzero"/><path fill="#b4705c" d="M 135.5 171.417969 C 135.59375 171.566406 135.691406 171.710938 135.792969 171.847656 C 135.269531 171.527344 134.792969 171.058594 134.429688 170.464844 C 133.433594 168.824219 133.675781 166.855469 134.976562 166.066406 C 135.371094 165.824219 135.816406 165.722656 136.273438 165.742188 C 134.59375 166.835938 134.242188 169.351562 135.5 171.417969 " fill-opacity="1" fill-rule="nonzero"/><path fill="#d9a889" d="M 141.367188 143.578125 C 141.769531 142.683594 150.035156 139.726562 151.535156 139.691406 C 157.699219 139.554688 174.546875 134.992188 181.40625 136.445312 C 189.132812 138.085938 189.5 150.769531 190.105469 153.867188 C 191.78125 162.472656 191.882812 171.75 190.472656 175.347656 C 186.867188 184.542969 178.035156 190.722656 175.101562 191.3125 C 171.515625 192.039062 155.050781 191.84375 148.195312 184.429688 C 144.792969 180.753906 140.722656 170.910156 139.929688 160.332031 C 139.519531 154.835938 139.429688 147.898438 141.367188 143.578125 " fill-opacity="1" fill-rule="nonzero"/><path fill="#d39374" d="M 172.589844 173.714844 C 172.589844 173.714844 174.335938 173.816406 176.179688 173.285156 C 177.066406 173.03125 177.792969 172.789062 178.285156 172.316406 C 178.761719 171.855469 178.75 170.5 178.75 170.5 C 178.75 170.5 181.347656 173.070312 177.074219 174.53125 C 174.03125 175.570312 172.589844 173.714844 172.589844 173.714844 " fill-opacity="1" fill-rule="nonzero"/><path fill="#f4f4f4" d="M 167.136719 165.421875 C 166.585938 163.066406 164.3125 158.097656 158.960938 161.746094 C 153.613281 165.398438 156.671875 168.117188 157.335938 168.320312 C 161.601562 169.636719 167.6875 167.773438 167.136719 165.421875 " fill-opacity="1" fill-rule="nonzero"/><path fill="#261714" d="M 155.46875 165.21875 L 155.46875 165.226562 C 155.429688 164.71875 156.066406 162.6875 157.578125 161.230469 C 158.355469 160.644531 159.339844 160.140625 160.546875 160.003906 C 165.339844 159.460938 166.859375 164.011719 166.859375 164.011719 C 167.355469 164.722656 166.664062 164.078125 166.664062 164.078125 C 164.828125 161.625 163.476562 160.945312 160.394531 161.527344 C 157.316406 162.113281 156.324219 164.675781 156.082031 165.375 C 155.839844 166.074219 155.46875 165.21875 155.46875 165.21875 " fill-opacity="1" fill-rule="nonzero"/><path fill="#1f1e35" d="M 156.859375 165.914062 C 157.316406 167.878906 159.375 169.082031 161.457031 168.59375 C 163.535156 168.109375 164.847656 166.121094 164.390625 164.15625 C 163.929688 162.1875 161.871094 160.988281 159.789062 161.472656 C 157.710938 161.957031 156.398438 163.945312 156.859375 165.914062 " fill-opacity="1" fill-rule="nonzero"/><path fill="#100f0f" d="M 157.691406 165.992188 C 158.058594 167.554688 159.695312 168.507812 161.34375 168.121094 C 162.996094 167.738281 164.042969 166.15625 163.675781 164.59375 C 163.3125 163.035156 161.675781 162.078125 160.023438 162.464844 C 158.371094 162.847656 157.328125 164.429688 157.691406 165.992188 " fill-opacity="1" fill-rule="nonzero"/><path fill="#2a2d55" d="M 158.980469 165.0625 C 158.980469 165.171875 158.992188 165.285156 159.019531 165.394531 C 159.21875 166.246094 160.082031 166.777344 160.945312 166.574219 C 161.808594 166.375 162.347656 165.515625 162.148438 164.664062 C 162.144531 164.640625 162.132812 164.617188 162.125 164.59375 C 162.824219 164.589844 163.5 164.636719 164.117188 164.71875 C 164.207031 166.46875 163.113281 168.066406 161.4375 168.457031 C 159.625 168.882812 157.804688 167.722656 157.238281 165.859375 C 157.800781 165.515625 158.390625 165.257812 158.980469 165.0625 " fill-opacity="1" fill-rule="nonzero"/><path fill="#f4f4f4" d="M 160.671875 162.53125 C 160.304688 163.074219 160.570312 163.910156 161.269531 164.398438 C 161.972656 164.882812 162.839844 164.835938 163.207031 164.292969 C 163.578125 163.753906 163.308594 162.917969 162.609375 162.433594 C 161.90625 161.945312 161.039062 161.992188 160.671875 162.53125 " fill-opacity="1" fill-rule="nonzero"/><path fill="#f4f4f4" d="M 158.671875 167.082031 C 158.535156 167.277344 158.632812 167.585938 158.890625 167.765625 C 159.144531 167.941406 159.464844 167.925781 159.597656 167.726562 C 159.734375 167.53125 159.636719 167.222656 159.378906 167.042969 C 159.125 166.867188 158.808594 166.882812 158.671875 167.082031 " fill-opacity="1" fill-rule="nonzero"/><path fill="#261714" d="M 153.699219 157.921875 C 153.699219 157.921875 156.585938 153.777344 163.640625 156.945312 C 163.640625 156.945312 164.867188 155.550781 164.910156 154.070312 C 164.910156 154.070312 161.488281 152.269531 157.914062 153.417969 C 153.867188 154.714844 153.699219 157.921875 153.699219 157.921875 " fill-opacity="1" fill-rule="nonzero"/><path fill="#261714" d="M 153.9375 157.421875 C 154.164062 156.488281 154.988281 154.515625 157.960938 153.5625 C 159.925781 152.933594 161.84375 153.214844 163.113281 153.5625 C 163.941406 153.792969 164.539062 154.058594 164.753906 154.164062 C 164.675781 155.332031 163.847656 156.441406 163.597656 156.753906 C 162.878906 156.4375 162.167969 156.183594 161.488281 155.996094 C 157.191406 154.816406 154.792969 156.578125 153.9375 157.421875 " fill-opacity="1" fill-rule="nonzero"/><path fill="#261714" d="M 187.511719 151.277344 C 187.511719 151.277344 183.859375 148.257812 178.71875 153.480469 C 178.71875 153.480469 177.269531 152.546875 176.8125 151.15625 C 176.8125 151.15625 179.230469 148.367188 182.617188 148.332031 C 186.449219 148.285156 187.511719 151.277344 187.511719 151.277344 " fill-opacity="1" fill-rule="nonzero"/><path fill="#261714" d="M 187.164062 150.882812 C 186.703125 150.066406 185.4375 148.453125 182.617188 148.484375 C 180.757812 148.507812 179.191406 149.378906 178.207031 150.109375 C 177.5625 150.585938 177.128906 151.027344 176.972656 151.195312 C 177.371094 152.277344 178.398438 153.074219 178.703125 153.289062 C 179.226562 152.761719 179.761719 152.296875 180.289062 151.90625 C 183.636719 149.433594 186.191406 150.347656 187.164062 150.882812 " fill-opacity="1" fill-rule="nonzero"/><path fill="#af4e41" d="M 180.894531 174.566406 C 180.894531 174.566406 179.359375 175.589844 178.707031 175.773438 C 176.089844 176.5 169.175781 178.34375 161.449219 179.71875 C 161.449219 179.71875 163.492188 186.9375 173.296875 185.378906 C 182.757812 183.875 181.691406 174.738281 180.894531 174.566406 " fill-opacity="1" fill-rule="nonzero"/><path fill="#c76871" d="M 175.285156 184.886719 C 175.285156 184.886719 174.246094 181.902344 169.496094 181.722656 C 164.75 181.546875 163.855469 183.289062 163.855469 183.289062 C 163.855469 183.289062 167.546875 187.21875 175.285156 184.886719 " fill-opacity="1" fill-rule="nonzero"/><path fill="#f4f4f4" d="M 178.707031 175.773438 C 178.707031 175.773438 179.792969 177.851562 177.101562 179.28125 C 174.507812 180.660156 163.539062 182.023438 162.472656 181.726562 C 162.472656 181.726562 161.578125 180.304688 161.359375 179.398438 C 161.359375 179.398438 168.59375 178.585938 178.707031 175.773438 " fill-opacity="1" fill-rule="nonzero"/><path fill="#261714" d="M 177.808594 162.917969 C 177.808594 162.917969 178.269531 157.050781 181.78125 157.726562 C 185.292969 158.402344 183.21875 160.015625 188.328125 159.476562 C 188.328125 159.476562 185.53125 161.679688 182.445312 160.121094 C 179.359375 158.566406 177.808594 162.917969 177.808594 162.917969 " fill-opacity="1" fill-rule="nonzero"/><path fill="#f5f4f3" d="M 152.492188 192.519531 C 151.222656 191.234375 148.847656 192.492188 147.1875 194.570312 C 144.835938 197.507812 143.71875 202.15625 142.296875 203.046875 C 141.253906 203.703125 138.65625 201.324219 138.175781 200.960938 C 137.03125 200.097656 132.136719 207.847656 132.792969 208.429688 C 137.9375 212.992188 142.765625 214.339844 146.414062 212.003906 C 149.753906 209.867188 153.644531 203.488281 154.484375 200.746094 C 155.925781 196.023438 153.835938 193.882812 152.492188 192.519531 " fill-opacity="1" fill-rule="nonzero"/><path fill="#d9a889" d="M 137.570312 197.207031 C 139.0625 195.027344 140.875 195.15625 141.917969 196.871094 C 142.960938 198.589844 143.402344 200.261719 144.105469 200.972656 C 144.8125 201.683594 143.460938 203.683594 141.460938 204.429688 C 142.648438 205.96875 136.402344 196.125 137.570312 197.207031 " fill-opacity="1" fill-rule="nonzero"/><path fill="#d9a889" d="M 132.472656 214.367188 C 129.230469 211.898438 128.625 210.269531 128.050781 209.554688 C 127.476562 208.839844 126.671875 207.304688 127.496094 205.164062 C 128.320312 203.027344 129.765625 200.746094 132.253906 198.28125 C 134.742188 195.820312 136.496094 195.695312 137.675781 196.769531 C 137.675781 196.769531 140.511719 198.851562 140.03125 201.378906 C 143.78125 204.507812 141.703125 206.996094 141.703125 206.996094 C 141.703125 206.996094 146.082031 209.480469 143.921875 212.332031 C 145.578125 215.1875 142.765625 217.902344 139.363281 217.851562 C 135.964844 217.800781 132.472656 214.367188 132.472656 214.367188 " fill-opacity="1" fill-rule="nonzero"/><path fill="#d39374" d="M 143.792969 213.257812 L 139.714844 215.101562 C 139.714844 215.101562 142.539062 213.261719 143.535156 211.386719 C 144.53125 209.511719 141.9375 207.816406 141.9375 207.816406 L 135.675781 212.605469 C 135.675781 212.605469 139.324219 208.585938 140.582031 206.539062 C 141.84375 204.492188 141.335938 203.644531 140.09375 202.648438 C 138.851562 201.65625 134.265625 206.894531 132.167969 209.667969 C 131.558594 207.164062 137.066406 201.917969 138.945312 201.007812 C 139.117188 198.796875 137.234375 196.378906 135.464844 196.195312 C 136.359375 195.996094 137.105469 196.222656 137.675781 196.769531 C 138.800781 197.839844 140.378906 199.207031 140.03125 201.378906 C 140.890625 202.1875 141.601562 202.765625 142.023438 203.914062 C 142.738281 205.851562 141.703125 206.996094 141.703125 206.996094 C 141.703125 206.996094 146.082031 209.480469 143.921875 212.332031 C 144.851562 213.933594 144.375 215.488281 143.175781 216.539062 C 143.808594 214.53125 143.792969 213.257812 143.792969 213.257812 " fill-opacity="1" fill-rule="nonzero"/><path fill="#211a18" d="M 184.945312 142.480469 C 185.523438 143.109375 185.1875 144.152344 185.800781 144.796875 C 188.339844 147.445312 189.285156 151.125 190.464844 154.53125 C 190.726562 154.441406 190.988281 154.351562 191.253906 154.261719 C 189.855469 149.238281 189.875 144.183594 188.140625 139.25 C 187.738281 138.105469 186.453125 137.15625 185.609375 136.390625 C 184.128906 135.042969 181.410156 135.375 181.234375 137.6875 C 181.039062 140.191406 183.652344 141.074219 184.945312 142.480469 " fill-opacity="1" fill-rule="nonzero"/><path fill="#211a18" d="M 139.992188 164.371094 C 141.570312 165.109375 140.800781 168.242188 141.277344 169.671875 C 141.613281 170.15625 145.449219 169.433594 145.460938 167.070312 C 145.476562 164.703125 143.707031 160.671875 144.554688 158.90625 C 145.402344 157.140625 151.777344 153.992188 147.648438 143.738281 C 147.648438 143.738281 144.320312 141.417969 137.160156 142.625 C 137.160156 142.625 133.480469 144.652344 131.035156 147.105469 C 128.589844 149.5625 133.957031 164.496094 133.957031 164.496094 C 133.957031 164.496094 136.570312 162.773438 139.992188 164.371094 " fill-opacity="1" fill-rule="nonzero"/><path fill="#3a7782" d="M 141.011719 149.191406 C 140.523438 149.539062 140.082031 149.957031 139.578125 150.300781 C 134.695312 153.652344 131.019531 163.503906 129.636719 153.851562 C 127.890625 141.675781 128.964844 125.210938 149.851562 118.398438 C 167.699219 112.582031 178.765625 120.144531 184.203125 127.707031 C 188.316406 133.429688 189.207031 139.148438 187.375 139.074219 C 182.417969 138.878906 178.128906 140.117188 174.375 140.894531 C 163.210938 143.203125 150.617188 142.351562 141.011719 149.191406 " fill-opacity="1" fill-rule="nonzero"/><path fill="#408ea8" d="M 177.328125 121.867188 C 175.824219 120.773438 174.070312 119.753906 172.449219 119.0625 C 166.34375 116.457031 160.773438 115.90625 154.421875 117.410156 C 147.324219 119.085938 140.742188 123.628906 138.214844 127.042969 C 137.808594 130.007812 138.492188 137.945312 142.359375 145.789062 C 143.902344 148.914062 144.820312 145.910156 149.457031 143.582031 C 162.132812 137.21875 171.625 135.511719 182.6875 135.976562 C 184.566406 136.058594 186.851562 136.425781 186.351562 134.742188 C 185.214844 130.886719 182.308594 125.496094 177.328125 121.867188 " fill-opacity="1" fill-rule="nonzero"/><path fill="#ffffff" d="M 151.105469 126.449219 C 156.261719 123.179688 174.855469 119.296875 177.519531 128.285156 C 178.726562 132.351562 174.351562 132.246094 171.335938 132.140625 C 170.722656 132.117188 170.164062 132.097656 169.722656 132.109375 C 163.191406 132.3125 159.148438 133.808594 155.128906 135.355469 C 150.066406 137.304688 146.507812 129.367188 151.105469 126.449219 " fill-opacity="1" fill-rule="nonzero"/><path fill="#ffffff" d="M 153.558594 135.660156 C 150.914062 135.660156 148.980469 132.988281 148.980469 130.375 C 148.976562 128.878906 149.609375 127.398438 151.105469 126.449219 C 153.890625 124.683594 160.59375 122.738281 166.589844 122.738281 C 171.699219 122.738281 176.296875 124.148438 177.523438 128.28125 C 177.664062 128.757812 177.726562 129.175781 177.726562 129.542969 C 177.726562 131.824219 175.222656 132.175781 172.851562 132.175781 C 172.332031 132.175781 171.816406 132.15625 171.335938 132.140625 C 170.855469 132.125 170.40625 132.105469 170.023438 132.105469 C 169.917969 132.105469 169.816406 132.105469 169.722656 132.109375 C 163.191406 132.3125 159.148438 133.804688 155.128906 135.355469 C 154.585938 135.5625 154.058594 135.660156 153.558594 135.660156 M 166.257812 123.371094 C 160.867188 123.371094 154.839844 125.121094 152.335938 126.707031 C 148.679688 129.027344 150.828125 134.441406 154.527344 134.441406 C 155.007812 134.441406 155.515625 134.347656 156.039062 134.144531 C 159.652344 132.753906 163.285156 131.410156 169.160156 131.230469 C 169.210938 131.226562 169.265625 131.226562 169.324219 131.226562 C 169.8125 131.226562 170.425781 131.285156 171.085938 131.339844 C 171.746094 131.398438 172.453125 131.457031 173.125 131.457031 C 175.140625 131.457031 176.851562 130.9375 176.085938 128.355469 C 174.980469 124.636719 170.851562 123.371094 166.257812 123.371094 " fill-opacity="1" fill-rule="nonzero"/><path fill="#2d354e" d="M 152.335938 126.707031 C 156.972656 123.765625 173.6875 120.277344 176.085938 128.355469 C 177.105469 131.796875 173.734375 131.566406 171.085938 131.339844 C 170.351562 131.277344 169.671875 131.214844 169.160156 131.230469 C 163.285156 131.40625 159.652344 132.753906 156.039062 134.144531 C 151.488281 135.898438 148.203125 129.328125 152.335938 126.707031 " fill-opacity="1" fill-rule="nonzero"/><path fill="#ffffff" d="M 153.183594 126.863281 C 157.460938 124.152344 172.882812 120.929688 175.09375 128.382812 C 175.992188 131.410156 173.410156 131.070312 171.136719 130.726562 C 170.363281 130.609375 169.625 130.492188 169.074219 130.511719 C 163.65625 130.675781 160.300781 131.917969 156.96875 133.199219 C 152.769531 134.820312 149.371094 129.28125 153.183594 126.863281 " fill-opacity="1" fill-rule="nonzero"/><path fill="#ffffff" d="M 155.453125 133.492188 C 153.230469 133.492188 151.527344 131.585938 151.527344 129.667969 C 151.527344 128.636719 152.015625 127.605469 153.183594 126.863281 C 155.492188 125.398438 161.054688 123.785156 166.027344 123.785156 C 170.265625 123.785156 174.078125 124.953125 175.09375 128.382812 C 175.21875 128.808594 175.277344 129.164062 175.277344 129.464844 C 175.277344 130.628906 174.414062 130.945312 173.28125 130.945312 C 172.617188 130.945312 171.863281 130.835938 171.136719 130.726562 C 170.414062 130.617188 169.722656 130.507812 169.183594 130.507812 C 169.144531 130.507812 169.109375 130.507812 169.074219 130.511719 C 163.65625 130.675781 160.300781 131.917969 156.96875 133.203125 C 156.445312 133.402344 155.9375 133.492188 155.453125 133.492188 " fill-opacity="1" fill-rule="nonzero"/><path fill="#3a7782" d="M 198.4375 147.917969 C 200.867188 150.421875 201.679688 153.332031 198.464844 151.539062 C 190.4375 147.074219 182.003906 148.191406 170.667969 150.367188 C 164.453125 151.558594 158.828125 154.554688 153.082031 157.296875 C 145.882812 160.734375 144.539062 155.210938 138.578125 151.714844 C 150.585938 137.273438 183.523438 133.367188 188.28125 137.816406 C 191.761719 141.074219 194.664062 144.03125 198.4375 147.917969 " fill-opacity="1" fill-rule="nonzero"/><path fill="#408ea8" d="M 197.792969 147.894531 C 200.488281 150.253906 201.105469 151.949219 197.738281 149.917969 C 188.121094 143.007812 166.011719 148.617188 156.058594 153.367188 C 147.023438 157.679688 147.289062 155.113281 139.84375 150.75 C 153.230469 137.558594 181.8125 133.152344 187.863281 138.023438 C 191.496094 140.941406 193.820312 144.425781 197.792969 147.894531 " fill-opacity="1" fill-rule="nonzero"/><g clip-path="url(#f67855bbe5)"><g clip-path="url(#bf43bf0219)"><g clip-path="url(#0257f4871c)"><path fill="#ffffff" d="M 142.925781 139.800781 L 140.53125 155.832031 L 185.4375 162.523438 L 187.832031 146.492188 Z M 142.925781 139.800781 " fill-opacity="1" fill-rule="nonzero"/><path fill="#ffffff" d="M 141.957031 146.277344 L 186.40625 146.277344 L 186.40625 156.046875 L 141.957031 156.046875 Z M 141.957031 146.277344 " fill-opacity="1" fill-rule="nonzero"/></g></g></g><path fill="#459cb7" d="M 188.683594 136.480469 C 183.410156 133.71875 170.785156 134.808594 157.082031 139.816406 C 143.382812 144.828125 133.777344 154.144531 130.539062 157.738281 C 130.386719 158.726562 131.613281 159.074219 131.648438 158.992188 C 132.933594 156.261719 145.824219 145.011719 157.40625 141.105469 C 171.617188 136.308594 184.785156 134.71875 188.644531 138.15625 C 188.710938 138.214844 189.4375 137.136719 188.683594 136.480469 " fill-opacity="1" fill-rule="nonzero"/><path fill="#44464a" d="M 162.261719 124.683594 C 163.003906 124.914062 163.359375 125.648438 163.058594 126.324219 C 162.761719 127 161.925781 127.363281 161.1875 127.140625 C 160.726562 127 160.410156 126.667969 160.308594 126.269531 C 160.679688 126.375 161.046875 126.484375 161.414062 126.597656 C 161.65625 126.40625 161.898438 126.21875 162.140625 126.03125 C 162.089844 125.753906 162.039062 125.480469 161.992188 125.210938 C 161.632812 125.101562 161.269531 124.992188 160.910156 124.886719 C 161.292969 124.632812 161.796875 124.542969 162.261719 124.683594 " fill-opacity="1" fill-rule="nonzero"/><path fill="#44464a" d="M 167.097656 130.125 C 166.96875 130.253906 166.753906 130.261719 166.617188 130.148438 C 166.484375 130.035156 166.480469 129.839844 166.613281 129.710938 C 166.746094 129.582031 166.960938 129.570312 167.097656 129.6875 C 167.230469 129.800781 167.230469 129.996094 167.097656 130.125 Z M 167.359375 129.621094 C 166.722656 129.078125 166.078125 128.539062 165.429688 128 C 165.167969 127.785156 164.902344 127.5625 164.636719 127.347656 C 164.136719 126.933594 163.636719 126.523438 163.128906 126.113281 C 163.070312 126.066406 163.011719 126.015625 162.953125 125.96875 C 162.746094 125.800781 162.417969 125.824219 162.21875 126.019531 C 162.191406 126.046875 162.160156 126.074219 162.132812 126.101562 C 161.9375 126.296875 161.945312 126.589844 162.148438 126.753906 C 162.246094 126.835938 162.34375 126.914062 162.441406 126.992188 C 162.960938 127.410156 163.480469 127.832031 163.992188 128.253906 C 164.257812 128.472656 164.523438 128.691406 164.789062 128.910156 C 165.382812 129.402344 165.976562 129.894531 166.5625 130.390625 C 166.761719 130.5625 167.085938 130.546875 167.28125 130.355469 C 167.308594 130.332031 167.335938 130.304688 167.367188 130.277344 C 167.5625 130.085938 167.558594 129.792969 167.359375 129.621094 " fill-opacity="1" fill-rule="nonzero"/><path fill="#44464a" d="M 166.0625 125.777344 C 165.835938 125.648438 165.527344 125.71875 165.375 125.925781 C 164.300781 127.402344 163.25 128.886719 162.226562 130.378906 C 162.082031 130.589844 162.148438 130.859375 162.371094 130.980469 C 162.59375 131.101562 162.894531 131.03125 163.039062 130.820312 C 164.066406 129.335938 165.117188 127.855469 166.191406 126.382812 C 166.34375 126.175781 166.285156 125.902344 166.0625 125.777344 " fill-opacity="1" fill-rule="nonzero"/><path fill="#44464a" d="M 167.570312 126.253906 C 167.546875 126.308594 167.515625 126.367188 167.476562 126.421875 C 167.210938 126.777344 166.683594 126.890625 166.300781 126.671875 C 166.300781 126.671875 165.882812 126.8125 165.746094 126.792969 C 165.550781 126.765625 165.1875 126.574219 165.085938 126.425781 C 165.015625 126.320312 164.972656 125.933594 164.972656 125.933594 C 164.585938 125.722656 164.480469 125.253906 164.742188 124.894531 C 164.785156 124.839844 164.828125 124.789062 164.878906 124.746094 C 165.78125 125.242188 166.679688 125.746094 167.570312 126.253906 " fill-opacity="1" fill-rule="nonzero"/><path fill="#44464a" d="M 167.8125 126.175781 C 166.828125 125.609375 165.832031 125.054688 164.832031 124.503906 C 164.792969 124.554688 164.757812 124.605469 164.71875 124.660156 C 165.71875 125.207031 166.714844 125.761719 167.699219 126.328125 C 167.738281 126.277344 167.773438 126.226562 167.8125 126.175781 " fill-opacity="1" fill-rule="nonzero"/><path fill="#d9a889" d="M 225.867188 201.53125 C 227.117188 201.648438 228.378906 204.476562 227.011719 205.9375 C 225.648438 207.394531 218.144531 206.0625 218.328125 203.71875 C 218.464844 201.957031 219.359375 200.914062 221.050781 200.980469 C 222.742188 201.046875 225.867188 201.53125 225.867188 201.53125 " fill-opacity="1" fill-rule="nonzero"/><path fill="#d9a889" d="M 225.558594 209.601562 C 226.109375 211.398438 223.085938 213.019531 220.640625 212.101562 C 218.199219 211.1875 218.332031 209.40625 219.714844 208.59375 C 221.097656 207.78125 225.558594 209.601562 225.558594 209.601562 " fill-opacity="1" fill-rule="nonzero"/><path fill="#d9a889" d="M 226.917969 206.117188 C 227.382812 207.914062 226.136719 209.921875 223.929688 209.691406 C 221.722656 209.460938 218.476562 208.667969 218.6875 207.140625 C 218.902344 205.617188 219.914062 205.136719 221.332031 205.414062 C 222.617188 205.667969 226.917969 206.117188 226.917969 206.117188 " fill-opacity="1" fill-rule="nonzero"/></svg>