<svg xmlns="http://www.w3.org/2000/svg" xmlns:xlink="http://www.w3.org/1999/xlink" width="500" zoomAndPan="magnify" viewBox="0 0 375 374.999991" height="500" preserveAspectRatio="xMidYMid meet" version="1.0"><defs><clipPath id="f835092ef8"><path d="M 210.648438 210.835938 L 241.210938 210.835938 L 241.210938 232.851562 L 210.648438 232.851562 Z M 210.648438 210.835938 " clip-rule="nonzero"/></clipPath><clipPath id="b0a77b1596"><path d="M 155.324219 198.210938 L 219.808594 198.210938 L 219.808594 262.5 L 155.324219 262.5 Z M 155.324219 198.210938 " clip-rule="nonzero"/></clipPath><clipPath id="e61ccb3623"><path d="M 168 112.5 L 207 112.5 L 207 143 L 168 143 Z M 168 112.5 " clip-rule="nonzero"/></clipPath><clipPath id="9bf2044605"><path d="M 171 112.5 L 205 112.5 L 205 143 L 171 143 Z M 171 112.5 " clip-rule="nonzero"/></clipPath></defs><rect x="-37.5" width="450" fill="#ffffff" y="-37.499999" height="449.999989" fill-opacity="1"/><rect x="-37.5" width="450" fill="#ffffff" y="-37.499999" height="449.999989" fill-opacity="1"/><path fill="#f47036" d="M 134.382812 221.417969 C 169.726562 236.625 205.171875 236.539062 240.71875 221.417969 C 239.296875 202.128906 233.503906 189.859375 227.082031 175.1875 C 227.011719 175.03125 226.867188 174.914062 226.699219 174.882812 L 187.550781 167.257812 L 148.394531 174.882812 C 148.230469 174.914062 148.089844 175.027344 148.015625 175.179688 C 140.558594 190.65625 135.304688 201.285156 134.382812 221.417969 " fill-opacity="1" fill-rule="nonzero"/><path fill="#e13249" d="M 187.550781 167.257812 L 172.398438 170.210938 C 171.601562 177.929688 174.011719 183.972656 179.207031 188.554688 L 187.550781 183.460938 L 195.539062 188.554688 C 200.679688 183.140625 202.71875 176.945312 202.347656 170.140625 L 187.550781 167.257812 " fill-opacity="1" fill-rule="nonzero"/><path fill="#f79136" d="M 144.386719 231.816406 L 153.464844 232.371094 C 159.367188 232.734375 164.449219 228.253906 164.816406 222.363281 C 165.1875 216.460938 160.691406 211.378906 154.78125 211.019531 L 145.699219 210.460938 C 139.796875 210.097656 134.71875 214.578125 134.347656 220.46875 C 133.980469 226.371094 138.476562 231.453125 144.386719 231.816406 " fill-opacity="1" fill-rule="nonzero"/><g clip-path="url(#f835092ef8)"><path fill="#f79136" d="M 231.152344 232.214844 L 222.070312 232.769531 C 216.167969 233.132812 211.089844 228.652344 210.71875 222.761719 C 210.351562 216.863281 214.847656 211.78125 220.757812 211.417969 L 229.835938 210.859375 C 235.738281 210.5 240.820312 214.976562 241.1875 220.871094 C 241.558594 226.769531 237.0625 231.851562 231.152344 232.214844 " fill-opacity="1" fill-rule="nonzero"/></g><path fill="#f89e7c" d="M 176.914062 169.875 C 176.914062 176.4375 187.550781 183.121094 187.550781 183.121094 C 187.550781 183.121094 198.1875 176.4375 198.1875 169.875 L 198.1875 147.339844 L 176.914062 147.339844 L 176.914062 169.875 " fill-opacity="1" fill-rule="nonzero"/><path fill="#f89e7c" d="M 171.089844 155.304688 L 171.089844 143.519531 L 168.648438 141.777344 C 167.160156 140.714844 165.363281 142.28125 165.585938 144.441406 L 166.144531 149.769531 C 166.476562 152.941406 168.589844 155.304688 171.089844 155.304688 " fill-opacity="1" fill-rule="nonzero"/><path fill="#f89e7c" d="M 204.011719 155.304688 L 204.011719 143.519531 L 206.453125 141.777344 C 207.945312 140.714844 209.742188 142.28125 209.515625 144.441406 L 208.957031 149.769531 C 208.625 152.941406 206.511719 155.304688 204.011719 155.304688 " fill-opacity="1" fill-rule="nonzero"/><path fill="#fabc94" d="M 183.515625 171.566406 C 186.09375 172.734375 189.007812 172.734375 191.585938 171.566406 C 200.714844 167.4375 206.640625 157.917969 206.640625 147.382812 L 206.640625 137.582031 C 206.640625 126.390625 198.09375 117.3125 187.550781 117.3125 C 177.007812 117.3125 168.464844 126.390625 168.464844 137.582031 L 168.464844 147.382812 C 168.464844 157.917969 174.386719 167.4375 183.515625 171.566406 " fill-opacity="1" fill-rule="nonzero"/><path fill="#623f35" d="M 168.46875 147.804688 L 171.640625 134.492188 L 202.378906 130.855469 L 206.621094 148.371094 L 206.949219 131.703125 L 185.785156 117.390625 L 168.296875 130.90625 L 168.46875 147.804688 " fill-opacity="1" fill-rule="nonzero"/><path fill="#fabc94" d="M 165.472656 209.398438 C 166.265625 207.554688 168.171875 206.355469 166.894531 205.761719 C 163.839844 204.339844 159.996094 206.574219 157.210938 210.320312 C 156.011719 211.929688 160.386719 211.167969 161.683594 211.722656 C 162.980469 212.28125 164.675781 211.238281 165.472656 209.398438 " fill-opacity="1" fill-rule="nonzero"/><path fill="#fabc94" d="M 209.535156 209.398438 C 208.742188 207.554688 206.835938 206.355469 208.113281 205.761719 C 211.167969 204.339844 215.011719 206.574219 217.796875 210.320312 C 218.996094 211.929688 214.621094 211.167969 213.324219 211.722656 C 212.027344 212.28125 210.332031 211.238281 209.535156 209.398438 " fill-opacity="1" fill-rule="nonzero"/><g clip-path="url(#b0a77b1596)"><path fill="#4e405c" d="M 187.550781 203.585938 C 172.761719 203.585938 160.730469 215.597656 160.730469 230.359375 C 160.730469 245.121094 172.761719 257.132812 187.550781 257.132812 C 202.339844 257.132812 214.371094 245.121094 214.371094 230.359375 C 214.371094 215.597656 202.339844 203.585938 187.550781 203.585938 Z M 187.550781 262.503906 C 169.796875 262.503906 155.351562 248.085938 155.351562 230.359375 C 155.351562 212.636719 169.796875 198.214844 187.550781 198.214844 C 205.304688 198.214844 219.75 212.636719 219.75 230.359375 C 219.75 248.085938 205.304688 262.503906 187.550781 262.503906 " fill-opacity="1" fill-rule="nonzero"/></g><path fill="#4e405c" d="M 158.90625 235.667969 L 174.941406 240.539062 C 183.421875 243.113281 192.472656 243.113281 200.953125 240.539062 L 216.988281 235.667969 L 216.988281 226.527344 C 197.628906 230.414062 178.265625 230.414062 158.90625 226.527344 L 158.90625 235.667969 " fill-opacity="1" fill-rule="nonzero"/><path fill="#fabc94" d="M 165.269531 225.460938 C 166.960938 222.621094 168.445312 219.660156 169.742188 216.597656 C 170.527344 214.746094 169.710938 212.605469 167.886719 211.75 L 162.539062 209.238281 C 160.191406 208.136719 157.382812 209.210938 156.402344 211.609375 C 155.023438 214.988281 153.847656 218.4375 152.875 221.953125 C 152.191406 224.414062 153.703125 226.953125 156.191406 227.554688 L 158.726562 228.167969 C 161.265625 228.78125 163.933594 227.703125 165.269531 225.460938 " fill-opacity="1" fill-rule="nonzero"/><path fill="#e58765" d="M 156.699219 222.328125 C 156.382812 222.230469 156.046875 222.402344 155.949219 222.71875 C 155.847656 223.03125 156.023438 223.367188 156.335938 223.46875 L 164.789062 226.144531 C 164.960938 225.929688 165.125 225.703125 165.269531 225.460938 C 165.339844 225.34375 165.402344 225.226562 165.472656 225.109375 L 156.699219 222.328125 " fill-opacity="1" fill-rule="nonzero"/><path fill="#e58765" d="M 158.785156 218.066406 C 158.472656 217.957031 158.132812 218.117188 158.023438 218.429688 C 157.910156 218.738281 158.070312 219.082031 158.382812 219.191406 L 167.035156 222.289062 C 167.222656 221.933594 167.417969 221.578125 167.597656 221.222656 L 158.785156 218.066406 " fill-opacity="1" fill-rule="nonzero"/><path fill="#e58765" d="M 160.472656 213.464844 C 160.167969 213.335938 159.816406 213.484375 159.691406 213.789062 C 159.566406 214.09375 159.714844 214.445312 160.019531 214.566406 L 169.023438 218.226562 C 169.183594 217.863281 169.347656 217.5 169.503906 217.136719 L 160.472656 213.464844 " fill-opacity="1" fill-rule="nonzero"/><path fill="#fabc94" d="M 209.515625 225.460938 C 207.824219 222.621094 206.339844 219.660156 205.042969 216.597656 C 204.257812 214.746094 205.074219 212.605469 206.898438 211.75 L 212.246094 209.238281 C 214.59375 208.136719 217.40625 209.210938 218.382812 211.609375 C 219.761719 214.988281 220.9375 218.4375 221.914062 221.953125 C 222.59375 224.414062 221.082031 226.953125 218.59375 227.554688 L 216.058594 228.167969 C 213.523438 228.78125 210.855469 227.703125 209.515625 225.460938 " fill-opacity="1" fill-rule="nonzero"/><path fill="#e58765" d="M 218.085938 222.328125 C 218.40625 222.230469 218.738281 222.402344 218.839844 222.71875 C 218.9375 223.03125 218.765625 223.367188 218.449219 223.46875 L 210 226.144531 C 209.824219 225.929688 209.664062 225.703125 209.515625 225.460938 C 209.449219 225.34375 209.382812 225.226562 209.316406 225.109375 L 218.085938 222.328125 " fill-opacity="1" fill-rule="nonzero"/><path fill="#e58765" d="M 216 218.066406 C 216.3125 217.957031 216.652344 218.117188 216.765625 218.429688 C 216.875 218.738281 216.714844 219.082031 216.402344 219.191406 L 207.75 222.289062 C 207.5625 221.933594 207.371094 221.578125 207.1875 221.222656 L 216 218.066406 " fill-opacity="1" fill-rule="nonzero"/><path fill="#e58765" d="M 214.316406 213.464844 C 214.617188 213.335938 214.96875 213.484375 215.09375 213.789062 C 215.21875 214.09375 215.070312 214.445312 214.765625 214.566406 L 205.765625 218.226562 C 205.601562 217.863281 205.4375 217.5 205.28125 217.136719 L 214.316406 213.464844 " fill-opacity="1" fill-rule="nonzero"/><g clip-path="url(#e61ccb3623)"><path fill="#f79136" d="M 168.316406 129.382812 C 168.367188 122.398438 178.050781 112.503906 187.710938 112.507812 C 197.367188 112.511719 207 122.414062 206.949219 129.382812 L 206.949219 142.367188 C 193.941406 135.089844 181.0625 134.941406 168.316406 142.367188 L 168.316406 129.382812 " fill-opacity="1" fill-rule="nonzero"/></g><g clip-path="url(#9bf2044605)"><path fill="#f47036" d="M 171.097656 129.382812 C 171.140625 122.398438 179.429688 112.503906 187.699219 112.507812 C 195.964844 112.511719 204.214844 122.414062 204.167969 129.382812 L 204.167969 142.367188 C 193.035156 135.089844 182.007812 134.941406 171.097656 142.367188 L 171.097656 129.382812 " fill-opacity="1" fill-rule="nonzero"/></g><path fill="#e13249" d="M 171.582031 142.550781 C 170.917969 142.550781 170.261719 142.230469 169.867188 141.632812 C 169.234375 140.6875 169.488281 139.410156 170.4375 138.78125 C 181.851562 131.179688 193.371094 131.183594 204.671875 138.785156 C 205.617188 139.417969 205.867188 140.699219 205.230469 141.644531 C 204.59375 142.585938 203.3125 142.835938 202.367188 142.199219 C 192.449219 135.527344 182.753906 135.53125 172.726562 142.207031 C 172.375 142.441406 171.976562 142.550781 171.582031 142.550781 " fill-opacity="1" fill-rule="nonzero"/><path fill="#ffffff" d="M 179.839844 126.578125 C 179.839844 129.273438 183.242188 131.460938 187.441406 131.460938 C 191.640625 131.460938 195.042969 129.273438 195.042969 126.578125 C 195.042969 123.882812 191.640625 121.695312 187.441406 121.695312 C 183.242188 121.695312 179.839844 123.882812 179.839844 126.578125 " fill-opacity="1" fill-rule="nonzero"/><path fill="#ffffff" d="M 200.289062 197.347656 L 218.867188 197.347656 L 218.867188 190.828125 L 200.289062 190.828125 L 200.289062 197.347656 " fill-opacity="1" fill-rule="nonzero"/></svg>