<svg xmlns="http://www.w3.org/2000/svg" xmlns:xlink="http://www.w3.org/1999/xlink" width="500" zoomAndPan="magnify" viewBox="0 0 375 374.999991" height="500" preserveAspectRatio="xMidYMid meet" version="1.0"><defs><clipPath id="858ea7ea38"><path d="M 121 210 L 169 210 L 169 265.457031 L 121 265.457031 Z M 121 210 " clip-rule="nonzero"/></clipPath><clipPath id="b3777182e0"><path d="M 191 250 L 286.847656 250 L 286.847656 257 L 191 257 Z M 191 250 " clip-rule="nonzero"/></clipPath></defs><rect x="-37.5" width="450" fill="#ffffff" y="-37.499999" height="449.999989" fill-opacity="1"/><rect x="-37.5" width="450" fill="#ffffff" y="-37.499999" height="449.999989" fill-opacity="1"/><path fill="#000000" d="M 139.15625 142.863281 C 138.929688 144.785156 138.699219 146.734375 138.960938 148.652344 C 139.046875 149.265625 139.183594 149.886719 139.5 150.421875 C 139.8125 150.957031 140.320312 151.402344 140.929688 151.515625 C 141.492188 150.980469 142.273438 150.34375 142.613281 149.644531 C 143.046875 148.742188 143.046875 147.695312 142.941406 146.703125 C 142.832031 145.671875 142.605469 144.621094 142.011719 143.777344 C 141.414062 142.929688 140.175781 142.691406 139.15625 142.863281 Z M 139.15625 142.863281 " fill-opacity="1" fill-rule="nonzero"/><g clip-path="url(#858ea7ea38)"><path fill="#007785" d="M 168.945312 256.644531 C 168.890625 249.078125 168.140625 240.664062 167.984375 235.960938 C 167.21875 213.085938 165.988281 210.675781 165.988281 210.675781 L 143.144531 212.859375 L 124.816406 215.105469 L 121.214844 265.316406 L 145.46875 265.386719 L 147.074219 251.261719 L 147.320312 265.390625 L 168.917969 265.457031 Z M 168.945312 256.644531 " fill-opacity="1" fill-rule="nonzero"/></g><path fill="#000000" d="M 147.074219 251.429688 C 147.007812 251.429688 146.949219 251.390625 146.921875 251.328125 C 146.886719 251.242188 146.921875 251.144531 147.007812 251.109375 L 156.738281 246.910156 C 156.820312 246.871094 156.917969 246.910156 156.957031 246.996094 C 156.992188 247.082031 156.953125 247.179688 156.871094 247.214844 L 147.140625 251.414062 C 147.117188 251.425781 147.09375 251.429688 147.074219 251.429688 Z M 147.074219 251.429688 " fill-opacity="1" fill-rule="nonzero"/><g clip-path="url(#b3777182e0)"><path fill="#ffffff" d="M 191.539062 250.933594 L 286.734375 250.933594 L 286.734375 256.09375 L 191.539062 256.09375 Z M 191.539062 250.933594 " fill-opacity="1" fill-rule="nonzero"/><path fill="#000000" d="M 191.539062 250.933594 L 286.734375 250.933594 L 286.734375 256.09375 L 191.539062 256.09375 Z M 191.539062 250.933594 " fill-opacity="0.27" fill-rule="nonzero"/></g><path fill="#000000" d="M 241.546875 178.710938 L 235.785156 211.234375 L 263.042969 213.855469 L 262.0625 184.160156 Z M 241.546875 178.710938 " fill-opacity="1" fill-rule="nonzero"/><path fill="#f8b498" d="M 251.210938 190.15625 L 252.566406 210.335938 L 242.726562 210.535156 L 242.941406 197.234375 Z M 251.210938 190.15625 " fill-opacity="1" fill-rule="nonzero"/><path fill="#ff3e4d" d="M 239.570312 208.363281 L 238.410156 208.503906 C 235.601562 208.84375 232.222656 211.496094 231.21875 214.148438 L 223.648438 231.957031 L 226.8125 218.734375 L 217.382812 216.828125 L 213.597656 234.964844 C 212.828125 237.675781 212.695312 240.527344 213.203125 243.300781 C 213.75 246.285156 216.320312 248.472656 219.347656 248.527344 C 222.773438 248.589844 225.980469 246.832031 227.773438 243.898438 L 233.847656 233.976562 L 240.667969 250.578125 L 275.769531 253.15625 C 279.671875 253.441406 283.199219 250.828125 284.074219 247.003906 C 284.835938 243.675781 284.367188 240.183594 282.75 237.179688 L 272.09375 215.78125 C 271.609375 214.8125 270.96875 213.878906 270.210938 213.015625 C 267.417969 209.839844 263.324219 208.128906 259.101562 208.113281 L 253.683594 208.089844 Z M 239.570312 208.363281 " fill-opacity="1" fill-rule="nonzero"/><path fill="#000000" d="M 237.589844 181.367188 C 237.589844 181.367188 230.671875 175.9375 237.753906 171.488281 C 242.585938 168.449219 250.839844 172.476562 250.839844 172.476562 Z M 237.589844 181.367188 " fill-opacity="1" fill-rule="nonzero"/><path fill="#000000" d="M 251.226562 172.558594 C 252.082031 172.734375 252.917969 172.980469 253.730469 173.296875 C 254.542969 173.613281 255.316406 173.988281 256.050781 174.429688 C 256.785156 174.867188 257.46875 175.363281 258.101562 175.910156 C 258.730469 176.460938 259.296875 177.050781 259.796875 177.6875 C 260.300781 178.324219 260.726562 178.992188 261.078125 179.691406 C 261.433594 180.386719 261.703125 181.105469 261.894531 181.839844 C 262.085938 182.574219 262.191406 183.3125 262.214844 184.054688 C 262.234375 184.800781 262.171875 185.53125 262.023438 186.253906 C 261.875 186.976562 261.644531 187.671875 261.332031 188.347656 C 261.019531 189.019531 260.628906 189.65625 260.164062 190.257812 C 259.699219 190.855469 259.167969 191.40625 258.566406 191.910156 C 257.96875 192.410156 257.3125 192.855469 256.601562 193.238281 C 255.890625 193.625 255.136719 193.945312 254.34375 194.199219 C 253.546875 194.453125 252.726562 194.636719 251.875 194.746094 C 251.027344 194.859375 250.167969 194.898438 249.296875 194.867188 C 248.429688 194.835938 247.5625 194.730469 246.707031 194.550781 C 245.847656 194.375 245.015625 194.128906 244.203125 193.816406 C 243.390625 193.5 242.617188 193.121094 241.882812 192.683594 C 241.148438 192.242188 240.464844 191.75 239.832031 191.199219 C 239.203125 190.652344 238.636719 190.058594 238.136719 189.421875 C 237.632812 188.789062 237.207031 188.121094 236.855469 187.421875 C 236.5 186.722656 236.230469 186.007812 236.039062 185.269531 C 235.847656 184.535156 235.742188 183.796875 235.71875 183.054688 C 235.695312 182.3125 235.761719 181.578125 235.910156 180.859375 C 236.058594 180.136719 236.289062 179.4375 236.601562 178.765625 C 236.914062 178.089844 237.300781 177.453125 237.765625 176.855469 C 238.234375 176.253906 238.765625 175.703125 239.363281 175.203125 C 239.964844 174.699219 240.621094 174.257812 241.332031 173.871094 C 242.042969 173.488281 242.796875 173.167969 243.589844 172.914062 C 244.386719 172.660156 245.207031 172.476562 246.058594 172.363281 C 246.90625 172.25 247.765625 172.210938 248.636719 172.242188 C 249.503906 172.277344 250.367188 172.382812 251.226562 172.558594 Z M 251.226562 172.558594 " fill-opacity="1" fill-rule="nonzero"/><path fill="#000000" d="M 242.941406 197.234375 L 250.191406 196.351562 L 242.828125 204.25 Z M 242.941406 197.234375 " fill-opacity="1" fill-rule="nonzero"/><path fill="#f8b498" d="M 253.488281 191.132812 C 250.1875 199.820312 242.960938 199.074219 242.960938 199.074219 C 236.828125 198.980469 233.828125 195.023438 233.257812 190.203125 C 232.816406 186.496094 235.277344 181 236.601562 177.867188 C 237.046875 176.808594 237.804688 175.898438 238.816406 175.347656 C 247.457031 170.632812 258.75 177.292969 253.488281 191.132812 Z M 253.488281 191.132812 " fill-opacity="1" fill-rule="nonzero"/><path fill="#000000" d="M 237.597656 189.621094 L 236.773438 189.285156 C 236.5 189.148438 236.382812 188.820312 236.519531 188.515625 L 237.371094 187.140625 C 237.429688 187.042969 237.558594 187.011719 237.65625 187.074219 C 237.753906 187.132812 237.785156 187.261719 237.726562 187.363281 L 236.890625 188.707031 C 236.855469 188.785156 236.886719 188.875 236.945312 188.902344 L 237.753906 189.234375 C 237.863281 189.277344 237.914062 189.398438 237.871094 189.507812 C 237.835938 189.585938 237.757812 189.636719 237.675781 189.636719 C 237.648438 189.636719 237.621094 189.632812 237.597656 189.621094 Z M 237.597656 189.621094 " fill-opacity="1" fill-rule="nonzero"/><path fill="#000000" d="M 243.226562 186.519531 C 243.226562 186.753906 243.140625 186.953125 242.976562 187.121094 C 242.808594 187.285156 242.609375 187.367188 242.375 187.367188 C 242.140625 187.367188 241.941406 187.285156 241.777344 187.121094 C 241.609375 186.953125 241.527344 186.753906 241.527344 186.519531 C 241.527344 186.28125 241.609375 186.082031 241.777344 185.914062 C 241.941406 185.75 242.140625 185.667969 242.375 185.667969 C 242.609375 185.667969 242.808594 185.75 242.976562 185.914062 C 243.140625 186.082031 243.226562 186.28125 243.226562 186.519531 Z M 243.226562 186.519531 " fill-opacity="1" fill-rule="nonzero"/><path fill="#000000" d="M 235.910156 184.328125 C 235.480469 184.257812 235.074219 184.546875 235.003906 184.976562 C 234.929688 185.40625 235.21875 185.8125 235.648438 185.886719 C 236.078125 185.957031 236.484375 185.667969 236.554688 185.238281 C 236.628906 184.808594 236.339844 184.402344 235.910156 184.328125 Z M 235.910156 184.328125 " fill-opacity="1" fill-rule="nonzero"/><path fill="#000000" d="M 236.394531 191.441406 C 236.296875 191.375 236.269531 191.246094 236.335938 191.148438 C 236.398438 191.054688 236.527344 191.027344 236.625 191.089844 C 236.644531 191.105469 238.902344 192.554688 241.15625 191.238281 C 241.257812 191.179688 241.382812 191.214844 241.441406 191.316406 C 241.5 191.414062 241.464844 191.542969 241.367188 191.601562 C 240.578125 192.058594 239.800781 192.21875 239.101562 192.21875 C 237.597656 192.21875 236.464844 191.484375 236.394531 191.441406 Z M 236.394531 191.441406 " fill-opacity="1" fill-rule="nonzero"/><path fill="#000000" d="M 236.167969 179.820312 C 235.054688 179.828125 234.355469 180.382812 234.011719 180.761719 C 233.839844 180.945312 233.796875 181.214844 233.898438 181.445312 C 234.027344 181.730469 234.339844 181.886719 234.640625 181.8125 C 235.175781 181.679688 235.753906 181.695312 236.667969 181.699219 C 237.871094 181.703125 237.71875 180.707031 237.71875 180.707031 C 237.71875 180.707031 237.597656 179.804688 236.167969 179.820312 Z M 236.167969 179.820312 " fill-opacity="1" fill-rule="nonzero"/><path fill="#000000" d="M 244.011719 181.144531 C 245.378906 181.546875 246.636719 182.796875 246.941406 183.273438 C 247.089844 183.511719 247.050781 183.78125 246.851562 183.964844 C 246.601562 184.191406 246.164062 184.226562 245.816406 184.046875 C 245.203125 183.734375 243.90625 183.070312 242.777344 182.75 C 241.296875 182.332031 241.8125 181.441406 241.8125 181.441406 C 241.8125 181.441406 242.257812 180.625 244.011719 181.144531 Z M 244.011719 181.144531 " fill-opacity="1" fill-rule="nonzero"/><path fill="#000000" d="M 257.511719 182.503906 C 239.390625 180.476562 242.015625 173.25 242.015625 173.25 C 260.308594 172.257812 257.511719 182.503906 257.511719 182.503906 Z M 257.511719 182.503906 " fill-opacity="1" fill-rule="nonzero"/><path fill="#000000" d="M 261.082031 185.265625 L 251.382812 191.0625 L 252.195312 180.039062 Z M 261.082031 185.265625 " fill-opacity="1" fill-rule="nonzero"/><path fill="#f8b498" d="M 256.15625 188.386719 C 254.222656 187.332031 251.800781 188.050781 250.746094 189.992188 C 249.699219 191.933594 250.414062 194.363281 252.351562 195.414062 C 254.285156 196.46875 256.707031 195.75 257.757812 193.808594 C 258.808594 191.867188 258.09375 189.441406 256.15625 188.386719 Z M 256.15625 188.386719 " fill-opacity="1" fill-rule="nonzero"/><path fill="#f8b498" d="M 252.652344 192.511719 C 253.785156 189.6875 256.25 191.121094 256.25 191.121094 " fill-opacity="1" fill-rule="nonzero"/><path fill="#f8b498" d="M 244.304688 213.417969 C 236.660156 213.417969 239.570312 208.363281 239.570312 208.363281 L 242.277344 207.929688 L 255.414062 208.058594 C 255.238281 208.859375 251.949219 213.417969 244.304688 213.417969 Z M 244.304688 213.417969 " fill-opacity="1" fill-rule="nonzero"/><path fill="#f8b498" d="M 249.84375 242.625 L 239.988281 243.988281 L 240.167969 248.925781 L 250.054688 250.964844 C 250.054688 250.960938 249.882812 244.324219 249.84375 242.625 Z M 249.84375 242.625 " fill-opacity="1" fill-rule="nonzero"/><path fill="#000000" d="M 233.648438 234.046875 C 233.636719 234.007812 232.207031 229.945312 233 225.414062 C 233.785156 220.921875 234.449219 218.898438 234.457031 218.875 C 234.496094 218.765625 234.613281 218.707031 234.722656 218.746094 C 234.832031 218.78125 234.890625 218.898438 234.855469 219.007812 C 234.847656 219.027344 234.191406 221.027344 233.410156 225.488281 C 232.636719 229.90625 234.027344 233.867188 234.042969 233.90625 C 234.082031 234.015625 234.023438 234.132812 233.917969 234.171875 C 233.894531 234.183594 233.871094 234.1875 233.847656 234.1875 C 233.761719 234.1875 233.679688 234.132812 233.648438 234.046875 Z M 233.648438 234.046875 " fill-opacity="1" fill-rule="nonzero"/><path fill="#000000" d="M 237.460938 232.953125 L 238.25 231.390625 L 239.957031 232.222656 L 239.199219 233.785156 Z M 237.460938 232.953125 " fill-opacity="1" fill-rule="nonzero"/><path fill="#000000" d="M 229.199219 252.113281 L 228.941406 253.085938 C 228.882812 253.296875 229.039062 253.359375 229.164062 253.175781 L 229.742188 252.332031 C 229.652344 252.089844 229.441406 251.992188 229.199219 252.113281 Z M 229.199219 252.113281 " fill-opacity="1" fill-rule="nonzero"/><path fill="#007785" d="M 237.53125 232.804688 L 238.402344 233.226562 L 239.269531 233.640625 L 231.933594 249.304688 L 231.894531 249.390625 L 231.882812 249.382812 L 229.6875 252.441406 C 229.59375 252.21875 229.382812 252.125 229.144531 252.21875 L 230.023438 248.617188 L 230 248.605469 L 230.050781 248.496094 Z M 237.53125 232.804688 " fill-opacity="1" fill-rule="nonzero"/><path fill="#f8b498" d="M 238.179688 231.542969 L 238.378906 231.148438 C 238.65625 230.597656 239.257812 230.34375 239.71875 230.574219 C 240.167969 230.800781 240.328125 231.402344 240.082031 231.945312 L 239.886719 232.367188 Z M 238.179688 231.542969 " fill-opacity="1" fill-rule="nonzero"/><path fill="#f8b498" d="M 224.835938 251.605469 C 225.238281 251.761719 225.683594 251.679688 226.003906 251.394531 L 228.789062 248.890625 C 230.078125 247.734375 232.117188 246.929688 233.765625 247.769531 C 234.277344 248.03125 234.691406 248.457031 235.152344 248.792969 C 236.324219 249.644531 237.734375 249.558594 239.085938 249.246094 C 240.039062 249.027344 240.949219 248.636719 241.765625 248.101562 C 242.015625 247.941406 242.253906 247.765625 242.484375 247.578125 C 242.519531 247.546875 242.722656 247.414062 242.726562 247.363281 C 242.726562 247.359375 242.875 243.824219 242.875 243.824219 L 232.558594 243.671875 C 230.636719 243.640625 228.816406 244.460938 227.566406 245.921875 L 224.332031 249.683594 C 223.792969 250.3125 224.054688 251.308594 224.835938 251.605469 Z M 224.835938 251.605469 " fill-opacity="1" fill-rule="nonzero"/><path fill="#000000" d="M 249.933594 242.609375 C 249.910156 242.496094 249.984375 242.386719 250.097656 242.363281 L 268.441406 239.011719 L 262.855469 227.148438 C 262.804688 227.042969 262.851562 226.917969 262.953125 226.867188 C 263.058594 226.820312 263.183594 226.863281 263.230469 226.96875 L 268.933594 239.078125 C 268.960938 239.136719 268.960938 239.203125 268.929688 239.261719 C 268.902344 239.320312 268.847656 239.359375 268.78125 239.371094 L 250.175781 242.777344 C 250.164062 242.78125 250.148438 242.78125 250.136719 242.78125 C 250.039062 242.78125 249.949219 242.707031 249.933594 242.609375 Z M 249.933594 242.609375 " fill-opacity="1" fill-rule="nonzero"/><path fill="#007785" d="M 189.476562 216.171875 L 235.382812 216.171875 L 246.195312 249.960938 L 200.339844 249.960938 Z M 189.476562 216.171875 " fill-opacity="1" fill-rule="nonzero"/><path fill="#007785" d="M 200.339844 249.144531 L 261.082031 249.144531 L 261.082031 253.457031 L 200.339844 253.457031 Z M 200.339844 249.144531 " fill-opacity="1" fill-rule="nonzero"/><path fill="#ffffff" d="M 218.613281 237.015625 C 218.613281 237.414062 218.539062 237.796875 218.386719 238.167969 C 218.234375 238.535156 218.015625 238.863281 217.734375 239.144531 C 217.453125 239.425781 217.128906 239.644531 216.761719 239.796875 C 216.390625 239.949219 216.007812 240.027344 215.609375 240.027344 C 215.210938 240.027344 214.828125 239.949219 214.460938 239.796875 C 214.09375 239.644531 213.769531 239.425781 213.488281 239.144531 C 213.207031 238.863281 212.988281 238.535156 212.835938 238.167969 C 212.683594 237.796875 212.609375 237.414062 212.609375 237.015625 C 212.609375 236.617188 212.683594 236.230469 212.835938 235.863281 C 212.988281 235.492188 213.207031 235.167969 213.488281 234.886719 C 213.769531 234.601562 214.09375 234.386719 214.460938 234.234375 C 214.828125 234.078125 215.210938 234.003906 215.609375 234.003906 C 216.007812 234.003906 216.390625 234.078125 216.761719 234.234375 C 217.128906 234.386719 217.453125 234.601562 217.734375 234.886719 C 218.015625 235.167969 218.234375 235.492188 218.386719 235.863281 C 218.539062 236.230469 218.613281 236.617188 218.613281 237.015625 Z M 218.613281 237.015625 " fill-opacity="1" fill-rule="nonzero"/><path fill="#f8b498" d="M 127.394531 181.5625 C 127.394531 181.5625 104.535156 212.15625 104.535156 212.15625 C 99.460938 219.21875 88.238281 211.628906 92.929688 204.257812 L 106.355469 184.132812 Z M 127.394531 181.5625 " fill-opacity="1" fill-rule="nonzero"/><path fill="#ff3e4d" d="M 119.859375 201.25 L 99.394531 187.742188 C 104.5 179.828125 117.414062 157.898438 125.890625 160.695312 C 148.933594 169.769531 123.65625 195 119.859375 201.25 Z M 119.859375 201.25 " fill-opacity="1" fill-rule="nonzero"/><path fill="#ff3e4d" d="M 164.804688 185.367188 L 174.871094 183.042969 C 174.28125 161.414062 159.617188 160.453125 159.617188 160.453125 Z M 164.804688 185.367188 " fill-opacity="1" fill-rule="nonzero"/><path fill="#ff3e4d" d="M 118.390625 174.46875 L 124.210938 216.828125 L 160.398438 216.828125 C 163.667969 202.519531 175.464844 164.804688 161.535156 160.839844 C 149.226562 157.339844 140.15625 157.339844 123.765625 160.359375 C 118.636719 160.675781 119.890625 171.066406 118.390625 174.46875 Z M 118.390625 174.46875 " fill-opacity="1" fill-rule="nonzero"/><path fill="#000000" d="M 122.960938 198.9375 L 119.058594 182.398438 C 119.035156 182.300781 119.09375 182.207031 119.1875 182.183594 C 119.285156 182.160156 119.378906 182.222656 119.398438 182.316406 L 123.304688 198.855469 C 123.324219 198.953125 123.265625 199.046875 123.171875 199.070312 C 123.160156 199.074219 123.144531 199.074219 123.132812 199.074219 C 123.050781 199.074219 122.980469 199.019531 122.960938 198.9375 Z M 122.960938 198.9375 " fill-opacity="1" fill-rule="nonzero"/><path fill="#000000" d="M 165.175781 193.414062 C 165.082031 193.398438 165.015625 193.308594 165.027344 193.214844 L 167.378906 176.671875 C 167.390625 176.574219 167.472656 176.507812 167.578125 176.523438 C 167.671875 176.535156 167.738281 176.625 167.726562 176.722656 L 165.375 193.265625 C 165.363281 193.351562 165.289062 193.414062 165.203125 193.414062 C 165.195312 193.414062 165.1875 193.414062 165.175781 193.414062 Z M 165.175781 193.414062 " fill-opacity="1" fill-rule="nonzero"/><path fill="#f8b498" d="M 140.773438 200.558594 L 153.828125 201.007812 L 159.617188 188.664062 C 144.6875 182.6875 138.992188 192.800781 138.992188 192.800781 Z M 140.773438 200.558594 " fill-opacity="1" fill-rule="nonzero"/><path fill="#f8b498" d="M 141.417969 200.328125 L 101.234375 214.695312 L 98.886719 199.695312 L 139.90625 192.640625 Z M 141.417969 200.328125 " fill-opacity="1" fill-rule="nonzero"/><path fill="#000000" d="M 103.359375 198.925781 C 103.34375 198.832031 103.40625 198.738281 103.503906 198.722656 L 113.304688 197.039062 C 113.410156 197.023438 113.492188 197.085938 113.507812 197.183594 C 113.527344 197.277344 113.460938 197.367188 113.363281 197.386719 L 103.5625 199.070312 C 103.550781 199.074219 103.542969 199.074219 103.53125 199.074219 C 103.449219 199.074219 103.375 199.011719 103.359375 198.925781 Z M 103.359375 198.925781 " fill-opacity="1" fill-rule="nonzero"/><path fill="#ffffff" d="M 197.390625 182.160156 C 185.273438 178.039062 155.636719 183.042969 155.636719 183.042969 L 139.121094 221.929688 L 141.839844 224.957031 Z M 197.390625 182.160156 " fill-opacity="1" fill-rule="nonzero"/><path fill="#000000" d="M 179.820312 216.078125 C 177.332031 220.921875 170.492188 220.953125 170.492188 220.953125 L 189.4375 183.246094 L 197.390625 182.160156 Z M 179.820312 216.078125 " fill-opacity="1" fill-rule="nonzero"/><path fill="#007785" d="M 171.769531 220.773438 L 141.839844 224.957031 L 157.953125 185.980469 L 190.949219 183.042969 Z M 171.769531 220.773438 " fill-opacity="1" fill-rule="nonzero"/><path fill="#000000" d="M 171.769531 220.773438 L 141.839844 224.957031 L 157.953125 185.980469 L 190.949219 183.042969 Z M 171.769531 220.773438 " fill-opacity="0.46" fill-rule="nonzero"/><path fill="#ffffff" d="M 182.328125 181.234375 L 189.707031 164.242188 L 193.507812 164.242188 L 197.390625 182.160156 Z M 182.328125 181.234375 " fill-opacity="1" fill-rule="nonzero"/><path fill="#f8b498" d="M 184.316406 207.332031 L 176.164062 201.359375 C 175.6875 201.007812 175.535156 200.355469 175.8125 199.828125 C 176.113281 199.261719 176.808594 199.03125 177.386719 199.308594 L 183.429688 202.199219 L 176.347656 197.027344 C 175.90625 196.707031 175.761719 196.113281 176.003906 195.625 C 176.28125 195.0625 176.964844 194.839844 177.519531 195.128906 L 184.476562 198.742188 L 176.734375 192.664062 C 176.203125 192.246094 176.0625 191.496094 176.410156 190.917969 C 176.800781 190.261719 177.660156 190.0625 178.296875 190.484375 L 186.652344 195.996094 L 181.121094 190.671875 C 180.71875 190.28125 180.714844 189.632812 181.121094 189.242188 C 181.460938 188.910156 181.992188 188.871094 182.378906 189.144531 L 191.691406 195.714844 C 191.691406 195.714844 195.296875 198.734375 191.578125 204.421875 C 187.859375 210.113281 183.46875 209.035156 183.46875 209.035156 Z M 184.316406 207.332031 " fill-opacity="1" fill-rule="nonzero"/><path fill="#000000" d="M 160.308594 138.941406 C 168.75 130.804688 159.636719 127.472656 159.636719 127.472656 Z M 160.308594 138.941406 " fill-opacity="1" fill-rule="nonzero"/><path fill="#f8b498" d="M 143.480469 140.820312 L 138.285156 161.285156 L 150.429688 161.683594 L 152.386719 150.429688 Z M 143.480469 140.820312 " fill-opacity="1" fill-rule="nonzero"/><path fill="#000000" d="M 152.183594 151.6875 L 142.765625 146.839844 C 142.488281 154.464844 151.191406 157.292969 151.191406 157.292969 Z M 152.183594 151.6875 " fill-opacity="1" fill-rule="nonzero"/><path fill="#f8b498" d="M 140.359375 140.023438 C 139.980469 150.917969 146.292969 152.339844 146.292969 152.339844 C 151.8125 154.855469 156.050781 152.898438 158.566406 148.792969 C 160.542969 145.5625 161.007812 137.589844 161.117188 134.324219 C 161.148438 133.34375 160.277344 130.449219 159.71875 129.644531 C 154.054688 121.453125 140.925781 123.785156 140.359375 140.023438 Z M 140.359375 140.023438 " fill-opacity="1" fill-rule="nonzero"/><path fill="#000000" d="M 157.921875 141.976562 C 158.351562 141.96875 158.714844 142.3125 158.722656 142.746094 C 158.730469 143.179688 158.390625 143.539062 157.957031 143.550781 C 157.523438 143.558594 157.164062 143.214844 157.15625 142.78125 C 157.144531 142.347656 157.488281 141.988281 157.921875 141.976562 Z M 157.921875 141.976562 " fill-opacity="1" fill-rule="nonzero"/><path fill="#000000" d="M 151.128906 140.511719 C 151.5625 140.503906 151.921875 140.847656 151.929688 141.28125 C 151.9375 141.714844 151.597656 142.074219 151.164062 142.085938 C 150.730469 142.09375 150.371094 141.75 150.363281 141.316406 C 150.351562 140.882812 150.695312 140.523438 151.128906 140.511719 Z M 151.128906 140.511719 " fill-opacity="1" fill-rule="nonzero"/><path fill="#000000" d="M 154.011719 145.84375 C 154.011719 145.714844 154.109375 145.613281 154.234375 145.609375 L 155.296875 145.578125 L 155.09375 143.035156 C 155.085938 142.910156 155.179688 142.796875 155.304688 142.789062 C 155.425781 142.769531 155.535156 142.871094 155.546875 142.996094 L 155.765625 145.78125 C 155.769531 145.84375 155.75 145.902344 155.707031 145.949219 C 155.667969 145.996094 155.609375 146.023438 155.546875 146.027344 L 154.246094 146.0625 C 154.242188 146.0625 154.242188 146.0625 154.238281 146.0625 C 154.117188 146.0625 154.015625 145.964844 154.011719 145.84375 Z M 154.011719 145.84375 " fill-opacity="1" fill-rule="nonzero"/><path fill="#000000" d="M 152.613281 135.84375 C 150.375 135.332031 148.964844 135.988281 148.070312 136.441406 C 147.636719 136.660156 147.363281 137.105469 147.496094 137.578125 C 147.636719 138.070312 148.136719 138.347656 148.636719 138.226562 C 149.96875 137.90625 151.382812 137.921875 152.34375 137.996094 C 152.984375 138.042969 153.519531 137.53125 153.507812 136.886719 C 153.496094 136.371094 153.117188 135.957031 152.613281 135.84375 Z M 152.613281 135.84375 " fill-opacity="1" fill-rule="nonzero"/><path fill="#000000" d="M 157.707031 136.996094 C 159.210938 137.203125 159.890625 138.246094 160.308594 138.945312 C 160.515625 139.285156 160.558594 139.785156 160.347656 140.1875 C 160.128906 140.609375 159.746094 140.714844 159.476562 140.449219 C 158.753906 139.742188 157.886719 139.324219 157.28125 139.101562 C 156.878906 138.953125 156.691406 138.304688 156.875 137.707031 C 157.023438 137.226562 157.367188 136.953125 157.707031 136.996094 Z M 157.707031 136.996094 " fill-opacity="1" fill-rule="nonzero"/><path fill="#000000" d="M 137.585938 132.699219 C 138.125 129.792969 139.796875 127.183594 142.605469 125.570312 C 146.203125 123.503906 150.878906 123.011719 155.058594 123.507812 C 158.558594 123.921875 161.515625 125.664062 162.386719 128.835938 C 163.6875 133.566406 159.550781 135.054688 157.46875 134.945312 C 156.425781 134.890625 155.4375 134.554688 154.539062 134.078125 C 151.304688 132.367188 146.578125 131.597656 146.578125 131.597656 C 145.914062 139.042969 140.296875 142.589844 140.296875 142.589844 C 140.296875 142.589844 136.941406 136.195312 137.585938 132.699219 Z M 137.585938 132.699219 " fill-opacity="1" fill-rule="nonzero"/><path fill="#f8b498" d="M 139.828125 135.800781 C 141.941406 135.671875 143.753906 137.285156 143.882812 139.402344 C 144.007812 141.519531 142.398438 143.339844 140.289062 143.464844 C 138.175781 143.59375 136.363281 141.980469 136.234375 139.863281 C 136.109375 137.746094 137.71875 135.925781 139.828125 135.800781 Z M 139.828125 135.800781 " fill-opacity="1" fill-rule="nonzero"/><path fill="#000000" d="M 141.339844 141.195312 C 141.335938 140.273438 141.078125 139.5625 140.574219 139.078125 C 139.792969 138.328125 138.652344 138.367188 138.648438 138.367188 C 138.539062 138.375 138.417969 138.273438 138.414062 138.148438 C 138.40625 138.023438 138.503906 137.917969 138.628906 137.910156 C 138.679688 137.90625 139.960938 137.863281 140.882812 138.746094 C 141.484375 139.320312 141.789062 140.140625 141.792969 141.195312 C 141.792969 141.320312 141.691406 141.421875 141.566406 141.421875 C 141.441406 141.421875 141.339844 141.320312 141.339844 141.195312 Z M 141.339844 141.195312 " fill-opacity="1" fill-rule="nonzero"/><path fill="#f8b498" d="M 156.527344 160.386719 C 156.527344 160.386719 153.421875 167.738281 145.335938 167.371094 C 137.25 167.007812 134.136719 158.75 134.136719 158.75 C 146.609375 156.699219 156.527344 160.386719 156.527344 160.386719 Z M 156.527344 160.386719 " fill-opacity="1" fill-rule="nonzero"/><path fill="#000000" d="M 150.164062 147.746094 C 150.101562 147.636719 150.136719 147.496094 150.246094 147.433594 C 150.355469 147.371094 150.492188 147.40625 150.554688 147.515625 C 151.734375 149.527344 154.800781 148.742188 154.832031 148.734375 C 154.945312 148.699219 155.074219 148.773438 155.109375 148.894531 C 155.140625 149.015625 155.066406 149.140625 154.945312 149.171875 C 154.886719 149.1875 154.246094 149.355469 153.425781 149.355469 C 152.335938 149.355469 150.933594 149.0625 150.164062 147.746094 Z M 150.164062 147.746094 " fill-opacity="1" fill-rule="nonzero"/><path fill="#ffffff" d="M 139.121094 157.992188 L 145.644531 164.933594 L 150.976562 158.546875 L 157.230469 159.429688 L 153.507812 173.671875 L 145.710938 168.125 L 137.503906 172.199219 L 132.925781 158.898438 Z M 139.121094 157.992188 " fill-opacity="1" fill-rule="nonzero"/><path fill="#000000" d="M 145.710938 187.667969 C 145.613281 187.667969 145.53125 187.589844 145.53125 187.488281 L 145.53125 168.53125 C 145.53125 168.429688 145.613281 168.351562 145.710938 168.351562 C 145.8125 168.351562 145.890625 168.429688 145.890625 168.53125 L 145.890625 187.488281 C 145.890625 187.589844 145.8125 187.667969 145.710938 187.667969 Z M 145.710938 187.667969 " fill-opacity="1" fill-rule="nonzero"/><path fill="#ff3e4d" d="M 236.949219 191.960938 C 237.175781 192.289062 237.550781 192.429688 237.910156 192.507812 C 238.699219 192.679688 239.5625 192.625 240.25 192.136719 C 240.40625 192.027344 240.5625 191.875 240.585938 191.664062 C 240.609375 191.464844 240.496094 191.265625 240.347656 191.15625 C 240.195312 191.046875 240.015625 191.011719 239.835938 190.992188 C 239.097656 190.910156 238.363281 191.046875 237.625 191.003906 C 237.378906 190.988281 237.050781 190.816406 236.875 191.046875 C 236.699219 191.28125 236.804688 191.746094 236.949219 191.960938 Z M 236.949219 191.960938 " fill-opacity="0.56" fill-rule="nonzero"/></svg>