<svg xmlns="http://www.w3.org/2000/svg" xmlns:xlink="http://www.w3.org/1999/xlink" width="500" zoomAndPan="magnify" viewBox="0 0 375 374.999991" height="500" preserveAspectRatio="xMidYMid meet" version="1.0"><defs><clipPath id="bc9fb2eca7"><path d="M 264 17.066406 L 336 17.066406 L 336 96 L 264 96 Z M 264 17.066406 " clip-rule="nonzero"/></clipPath><clipPath id="1d19dcbaf2"><path d="M 21.753906 173 L 129 173 L 129 230 L 21.753906 230 Z M 21.753906 173 " clip-rule="nonzero"/></clipPath><clipPath id="e4b515d23c"><path d="M 21.753906 229 L 129 229 L 129 286 L 21.753906 286 Z M 21.753906 229 " clip-rule="nonzero"/></clipPath><clipPath id="6d5af2c559"><path d="M 21.753906 285 L 129 285 L 129 341.816406 L 21.753906 341.816406 Z M 21.753906 285 " clip-rule="nonzero"/></clipPath><clipPath id="f0d7936116"><path d="M 107 73 L 287 73 L 287 341.816406 L 107 341.816406 Z M 107 73 " clip-rule="nonzero"/></clipPath><clipPath id="8aca39b7cc"><path d="M 163 17.066406 L 220 17.066406 L 220 51 L 163 51 Z M 163 17.066406 " clip-rule="nonzero"/></clipPath></defs><g clip-path="url(#bc9fb2eca7)"><path fill="#f9adb1" d="M 328.925781 58.007812 L 325.894531 56.257812 L 328.925781 54.511719 C 335.175781 50.902344 337.3125 42.914062 333.707031 36.664062 C 330.101562 30.414062 322.113281 28.273438 315.863281 31.882812 L 312.832031 33.628906 L 312.832031 30.128906 C 312.832031 22.914062 306.988281 17.066406 299.769531 17.066406 C 292.558594 17.066406 286.710938 22.914062 286.710938 30.128906 L 286.710938 33.628906 L 283.679688 31.882812 C 277.429688 28.273438 269.445312 30.414062 265.835938 36.664062 C 262.230469 42.914062 264.371094 50.902344 270.617188 54.511719 L 273.648438 56.257812 L 270.617188 58.007812 C 264.371094 61.617188 262.230469 69.605469 265.835938 75.855469 C 269.445312 82.105469 277.429688 84.246094 283.679688 80.636719 L 286.710938 78.890625 L 286.710938 82.386719 C 286.710938 89.605469 292.558594 95.453125 299.769531 95.453125 C 306.988281 95.453125 312.832031 89.605469 312.832031 82.386719 L 312.832031 78.890625 L 315.863281 80.636719 C 322.113281 84.246094 330.101562 82.105469 333.707031 75.855469 C 337.3125 69.605469 335.175781 61.617188 328.925781 58.007812 " fill-opacity="1" fill-rule="nonzero"/></g><path fill="#f388a2" d="M 99.414062 102.800781 L 96.382812 101.054688 L 99.414062 99.304688 C 105.660156 95.695312 107.796875 87.707031 104.191406 81.457031 C 100.585938 75.207031 92.597656 73.066406 86.347656 76.675781 L 83.316406 78.425781 L 83.316406 74.925781 C 83.316406 67.707031 77.472656 61.859375 70.253906 61.859375 C 63.042969 61.859375 57.195312 67.707031 57.195312 74.925781 L 57.195312 78.425781 L 54.164062 76.675781 C 47.917969 73.066406 39.929688 75.207031 36.320312 81.457031 C 32.714844 87.707031 34.855469 95.695312 41.101562 99.304688 L 44.132812 101.054688 L 41.101562 102.800781 C 34.855469 106.410156 32.714844 114.398438 36.320312 120.648438 C 39.929688 126.898438 47.917969 129.039062 54.164062 125.429688 L 57.195312 123.683594 L 57.195312 127.179688 C 57.195312 134.398438 63.042969 140.246094 70.253906 140.246094 C 77.472656 140.246094 83.316406 134.398438 83.316406 127.179688 L 83.316406 123.683594 L 86.347656 125.429688 C 92.597656 129.039062 100.585938 126.898438 104.191406 120.648438 C 107.796875 114.398438 105.660156 106.410156 99.414062 102.800781 " fill-opacity="1" fill-rule="nonzero"/><g clip-path="url(#1d19dcbaf2)"><path fill="#f3af3e" d="M 128.335938 229.832031 L 49.964844 229.832031 C 34.503906 229.832031 21.976562 217.296875 21.976562 201.835938 C 21.976562 186.375 34.503906 173.839844 49.964844 173.839844 L 128.335938 173.839844 L 128.335938 229.832031 " fill-opacity="1" fill-rule="nonzero"/></g><path fill="#ea9d2d" d="M 105.945312 207.4375 L 49.964844 207.4375 C 46.875 207.4375 44.367188 204.929688 44.367188 201.835938 C 44.367188 198.746094 46.875 196.238281 49.964844 196.238281 L 105.945312 196.238281 C 109.035156 196.238281 111.542969 198.746094 111.542969 201.835938 C 111.542969 204.929688 109.035156 207.4375 105.945312 207.4375 " fill-opacity="1" fill-rule="nonzero"/><g clip-path="url(#e4b515d23c)"><path fill="#6cbae5" d="M 128.335938 285.824219 L 49.964844 285.824219 C 34.503906 285.824219 21.976562 273.289062 21.976562 257.828125 C 21.976562 242.367188 34.503906 229.832031 49.964844 229.832031 L 128.335938 229.832031 L 128.335938 285.824219 " fill-opacity="1" fill-rule="nonzero"/></g><path fill="#4799cf" d="M 105.945312 263.429688 L 49.964844 263.429688 C 46.875 263.429688 44.367188 260.921875 44.367188 257.828125 C 44.367188 254.738281 46.875 252.230469 49.964844 252.230469 L 105.945312 252.230469 C 109.035156 252.230469 111.542969 254.738281 111.542969 257.828125 C 111.542969 260.921875 109.035156 263.429688 105.945312 263.429688 " fill-opacity="1" fill-rule="nonzero"/><g clip-path="url(#6d5af2c559)"><path fill="#e4e4e2" d="M 128.335938 341.816406 L 49.964844 341.816406 C 34.503906 341.816406 21.976562 329.28125 21.976562 313.820312 C 21.976562 298.359375 34.503906 285.824219 49.964844 285.824219 L 128.335938 285.824219 L 128.335938 341.816406 " fill-opacity="1" fill-rule="nonzero"/></g><path fill="#c3c3c3" d="M 105.945312 319.417969 L 49.964844 319.417969 C 46.875 319.417969 44.367188 316.914062 44.367188 313.820312 C 44.367188 310.726562 46.875 308.222656 49.964844 308.222656 L 105.945312 308.222656 C 109.035156 308.222656 111.542969 310.726562 111.542969 313.820312 C 111.542969 316.914062 109.035156 319.417969 105.945312 319.417969 " fill-opacity="1" fill-rule="nonzero"/><g clip-path="url(#f0d7936116)"><path fill="#ea6b65" d="M 264.082031 207.4375 L 241.691406 224.234375 L 241.691406 123.449219 L 264.082031 140.246094 Z M 286.476562 205.335938 L 286.476562 141.652344 C 286.476562 133.675781 282.898438 126.117188 276.726562 121.066406 L 224.898438 78.65625 L 217.902344 73.058594 L 161.925781 73.058594 L 157.722656 78.65625 L 112.734375 158.65625 C 109.199219 164.941406 107.339844 172.03125 107.339844 179.242188 L 107.339844 327.816406 C 107.339844 335.550781 113.605469 341.816406 121.335938 341.816406 L 272.480469 341.816406 C 280.210938 341.816406 286.476562 335.550781 286.476562 327.816406 L 286.476562 272.265625 C 286.476562 266.542969 284.53125 260.996094 280.957031 256.527344 L 264.082031 235.433594 L 275.839844 226.613281 C 282.535156 221.589844 286.476562 213.707031 286.476562 205.335938 " fill-opacity="1" fill-rule="nonzero"/></g><path fill="#e4e4e2" d="M 252.890625 269.027344 L 252.890625 306.820312 C 252.890625 313.777344 247.25 319.417969 240.296875 319.417969 L 142.332031 319.417969 C 135.378906 319.417969 129.734375 313.777344 129.734375 306.820312 L 129.734375 177.019531 C 129.734375 175.652344 129.960938 174.3125 130.386719 173.019531 L 130.390625 173.019531 C 130.609375 172.34375 130.898438 171.679688 131.238281 171.042969 L 165.351562 107.679688 C 167.550781 103.601562 171.8125 101.054688 176.445312 101.054688 L 206.707031 101.054688 C 213.660156 101.054688 219.304688 106.691406 219.304688 113.652344 L 219.304688 230.210938 C 219.304688 233.558594 220.625 236.761719 222.992188 239.121094 L 252.890625 269.027344 " fill-opacity="1" fill-rule="nonzero"/><path fill="#f3af3e" d="M 219.304688 161.242188 L 219.304688 196.222656 L 129.734375 195.910156 L 129.734375 177.019531 C 129.734375 175.652344 129.960938 174.3125 130.386719 173.019531 L 130.390625 173.019531 L 140.636719 168.921875 C 145.128906 167.121094 149.875 166.226562 154.613281 166.226562 C 160.394531 166.226562 166.160156 167.554688 171.441406 170.203125 C 182.945312 175.953125 196.597656 175.429688 207.625 168.808594 L 217.902344 162.644531 L 219.304688 161.242188 " fill-opacity="1" fill-rule="nonzero"/><path fill="#6cbae5" d="M 219.304688 183.386719 L 219.304688 206.199219 L 217.902344 207.101562 L 207.625 213.273438 C 196.597656 219.894531 182.945312 220.410156 171.441406 214.660156 C 166.160156 212.011719 160.394531 210.691406 154.613281 210.691406 C 149.882812 210.691406 145.128906 211.582031 140.636719 213.378906 L 129.734375 217.738281 L 129.734375 195.339844 L 140.636719 190.980469 C 150.617188 186.992188 161.824219 187.453125 171.441406 192.261719 C 176.75 194.914062 182.515625 196.238281 188.277344 196.238281 C 194.988281 196.238281 201.683594 194.4375 207.625 190.875 L 217.902344 184.703125 L 219.304688 183.386719 " fill-opacity="1" fill-rule="nonzero"/><g clip-path="url(#8aca39b7cc)"><path fill="#f3af3e" d="M 219.304688 24.066406 L 219.304688 50.660156 L 163.324219 50.660156 L 163.324219 24.066406 C 163.324219 20.203125 166.449219 17.066406 170.320312 17.066406 L 212.304688 17.066406 C 216.167969 17.066406 219.304688 20.203125 219.304688 24.066406 " fill-opacity="1" fill-rule="nonzero"/></g><path fill="#f9adb1" d="M 59.058594 101.054688 C 59.058594 94.867188 64.074219 89.855469 70.253906 89.855469 C 76.441406 89.855469 81.453125 94.867188 81.453125 101.054688 C 81.453125 107.238281 76.441406 112.25 70.253906 112.25 C 64.074219 112.25 59.058594 107.238281 59.058594 101.054688 " fill-opacity="1" fill-rule="nonzero"/><path fill="#f388a2" d="M 288.574219 56.257812 C 288.574219 50.074219 293.585938 45.0625 299.769531 45.0625 C 305.957031 45.0625 310.964844 50.074219 310.964844 56.257812 C 310.964844 62.445312 305.957031 67.457031 299.769531 67.457031 C 293.585938 67.457031 288.574219 62.445312 288.574219 56.257812 " fill-opacity="1" fill-rule="nonzero"/><path fill="#f9adb1" d="M 167.984375 259.578125 L 164.953125 257.828125 L 167.984375 256.078125 C 174.234375 252.46875 176.371094 244.480469 172.765625 238.230469 C 169.160156 231.980469 161.167969 229.839844 154.921875 233.449219 L 151.890625 235.199219 L 151.890625 231.699219 C 151.890625 224.484375 146.042969 218.636719 138.832031 218.636719 C 131.617188 218.636719 125.765625 224.484375 125.765625 231.699219 L 125.765625 235.199219 L 122.734375 233.449219 C 116.492188 229.839844 108.5 231.980469 104.894531 238.230469 C 101.289062 244.480469 103.425781 252.46875 109.671875 256.078125 L 112.703125 257.828125 L 109.671875 259.578125 C 103.425781 263.1875 101.289062 271.175781 104.894531 277.425781 C 108.5 283.675781 116.492188 285.816406 122.734375 282.207031 L 125.765625 280.457031 L 125.765625 283.957031 C 125.765625 291.175781 131.617188 297.023438 138.832031 297.023438 C 146.042969 297.023438 151.890625 291.175781 151.890625 283.957031 L 151.890625 280.457031 L 154.921875 282.207031 C 161.167969 285.816406 169.160156 283.675781 172.765625 277.425781 C 176.371094 271.175781 174.234375 263.1875 167.984375 259.578125 " fill-opacity="1" fill-rule="nonzero"/><path fill="#f388a2" d="M 127.632812 257.828125 C 127.632812 251.644531 132.648438 246.628906 138.832031 246.628906 C 145.011719 246.628906 150.027344 251.644531 150.027344 257.828125 C 150.027344 264.011719 145.011719 269.027344 138.832031 269.027344 C 132.648438 269.027344 127.632812 264.011719 127.632812 257.828125 " fill-opacity="1" fill-rule="nonzero"/><path fill="#f3af3e" d="M 224.898438 78.65625 L 157.722656 78.65625 L 157.722656 50.660156 L 224.898438 50.660156 L 224.898438 78.65625 " fill-opacity="1" fill-rule="nonzero"/><path fill="#ea9d2d" d="M 180.113281 78.65625 L 168.917969 78.65625 L 168.917969 50.660156 L 180.113281 50.660156 L 180.113281 78.65625 " fill-opacity="1" fill-rule="nonzero"/><path fill="#ea9d2d" d="M 196.910156 78.65625 L 185.710938 78.65625 L 185.710938 50.660156 L 196.910156 50.660156 L 196.910156 78.65625 " fill-opacity="1" fill-rule="nonzero"/><path fill="#ea9d2d" d="M 213.703125 78.65625 L 202.507812 78.65625 L 202.507812 50.660156 L 213.703125 50.660156 L 213.703125 78.65625 " fill-opacity="1" fill-rule="nonzero"/><path fill="#ea9d2d" d="M 219.304688 39.460938 L 219.304688 50.660156 L 163.324219 50.660156 L 163.324219 39.460938 L 219.304688 39.460938 " fill-opacity="1" fill-rule="nonzero"/></svg>