<svg xmlns="http://www.w3.org/2000/svg" xmlns:xlink="http://www.w3.org/1999/xlink" width="500" zoomAndPan="magnify" viewBox="0 0 375 374.999991" height="500" preserveAspectRatio="xMidYMid meet" version="1.0"><defs><clipPath id="a38a3f65bb"><path d="M 112.671875 127.789062 L 253.738281 127.789062 L 253.738281 248.4375 L 112.671875 248.4375 Z M 112.671875 127.789062 " clip-rule="nonzero"/></clipPath><clipPath id="fb4ae48049"><path d="M 241.007812 130.449219 L 262.3125 130.449219 L 262.3125 191 L 241.007812 191 Z M 241.007812 130.449219 " clip-rule="nonzero"/></clipPath></defs><rect x="-37.5" width="450" fill="#ffffff" y="-37.499999" height="449.999989" fill-opacity="1"/><rect x="-37.5" width="450" fill="#ffffff" y="-37.499999" height="449.999989" fill-opacity="1"/><path fill="#acc6e8" d="M 249.984375 156.058594 C 249.851562 156.222656 249.710938 156.394531 249.574219 156.570312 C 249.214844 157.007812 248.84375 157.445312 248.453125 157.886719 C 247.402344 159.0625 246.40625 160.101562 245.464844 161.007812 C 242.484375 163.863281 240.015625 165.410156 238.050781 165.640625 C 238.117188 165.394531 238.148438 165.152344 238.148438 164.90625 C 238.148438 164.289062 238.132812 163.820312 238.097656 163.496094 L 238.050781 163.324219 C 240.5 161.347656 242.664062 159.171875 244.539062 156.789062 C 245.605469 155.441406 246.578125 154.027344 247.457031 152.546875 C 248.570312 150.664062 249.535156 148.671875 250.351562 146.570312 C 250.640625 145.832031 250.90625 145.074219 251.152344 144.304688 C 251.371094 143.65625 251.574219 143 251.761719 142.332031 C 252.148438 140.898438 252.714844 139.550781 253.460938 138.28125 C 253.875 139.347656 254.175781 140.410156 254.359375 141.476562 C 255.214844 146.296875 253.757812 151.15625 249.984375 156.058594 Z M 234.136719 130.53125 C 233.957031 131.042969 233.867188 131.613281 233.867188 132.234375 L 233.820312 132.773438 L 234.210938 134.136719 L 234.257812 134.574219 C 234.453125 135.972656 234.632812 137.402344 234.792969 138.867188 L 235.375 139.113281 C 235.40625 139.339844 235.472656 139.566406 235.570312 139.792969 C 235.746094 140.234375 236 140.566406 236.324219 140.792969 C 234.414062 147.476562 230.421875 153.109375 224.339844 157.691406 C 224.273438 157.722656 224.226562 157.753906 224.195312 157.789062 C 224.128906 157.820312 224.082031 157.871094 224.050781 157.933594 C 223.984375 157.96875 223.933594 158 223.902344 158.03125 C 223.839844 158.066406 223.789062 158.113281 223.757812 158.179688 C 223.691406 158.210938 223.644531 158.242188 223.613281 158.277344 C 223.546875 158.308594 223.5 158.359375 223.464844 158.421875 C 223.214844 158.589844 222.96875 158.71875 222.714844 158.8125 L 222.46875 158.664062 C 222.53125 158.488281 222.59375 158.300781 222.664062 158.105469 C 223.296875 157.449219 223.644531 156.867188 223.710938 156.347656 C 224.015625 155.980469 224.355469 155.582031 224.730469 155.15625 C 227.386719 151.871094 229.332031 148.847656 230.5625 146.085938 C 231.40625 144.199219 231.8125 141.957031 231.777344 139.355469 C 231.746094 138.996094 231.730469 138.65625 231.730469 138.332031 C 232.347656 136.382812 232.816406 134.332031 233.140625 132.1875 C 233.238281 131.472656 233.5625 130.917969 234.113281 130.53125 L 234.136719 130.53125 " fill-opacity="1" fill-rule="evenodd"/><path fill="#d5ecf6" d="M 245.683594 185.730469 C 246.039062 185.957031 246.410156 186.152344 246.800781 186.316406 L 250.496094 187.144531 C 250.527344 187.144531 250.5625 187.144531 250.59375 187.144531 C 250.625 187.144531 250.65625 187.144531 250.691406 187.144531 C 250.722656 187.144531 250.769531 187.144531 250.835938 187.144531 L 250.882812 187.144531 L 250.980469 188.023438 C 250.402344 188.242188 249.835938 188.484375 249.28125 188.753906 C 247.742188 187.859375 246.332031 187.039062 245.050781 186.292969 C 245.246094 186.097656 245.441406 185.894531 245.632812 185.679688 Z M 251.101562 196.605469 L 251.125 196.558594 C 251.320312 196.199219 251.417969 195.84375 251.417969 195.484375 L 251.417969 190.511719 C 251.453125 190.316406 251.371094 190.136719 251.175781 189.972656 C 251 189.839844 250.863281 189.726562 250.765625 189.632812 L 251.175781 189.09375 C 251.304688 189.289062 251.46875 189.46875 251.664062 189.632812 C 252.957031 190.542969 254.484375 190.851562 256.230469 190.558594 C 255.875 191.371094 255.5 192.167969 255.113281 192.949219 C 254.628906 193.890625 254.027344 194.753906 253.3125 195.53125 C 252.707031 196.144531 251.96875 196.503906 251.101562 196.605469 Z M 245.902344 149.886719 C 246.664062 148.296875 247.300781 146.625 247.824219 144.867188 C 247.941406 144.449219 248.058594 144.027344 248.164062 143.597656 C 248.503906 142.277344 248.777344 140.914062 248.988281 139.503906 C 249.085938 138.789062 249.410156 138.234375 249.960938 137.84375 C 250.511719 137.390625 251.144531 137.226562 251.855469 137.355469 C 252.507812 137.453125 253.039062 137.761719 253.460938 138.28125 C 252.714844 139.550781 252.148438 140.898438 251.761719 142.332031 C 251.574219 143 251.371094 143.65625 251.152344 144.304688 C 250.90625 145.074219 250.640625 145.832031 250.351562 146.570312 C 249.535156 148.671875 248.570312 150.664062 247.457031 152.546875 C 246.578125 154.027344 245.605469 155.441406 244.539062 156.789062 C 242.664062 159.171875 240.5 161.347656 238.050781 163.324219 L 238 163.203125 C 237.09375 162.972656 236.203125 162.925781 235.328125 163.054688 C 235.445312 162.503906 235.75 162.050781 236.25 161.691406 C 239.484375 159.21875 242.125 156.339844 244.175781 153.058594 C 244.804688 152.042969 245.382812 150.984375 245.902344 149.886719 Z M 223.710938 156.347656 C 223.710938 156.289062 223.710938 156.230469 223.710938 156.179688 C 223.710938 155.59375 223.644531 155.253906 223.515625 155.15625 L 223.269531 155.007812 C 222.199219 154.570312 221.199219 154.382812 220.28125 154.445312 C 220.324219 154.425781 220.363281 154.402344 220.402344 154.375 C 225.847656 150.179688 229.625 144.832031 231.730469 138.332031 C 231.730469 138.65625 231.746094 138.996094 231.777344 139.355469 C 231.8125 141.957031 231.40625 144.199219 230.5625 146.085938 C 229.332031 148.847656 227.386719 151.871094 224.730469 155.15625 C 224.355469 155.582031 224.015625 155.980469 223.710938 156.347656 " fill-opacity="1" fill-rule="evenodd"/><path fill="#3e1f17" d="M 243.496094 136.039062 L 243.542969 134.867188 C 242.894531 135 242.457031 135.289062 242.230469 135.746094 C 242.132812 135.972656 242.019531 136.1875 241.890625 136.382812 C 241.695312 136.769531 241.484375 137.097656 241.257812 137.355469 L 241.308594 137.207031 L 240.285156 136.136719 L 238.78125 134.574219 C 238.457031 134.742188 238.132812 134.855469 237.804688 134.917969 C 237.171875 135.007812 236.523438 134.898438 235.863281 134.574219 C 235.695312 134.507812 235.535156 134.433594 235.375 134.355469 C 235.011719 134.164062 234.671875 133.949219 234.355469 133.699219 L 233.820312 132.773438 L 233.867188 132.234375 C 233.902344 132.136719 233.933594 132.058594 233.964844 131.992188 C 234.339844 132.117188 234.792969 132.277344 235.328125 132.480469 C 235.476562 132.539062 235.640625 132.605469 235.8125 132.675781 C 236.65625 132.675781 237.441406 132.632812 238.171875 132.550781 C 240.8125 132.289062 242.714844 131.53125 243.882812 130.285156 C 243.980469 130.1875 244.078125 130.089844 244.175781 129.992188 C 244.53125 130.675781 244.757812 131.421875 244.855469 132.234375 C 244.988281 133.632812 244.53125 134.902344 243.496094 136.039062 " fill-opacity="1" fill-rule="evenodd"/><g clip-path="url(#a38a3f65bb)"><path fill="#ffffff" d="M 229.152344 187.78125 L 240.917969 194.605469 C 241.664062 194.964844 242.246094 195.515625 242.667969 196.265625 C 241.40625 197.078125 239.734375 198.066406 237.660156 199.238281 C 234.90625 200.796875 233.203125 201.757812 232.558594 202.117188 C 232.070312 202.375 231.714844 202.585938 231.484375 202.75 C 231.097656 203.007812 230.921875 203.351562 230.953125 203.773438 C 230.921875 204.101562 230.886719 204.34375 230.855469 204.503906 C 230.59375 204.960938 230.160156 205.738281 229.542969 206.84375 C 228.957031 207.820312 228.503906 208.585938 228.183594 209.140625 C 227.757812 209.527344 227.292969 209.871094 226.769531 210.160156 C 226.027344 210.453125 225.425781 210.453125 224.972656 210.160156 C 223.902344 209.542969 221.488281 208.144531 217.730469 205.96875 C 214.75 204.210938 212.332031 202.8125 210.484375 201.773438 L 210.484375 201.675781 L 210.730469 201.480469 C 216.140625 204.636719 220.9375 207.414062 225.117188 209.820312 C 225.832031 210.082031 226.546875 209.96875 227.257812 209.480469 C 227.90625 209.058594 228.390625 208.488281 228.714844 207.773438 C 228.941406 207.316406 229.347656 206.648438 229.929688 205.773438 C 230.386719 204.960938 230.628906 204.246094 230.660156 203.628906 C 230.691406 203.140625 230.628906 202.703125 230.464844 202.3125 C 230.304688 201.890625 230.027344 201.578125 229.640625 201.382812 C 228.796875 200.894531 226.578125 199.613281 222.980469 197.53125 C 220.257812 195.9375 218.039062 194.671875 216.316406 193.730469 C 216.125 193.859375 215.882812 194.214844 215.589844 194.800781 C 215.363281 195.257812 215.085938 195.546875 214.761719 195.679688 C 214.730469 195.320312 214.859375 194.933594 215.152344 194.507812 C 215.542969 193.859375 215.75 193.484375 215.785156 193.386719 L 215.394531 193.09375 C 215.558594 192.898438 215.785156 192.703125 216.074219 192.507812 C 203.339844 185.160156 184.265625 174.125 158.855469 159.398438 C 160.703125 158.324219 163.492188 156.714844 167.21875 154.570312 L 168.386719 155.253906 L 173.050781 157.933594 C 173.871094 158.40625 174.679688 158.878906 175.484375 159.347656 C 197.121094 171.875 213.4375 181.335938 224.4375 187.730469 C 224.957031 187.40625 225.71875 186.949219 226.722656 186.363281 C 226.984375 186.527344 227.386719 186.773438 227.941406 187.097656 C 228.457031 187.390625 228.863281 187.617188 229.152344 187.78125 Z M 137.464844 156.03125 C 137.398438 156.519531 137.367188 156.863281 137.367188 157.058594 C 137.335938 157.449219 137.351562 157.789062 137.417969 158.082031 C 137.449219 158.40625 137.53125 158.683594 137.660156 158.910156 C 137.824219 159.203125 138.035156 159.414062 138.292969 159.542969 C 141.46875 161.394531 146.25 164.175781 152.632812 167.882812 L 152.441406 168.125 C 150.65625 167.117188 148.277344 165.753906 145.292969 164.03125 C 141.792969 161.980469 139.425781 160.601562 138.195312 159.886719 C 137.773438 159.691406 137.386719 159.285156 137.03125 158.664062 C 137.03125 158.015625 137.046875 157.5625 137.078125 157.300781 C 137.109375 156.8125 137.238281 156.390625 137.464844 156.03125 Z M 139.652344 152.230469 C 139.816406 151.902344 140.089844 151.59375 140.480469 151.304688 C 140.640625 151.207031 141 150.992188 141.550781 150.667969 C 144.042969 149.238281 147.753906 147.078125 152.683594 144.183594 C 153.105469 143.988281 153.589844 144.035156 154.140625 144.328125 C 154.433594 144.492188 154.871094 144.734375 155.453125 145.0625 C 158.078125 146.589844 162.03125 148.898438 167.316406 151.984375 C 167.996094 152.375 168.464844 152.652344 168.722656 152.8125 C 166.164062 154.277344 164.253906 155.367188 162.988281 156.082031 C 160.6875 157.382812 158.808594 158.519531 157.347656 159.496094 C 150.929688 155.789062 146.136719 153.007812 142.960938 151.15625 C 142.441406 150.925781 141.855469 150.960938 141.210938 151.253906 C 141.046875 151.351562 140.527344 151.675781 139.652344 152.230469 Z M 196.898438 211.746094 C 195.972656 212.714844 195.027344 213.808594 194.054688 215.039062 C 193.460938 215.785156 192.863281 216.582031 192.253906 217.429688 C 200.019531 221.945312 206.535156 225.71875 211.796875 228.742188 C 211.539062 228.839844 211.328125 228.96875 211.167969 229.132812 C 211.003906 229.296875 210.90625 229.503906 210.875 229.765625 C 210.679688 229.828125 210.453125 229.796875 210.195312 229.667969 C 209.902344 229.472656 209.691406 229.34375 209.5625 229.277344 L 191.332031 218.722656 C 191.097656 219.054688 190.863281 219.394531 190.625 219.742188 C 189.136719 221.949219 187.585938 224.425781 185.984375 227.183594 C 181.253906 235.210938 178.207031 240.121094 176.84375 241.910156 C 173.472656 246.265625 170.054688 248.441406 166.585938 248.441406 L 112.671875 217.183594 C 116.140625 217.183594 119.558594 215.003906 122.929688 210.648438 C 124.292969 208.859375 127.339844 203.953125 132.070312 195.921875 C 136.121094 188.964844 139.816406 183.761719 143.152344 180.316406 C 143.9375 179.511719 144.730469 178.757812 145.539062 178.050781 C 145.78125 177.84375 146.023438 177.640625 146.265625 177.441406 C 146.648438 177.121094 147.035156 176.8125 147.429688 176.511719 C 148.226562 177.117188 149.117188 177.757812 150.105469 178.441406 C 152.097656 179.804688 154.480469 181.328125 157.25 183 C 162.339844 186.058594 167.980469 189.242188 174.171875 192.558594 C 177.25 194.476562 184.1875 198.832031 194.976562 205.628906 C 196.859375 206.765625 198.574219 207.804688 200.132812 208.75 C 201.789062 207.359375 203.507812 206.191406 205.28125 205.238281 C 207.121094 206.304688 208.839844 207.292969 210.4375 208.210938 C 210.4375 208.339844 210.4375 208.632812 210.4375 209.089844 L 210.386719 209.1875 C 208.476562 211.167969 207.082031 213.460938 206.207031 216.0625 C 203.640625 214.601562 200.75 212.941406 197.527344 211.089844 C 197.378906 211.253906 197.226562 211.414062 197.070312 211.578125 C 197.015625 211.628906 196.957031 211.6875 196.898438 211.746094 Z M 234.136719 130.53125 C 234.292969 130.027344 234.527344 129.570312 234.84375 129.164062 C 235.457031 128.320312 236.203125 127.894531 237.078125 127.894531 C 236.691406 128.15625 236.316406 128.429688 235.960938 128.722656 C 235.503906 129.148438 235.117188 129.621094 234.792969 130.140625 C 234.441406 130.703125 234.167969 131.320312 233.964844 131.992188 C 233.933594 132.058594 233.902344 132.136719 233.867188 132.234375 C 233.867188 131.613281 233.957031 131.042969 234.136719 130.53125 Z M 222.714844 158.8125 L 231.339844 163.808594 C 230.53125 164.007812 230.128906 164.257812 230.128906 164.566406 C 230.128906 164.730469 230.191406 164.941406 230.320312 165.199219 C 230.480469 165.492188 230.660156 165.640625 230.855469 165.640625 C 231.535156 165.707031 232.132812 165.65625 232.65625 165.492188 C 233.171875 165.492188 233.480469 165.574219 233.578125 165.738281 C 233.675781 165.902344 233.902344 165.980469 234.257812 165.980469 C 234.488281 165.980469 234.707031 165.941406 234.914062 165.859375 L 237.199219 167.199219 L 247.238281 173.027344 L 252.511719 176.078125 L 253.507812 176.660156 L 252.539062 177.222656 L 246.847656 180.511719 L 240.941406 183.925781 C 240.203125 183.496094 239.527344 183.105469 238.925781 182.753906 C 237.492188 183.484375 236.292969 184.09375 235.328125 184.585938 L 183.648438 154.621094 L 199.59375 145.402344 L 217.4375 155.738281 L 220.039062 157.253906 C 220.011719 157.484375 219.96875 157.714844 219.917969 157.933594 C 219.878906 158.136719 219.828125 158.332031 219.773438 158.519531 C 219.578125 159.136719 219.480469 159.574219 219.480469 159.835938 C 219.480469 159.867188 219.527344 160.046875 219.625 160.375 C 219.785156 160.699219 220.160156 160.859375 220.742188 160.859375 C 221.289062 160.859375 221.839844 160.203125 222.394531 158.886719 C 222.417969 158.8125 222.441406 158.738281 222.46875 158.664062 L 222.714844 158.8125 " fill-opacity="1" fill-rule="evenodd"/></g><path fill="#e5e5e4" d="M 233.820312 132.773438 L 234.355469 133.699219 L 234.210938 134.136719 Z M 233.820312 132.773438 " fill-opacity="1" fill-rule="evenodd"/><path fill="#b18059" d="M 240.238281 139.746094 L 243.496094 136.039062 C 243.460938 136.6875 243.445312 137.355469 243.445312 138.039062 C 243.445312 139.015625 243.007812 139.730469 242.132812 140.183594 Z M 234.355469 133.699219 C 234.671875 133.949219 235.011719 134.164062 235.375 134.355469 C 235.535156 134.433594 235.695312 134.507812 235.863281 134.574219 C 236.523438 134.898438 237.171875 135.007812 237.804688 134.917969 C 238.132812 134.855469 238.457031 134.742188 238.78125 134.574219 L 240.285156 136.136719 L 240.238281 136.136719 C 239.25 136.136719 238.367188 136.089844 237.589844 135.992188 C 236.691406 135.886719 235.921875 135.722656 235.28125 135.503906 C 234.933594 135.371094 234.625 135.226562 234.355469 135.0625 C 234.324219 134.902344 234.292969 134.738281 234.257812 134.574219 L 234.210938 134.136719 L 234.355469 133.699219 " fill-opacity="1" fill-rule="evenodd"/><path fill="#e6ad77" d="M 243.496094 136.039062 L 240.238281 139.746094 L 238.242188 140.621094 L 236.835938 141.0625 C 236.648438 141 236.476562 140.910156 236.324219 140.792969 C 236 140.566406 235.746094 140.234375 235.570312 139.792969 C 235.472656 139.566406 235.40625 139.339844 235.375 139.113281 L 234.792969 138.867188 C 234.632812 137.402344 234.453125 135.972656 234.257812 134.574219 C 234.292969 134.738281 234.324219 134.902344 234.355469 135.0625 C 234.625 135.226562 234.933594 135.371094 235.28125 135.503906 C 235.921875 135.722656 236.691406 135.886719 237.589844 135.992188 C 238.367188 136.089844 239.25 136.136719 240.238281 136.136719 L 240.285156 136.136719 L 241.308594 137.207031 L 241.257812 137.355469 C 241.484375 137.097656 241.695312 136.769531 241.890625 136.382812 C 242.019531 136.1875 242.132812 135.972656 242.230469 135.746094 C 242.457031 135.289062 242.894531 135 243.542969 134.867188 Z M 231.339844 163.808594 C 231.816406 163.683594 232.429688 163.578125 233.1875 163.496094 C 233.476562 163.457031 233.746094 163.421875 233.992188 163.398438 C 234.433594 163.238281 234.878906 163.125 235.328125 163.054688 C 236.203125 162.925781 237.09375 162.972656 238 163.203125 L 238.050781 163.324219 L 238.097656 163.496094 C 238.132812 163.820312 238.148438 164.289062 238.148438 164.90625 C 238.148438 165.152344 238.117188 165.394531 238.050781 165.640625 C 237.921875 166.183594 237.640625 166.703125 237.199219 167.199219 L 234.914062 165.859375 C 234.707031 165.941406 234.488281 165.980469 234.257812 165.980469 C 233.902344 165.980469 233.675781 165.902344 233.578125 165.738281 C 233.480469 165.574219 233.171875 165.492188 232.65625 165.492188 C 232.132812 165.65625 231.535156 165.707031 230.855469 165.640625 C 230.660156 165.640625 230.480469 165.492188 230.320312 165.199219 C 230.191406 164.941406 230.128906 164.730469 230.128906 164.566406 C 230.128906 164.257812 230.53125 164.007812 231.339844 163.808594 Z M 220.28125 154.445312 C 221.199219 154.382812 222.199219 154.570312 223.269531 155.007812 L 223.515625 155.15625 C 223.644531 155.253906 223.710938 155.59375 223.710938 156.179688 C 223.710938 156.230469 223.710938 156.289062 223.710938 156.347656 C 223.644531 156.867188 223.296875 157.449219 222.664062 158.105469 C 222.59375 158.300781 222.53125 158.488281 222.46875 158.664062 C 222.441406 158.738281 222.417969 158.8125 222.394531 158.886719 C 221.839844 160.203125 221.289062 160.859375 220.742188 160.859375 C 220.160156 160.859375 219.785156 160.699219 219.625 160.375 C 219.527344 160.046875 219.480469 159.867188 219.480469 159.835938 C 219.480469 159.574219 219.578125 159.136719 219.773438 158.519531 C 219.828125 158.332031 219.878906 158.136719 219.917969 157.933594 C 219.96875 157.714844 220.011719 157.484375 220.039062 157.253906 L 217.4375 155.738281 C 218.28125 154.96875 219.226562 154.539062 220.28125 154.445312 " fill-opacity="1" fill-rule="evenodd"/><g clip-path="url(#fb4ae48049)"><path fill="#44ba3b" d="M 245.632812 185.679688 L 245.292969 185 L 245.390625 184.855469 C 245.457031 185.144531 245.550781 185.4375 245.683594 185.730469 Z M 255.84375 138.527344 C 255.941406 138.167969 256.023438 137.84375 256.085938 137.550781 C 256.085938 137.582031 256.101562 137.597656 256.136719 137.597656 L 256.085938 137.597656 C 256.023438 137.890625 255.941406 138.199219 255.84375 138.527344 Z M 247.824219 144.867188 C 247.300781 146.625 246.664062 148.296875 245.902344 149.886719 C 245.515625 149.433594 245.054688 148.980469 244.515625 148.523438 C 244.484375 148.71875 244.453125 148.929688 244.417969 149.15625 C 244.484375 148.539062 244.597656 147.953125 244.757812 147.402344 C 244.5625 146.363281 244.078125 145.5625 243.300781 145.011719 C 242.617188 144.589844 241.988281 144.152344 241.40625 143.695312 C 242.765625 144.25 244.320312 144.605469 246.070312 144.769531 C 245.84375 144.085938 245.601562 143.242188 245.34375 142.234375 C 244.628906 139.664062 244.273438 138.183594 244.273438 137.792969 C 244.273438 136.039062 245.292969 134.054688 247.335938 131.84375 C 247.628906 131.519531 247.921875 131.226562 248.210938 130.96875 C 248.597656 131.160156 248.988281 131.375 249.378906 131.601562 L 250.15625 132.039062 C 250.382812 132.203125 250.625 132.363281 250.882812 132.527344 C 250.691406 132.65625 250.476562 132.804688 250.253906 132.96875 C 247.398438 134.949219 245.976562 137 245.976562 139.113281 C 245.976562 140.445312 246.25 141.859375 246.800781 143.351562 C 246.996094 143.972656 247.175781 144.476562 247.335938 144.867188 C 247.496094 144.867188 247.65625 144.867188 247.824219 144.867188 Z M 251.175781 189.09375 L 250.980469 188.023438 L 250.882812 187.144531 L 250.835938 187.144531 C 251.03125 186.460938 251.222656 185.679688 251.417969 184.804688 C 252.164062 181.550781 252.539062 179.375 252.539062 178.269531 C 252.539062 177.949219 252.539062 177.601562 252.539062 177.222656 L 253.507812 176.660156 L 252.511719 176.078125 C 252.460938 174.519531 252.371094 172.582031 252.246094 170.273438 C 251.953125 165.363281 251.597656 162.175781 251.175781 160.714844 C 250.742188 159.269531 250.210938 157.886719 249.574219 156.570312 C 249.710938 156.394531 249.851562 156.222656 249.984375 156.058594 C 252.132812 155.847656 253.664062 154.765625 254.578125 152.8125 C 255.292969 150.179688 255.828125 148.359375 256.183594 147.351562 C 256.28125 146.996094 257.367188 145.679688 259.441406 143.402344 C 259.632812 143.792969 259.847656 144.167969 260.070312 144.523438 C 260.167969 144.71875 260.300781 144.914062 260.460938 145.109375 C 261.984375 147.15625 262.566406 149.433594 262.210938 151.9375 C 261.855469 154.636719 261.417969 157.316406 260.898438 159.984375 C 260.542969 161.835938 260.234375 163.722656 259.972656 165.640625 C 259.75 167.265625 259.75 168.859375 259.972656 170.417969 C 260.105469 171.460938 260.203125 172.5 260.265625 173.539062 C 260.300781 174.191406 260.265625 174.855469 260.167969 175.539062 C 259.78125 178.496094 259.359375 181.457031 258.90625 184.414062 C 258.808594 185.097656 258.695312 185.777344 258.566406 186.460938 C 258.308594 187.859375 257.785156 189.113281 257.011719 190.21875 L 256.230469 190.558594 C 254.484375 190.851562 252.957031 190.542969 251.664062 189.632812 C 251.46875 189.46875 251.304688 189.289062 251.175781 189.09375 " fill-opacity="1" fill-rule="evenodd"/></g><path fill="#22632f" d="M 249.984375 156.058594 C 253.757812 151.15625 255.214844 146.296875 254.359375 141.476562 L 254.386719 141.453125 C 254.386719 141.417969 254.398438 141.386719 254.433594 141.355469 L 255.84375 138.527344 C 255.941406 138.199219 256.023438 137.890625 256.085938 137.597656 L 256.136719 137.597656 C 256.199219 137.695312 256.28125 137.8125 256.378906 137.941406 L 257.011719 139.113281 C 257.785156 140.542969 258.597656 141.972656 259.441406 143.402344 C 257.367188 145.679688 256.28125 146.996094 256.183594 147.351562 C 255.828125 148.359375 255.292969 150.179688 254.578125 152.8125 C 253.664062 154.765625 252.132812 155.847656 249.984375 156.058594 Z M 245.902344 149.886719 C 245.382812 150.984375 244.804688 152.042969 244.175781 153.058594 C 244.152344 151.941406 244.203125 150.820312 244.320312 149.691406 C 244.320312 149.59375 244.339844 149.515625 244.371094 149.449219 L 244.417969 149.15625 C 244.453125 148.929688 244.484375 148.71875 244.515625 148.523438 C 245.054688 148.980469 245.515625 149.433594 245.902344 149.886719 Z M 247.238281 173.027344 C 247.324219 172.027344 247.292969 171.042969 247.140625 170.078125 C 246.847656 168.027344 246.492188 166.011719 246.070312 164.03125 C 245.878906 163.015625 245.675781 162.007812 245.464844 161.007812 C 246.40625 160.101562 247.402344 159.0625 248.453125 157.886719 C 248.84375 157.445312 249.214844 157.007812 249.574219 156.570312 C 250.210938 157.886719 250.742188 159.269531 251.175781 160.714844 C 251.597656 162.175781 251.953125 165.363281 252.246094 170.273438 C 252.371094 172.582031 252.460938 174.519531 252.511719 176.078125 Z M 245.683594 185.730469 C 245.550781 185.4375 245.457031 185.144531 245.390625 184.855469 L 246.996094 181.585938 C 246.9375 181.226562 246.886719 180.867188 246.847656 180.511719 L 252.539062 177.222656 C 252.539062 177.601562 252.539062 177.949219 252.539062 178.269531 C 252.539062 179.375 252.164062 181.550781 251.417969 184.804688 C 251.222656 185.679688 251.03125 186.460938 250.835938 187.144531 C 250.769531 187.144531 250.722656 187.144531 250.691406 187.144531 C 250.65625 187.144531 250.625 187.144531 250.59375 187.144531 C 250.5625 187.144531 250.527344 187.144531 250.496094 187.144531 L 246.800781 186.316406 C 246.410156 186.152344 246.039062 185.957031 245.683594 185.730469 " fill-opacity="1" fill-rule="evenodd"/><path fill="#f8a219" d="M 253.460938 138.28125 C 253.039062 137.761719 252.507812 137.453125 251.855469 137.355469 C 251.144531 137.226562 250.511719 137.390625 249.960938 137.84375 C 249.410156 138.234375 249.085938 138.789062 248.988281 139.503906 C 248.777344 140.914062 248.503906 142.277344 248.164062 143.597656 C 248.042969 143.414062 247.929688 143.21875 247.824219 143.011719 C 247.300781 141.160156 247.042969 140.21875 247.042969 140.183594 C 247.042969 138.65625 247.398438 137.355469 248.113281 136.285156 C 249.085938 134.820312 250.59375 134.085938 252.636719 134.085938 C 252.761719 134.085938 252.910156 134.085938 253.070312 134.085938 C 253.363281 134.347656 253.640625 134.609375 253.898438 134.867188 C 254.707031 135.679688 255.4375 136.578125 256.085938 137.550781 C 256.023438 137.84375 255.941406 138.167969 255.84375 138.527344 L 254.433594 141.355469 C 254.398438 141.386719 254.386719 141.417969 254.386719 141.453125 L 254.359375 141.476562 C 254.175781 140.410156 253.875 139.347656 253.460938 138.28125 " fill-opacity="1" fill-rule="evenodd"/><path fill="#fad117" d="M 248.164062 143.597656 C 248.058594 144.027344 247.941406 144.449219 247.824219 144.867188 C 247.65625 144.867188 247.496094 144.867188 247.335938 144.867188 C 247.175781 144.476562 246.996094 143.972656 246.800781 143.351562 C 246.25 141.859375 245.976562 140.445312 245.976562 139.113281 C 245.976562 137 247.398438 134.949219 250.253906 132.96875 C 250.476562 132.804688 250.691406 132.65625 250.882812 132.527344 C 250.625 132.363281 250.382812 132.203125 250.15625 132.039062 C 250.738281 132.398438 251.304688 132.773438 251.855469 133.164062 C 252.277344 133.457031 252.683594 133.761719 253.070312 134.085938 C 252.910156 134.085938 252.761719 134.085938 252.636719 134.085938 C 250.59375 134.085938 249.085938 134.820312 248.113281 136.285156 C 247.398438 137.355469 247.042969 138.65625 247.042969 140.183594 C 247.042969 140.21875 247.300781 141.160156 247.824219 143.011719 C 247.929688 143.21875 248.042969 143.414062 248.164062 143.597656 Z M 238.242188 140.621094 L 240.238281 139.746094 L 242.132812 140.183594 C 243.007812 139.730469 243.445312 139.015625 243.445312 138.039062 C 243.445312 137.355469 243.460938 136.6875 243.496094 136.039062 C 244.53125 134.902344 244.988281 133.632812 244.855469 132.234375 C 244.757812 131.421875 244.53125 130.675781 244.175781 129.992188 C 243.949219 129.601562 243.691406 129.226562 243.398438 128.871094 C 245.050781 129.457031 246.652344 130.152344 248.210938 130.96875 C 247.921875 131.226562 247.628906 131.519531 247.335938 131.84375 C 245.292969 134.054688 244.273438 136.039062 244.273438 137.792969 C 244.273438 138.183594 244.628906 139.664062 245.34375 142.234375 C 245.601562 143.242188 245.84375 144.085938 246.070312 144.769531 C 244.320312 144.605469 242.765625 144.25 241.40625 143.695312 L 241.355469 143.648438 C 241.128906 143.484375 240.917969 143.320312 240.722656 143.160156 L 238.390625 140.816406 C 238.359375 140.753906 238.308594 140.6875 238.242188 140.621094 " fill-opacity="1" fill-rule="evenodd"/><path fill="#6c341f" d="M 244.175781 129.992188 C 244.078125 130.089844 243.980469 130.1875 243.882812 130.285156 C 242.714844 131.53125 240.8125 132.289062 238.171875 132.550781 C 237.441406 132.632812 236.65625 132.675781 235.8125 132.675781 C 235.640625 132.605469 235.476562 132.539062 235.328125 132.480469 C 234.792969 132.277344 234.339844 132.117188 233.964844 131.992188 C 234.167969 131.320312 234.441406 130.703125 234.792969 130.140625 C 235.117188 129.621094 235.503906 129.148438 235.960938 128.722656 C 236.316406 128.429688 236.691406 128.15625 237.078125 127.894531 C 239.121094 126.921875 241.03125 127.066406 242.8125 128.335938 C 243.007812 128.496094 243.203125 128.675781 243.398438 128.871094 C 243.691406 129.226562 243.949219 129.601562 244.175781 129.992188 " fill-opacity="1" fill-rule="evenodd"/><path fill="#5f3f1c" d="M 250.640625 189.535156 C 250.175781 189.265625 249.722656 189.003906 249.28125 188.753906 C 249.835938 188.484375 250.402344 188.242188 250.980469 188.023438 L 251.175781 189.09375 L 250.765625 189.632812 C 250.710938 189.597656 250.671875 189.566406 250.640625 189.535156 Z M 250.738281 197.140625 C 250.878906 196.980469 251 196.800781 251.101562 196.605469 C 251.96875 196.503906 252.707031 196.144531 253.3125 195.53125 C 254.027344 194.753906 254.628906 193.890625 255.113281 192.949219 C 255.5 192.167969 255.875 191.371094 256.230469 190.558594 L 257.011719 190.21875 C 256.003906 191.972656 255.035156 193.730469 254.09375 195.484375 C 253.542969 196.460938 252.664062 197.011719 251.46875 197.140625 C 251.226562 197.132812 250.984375 197.132812 250.738281 197.140625 " fill-opacity="1" fill-rule="evenodd"/><path fill="#cde3f6" d="M 147.429688 176.511719 C 149.042969 175.285156 150.710938 174.253906 152.441406 173.417969 C 152.511719 173.386719 152.582031 173.355469 152.65625 173.320312 C 154.585938 172.40625 156.589844 171.75 158.664062 171.34375 C 158.855469 171.3125 159.050781 171.28125 159.246094 171.246094 L 210.046875 200.652344 L 210.046875 203.238281 C 209.140625 203.515625 208.25 203.847656 207.375 204.238281 C 206.667969 204.539062 205.972656 204.875 205.28125 205.238281 C 203.507812 206.191406 201.789062 207.359375 200.132812 208.75 C 198.574219 207.804688 196.859375 206.765625 194.976562 205.628906 C 184.1875 198.832031 177.25 194.476562 174.171875 192.558594 C 167.980469 189.242188 162.339844 186.058594 157.25 183 C 154.480469 181.328125 152.097656 179.804688 150.105469 178.441406 C 149.117188 177.757812 148.226562 177.117188 147.429688 176.511719 Z M 235.328125 184.585938 C 234.828125 184.835938 234.390625 185.054688 234.015625 185.242188 C 232.132812 186.1875 230.515625 187.03125 229.152344 187.78125 C 228.863281 187.617188 228.457031 187.390625 227.941406 187.097656 C 227.386719 186.773438 226.984375 186.527344 226.722656 186.363281 C 225.71875 186.949219 224.957031 187.40625 224.4375 187.730469 C 213.4375 181.335938 197.121094 171.875 175.484375 159.347656 L 183.648438 154.621094 L 235.328125 184.585938 " fill-opacity="1" fill-rule="evenodd"/><path fill="#262424" d="M 216.660156 199.433594 C 216.171875 200.214844 215.816406 200.863281 215.589844 201.382812 C 216.367188 201.808594 217.710938 202.585938 219.625 203.722656 C 221.34375 204.699219 222.6875 205.464844 223.660156 206.015625 C 224.210938 205.171875 224.957031 203.90625 225.898438 202.214844 C 222.558594 200.199219 219.851562 198.621094 217.777344 197.484375 C 217.648438 197.710938 217.273438 198.359375 216.660156 199.433594 Z M 170.621094 171.636719 C 171.042969 171.636719 171.414062 171.492188 171.738281 171.199219 C 172.03125 170.875 172.175781 170.484375 172.175781 170.027344 C 172.175781 169.574219 172.03125 169.199219 171.738281 168.90625 C 171.414062 168.582031 171.042969 168.417969 170.621094 168.417969 C 170.199219 168.417969 169.84375 168.582031 169.550781 168.90625 C 169.226562 169.199219 169.066406 169.574219 169.066406 170.027344 C 169.066406 170.484375 169.226562 170.875 169.550781 171.199219 C 169.84375 171.492188 170.199219 171.636719 170.621094 171.636719 Z M 165.226562 167.492188 C 165.226562 167.914062 165.371094 168.273438 165.664062 168.566406 C 165.953125 168.859375 166.3125 169.003906 166.730469 169.003906 C 167.152344 169.003906 167.511719 168.859375 167.800781 168.566406 C 168.09375 168.273438 168.238281 167.914062 168.238281 167.492188 C 168.238281 167.070312 168.09375 166.710938 167.800781 166.421875 C 167.511719 166.128906 167.152344 165.980469 166.730469 165.980469 C 166.3125 165.980469 165.953125 166.128906 165.664062 166.421875 C 165.371094 166.710938 165.226562 167.070312 165.226562 167.492188 Z M 161.871094 164.320312 C 161.578125 164.617188 161.433594 164.972656 161.433594 165.394531 C 161.433594 165.816406 161.578125 166.191406 161.871094 166.519531 C 162.160156 166.8125 162.519531 166.957031 162.941406 166.957031 C 163.359375 166.957031 163.71875 166.8125 164.007812 166.519531 C 164.300781 166.191406 164.445312 165.816406 164.445312 165.394531 C 164.445312 164.972656 164.300781 164.617188 164.007812 164.320312 C 163.71875 163.996094 163.359375 163.835938 162.941406 163.835938 C 162.519531 163.835938 162.160156 163.996094 161.871094 164.320312 Z M 141.5 159.105469 C 141.5 159.949219 142.132812 160.375 143.398438 160.375 C 144.304688 160.375 145.324219 158.859375 146.460938 155.835938 C 146.460938 154.148438 145.632812 153.96875 143.980469 155.300781 C 142.328125 156.636719 141.5 157.902344 141.5 159.105469 Z M 150.980469 158.371094 C 149.75 156.714844 148.550781 156.472656 147.382812 157.640625 C 147.058594 158 146.6875 158.488281 146.265625 159.105469 C 145.714844 159.886719 145.4375 160.40625 145.4375 160.664062 C 145.4375 160.828125 145.632812 161.136719 146.023438 161.589844 C 146.476562 162.175781 146.996094 162.46875 147.578125 162.46875 C 147.738281 162.46875 148.339844 161.835938 149.375 160.566406 C 150.445312 159.332031 150.980469 158.601562 150.980469 158.371094 Z M 151.125 160.226562 C 151.125 160.257812 150.851562 160.765625 150.300781 161.738281 C 149.78125 162.648438 149.523438 163.203125 149.523438 163.398438 C 149.523438 163.527344 149.734375 163.800781 150.15625 164.226562 C 150.671875 164.679688 151.125 164.90625 151.515625 164.90625 C 151.773438 164.90625 152.34375 164.242188 153.214844 162.910156 C 154.09375 161.578125 154.53125 160.796875 154.53125 160.566406 C 154.53125 159.886719 154.058594 159.414062 153.121094 159.152344 C 152.117188 158.859375 151.453125 159.21875 151.125 160.226562 Z M 137.464844 156.03125 C 138.179688 154.570312 138.910156 153.300781 139.652344 152.230469 C 140.527344 151.675781 141.046875 151.351562 141.210938 151.253906 C 141.855469 150.960938 142.441406 150.925781 142.960938 151.15625 C 146.136719 153.007812 150.929688 155.789062 157.347656 159.496094 L 157.496094 160.128906 C 157.851562 159.964844 158.304688 159.722656 158.855469 159.398438 C 184.265625 174.125 203.339844 185.160156 216.074219 192.507812 C 215.785156 192.703125 215.558594 192.898438 215.394531 193.09375 L 215.785156 193.386719 C 215.75 193.484375 215.542969 193.859375 215.152344 194.507812 C 214.859375 194.933594 214.730469 195.320312 214.761719 195.679688 C 215.085938 195.546875 215.363281 195.257812 215.589844 194.800781 C 215.882812 194.214844 216.125 193.859375 216.316406 193.730469 C 218.039062 194.671875 220.257812 195.9375 222.980469 197.53125 C 226.578125 199.613281 228.796875 200.894531 229.640625 201.382812 C 230.027344 201.578125 230.304688 201.890625 230.464844 202.3125 C 230.628906 202.703125 230.691406 203.140625 230.660156 203.628906 L 230.5625 203.238281 L 230.320312 203.285156 C 230.320312 204.003906 230.09375 204.78125 229.640625 205.628906 C 229.085938 206.570312 228.683594 207.269531 228.425781 207.722656 C 228.035156 208.40625 227.5 208.894531 226.820312 209.1875 C 226.042969 209.542969 225.347656 209.511719 224.730469 209.089844 L 141.015625 160.617188 C 140.140625 160.128906 139.492188 159.757812 139.070312 159.496094 C 138.292969 159.074219 137.742188 158.601562 137.417969 158.082031 C 137.351562 157.789062 137.335938 157.449219 137.367188 157.058594 C 137.367188 156.863281 137.398438 156.519531 137.464844 156.03125 " fill-opacity="1" fill-rule="evenodd"/><path fill="#efee0e" d="M 219.382812 199.289062 C 219.382812 199.546875 219.203125 199.972656 218.847656 200.554688 C 218.457031 201.171875 218.132812 201.480469 217.875 201.480469 C 217.453125 201.480469 217.144531 201.367188 216.949219 201.140625 C 216.820312 201.011719 216.757812 200.878906 216.757812 200.75 C 216.757812 200.261719 217.195312 199.660156 218.070312 198.945312 C 218.945312 198.199219 219.382812 198.3125 219.382812 199.289062 Z M 150.980469 158.371094 C 150.980469 158.601562 150.445312 159.332031 149.375 160.566406 C 148.339844 161.835938 147.738281 162.46875 147.578125 162.46875 C 146.996094 162.46875 146.476562 162.175781 146.023438 161.589844 C 145.632812 161.136719 145.4375 160.828125 145.4375 160.664062 C 145.4375 160.40625 145.714844 159.886719 146.265625 159.105469 C 146.6875 158.488281 147.058594 158 147.382812 157.640625 C 148.550781 156.472656 149.75 156.714844 150.980469 158.371094 " fill-opacity="1" fill-rule="evenodd"/><path fill="#b936a2" d="M 222.882812 202.703125 C 222.523438 203.351562 222.121094 203.675781 221.667969 203.675781 C 221.214844 203.675781 220.9375 203.578125 220.839844 203.386719 L 220.839844 203.089844 C 220.839844 202.246094 221.261719 201.5625 222.105469 201.042969 C 222.914062 200.554688 223.320312 200.6875 223.320312 201.433594 C 223.320312 201.757812 223.171875 202.183594 222.882812 202.703125 Z M 151.125 160.226562 C 151.453125 159.21875 152.117188 158.859375 153.121094 159.152344 C 154.058594 159.414062 154.53125 159.886719 154.53125 160.566406 C 154.53125 160.796875 154.09375 161.578125 153.214844 162.910156 C 152.34375 164.242188 151.773438 164.90625 151.515625 164.90625 C 151.125 164.90625 150.671875 164.679688 150.15625 164.226562 C 149.734375 163.800781 149.523438 163.527344 149.523438 163.398438 C 149.523438 163.203125 149.78125 162.648438 150.300781 161.738281 C 150.851562 160.765625 151.125 160.257812 151.125 160.226562 " fill-opacity="1" fill-rule="evenodd"/><path fill="#1c1a19" d="M 230.660156 203.628906 C 230.628906 204.246094 230.386719 204.960938 229.929688 205.773438 C 229.347656 206.648438 228.941406 207.316406 228.714844 207.773438 C 228.390625 208.488281 227.90625 209.058594 227.257812 209.480469 C 226.546875 209.96875 225.832031 210.082031 225.117188 209.820312 C 220.9375 207.414062 216.140625 204.636719 210.730469 201.480469 C 210.5 201.351562 210.273438 201.21875 210.046875 201.089844 L 210.046875 200.652344 L 159.246094 171.246094 C 159.050781 171.28125 158.855469 171.3125 158.664062 171.34375 C 157.890625 170.914062 156.933594 170.363281 155.792969 169.6875 C 154.171875 168.742188 153.121094 168.144531 152.632812 167.882812 C 146.25 164.175781 141.46875 161.394531 138.292969 159.542969 C 138.035156 159.414062 137.824219 159.203125 137.660156 158.910156 C 137.53125 158.683594 137.449219 158.40625 137.417969 158.082031 C 137.742188 158.601562 138.292969 159.074219 139.070312 159.496094 C 139.492188 159.757812 140.140625 160.128906 141.015625 160.617188 L 224.730469 209.089844 C 225.347656 209.511719 226.042969 209.542969 226.820312 209.1875 C 227.5 208.894531 228.035156 208.40625 228.425781 207.722656 C 228.683594 207.269531 229.085938 206.570312 229.640625 205.628906 C 230.09375 204.78125 230.320312 204.003906 230.320312 203.285156 L 230.5625 203.238281 L 230.660156 203.628906 " fill-opacity="1" fill-rule="evenodd"/><path fill="#b1b1b0" d="M 226.722656 223.574219 C 226.269531 223.539062 225.753906 223.394531 225.167969 223.132812 C 225.136719 223.101562 224.664062 222.839844 223.757812 222.351562 C 223.722656 222.222656 223.710938 222.058594 223.710938 221.867188 C 223.710938 221.183594 223.722656 220.664062 223.757812 220.304688 C 223.757812 219.71875 223.722656 219.21875 223.660156 218.792969 C 223.628906 218.597656 223.464844 218.402344 223.171875 218.207031 C 222.882812 218.015625 222.71875 217.820312 222.6875 217.625 C 222.523438 216.617188 222.589844 215.542969 222.882812 214.40625 L 223.710938 214.746094 C 223.742188 214.160156 223.742188 213.558594 223.710938 212.941406 C 223.285156 212.617188 222.734375 212.292969 222.054688 211.96875 C 222.023438 212.84375 222.023438 214.40625 222.054688 216.648438 C 222.054688 218.632812 222.039062 220.191406 222.007812 221.328125 C 219.445312 219.835938 217.535156 218.730469 216.269531 218.015625 C 213.96875 216.679688 212.039062 215.558594 210.484375 214.648438 C 210.484375 214.03125 210.484375 213.105469 210.484375 211.871094 C 210.484375 210.632812 210.46875 209.707031 210.4375 209.089844 C 210.4375 208.632812 210.4375 208.339844 210.4375 208.210938 C 210.46875 207.332031 210.484375 206.261719 210.484375 204.992188 C 210.484375 203.5625 210.484375 202.488281 210.484375 201.773438 C 212.332031 202.8125 214.75 204.210938 217.730469 205.96875 C 221.488281 208.144531 223.902344 209.542969 224.972656 210.160156 C 225.425781 210.453125 226.027344 210.453125 226.769531 210.160156 C 226.769531 211.429688 226.804688 213.574219 226.867188 216.597656 C 226.933594 219.328125 226.949219 221.460938 226.917969 222.988281 C 226.949219 223.152344 226.886719 223.34375 226.722656 223.574219 Z M 152.441406 173.417969 C 150.710938 174.253906 149.042969 175.285156 147.429688 176.511719 C 147.035156 176.8125 146.648438 177.121094 146.265625 177.441406 C 145.402344 176.941406 144.464844 176.40625 143.445312 175.832031 C 140.109375 173.914062 138.066406 172.726562 137.320312 172.273438 C 137.09375 171.785156 136.996094 171.363281 137.03125 171.003906 C 137.03125 170.027344 137.03125 167.980469 137.03125 164.859375 C 137.03125 162.292969 137.03125 160.226562 137.03125 158.664062 C 137.386719 159.285156 137.773438 159.691406 138.195312 159.886719 C 139.425781 160.601562 141.792969 161.980469 145.292969 164.03125 C 148.277344 165.753906 150.65625 167.117188 152.441406 168.125 C 152.472656 168.9375 152.472656 170.160156 152.441406 171.785156 C 152.425781 172.371094 152.425781 172.914062 152.441406 173.417969 " fill-opacity="1" fill-rule="evenodd"/><path fill="#7bd3dd" d="M 221.277344 200.164062 C 220.824219 201.921875 220.355469 202.800781 219.867188 202.800781 C 219.511719 202.800781 219.253906 202.636719 219.089844 202.3125 C 218.992188 202.148438 218.945312 201.988281 218.945312 201.824219 C 218.945312 201.628906 219.171875 201.238281 219.625 200.652344 C 220.175781 199.9375 220.726562 199.582031 221.277344 199.582031 Z M 141.5 159.105469 C 141.5 157.902344 142.328125 156.636719 143.980469 155.300781 C 145.632812 153.96875 146.460938 154.148438 146.460938 155.835938 C 145.324219 158.859375 144.304688 160.375 143.398438 160.375 C 142.132812 160.375 141.5 159.949219 141.5 159.105469 " fill-opacity="1" fill-rule="evenodd"/><path fill="#7b7c7d" d="M 210.4375 209.089844 C 210.46875 209.707031 210.484375 210.632812 210.484375 211.871094 C 210.484375 213.105469 210.484375 214.03125 210.484375 214.648438 C 212.039062 215.558594 213.96875 216.679688 216.269531 218.015625 C 217.535156 218.730469 219.445312 219.835938 222.007812 221.328125 C 222.039062 220.191406 222.054688 218.632812 222.054688 216.648438 C 222.023438 214.40625 222.023438 212.84375 222.054688 211.96875 C 222.734375 212.292969 223.285156 212.617188 223.710938 212.941406 C 223.742188 213.558594 223.742188 214.160156 223.710938 214.746094 L 222.882812 214.40625 C 222.589844 215.542969 222.523438 216.617188 222.6875 217.625 C 222.71875 217.820312 222.882812 218.015625 223.171875 218.207031 C 223.464844 218.402344 223.628906 218.597656 223.660156 218.792969 C 223.722656 219.21875 223.757812 219.71875 223.757812 220.304688 C 223.722656 220.664062 223.710938 221.183594 223.710938 221.867188 C 223.351562 222.058594 223.09375 222.222656 222.929688 222.351562 C 222.609375 222.546875 222.332031 222.566406 222.105469 222.402344 C 219.707031 220.972656 216.074219 218.859375 211.214844 216.0625 C 211.050781 215.964844 210.890625 215.769531 210.730469 215.476562 C 210.5 215.121094 210.355469 214.894531 210.289062 214.796875 C 210.421875 214.015625 210.46875 213.085938 210.4375 212.015625 L 210.386719 209.1875 Z M 137.320312 172.273438 C 138.066406 172.726562 140.109375 173.914062 143.445312 175.832031 C 144.464844 176.40625 145.402344 176.941406 146.265625 177.441406 C 146.023438 177.640625 145.78125 177.84375 145.539062 178.050781 C 142.441406 176.257812 140.007812 174.835938 138.242188 173.78125 C 137.984375 173.652344 137.773438 173.425781 137.613281 173.101562 C 137.480469 172.742188 137.386719 172.46875 137.320312 172.273438 " fill-opacity="1" fill-rule="evenodd"/><path fill="#191716" d="M 152.441406 168.125 L 152.632812 167.882812 C 152.660156 169.15625 152.667969 170.96875 152.65625 173.320312 C 152.582031 173.355469 152.511719 173.386719 152.441406 173.417969 C 152.425781 172.914062 152.425781 172.371094 152.441406 171.785156 C 152.472656 170.160156 152.472656 168.9375 152.441406 168.125 " fill-opacity="1" fill-rule="evenodd"/><path fill="#535456" d="M 158.664062 171.34375 C 156.589844 171.75 154.585938 172.40625 152.65625 173.320312 C 152.667969 170.96875 152.660156 169.15625 152.632812 167.882812 C 153.121094 168.144531 154.171875 168.742188 155.792969 169.6875 C 156.933594 170.363281 157.890625 170.914062 158.664062 171.34375 " fill-opacity="1" fill-rule="evenodd"/><path fill="#191716" d="M 206.207031 216.0625 C 207.082031 213.460938 208.476562 211.167969 210.386719 209.1875 L 210.4375 212.015625 C 210.46875 213.085938 210.421875 214.015625 210.289062 214.796875 C 209.773438 215.054688 209.089844 215.429688 208.25 215.914062 C 207.277344 216.5 206.578125 216.890625 206.160156 217.085938 C 206.160156 216.597656 206.175781 216.257812 206.207031 216.0625 Z M 167.316406 151.984375 C 168.386719 151.335938 169.988281 150.472656 172.128906 149.398438 C 174.332031 148.328125 175.953125 147.480469 176.988281 146.863281 C 177.054688 146.929688 177.183594 147.042969 177.378906 147.207031 C 177.539062 147.335938 177.65625 147.464844 177.71875 147.597656 C 177.753906 148.765625 177.765625 150.523438 177.765625 152.863281 C 177.765625 153.253906 177.671875 153.609375 177.476562 153.9375 C 177.3125 154.261719 177.085938 154.554688 176.796875 154.8125 L 173.050781 157.933594 L 168.386719 155.253906 L 167.753906 154.863281 L 168.675781 154.277344 C 168.710938 153.757812 168.722656 153.269531 168.722656 152.8125 C 168.464844 152.652344 167.996094 152.375 167.316406 151.984375 Z M 251.101562 196.605469 C 251 196.800781 250.878906 196.980469 250.738281 197.140625 C 250.664062 197.226562 250.585938 197.308594 250.496094 197.386719 C 248.875 198.75 247.660156 199.777344 246.847656 200.460938 C 246.75 200.523438 246.6875 200.621094 246.652344 200.75 C 246.625 200.816406 246.605469 200.929688 246.605469 201.089844 C 246.507812 201.9375 246.363281 203.300781 246.167969 205.1875 C 245.976562 206.976562 245.828125 208.339844 245.730469 209.285156 C 245.632812 209.871094 245.308594 210.40625 244.757812 210.894531 C 244.628906 210.992188 244.109375 211.363281 243.203125 212.015625 C 243.203125 211.265625 243.203125 208.8125 243.203125 204.652344 C 243.203125 201.660156 243.203125 199.207031 243.203125 197.289062 L 242.910156 196.65625 L 242.667969 196.265625 C 242.246094 195.515625 241.664062 194.964844 240.917969 194.605469 C 241.988281 193.988281 243.609375 193.144531 245.78125 192.070312 C 247.671875 191.105469 249.144531 190.34375 250.203125 189.777344 C 250.359375 189.691406 250.503906 189.609375 250.640625 189.535156 C 250.671875 189.566406 250.710938 189.597656 250.765625 189.632812 C 250.863281 189.726562 251 189.839844 251.175781 189.972656 C 251.371094 190.136719 251.453125 190.316406 251.417969 190.511719 L 251.417969 195.484375 C 251.417969 195.84375 251.320312 196.199219 251.125 196.558594 L 251.101562 196.605469 " fill-opacity="1" fill-rule="evenodd"/><path fill="#272525" d="M 167.316406 151.984375 C 162.03125 148.898438 158.078125 146.589844 155.453125 145.0625 C 156.75 144.445312 158.386719 143.632812 160.363281 142.621094 C 163.28125 141.128906 164.917969 140.28125 165.273438 140.085938 L 176.988281 146.863281 C 175.953125 147.480469 174.332031 148.328125 172.128906 149.398438 C 169.988281 150.472656 168.386719 151.335938 167.316406 151.984375 Z M 240.917969 194.605469 L 229.152344 187.78125 C 230.515625 187.03125 232.132812 186.1875 234.015625 185.242188 C 234.390625 185.054688 234.828125 184.835938 235.328125 184.585938 C 236.292969 184.09375 237.492188 183.484375 238.925781 182.753906 C 239.527344 183.105469 240.203125 183.496094 240.941406 183.925781 C 242.128906 184.609375 243.496094 185.398438 245.050781 186.292969 C 246.332031 187.039062 247.742188 187.859375 249.28125 188.753906 C 249.722656 189.003906 250.175781 189.265625 250.640625 189.535156 C 250.503906 189.609375 250.359375 189.691406 250.203125 189.777344 C 249.144531 190.34375 247.671875 191.105469 245.78125 192.070312 C 243.609375 193.144531 241.988281 193.988281 240.917969 194.605469 " fill-opacity="1" fill-rule="evenodd"/><path fill="#818283" d="M 167.21875 154.570312 C 163.492188 156.714844 160.703125 158.324219 158.855469 159.398438 C 158.304688 159.722656 157.851562 159.964844 157.496094 160.128906 L 157.347656 159.496094 C 158.808594 158.519531 160.6875 157.382812 162.988281 156.082031 C 164.253906 155.367188 166.164062 154.277344 168.722656 152.8125 C 168.722656 153.269531 168.710938 153.757812 168.675781 154.277344 L 167.753906 154.863281 Z M 223.757812 222.351562 C 224.664062 222.839844 225.136719 223.101562 225.167969 223.132812 C 225.753906 223.394531 226.269531 223.539062 226.722656 223.574219 C 227.109375 223.574219 227.582031 223.523438 228.132812 223.425781 C 228.199219 219.949219 228.214844 215.183594 228.183594 209.140625 C 228.503906 208.585938 228.957031 207.820312 229.542969 206.84375 C 230.160156 205.738281 230.59375 204.960938 230.855469 204.503906 C 232.25 203.722656 234.324219 202.554688 237.078125 200.992188 C 239.441406 199.628906 241.484375 198.394531 243.203125 197.289062 C 243.203125 199.207031 243.203125 201.660156 243.203125 204.652344 C 243.203125 208.8125 243.203125 211.265625 243.203125 212.015625 C 243.167969 212.46875 243.167969 213.152344 243.203125 214.0625 C 243.203125 214.875 243.042969 215.527344 242.714844 216.011719 C 241.195312 216.925781 239.230469 218.078125 236.835938 219.476562 C 233.464844 221.394531 231.484375 222.53125 230.902344 222.890625 C 230.480469 223.117188 230.238281 223.246094 230.175781 223.28125 C 229.945312 223.378906 229.671875 223.539062 229.347656 223.769531 C 228.929688 224.0625 228.652344 224.238281 228.523438 224.304688 C 227.875 224.660156 227.273438 224.792969 226.722656 224.695312 C 224.84375 224.304688 223.855469 223.523438 223.757812 222.351562 " fill-opacity="1" fill-rule="evenodd"/><path fill="#ed1d24" d="M 161.871094 164.320312 C 162.160156 163.996094 162.519531 163.835938 162.941406 163.835938 C 163.359375 163.835938 163.71875 163.996094 164.007812 164.320312 C 164.300781 164.617188 164.445312 164.972656 164.445312 165.394531 C 164.445312 165.816406 164.300781 166.191406 164.007812 166.519531 C 163.71875 166.8125 163.359375 166.957031 162.941406 166.957031 C 162.519531 166.957031 162.160156 166.8125 161.871094 166.519531 C 161.578125 166.191406 161.433594 165.816406 161.433594 165.394531 C 161.433594 164.972656 161.578125 164.617188 161.871094 164.320312 " fill-opacity="1" fill-rule="evenodd"/><path fill="#5fc232" d="M 165.226562 167.492188 C 165.226562 167.070312 165.371094 166.710938 165.664062 166.421875 C 165.953125 166.128906 166.3125 165.980469 166.730469 165.980469 C 167.152344 165.980469 167.511719 166.128906 167.800781 166.421875 C 168.09375 166.710938 168.238281 167.070312 168.238281 167.492188 C 168.238281 167.914062 168.09375 168.273438 167.800781 168.566406 C 167.511719 168.859375 167.152344 169.003906 166.730469 169.003906 C 166.3125 169.003906 165.953125 168.859375 165.664062 168.566406 C 165.371094 168.273438 165.226562 167.914062 165.226562 167.492188 " fill-opacity="1" fill-rule="evenodd"/><path fill="#767779" d="M 207.375 204.238281 C 208.25 203.847656 209.140625 203.515625 210.046875 203.238281 L 210.046875 201.089844 C 210.273438 201.21875 210.5 201.351562 210.730469 201.480469 L 210.484375 201.675781 C 210.421875 202.164062 210.386719 202.878906 210.386719 203.820312 C 210.421875 204.832031 210.421875 205.546875 210.386719 205.96875 C 209.425781 205.414062 208.421875 204.835938 207.375 204.238281 " fill-opacity="1" fill-rule="evenodd"/><path fill="#3b4ba7" d="M 170.621094 171.636719 C 170.199219 171.636719 169.84375 171.492188 169.550781 171.199219 C 169.226562 170.875 169.066406 170.484375 169.066406 170.027344 C 169.066406 169.574219 169.226562 169.199219 169.550781 168.90625 C 169.84375 168.582031 170.199219 168.417969 170.621094 168.417969 C 171.042969 168.417969 171.414062 168.582031 171.738281 168.90625 C 172.03125 169.199219 172.175781 169.574219 172.175781 170.027344 C 172.175781 170.484375 172.03125 170.875 171.738281 171.199219 C 171.414062 171.492188 171.042969 171.636719 170.621094 171.636719 " fill-opacity="1" fill-rule="evenodd"/><path fill="#232221" d="M 194.054688 215.039062 C 195.027344 213.808594 195.972656 212.714844 196.898438 211.746094 C 200.246094 213.675781 203.332031 215.457031 206.160156 217.085938 C 206.578125 216.890625 207.277344 216.5 208.25 215.914062 C 209.089844 215.429688 209.773438 215.054688 210.289062 214.796875 C 210.355469 214.894531 210.5 215.121094 210.730469 215.476562 C 210.890625 215.769531 211.050781 215.964844 211.214844 216.0625 C 216.074219 218.859375 219.707031 220.972656 222.105469 222.402344 C 222.332031 222.566406 222.609375 222.546875 222.929688 222.351562 C 223.09375 222.222656 223.351562 222.058594 223.710938 221.867188 C 223.710938 222.058594 223.722656 222.222656 223.757812 222.351562 C 223.855469 223.523438 224.84375 224.304688 226.722656 224.695312 C 227.273438 224.792969 227.875 224.660156 228.523438 224.304688 C 228.652344 224.238281 228.929688 224.0625 229.347656 223.769531 C 229.671875 223.539062 229.945312 223.378906 230.175781 223.28125 C 230.273438 224.320312 230.304688 225.703125 230.273438 227.425781 C 230.238281 229.539062 230.238281 230.902344 230.273438 231.519531 C 231.375 230.902344 232.832031 230.074219 234.648438 229.035156 C 236.820312 227.765625 238.277344 226.921875 239.023438 226.5 C 239.152344 226.433594 239.28125 226.433594 239.410156 226.5 C 239.507812 226.53125 239.636719 226.597656 239.800781 226.695312 C 240.253906 226.953125 241.015625 227.390625 242.085938 228.011719 C 243.058594 228.5625 243.820312 229.019531 244.371094 229.375 C 244.402344 229.734375 244.402344 230.042969 244.371094 230.300781 C 244.242188 230.398438 243.691406 230.726562 242.714844 231.277344 C 242.070312 231.636719 241.582031 232.007812 241.257812 232.398438 C 241.097656 232.59375 240.835938 232.722656 240.480469 232.789062 C 240.027344 232.886719 239.75 232.984375 239.65625 233.082031 C 235.085938 235.714844 228.214844 239.679688 219.042969 244.980469 C 218.816406 245.078125 218.570312 245.238281 218.3125 245.46875 C 218.019531 245.726562 217.796875 245.921875 217.632812 246.054688 C 217.082031 246.507812 216.546875 246.6875 216.027344 246.589844 C 215.640625 246.394531 215.105469 246.101562 214.421875 245.710938 C 213.679688 245.257812 213.144531 244.945312 212.820312 244.785156 C 212.007812 244.296875 211.394531 243.925781 210.972656 243.664062 L 211.019531 242.882812 C 211.214844 242.980469 211.992188 243.417969 213.355469 244.199219 C 214.292969 244.753906 215.070312 245.207031 215.6875 245.566406 C 215.71875 244.914062 215.71875 244.101562 215.6875 243.128906 L 215.6875 240.738281 C 215.980469 240.089844 216.382812 239.519531 216.902344 239.03125 C 217.421875 238.542969 218.019531 238.167969 218.703125 237.910156 C 218.992188 238.234375 219.316406 238.378906 219.675781 238.347656 C 219.996094 238.316406 220.335938 238.167969 220.695312 237.910156 C 220.757812 237.390625 220.777344 236.640625 220.742188 235.667969 C 220.742188 234.660156 220.777344 233.910156 220.839844 233.421875 C 220.9375 233.359375 221.246094 233.179688 221.765625 232.886719 C 222.121094 232.660156 222.414062 232.480469 222.636719 232.351562 C 222.152344 231.992188 221.457031 231.554688 220.546875 231.03125 C 219.511719 230.449219 218.785156 230.027344 218.359375 229.765625 L 218.703125 229.328125 C 208.148438 223.234375 199.933594 218.46875 194.054688 215.039062 " fill-opacity="1" fill-rule="evenodd"/><path fill="#8f8f8f" d="M 210.875 229.765625 L 210.875 231.421875 C 205.507812 228.320312 198.757812 224.425781 190.625 219.742188 C 190.863281 219.394531 191.097656 219.054688 191.332031 218.722656 L 209.5625 229.277344 C 209.691406 229.34375 209.902344 229.472656 210.195312 229.667969 C 210.453125 229.796875 210.679688 229.828125 210.875 229.765625 " fill-opacity="1" fill-rule="evenodd"/><path fill="#929393" d="M 210.484375 201.675781 L 210.484375 201.773438 C 210.484375 202.488281 210.484375 203.5625 210.484375 204.992188 C 210.484375 206.261719 210.46875 207.332031 210.4375 208.210938 C 208.839844 207.292969 207.121094 206.304688 205.28125 205.238281 C 205.972656 204.875 206.667969 204.539062 207.375 204.238281 C 208.421875 204.835938 209.425781 205.414062 210.386719 205.96875 C 210.421875 205.546875 210.421875 204.832031 210.386719 203.820312 C 210.386719 202.878906 210.421875 202.164062 210.484375 201.675781 " fill-opacity="1" fill-rule="evenodd"/><path fill="#cdccca" d="M 206.207031 216.0625 C 206.175781 216.257812 206.160156 216.597656 206.160156 217.085938 C 203.332031 215.457031 200.246094 213.675781 196.898438 211.746094 C 196.957031 211.6875 197.015625 211.628906 197.070312 211.578125 C 197.226562 211.414062 197.378906 211.253906 197.527344 211.089844 C 200.75 212.941406 203.640625 214.601562 206.207031 216.0625 " fill-opacity="1" fill-rule="evenodd"/><path fill="#a0a09f" d="M 228.183594 209.140625 C 228.214844 215.183594 228.199219 219.949219 228.132812 223.425781 C 227.582031 223.523438 227.109375 223.574219 226.722656 223.574219 C 226.886719 223.34375 226.949219 223.152344 226.917969 222.988281 C 226.949219 221.460938 226.933594 219.328125 226.867188 216.597656 C 226.804688 213.574219 226.769531 211.429688 226.769531 210.160156 C 227.292969 209.871094 227.757812 209.527344 228.183594 209.140625 " fill-opacity="1" fill-rule="evenodd"/><path fill="#eae9e8" d="M 230.953125 203.773438 C 230.921875 203.351562 231.097656 203.007812 231.484375 202.75 C 231.714844 202.585938 232.070312 202.375 232.558594 202.117188 C 233.203125 201.757812 234.90625 200.796875 237.660156 199.238281 C 239.734375 198.066406 241.40625 197.078125 242.667969 196.265625 L 242.910156 196.65625 C 242.878906 196.851562 242.765625 197.011719 242.570312 197.140625 C 242.539062 197.175781 242.363281 197.273438 242.035156 197.433594 C 241.066406 197.988281 239.21875 199.042969 236.496094 200.605469 C 234.195312 201.9375 232.347656 202.992188 230.953125 203.773438 " fill-opacity="1" fill-rule="evenodd"/><path fill="#cfcecd" d="M 230.855469 204.503906 C 230.886719 204.34375 230.921875 204.101562 230.953125 203.773438 C 232.347656 202.992188 234.195312 201.9375 236.496094 200.605469 C 239.21875 199.042969 241.066406 197.988281 242.035156 197.433594 C 242.363281 197.273438 242.539062 197.175781 242.570312 197.140625 C 242.765625 197.011719 242.878906 196.851562 242.910156 196.65625 L 243.203125 197.289062 C 241.484375 198.394531 239.441406 199.628906 237.078125 200.992188 C 234.324219 202.554688 232.25 203.722656 230.855469 204.503906 " fill-opacity="1" fill-rule="evenodd"/><path fill="#484849" d="M 216.660156 199.433594 C 217.273438 198.359375 217.648438 197.710938 217.777344 197.484375 C 219.851562 198.621094 222.558594 200.199219 225.898438 202.214844 C 224.957031 203.90625 224.210938 205.171875 223.660156 206.015625 C 222.6875 205.464844 221.34375 204.699219 219.625 203.722656 C 217.710938 202.585938 216.367188 201.808594 215.589844 201.382812 C 215.816406 200.863281 216.171875 200.214844 216.660156 199.433594 Z M 219.382812 199.289062 C 219.382812 198.3125 218.945312 198.199219 218.070312 198.945312 C 217.195312 199.660156 216.757812 200.261719 216.757812 200.75 C 216.757812 200.878906 216.820312 201.011719 216.949219 201.140625 C 217.144531 201.367188 217.453125 201.480469 217.875 201.480469 C 218.132812 201.480469 218.457031 201.171875 218.847656 200.554688 C 219.203125 199.972656 219.382812 199.546875 219.382812 199.289062 Z M 221.277344 200.164062 L 221.277344 199.582031 C 220.726562 199.582031 220.175781 199.9375 219.625 200.652344 C 219.171875 201.238281 218.945312 201.628906 218.945312 201.824219 C 218.945312 201.988281 218.992188 202.148438 219.089844 202.3125 C 219.253906 202.636719 219.511719 202.800781 219.867188 202.800781 C 220.355469 202.800781 220.824219 201.921875 221.277344 200.164062 Z M 222.882812 202.703125 C 223.171875 202.183594 223.320312 201.757812 223.320312 201.433594 C 223.320312 200.6875 222.914062 200.554688 222.105469 201.042969 C 221.261719 201.5625 220.839844 202.246094 220.839844 203.089844 L 220.839844 203.386719 C 220.9375 203.578125 221.214844 203.675781 221.667969 203.675781 C 222.121094 203.675781 222.523438 203.351562 222.882812 202.703125 " fill-opacity="1" fill-rule="evenodd"/><path fill="#2f2e2e" d="M 220.695312 237.910156 C 220.175781 237.519531 219.445312 237.046875 218.507812 236.496094 C 217.371094 235.878906 216.609375 235.4375 216.222656 235.179688 C 216.222656 233.261719 216.222656 231.832031 216.222656 230.886719 C 216.675781 231.113281 217.4375 231.539062 218.507812 232.15625 C 219.480469 232.742188 220.257812 233.164062 220.839844 233.421875 C 220.777344 233.910156 220.742188 234.660156 220.742188 235.667969 C 220.777344 236.640625 220.757812 237.390625 220.695312 237.910156 Z M 210.875 229.765625 C 210.90625 229.503906 211.003906 229.296875 211.167969 229.132812 C 211.328125 228.96875 211.539062 228.839844 211.796875 228.742188 L 212.285156 228.984375 C 212.285156 229.765625 212.300781 230.285156 212.332031 230.546875 C 212.820312 230.804688 213.238281 231.03125 213.597656 231.226562 C 213.5 231.519531 213.289062 231.910156 212.964844 232.398438 C 212.671875 232.917969 212.476562 233.308594 212.382812 233.570312 C 212.316406 233.925781 212.285156 234.398438 212.285156 234.984375 C 212.316406 235.765625 212.316406 236.21875 212.285156 236.347656 C 212.21875 236.542969 212.058594 236.835938 211.796875 237.226562 C 211.539062 237.617188 211.375 237.925781 211.3125 238.152344 C 211.765625 238.445312 212.496094 238.886719 213.5 239.46875 C 214.472656 240.023438 215.203125 240.445312 215.6875 240.738281 L 215.6875 243.128906 C 215.71875 244.101562 215.71875 244.914062 215.6875 245.566406 C 215.070312 245.207031 214.292969 244.753906 213.355469 244.199219 C 211.992188 243.417969 211.214844 242.980469 211.019531 242.882812 C 210.695312 242.65625 210.289062 242.414062 209.804688 242.152344 C 209.804688 241.792969 209.804688 241.355469 209.804688 240.835938 C 209.804688 240.671875 209.804688 240.445312 209.804688 240.152344 C 209.835938 239.828125 209.871094 239.601562 209.902344 239.46875 L 211.117188 240.105469 C 210.925781 239 210.839844 237.566406 210.875 235.8125 C 210.90625 233.339844 210.90625 231.878906 210.875 231.421875 L 210.875 229.765625 " fill-opacity="1" fill-rule="evenodd"/><path fill="#4a4b4c" d="M 215.6875 240.738281 C 215.203125 240.445312 214.472656 240.023438 213.5 239.46875 C 212.496094 238.886719 211.765625 238.445312 211.3125 238.152344 C 211.375 237.925781 211.539062 237.617188 211.796875 237.226562 C 212.058594 236.835938 212.21875 236.542969 212.285156 236.347656 C 212.511719 236.253906 212.832031 236.089844 213.257812 235.863281 C 213.679688 235.601562 213.984375 235.421875 214.179688 235.324219 C 214.503906 235.585938 214.859375 235.699219 215.25 235.667969 C 215.605469 235.667969 215.929688 235.503906 216.222656 235.179688 C 216.609375 235.4375 217.371094 235.878906 218.507812 236.496094 C 219.445312 237.046875 220.175781 237.519531 220.695312 237.910156 C 220.335938 238.167969 219.996094 238.316406 219.675781 238.347656 C 219.316406 238.378906 218.992188 238.234375 218.703125 237.910156 C 218.019531 238.167969 217.421875 238.542969 216.902344 239.03125 C 216.382812 239.519531 215.980469 240.089844 215.6875 240.738281 " fill-opacity="1" fill-rule="evenodd"/></svg>