<svg xmlns="http://www.w3.org/2000/svg" xmlns:xlink="http://www.w3.org/1999/xlink" width="100" zoomAndPan="magnify" viewBox="0 0 75 74.999997" height="100" preserveAspectRatio="xMidYMid meet" version="1.0"><defs><clipPath id="9777c9e56a"><path d="M 19.476562 17.203125 L 58.476562 17.203125 L 58.476562 53.953125 L 19.476562 53.953125 Z M 19.476562 17.203125 " clip-rule="nonzero"/></clipPath><clipPath id="118c1719f4"><path d="M 24 33 L 58.476562 33 L 58.476562 53.953125 L 24 53.953125 Z M 24 33 " clip-rule="nonzero"/></clipPath><clipPath id="864c06ad4f"><path d="M 43 28 L 58.476562 28 L 58.476562 34 L 43 34 Z M 43 28 " clip-rule="nonzero"/></clipPath><clipPath id="a697f1549b"><path d="M 19.476562 17.203125 L 44 17.203125 L 44 42 L 19.476562 42 Z M 19.476562 17.203125 " clip-rule="nonzero"/></clipPath><clipPath id="1e944e3359"><path d="M 56 28 L 58.476562 28 L 58.476562 34 L 56 34 Z M 56 28 " clip-rule="nonzero"/></clipPath><clipPath id="a255a6ed02"><path d="M 25 33 L 58.476562 33 L 58.476562 53.953125 L 25 53.953125 Z M 25 33 " clip-rule="nonzero"/></clipPath><clipPath id="d45fab58a9"><path d="M 19.476562 17.203125 L 58.476562 17.203125 L 58.476562 53.953125 L 19.476562 53.953125 Z M 19.476562 17.203125 " clip-rule="nonzero"/></clipPath></defs><g clip-path="url(#9777c9e56a)"><path fill="#a8dee1" d="M 55.753906 28.117188 L 52.34375 28.117188 L 52.34375 26.304688 C 52.34375 25.789062 51.929688 25.371094 51.417969 25.371094 L 50.949219 25.371094 C 50.4375 25.371094 50.023438 25.789062 50.023438 26.304688 L 50.023438 28.117188 L 43.722656 28.117188 C 42.960938 22.136719 37.914062 17.515625 31.804688 17.515625 C 25.167969 17.515625 19.792969 22.964844 19.792969 29.691406 C 19.792969 33.777344 21.777344 37.390625 24.828125 39.601562 L 24.828125 51.203125 C 24.828125 52.550781 25.910156 53.644531 27.234375 53.644531 L 55.753906 53.644531 C 57.082031 53.644531 58.160156 52.550781 58.160156 51.203125 L 58.160156 30.558594 C 58.160156 29.210938 57.082031 28.117188 55.753906 28.117188 Z M 55.753906 28.117188 " fill-opacity="1" fill-rule="nonzero"/></g><path fill="#6fceae" d="M 51.183594 39.507812 L 55.058594 39.507812 L 55.058594 43.433594 L 51.183594 43.433594 Z M 51.183594 39.507812 " fill-opacity="1" fill-rule="nonzero"/><g clip-path="url(#118c1719f4)"><path fill="#1ea6bc" d="M 58.160156 33.222656 L 58.160156 51.203125 C 58.160156 52.550781 57.082031 53.644531 55.753906 53.644531 L 27.234375 53.644531 C 25.910156 53.644531 24.828125 52.550781 24.828125 51.203125 L 24.828125 39.601562 C 25.769531 40.28125 26.8125 40.832031 27.929688 41.214844 L 27.929688 51.285156 L 55.058594 51.285156 L 55.058594 35.578125 L 42.324219 35.578125 C 42.730469 34.839844 43.058594 34.046875 43.304688 33.222656 Z M 58.160156 33.222656 " fill-opacity="1" fill-rule="nonzero"/></g><g clip-path="url(#864c06ad4f)"><path fill="#ffc05a" d="M 58.160156 30.558594 L 58.160156 33.222656 L 43.308594 33.222656 C 43.640625 32.105469 43.820312 30.917969 43.820312 29.691406 C 43.820312 29.15625 43.785156 28.632812 43.722656 28.117188 L 50.023438 28.117188 L 50.023438 29.933594 C 50.023438 30.449219 50.4375 30.867188 50.949219 30.867188 L 51.417969 30.867188 C 51.929688 30.867188 52.34375 30.449219 52.34375 29.933594 L 52.34375 28.117188 L 55.753906 28.117188 C 57.082031 28.117188 58.160156 29.210938 58.160156 30.558594 Z M 58.160156 30.558594 " fill-opacity="1" fill-rule="nonzero"/></g><path fill="#6fceae" d="M 51.183594 47.363281 L 55.058594 47.363281 L 55.058594 51.285156 L 51.183594 51.285156 Z M 51.183594 47.363281 " fill-opacity="1" fill-rule="nonzero"/><path fill="#e15c63" d="M 51.183594 43.433594 L 55.058594 43.433594 L 55.058594 47.363281 L 51.183594 47.363281 Z M 51.183594 43.433594 " fill-opacity="1" fill-rule="nonzero"/><path fill="#e7f2f1" d="M 51.183594 35.578125 L 55.058594 35.578125 L 55.058594 39.507812 L 51.183594 39.507812 Z M 51.183594 35.578125 " fill-opacity="1" fill-rule="nonzero"/><path fill="#894687" d="M 52.34375 28.117188 L 52.34375 29.933594 C 52.34375 30.449219 51.929688 30.867188 51.417969 30.867188 L 50.949219 30.867188 C 50.4375 30.867188 50.023438 30.449219 50.023438 29.933594 L 50.023438 26.304688 C 50.023438 25.789062 50.4375 25.371094 50.949219 25.371094 L 51.417969 25.371094 C 51.929688 25.371094 52.34375 25.789062 52.34375 26.304688 Z M 52.34375 28.117188 " fill-opacity="1" fill-rule="nonzero"/><path fill="#e15c63" d="M 47.308594 47.363281 L 51.183594 47.363281 L 51.183594 51.285156 L 47.308594 51.285156 Z M 47.308594 47.363281 " fill-opacity="1" fill-rule="nonzero"/><path fill="#e7f2f1" d="M 47.308594 43.433594 L 51.183594 43.433594 L 51.183594 47.363281 L 47.308594 47.363281 Z M 47.308594 43.433594 " fill-opacity="1" fill-rule="nonzero"/><path fill="#c3ddda" d="M 47.308594 39.507812 L 51.183594 39.507812 L 51.183594 43.433594 L 47.308594 43.433594 Z M 47.308594 39.507812 " fill-opacity="1" fill-rule="nonzero"/><path fill="#e15c63" d="M 47.308594 35.578125 L 51.183594 35.578125 L 51.183594 39.507812 L 47.308594 39.507812 Z M 47.308594 35.578125 " fill-opacity="1" fill-rule="nonzero"/><path fill="#e7f2f1" d="M 43.429688 47.363281 L 47.308594 47.363281 L 47.308594 51.285156 L 43.429688 51.285156 Z M 43.429688 47.363281 " fill-opacity="1" fill-rule="nonzero"/><path fill="#c3ddda" d="M 43.429688 43.433594 L 47.308594 43.433594 L 47.308594 47.363281 L 43.429688 47.363281 Z M 43.429688 43.433594 " fill-opacity="1" fill-rule="nonzero"/><path fill="#e7f2f1" d="M 43.429688 39.507812 L 47.308594 39.507812 L 47.308594 43.433594 L 43.429688 43.433594 Z M 43.429688 39.507812 " fill-opacity="1" fill-rule="nonzero"/><path fill="#c3ddda" d="M 43.429688 35.578125 L 47.308594 35.578125 L 47.308594 39.507812 L 43.429688 39.507812 Z M 43.429688 35.578125 " fill-opacity="1" fill-rule="nonzero"/><path fill="#c3ddda" d="M 39.558594 47.363281 L 43.429688 47.363281 L 43.429688 51.285156 L 39.558594 51.285156 Z M 39.558594 47.363281 " fill-opacity="1" fill-rule="nonzero"/><path fill="#e7f2f1" d="M 39.558594 43.433594 L 43.429688 43.433594 L 43.429688 47.363281 L 39.558594 47.363281 Z M 39.558594 43.433594 " fill-opacity="1" fill-rule="nonzero"/><path fill="#e15c63" d="M 39.558594 39.507812 L 43.429688 39.507812 L 43.429688 43.433594 L 39.558594 43.433594 Z M 39.558594 39.507812 " fill-opacity="1" fill-rule="nonzero"/><path fill="#e7f2f1" d="M 43.429688 35.578125 L 43.429688 39.507812 L 39.558594 39.507812 L 39.558594 38.988281 C 40.671875 38.035156 41.613281 36.882812 42.324219 35.578125 Z M 43.429688 35.578125 " fill-opacity="1" fill-rule="nonzero"/><path fill="#e15c63" d="M 39.558594 38.988281 L 39.558594 39.507812 L 38.910156 39.507812 C 39.132812 39.339844 39.351562 39.167969 39.558594 38.988281 Z M 39.558594 38.988281 " fill-opacity="1" fill-rule="nonzero"/><path fill="#e15c63" d="M 35.679688 47.363281 L 39.558594 47.363281 L 39.558594 51.285156 L 35.679688 51.285156 Z M 35.679688 47.363281 " fill-opacity="1" fill-rule="nonzero"/><path fill="#c3ddda" d="M 35.679688 43.433594 L 39.558594 43.433594 L 39.558594 47.363281 L 35.679688 47.363281 Z M 35.679688 43.433594 " fill-opacity="1" fill-rule="nonzero"/><path fill="#e7f2f1" d="M 39.558594 39.507812 L 39.558594 43.433594 L 35.679688 43.433594 L 35.679688 41.214844 C 36.851562 40.8125 37.9375 40.234375 38.910156 39.507812 Z M 39.558594 39.507812 " fill-opacity="1" fill-rule="nonzero"/><path fill="#c3ddda" d="M 31.804688 47.363281 L 35.679688 47.363281 L 35.679688 51.285156 L 31.804688 51.285156 Z M 31.804688 47.363281 " fill-opacity="1" fill-rule="nonzero"/><path fill="#e7f2f1" d="M 31.804688 43.433594 L 35.679688 43.433594 L 35.679688 47.363281 L 31.804688 47.363281 Z M 31.804688 43.433594 " fill-opacity="1" fill-rule="nonzero"/><path fill="#c3ddda" d="M 35.679688 41.214844 L 35.679688 43.433594 L 31.804688 43.433594 L 31.804688 41.859375 C 33.160156 41.859375 34.464844 41.632812 35.679688 41.214844 Z M 35.679688 41.214844 " fill-opacity="1" fill-rule="nonzero"/><path fill="#e7f2f1" d="M 27.929688 47.363281 L 31.804688 47.363281 L 31.804688 51.285156 L 27.929688 51.285156 Z M 27.929688 47.363281 " fill-opacity="1" fill-rule="nonzero"/><path fill="#e15c63" d="M 27.929688 43.433594 L 31.804688 43.433594 L 31.804688 47.363281 L 27.929688 47.363281 Z M 27.929688 43.433594 " fill-opacity="1" fill-rule="nonzero"/><path fill="#e7f2f1" d="M 31.804688 41.859375 L 31.804688 43.433594 L 27.929688 43.433594 L 27.929688 41.214844 C 29.144531 41.632812 30.449219 41.859375 31.804688 41.859375 Z M 31.804688 41.859375 " fill-opacity="1" fill-rule="nonzero"/><path fill="#604533" d="M 32.578125 29.691406 C 32.578125 29.816406 32.546875 29.941406 32.496094 30.046875 C 32.367188 30.300781 32.105469 30.476562 31.804688 30.476562 C 31.375 30.476562 31.03125 30.125 31.03125 29.691406 C 31.03125 29.382812 31.203125 29.117188 31.457031 28.988281 C 31.5625 28.9375 31.683594 28.90625 31.804688 28.90625 C 32.234375 28.90625 32.578125 29.253906 32.578125 29.691406 Z M 32.578125 29.691406 " fill-opacity="1" fill-rule="nonzero"/><g clip-path="url(#a697f1549b)"><path fill="#655f68" d="M 43.722656 28.117188 C 43.785156 28.632812 43.820312 29.15625 43.820312 29.691406 C 43.820312 30.917969 43.640625 32.105469 43.308594 33.222656 L 43.304688 33.222656 C 43.058594 34.046875 42.730469 34.839844 42.324219 35.578125 C 41.613281 36.882812 40.671875 38.035156 39.558594 38.988281 C 39.351562 39.167969 39.132812 39.339844 38.910156 39.507812 C 37.9375 40.234375 36.851562 40.8125 35.679688 41.214844 C 34.464844 41.632812 33.160156 41.859375 31.804688 41.859375 C 30.449219 41.859375 29.144531 41.632812 27.929688 41.214844 C 26.8125 40.832031 25.769531 40.28125 24.828125 39.601562 C 21.777344 37.390625 19.792969 33.777344 19.792969 29.691406 C 19.792969 22.964844 25.167969 17.515625 31.804688 17.515625 C 37.914062 17.515625 42.960938 22.136719 43.722656 28.117188 Z M 41.492188 29.691406 C 41.492188 26.976562 40.410156 24.523438 38.65625 22.75 C 36.902344 20.972656 34.484375 19.875 31.804688 19.875 C 29.128906 19.875 26.707031 20.972656 24.957031 22.75 C 23.203125 24.523438 22.117188 26.976562 22.117188 29.691406 C 22.117188 32.402344 23.203125 34.855469 24.957031 36.632812 C 26.707031 38.40625 29.128906 39.507812 31.804688 39.507812 C 34.484375 39.507812 36.902344 38.40625 38.65625 36.632812 C 40.410156 34.855469 41.492188 32.402344 41.492188 29.691406 Z M 41.492188 29.691406 " fill-opacity="1" fill-rule="nonzero"/></g><g clip-path="url(#1e944e3359)"><path fill="#f9b132" d="M 58.160156 30.558594 L 58.160156 33.222656 L 56.945312 33.222656 C 57.167969 31.8125 57.285156 30.296875 57.285156 28.675781 C 57.820312 29.125 58.160156 29.800781 58.160156 30.558594 Z M 58.160156 30.558594 " fill-opacity="1" fill-rule="nonzero"/></g><path fill="#53b79a" d="M 55.058594 39.507812 L 55.058594 43.433594 L 52.523438 43.433594 C 53.480469 42.277344 54.332031 40.96875 55.035156 39.507812 Z M 55.058594 39.507812 " fill-opacity="1" fill-rule="nonzero"/><path fill="#d6eae8" d="M 51.183594 44.902344 L 51.183594 47.363281 L 48.1875 47.363281 C 49.246094 46.640625 50.25 45.824219 51.183594 44.902344 Z M 51.183594 44.902344 " fill-opacity="1" fill-rule="nonzero"/><path fill="#d14b62" d="M 55.058594 43.433594 L 55.058594 47.363281 L 51.183594 47.363281 L 51.183594 44.902344 C 51.648438 44.441406 52.097656 43.949219 52.523438 43.433594 Z M 55.058594 43.433594 " fill-opacity="1" fill-rule="nonzero"/><path fill="#53b79a" d="M 51.183594 47.363281 L 55.058594 47.363281 L 55.058594 51.285156 L 51.183594 51.285156 Z M 51.183594 47.363281 " fill-opacity="1" fill-rule="nonzero"/><path fill="#d14b62" d="M 51.183594 47.363281 L 51.183594 51.285156 L 47.308594 51.285156 L 47.308594 47.929688 C 47.605469 47.746094 47.898438 47.558594 48.1875 47.363281 Z M 51.183594 47.363281 " fill-opacity="1" fill-rule="nonzero"/><path fill="#d6eae8" d="M 47.308594 47.929688 L 47.308594 51.285156 L 43.429688 51.285156 L 43.429688 49.886719 C 44.753906 49.34375 46.0625 48.699219 47.308594 47.929688 Z M 47.308594 47.929688 " fill-opacity="1" fill-rule="nonzero"/><path fill="#b8d3cf" d="M 43.429688 49.886719 L 43.429688 51.285156 L 39.558594 51.285156 L 39.558594 51.195312 C 40.84375 50.847656 42.148438 50.417969 43.429688 49.886719 Z M 43.429688 49.886719 " fill-opacity="1" fill-rule="nonzero"/><g clip-path="url(#a255a6ed02)"><path fill="#1498b7" d="M 43.429688 51.285156 L 55.058594 51.285156 L 55.058594 39.457031 C 55.929688 37.636719 56.582031 35.570312 56.945312 33.222656 L 58.160156 33.222656 L 58.160156 51.203125 C 58.160156 52.550781 57.082031 53.644531 55.753906 53.644531 L 27.234375 53.644531 C 26.40625 53.644531 25.675781 53.214844 25.242188 52.570312 C 25.410156 52.585938 32.03125 53.160156 39.214844 51.285156 Z M 43.429688 51.285156 " fill-opacity="1" fill-rule="nonzero"/></g><path fill="#1498b7" d="M 27.929688 43.433594 L 27.929688 43.488281 C 25.949219 42.523438 24.828125 41.304688 24.828125 41.304688 L 24.828125 39.601562 C 25.769531 40.28125 26.8125 40.832031 27.929688 41.214844 Z M 27.929688 43.433594 " fill-opacity="1" fill-rule="nonzero"/><path fill="#d14b62" d="M 31.804688 44.59375 C 30.292969 44.453125 28.988281 44.011719 27.929688 43.488281 L 27.929688 43.433594 L 31.804688 43.433594 Z M 31.804688 44.59375 " fill-opacity="1" fill-rule="nonzero"/><path fill="#d6eae8" d="M 31.804688 41.859375 L 31.804688 43.433594 L 27.929688 43.433594 L 27.929688 41.214844 C 29.144531 41.632812 30.449219 41.859375 31.804688 41.859375 Z M 31.804688 41.859375 " fill-opacity="1" fill-rule="nonzero"/><path fill="#d14b62" d="M 39.558594 38.988281 L 39.558594 39.507812 L 38.910156 39.507812 C 39.132812 39.339844 39.351562 39.167969 39.558594 38.988281 Z M 39.558594 38.988281 " fill-opacity="1" fill-rule="nonzero"/><path fill="#b8d3cf" d="M 35.679688 41.214844 L 35.679688 43.433594 L 31.804688 43.433594 L 31.804688 41.859375 C 33.160156 41.859375 34.464844 41.632812 35.679688 41.214844 Z M 35.679688 41.214844 " fill-opacity="1" fill-rule="nonzero"/><path fill="#d6eae8" d="M 35.679688 43.433594 L 35.679688 44.285156 C 34.273438 44.640625 32.980469 44.710938 31.804688 44.59375 L 31.804688 43.433594 Z M 35.679688 43.433594 " fill-opacity="1" fill-rule="nonzero"/><path fill="#b8d3cf" d="M 35.679688 43.433594 L 38.046875 43.433594 C 37.230469 43.8125 36.4375 44.089844 35.679688 44.285156 Z M 35.679688 43.433594 " fill-opacity="1" fill-rule="nonzero"/><path fill="#d6eae8" d="M 39.558594 39.507812 L 39.558594 42.640625 C 39.042969 42.945312 38.539062 43.210938 38.046875 43.433594 L 35.679688 43.433594 L 35.679688 41.214844 C 36.851562 40.8125 37.9375 40.234375 38.910156 39.507812 Z M 39.558594 39.507812 " fill-opacity="1" fill-rule="nonzero"/><path fill="#d14b62" d="M 39.558594 39.507812 L 43.15625 39.507812 C 42.535156 40.363281 41.75 41.164062 40.757812 41.859375 C 40.351562 42.144531 39.949219 42.40625 39.558594 42.640625 Z M 39.558594 39.507812 " fill-opacity="1" fill-rule="nonzero"/><path fill="#d6eae8" d="M 43.429688 35.578125 L 43.429688 39.105469 C 43.34375 39.238281 43.25 39.371094 43.15625 39.507812 L 39.558594 39.507812 L 39.558594 38.988281 C 40.671875 38.035156 41.613281 36.882812 42.324219 35.578125 Z M 43.429688 35.578125 " fill-opacity="1" fill-rule="nonzero"/><path fill="#b8d3cf" d="M 43.429688 35.578125 L 44.914062 35.578125 C 44.632812 36.769531 44.164062 37.976562 43.429688 39.105469 Z M 43.429688 35.578125 " fill-opacity="1" fill-rule="nonzero"/><path fill="#1498b7" d="M 43.308594 33.222656 L 45.273438 33.222656 C 45.214844 33.980469 45.109375 34.777344 44.914062 35.578125 L 42.324219 35.578125 C 42.730469 34.839844 43.058594 34.046875 43.304688 33.222656 Z M 43.308594 33.222656 " fill-opacity="1" fill-rule="nonzero"/><path fill="#f9b132" d="M 44.859375 28.117188 C 44.859375 28.117188 45.46875 30.382812 45.273438 33.222656 L 43.308594 33.222656 C 43.640625 32.105469 43.820312 30.917969 43.820312 29.691406 C 43.820312 29.15625 43.785156 28.632812 43.722656 28.117188 Z M 44.859375 28.117188 " fill-opacity="1" fill-rule="nonzero"/><path fill="#3a322b" d="M 24.757812 36.867188 C 26.566406 38.6875 29.058594 39.816406 31.804688 39.816406 C 34.550781 39.816406 37.042969 38.691406 38.851562 36.867188 C 38.859375 36.859375 38.867188 36.859375 38.875 36.851562 C 38.882812 36.84375 38.882812 36.835938 38.890625 36.828125 C 40.691406 34.996094 41.804688 32.472656 41.804688 29.691406 C 41.804688 26.90625 40.691406 24.382812 38.890625 22.550781 C 38.882812 22.542969 38.882812 22.535156 38.875 22.527344 C 38.867188 22.519531 38.859375 22.519531 38.851562 22.511719 C 37.042969 20.691406 34.550781 19.5625 31.804688 19.5625 C 29.058594 19.5625 26.566406 20.691406 24.757812 22.511719 C 24.75 22.519531 24.742188 22.519531 24.734375 22.527344 C 24.730469 22.535156 24.726562 22.542969 24.722656 22.550781 C 22.921875 24.382812 21.808594 26.90625 21.808594 29.691406 C 21.808594 32.472656 22.921875 34.996094 24.722656 36.828125 C 24.726562 36.835938 24.730469 36.84375 24.734375 36.851562 C 24.742188 36.859375 24.75 36.859375 24.757812 36.867188 Z M 22.433594 30 L 24.054688 30 C 24.226562 30 24.363281 29.863281 24.363281 29.6875 C 24.363281 29.515625 24.226562 29.378906 24.054688 29.378906 L 22.433594 29.378906 C 22.511719 26.992188 23.457031 24.828125 24.964844 23.199219 L 26.105469 24.355469 C 26.167969 24.417969 26.246094 24.449219 26.324219 24.449219 C 26.402344 24.449219 26.484375 24.417969 26.542969 24.355469 C 26.664062 24.234375 26.664062 24.039062 26.542969 23.917969 L 25.398438 22.757812 C 27.007812 21.230469 29.144531 20.269531 31.496094 20.191406 L 31.496094 21.835938 C 31.496094 22.007812 31.632812 22.148438 31.804688 22.148438 C 31.976562 22.148438 32.117188 22.007812 32.117188 21.835938 L 32.117188 20.191406 C 34.46875 20.269531 36.605469 21.230469 38.210938 22.753906 L 37.066406 23.917969 C 36.945312 24.039062 36.949219 24.234375 37.070312 24.355469 C 37.128906 24.417969 37.207031 24.449219 37.285156 24.449219 C 37.367188 24.449219 37.445312 24.417969 37.507812 24.355469 L 38.648438 23.199219 C 40.15625 24.828125 41.101562 26.992188 41.179688 29.378906 L 39.558594 29.378906 C 39.386719 29.378906 39.246094 29.515625 39.246094 29.6875 C 39.246094 29.863281 39.386719 30 39.558594 30 L 41.179688 30 C 41.101562 32.386719 40.15625 34.550781 38.648438 36.179688 L 37.507812 35.023438 C 37.386719 34.902344 37.191406 34.898438 37.070312 35.019531 C 36.949219 35.144531 36.945312 35.339844 37.066406 35.460938 L 38.210938 36.621094 C 36.605469 38.148438 34.46875 39.109375 32.117188 39.1875 L 32.117188 37.542969 C 32.117188 37.371094 31.976562 37.230469 31.804688 37.230469 C 31.632812 37.230469 31.496094 37.371094 31.496094 37.542969 L 31.496094 39.1875 C 29.144531 39.109375 27.007812 38.148438 25.398438 36.621094 L 26.542969 35.460938 C 26.664062 35.339844 26.664062 35.144531 26.542969 35.023438 C 26.421875 34.898438 26.226562 34.902344 26.105469 35.023438 L 24.964844 36.179688 C 23.457031 34.550781 22.511719 32.386719 22.433594 30 Z M 22.433594 30 " fill-opacity="1" fill-rule="nonzero"/><path fill="#3a322b" d="M 31.070312 28.886719 C 30.859375 29.085938 30.722656 29.371094 30.722656 29.6875 C 30.722656 30.292969 31.207031 30.785156 31.804688 30.785156 C 32.121094 30.785156 32.402344 30.644531 32.601562 30.425781 L 38.277344 32.726562 C 38.316406 32.742188 38.355469 32.75 38.394531 32.75 C 38.515625 32.75 38.632812 32.675781 38.679688 32.554688 C 38.746094 32.394531 38.667969 32.210938 38.507812 32.148438 L 32.871094 29.863281 C 32.882812 29.808594 32.890625 29.75 32.890625 29.6875 C 32.890625 29.085938 32.402344 28.59375 31.804688 28.59375 C 31.742188 28.59375 31.683594 28.601562 31.625 28.609375 L 29.761719 24.457031 C 29.691406 24.300781 29.507812 24.230469 29.351562 24.300781 C 29.195312 24.371094 29.128906 24.554688 29.199219 24.710938 Z M 32.269531 29.6875 C 32.269531 29.949219 32.0625 30.164062 31.804688 30.164062 C 31.546875 30.164062 31.339844 29.949219 31.339844 29.6875 C 31.339844 29.429688 31.546875 29.214844 31.804688 29.214844 C 32.0625 29.214844 32.269531 29.429688 32.269531 29.6875 Z M 32.269531 29.6875 " fill-opacity="1" fill-rule="nonzero"/><g clip-path="url(#d45fab58a9)"><path fill="#3a322b" d="M 55.75 27.808594 L 52.65625 27.808594 L 52.65625 26.304688 C 52.65625 25.617188 52.101562 25.058594 51.417969 25.058594 L 50.949219 25.058594 C 50.265625 25.058594 49.710938 25.617188 49.710938 26.304688 L 49.710938 27.808594 L 43.988281 27.808594 C 43.089844 21.8125 37.96875 17.203125 31.804688 17.203125 C 25.011719 17.203125 19.480469 22.804688 19.480469 29.6875 C 19.480469 33.8125 21.46875 37.476562 24.519531 39.75 L 24.519531 51.203125 C 24.519531 52.71875 25.738281 53.953125 27.238281 53.953125 L 55.75 53.953125 C 57.25 53.953125 58.46875 52.71875 58.46875 51.203125 L 58.46875 30.558594 C 58.46875 29.042969 57.25 27.808594 55.75 27.808594 Z M 50.332031 26.304688 C 50.332031 25.960938 50.609375 25.679688 50.949219 25.679688 L 51.417969 25.679688 C 51.757812 25.679688 52.035156 25.960938 52.035156 26.304688 L 52.035156 29.933594 C 52.035156 30.277344 51.757812 30.554688 51.417969 30.554688 L 50.949219 30.554688 C 50.609375 30.554688 50.332031 30.277344 50.332031 29.933594 Z M 49.710938 28.429688 L 49.710938 29.933594 C 49.710938 30.621094 50.265625 31.179688 50.949219 31.179688 L 51.417969 31.179688 C 52.101562 31.179688 52.65625 30.621094 52.65625 29.933594 L 52.65625 28.429688 L 55.75 28.429688 C 56.910156 28.429688 57.851562 29.382812 57.851562 30.558594 L 57.851562 32.910156 L 43.710938 32.910156 C 43.980469 31.882812 44.128906 30.804688 44.128906 29.6875 C 44.128906 29.265625 44.109375 28.84375 44.066406 28.429688 Z M 20.101562 29.6875 C 20.101562 23.148438 25.351562 17.828125 31.804688 17.828125 C 38.257812 17.828125 43.511719 23.148438 43.511719 29.6875 C 43.511719 36.230469 38.257812 41.550781 31.804688 41.550781 C 25.351562 41.550781 20.101562 36.230469 20.101562 29.6875 Z M 47 35.890625 L 47 39.195312 L 43.742188 39.195312 L 43.742188 35.890625 Z M 50.875 35.890625 L 50.875 39.195312 L 47.617188 39.195312 L 47.617188 35.890625 Z M 54.75 35.890625 L 54.75 39.195312 L 51.492188 39.195312 L 51.492188 35.890625 Z M 47.617188 50.976562 L 47.617188 47.671875 L 50.875 47.671875 L 50.875 50.976562 Z M 43.742188 50.976562 L 43.742188 47.671875 L 47 47.671875 L 47 50.976562 Z M 43.042969 50.976562 L 39.867188 50.976562 L 39.867188 47.671875 L 43.121094 47.671875 L 43.121094 50.976562 Z M 35.992188 50.976562 L 35.992188 47.671875 L 39.246094 47.671875 L 39.246094 50.976562 Z M 32.113281 50.976562 L 32.113281 47.671875 L 35.371094 47.671875 L 35.371094 50.976562 Z M 28.238281 50.976562 L 28.238281 47.671875 L 31.496094 47.671875 L 31.496094 50.976562 Z M 31.496094 42.164062 L 31.496094 43.121094 L 28.238281 43.121094 L 28.238281 41.636719 C 29.273438 41.957031 30.367188 42.136719 31.496094 42.164062 Z M 35.371094 41.640625 L 35.371094 43.121094 L 32.113281 43.121094 L 32.113281 42.167969 C 33.246094 42.136719 34.335938 41.957031 35.371094 41.640625 Z M 38.996094 39.816406 L 39.246094 39.816406 L 39.246094 43.121094 L 35.992188 43.121094 L 35.992188 41.429688 C 37.070312 41.035156 38.082031 40.488281 38.996094 39.816406 Z M 47 39.816406 L 47 43.121094 L 43.742188 43.121094 L 43.742188 39.816406 Z M 44.59375 47.046875 L 43.742188 47.046875 L 43.742188 43.746094 L 47 43.746094 L 47 47.046875 Z M 35.992188 47.046875 L 35.992188 43.746094 L 39.246094 43.746094 L 39.246094 47.046875 Z M 28.238281 43.746094 L 31.496094 43.746094 L 31.496094 47.046875 L 28.238281 47.046875 Z M 32.113281 43.746094 L 35.371094 43.746094 L 35.371094 47.046875 L 32.113281 47.046875 Z M 39.867188 43.746094 L 43.121094 43.746094 L 43.121094 47.046875 L 39.867188 47.046875 Z M 47.617188 43.746094 L 50.875 43.746094 L 50.875 47.046875 L 47.617188 47.046875 Z M 51.492188 43.746094 L 54.75 43.746094 L 54.75 47.046875 L 51.492188 47.046875 Z M 54.75 43.121094 L 51.492188 43.121094 L 51.492188 39.816406 L 54.75 39.816406 Z M 50.875 43.121094 L 47.617188 43.121094 L 47.617188 39.816406 L 50.875 39.816406 Z M 43.121094 43.121094 L 39.867188 43.121094 L 39.867188 39.816406 L 43.121094 39.816406 Z M 51.492188 47.671875 L 54.75 47.671875 L 54.75 50.976562 L 51.492188 50.976562 Z M 43.121094 39.195312 L 39.867188 39.195312 L 39.867188 39.121094 C 40.910156 38.203125 41.800781 37.113281 42.492188 35.890625 L 43.121094 35.890625 Z M 55.75 53.332031 L 27.238281 53.332031 C 26.082031 53.332031 25.140625 52.378906 25.140625 51.203125 L 25.140625 40.179688 C 25.910156 40.6875 26.742188 41.109375 27.621094 41.429688 L 27.621094 51.285156 C 27.621094 51.457031 27.757812 51.597656 27.929688 51.597656 L 55.058594 51.597656 C 55.230469 51.597656 55.367188 51.457031 55.367188 51.285156 L 55.367188 35.578125 C 55.367188 35.40625 55.230469 35.269531 55.058594 35.269531 L 42.824219 35.269531 C 43.101562 34.710938 43.335938 34.132812 43.527344 33.535156 L 57.851562 33.535156 L 57.851562 51.203125 C 57.851562 52.378906 56.910156 53.332031 55.75 53.332031 Z M 55.75 53.332031 " fill-opacity="1" fill-rule="nonzero"/></g></svg>