<svg xmlns="http://www.w3.org/2000/svg" xmlns:xlink="http://www.w3.org/1999/xlink" width="100" zoomAndPan="magnify" viewBox="0 0 75 74.999997" height="100" preserveAspectRatio="xMidYMid meet" version="1.0"><defs><clipPath id="71eaf1d0bf"><path d="M 14 20 L 50 20 L 50 55.046875 L 14 55.046875 Z M 14 20 " clip-rule="nonzero"/></clipPath><clipPath id="01c86bd55b"><path d="M 37 20 L 61.496094 20 L 61.496094 41 L 37 41 Z M 37 20 " clip-rule="nonzero"/></clipPath></defs><path fill="#85b27c" d="M 24.175781 31.988281 L 26.835938 29.34375 C 27.402344 28.777344 27.402344 27.863281 26.835938 27.300781 L 20.679688 21.171875 C 20.109375 20.605469 19.191406 20.605469 18.628906 21.171875 L 16.714844 23.074219 C 14.769531 25.011719 14.472656 28.035156 15.964844 30.335938 C 22.035156 39.699219 29.773438 47.402344 39.175781 53.449219 C 41.488281 54.933594 44.523438 54.640625 46.472656 52.703125 L 48.382812 50.796875 C 48.949219 50.234375 48.949219 49.320312 48.382812 48.753906 L 42.226562 42.625 C 41.660156 42.0625 40.742188 42.0625 40.175781 42.625 L 37.515625 45.273438 C 32.519531 41.390625 28.074219 36.964844 24.175781 31.988281 " fill-opacity="1" fill-rule="nonzero"/><path fill="#699b5d" d="M 47.207031 50.507812 C 45.257812 52.445312 42.222656 52.742188 39.910156 51.253906 C 30.507812 45.210938 22.769531 37.503906 16.699219 28.144531 C 15.929688 26.957031 15.640625 25.578125 15.800781 24.253906 C 14.722656 26.113281 14.746094 28.464844 15.964844 30.335938 C 22.035156 39.699219 29.773438 47.402344 39.175781 53.449219 C 41.488281 54.933594 44.523438 54.640625 46.472656 52.703125 L 48.382812 50.796875 C 48.847656 50.335938 48.925781 49.640625 48.625 49.09375 L 47.207031 50.507812 " fill-opacity="1" fill-rule="nonzero"/><path fill="#f8c460" d="M 41.460938 36.835938 L 42.929688 36.835938 L 44.398438 39.761719 L 45.867188 36.835938 L 57.621094 36.835938 C 59.246094 36.835938 60.558594 35.527344 60.558594 33.910156 L 60.558594 23.671875 C 60.558594 22.054688 59.246094 20.746094 57.621094 20.746094 L 41.460938 20.746094 C 39.839844 20.746094 38.523438 22.054688 38.523438 23.671875 L 38.523438 33.910156 C 38.523438 35.527344 39.839844 36.835938 41.460938 36.835938 " fill-opacity="1" fill-rule="nonzero"/><path fill="#faaf42" d="M 40.726562 22.941406 L 40.726562 20.851562 C 39.460938 21.179688 38.523438 22.3125 38.523438 23.671875 L 38.523438 33.910156 C 38.523438 35.527344 39.839844 36.835938 41.460938 36.835938 L 42.929688 36.835938 L 44.398438 39.761719 L 45.867188 36.835938 L 57.621094 36.835938 C 58.988281 36.835938 60.125 35.902344 60.457031 34.644531 L 52.480469 34.644531 C 45.988281 34.644531 40.726562 29.402344 40.726562 22.941406 " fill-opacity="1" fill-rule="nonzero"/><g clip-path="url(#71eaf1d0bf)"><path fill="#000000" d="M 47.863281 50.28125 L 45.953125 52.183594 C 44.269531 53.855469 41.589844 54.128906 39.574219 52.835938 C 30.304688 46.871094 22.570312 39.171875 16.582031 29.941406 C 15.28125 27.933594 15.554688 25.265625 17.234375 23.589844 L 19.144531 21.6875 C 19.28125 21.554688 19.460938 21.480469 19.652344 21.480469 C 19.84375 21.480469 20.023438 21.554688 20.160156 21.6875 L 26.316406 27.816406 C 26.59375 28.09375 26.59375 28.550781 26.316406 28.828125 L 23.65625 31.472656 C 23.394531 31.734375 23.371094 32.148438 23.597656 32.441406 C 27.511719 37.441406 32.042969 41.949219 37.0625 45.851562 C 37.355469 46.074219 37.773438 46.050781 38.035156 45.789062 L 40.691406 43.140625 C 40.972656 42.863281 41.425781 42.863281 41.707031 43.140625 L 47.863281 49.273438 C 47.996094 49.40625 48.074219 49.585938 48.074219 49.777344 C 48.074219 49.964844 47.996094 50.148438 47.863281 50.28125 Z M 42.746094 42.109375 C 41.890625 41.257812 40.507812 41.257812 39.65625 42.109375 L 37.457031 44.296875 C 32.902344 40.695312 28.773438 36.582031 25.15625 32.050781 L 27.355469 29.859375 C 28.207031 29.011719 28.207031 27.632812 27.355469 26.785156 L 21.199219 20.652344 C 20.371094 19.832031 18.929688 19.832031 18.109375 20.652344 L 16.195312 22.554688 C 14.03125 24.710938 13.675781 28.152344 15.347656 30.734375 C 21.449219 40.140625 29.332031 47.988281 38.777344 54.0625 C 39.871094 54.765625 41.117188 55.113281 42.355469 55.113281 C 44.054688 55.109375 45.738281 54.464844 46.992188 53.21875 L 48.902344 51.316406 C 49.316406 50.902344 49.542969 50.359375 49.542969 49.777344 C 49.542969 49.195312 49.316406 48.648438 48.902344 48.238281 L 42.746094 42.109375 " fill-opacity="1" fill-rule="nonzero"/></g><g clip-path="url(#01c86bd55b)"><path fill="#000000" d="M 59.824219 33.910156 C 59.824219 35.121094 58.835938 36.105469 57.621094 36.105469 L 45.867188 36.105469 C 45.589844 36.105469 45.339844 36.261719 45.210938 36.507812 L 44.398438 38.128906 L 43.589844 36.507812 C 43.460938 36.261719 43.210938 36.105469 42.929688 36.105469 L 41.460938 36.105469 C 40.246094 36.105469 39.257812 35.121094 39.257812 33.910156 L 39.257812 23.671875 C 39.257812 22.460938 40.246094 21.480469 41.460938 21.480469 L 57.621094 21.480469 C 58.835938 21.480469 59.824219 22.460938 59.824219 23.671875 Z M 57.621094 20.015625 L 41.460938 20.015625 C 39.4375 20.015625 37.789062 21.65625 37.789062 23.671875 L 37.789062 33.910156 C 37.789062 35.929688 39.4375 37.566406 41.460938 37.566406 L 42.476562 37.566406 L 43.742188 40.089844 C 43.871094 40.335938 44.121094 40.492188 44.398438 40.492188 C 44.679688 40.492188 44.929688 40.335938 45.058594 40.089844 L 46.324219 37.566406 L 57.621094 37.566406 C 59.644531 37.566406 61.292969 35.929688 61.292969 33.910156 L 61.292969 23.671875 C 61.292969 21.65625 59.644531 20.015625 57.621094 20.015625 " fill-opacity="1" fill-rule="nonzero"/></g><path fill="#000000" d="M 49.542969 22.210938 C 47.515625 22.210938 45.867188 23.851562 45.867188 25.867188 C 45.867188 26.269531 46.199219 26.597656 46.605469 26.597656 C 47.007812 26.597656 47.339844 26.269531 47.339844 25.867188 C 47.339844 24.65625 48.324219 23.671875 49.542969 23.671875 C 50.757812 23.671875 51.746094 24.65625 51.746094 25.867188 C 51.746094 26.144531 51.636719 26.402344 51.441406 26.597656 L 49.882812 28.148438 C 49.1875 28.839844 48.808594 29.757812 48.808594 30.734375 L 48.808594 31.71875 C 48.808594 32.121094 49.136719 32.449219 49.542969 32.449219 C 49.945312 32.449219 50.277344 32.121094 50.277344 31.71875 L 50.277344 30.734375 C 50.277344 30.148438 50.503906 29.597656 50.921875 29.183594 L 52.480469 27.632812 C 52.953125 27.160156 53.214844 26.53125 53.214844 25.867188 C 53.214844 23.851562 51.566406 22.210938 49.542969 22.210938 " fill-opacity="1" fill-rule="nonzero"/><path fill="#000000" d="M 49.542969 33.910156 C 49.136719 33.910156 48.808594 34.238281 48.808594 34.644531 C 48.808594 35.046875 49.136719 35.375 49.542969 35.375 C 49.945312 35.375 50.277344 35.046875 50.277344 34.644531 C 50.277344 34.238281 49.945312 33.910156 49.542969 33.910156 " fill-opacity="1" fill-rule="nonzero"/></svg>