<svg xmlns="http://www.w3.org/2000/svg" xmlns:xlink="http://www.w3.org/1999/xlink" width="100" zoomAndPan="magnify" viewBox="0 0 75 74.999997" height="100" preserveAspectRatio="xMidYMid meet" version="1.0"><defs><clipPath id="37a36e3e47"><path d="M 23.410156 40 L 54 40 L 54 55.289062 L 23.410156 55.289062 Z M 23.410156 40 " clip-rule="nonzero"/></clipPath><clipPath id="4a281cac89"><path d="M 29 50 L 30 50 L 30 55.289062 L 29 55.289062 Z M 29 50 " clip-rule="nonzero"/></clipPath><clipPath id="9c0cee0946"><path d="M 47 51 L 49 51 L 49 55.289062 L 47 55.289062 Z M 47 51 " clip-rule="nonzero"/></clipPath><clipPath id="e4170f018c"><path d="M 36 52 L 42 52 L 42 55.289062 L 36 55.289062 Z M 36 52 " clip-rule="nonzero"/></clipPath><clipPath id="064bd10551"><path d="M 29 16.289062 L 48 16.289062 L 48 28 L 29 28 Z M 29 16.289062 " clip-rule="nonzero"/></clipPath><clipPath id="3e152d2b76"><path d="M 47 41 L 60.910156 41 L 60.910156 55.289062 L 47 55.289062 Z M 47 41 " clip-rule="nonzero"/></clipPath><clipPath id="f266b38b27"><path d="M 48 42 L 60.910156 42 L 60.910156 55.289062 L 48 55.289062 Z M 48 42 " clip-rule="nonzero"/></clipPath><clipPath id="4658cad8dd"><path d="M 23.410156 40 L 55 40 L 55 55.289062 L 23.410156 55.289062 Z M 23.410156 40 " clip-rule="nonzero"/></clipPath><clipPath id="2666926caa"><path d="M 29 50 L 30 50 L 30 55.289062 L 29 55.289062 Z M 29 50 " clip-rule="nonzero"/></clipPath><clipPath id="7d33bd68a6"><path d="M 47 51 L 49 51 L 49 55.289062 L 47 55.289062 Z M 47 51 " clip-rule="nonzero"/></clipPath><clipPath id="da71dc0a6f"><path d="M 35 48 L 42 48 L 42 55.289062 L 35 55.289062 Z M 35 48 " clip-rule="nonzero"/></clipPath><clipPath id="e46a4dd00e"><path d="M 29 16.289062 L 48 16.289062 L 48 28 L 29 28 Z M 29 16.289062 " clip-rule="nonzero"/></clipPath><clipPath id="cb32537683"><path d="M 46 41 L 60.910156 41 L 60.910156 55.289062 L 46 55.289062 Z M 46 41 " clip-rule="nonzero"/></clipPath></defs><path fill="#37787f" d="M 37.933594 42.519531 L 38.808594 43.566406 L 38.804688 43.566406 Z M 37.933594 42.519531 " fill-opacity="1" fill-rule="nonzero"/><g clip-path="url(#37a36e3e47)"><path fill="#37787f" d="M 53.789062 55.0625 L 23.757812 55.0625 L 23.757812 45.164062 C 23.757812 43.375 24.8125 41.835938 26.339844 41.125 C 26.914062 40.859375 27.558594 40.707031 28.234375 40.707031 L 33.890625 40.707031 L 33.523438 41.183594 L 34.484375 45.859375 L 34.671875 46.785156 L 36.332031 45.492188 L 38.808594 43.566406 L 38.808594 43.5625 L 41.597656 45.738281 L 42.945312 46.785156 L 43.152344 45.785156 L 44.097656 41.183594 L 43.726562 40.707031 L 49.382812 40.707031 C 50.488281 40.707031 51.496094 41.105469 52.277344 41.765625 C 49.296875 42.472656 47.082031 45.140625 47.082031 48.320312 C 47.082031 49.59375 47.4375 50.785156 48.058594 51.800781 C 48.078125 51.839844 48.101562 51.878906 48.125 51.914062 C 48.15625 51.964844 48.1875 52.011719 48.222656 52.0625 C 48.320312 52.207031 48.421875 52.347656 48.53125 52.484375 C 48.648438 52.632812 48.773438 52.777344 48.902344 52.917969 C 49.164062 53.195312 49.449219 53.453125 49.757812 53.683594 C 50.878906 54.535156 52.273438 55.046875 53.789062 55.0625 Z M 53.789062 55.0625 " fill-opacity="1" fill-rule="nonzero"/></g><path fill="#468b97" d="M 37.933594 42.519531 L 38.808594 43.566406 L 38.804688 43.566406 Z M 37.933594 42.519531 " fill-opacity="1" fill-rule="nonzero"/><path fill="#468b97" d="M 48.53125 52.484375 C 48.648438 52.632812 48.773438 52.777344 48.902344 52.917969 L 48.53125 52.917969 Z M 48.53125 52.484375 " fill-opacity="1" fill-rule="nonzero"/><path fill="#468b97" d="M 52.277344 41.765625 C 49.296875 42.472656 47.082031 45.140625 47.082031 48.320312 C 47.082031 49.59375 47.4375 50.785156 48.058594 51.800781 C 47.972656 51.855469 47.914062 51.953125 47.914062 52.0625 L 47.914062 52.917969 L 30.578125 52.917969 C 30.367188 52.917969 30.15625 52.902344 29.953125 52.875 L 29.953125 50.402344 C 29.953125 50.234375 29.816406 50.09375 29.644531 50.09375 C 29.472656 50.09375 29.335938 50.234375 29.335938 50.402344 L 29.335938 52.75 C 27.363281 52.210938 25.914062 50.414062 25.914062 48.277344 L 25.914062 43.015625 C 25.914062 42.339844 26.066406 41.699219 26.339844 41.125 C 26.914062 40.859375 27.558594 40.707031 28.234375 40.707031 L 33.890625 40.707031 L 33.523438 41.183594 L 34.484375 45.859375 L 34.671875 46.785156 L 36.332031 45.492188 L 38.808594 43.566406 L 38.808594 43.5625 L 41.597656 45.738281 L 42.945312 46.785156 L 43.152344 45.785156 L 44.097656 41.183594 L 43.726562 40.707031 L 49.382812 40.707031 C 50.488281 40.707031 51.496094 41.105469 52.277344 41.765625 Z M 52.277344 41.765625 " fill-opacity="1" fill-rule="nonzero"/><g clip-path="url(#4a281cac89)"><path fill="#37787f" d="M 29.953125 50.402344 L 29.953125 55.0625 L 29.335938 55.0625 L 29.335938 50.402344 C 29.335938 50.234375 29.472656 50.09375 29.644531 50.09375 C 29.816406 50.09375 29.953125 50.234375 29.953125 50.402344 Z M 29.953125 50.402344 " fill-opacity="1" fill-rule="nonzero"/></g><g clip-path="url(#9c0cee0946)"><path fill="#37787f" d="M 48.53125 52.484375 L 48.53125 55.0625 L 47.914062 55.0625 L 47.914062 52.0625 C 47.914062 51.953125 47.972656 51.855469 48.058594 51.800781 C 48.078125 51.835938 48.097656 51.871094 48.121094 51.902344 C 48.121094 51.90625 48.125 51.910156 48.125 51.914062 C 48.132812 51.925781 48.140625 51.9375 48.148438 51.945312 C 48.148438 51.949219 48.152344 51.957031 48.15625 51.960938 C 48.15625 51.960938 48.15625 51.960938 48.15625 51.964844 C 48.179688 51.996094 48.199219 52.027344 48.222656 52.0625 C 48.320312 52.207031 48.421875 52.347656 48.53125 52.484375 Z M 48.53125 52.484375 " fill-opacity="1" fill-rule="nonzero"/></g><path fill="#164d63" d="M 38.808594 43.566406 L 36.332031 45.492188 L 34.671875 46.785156 L 34.484375 45.859375 L 33.523438 41.183594 L 33.890625 40.707031 L 34.585938 39.8125 L 35.105469 39.140625 L 37.808594 42.371094 L 37.933594 42.519531 L 38.804688 43.566406 Z M 38.808594 43.566406 " fill-opacity="1" fill-rule="nonzero"/><path fill="#1d5b79" d="M 35.136719 45.355469 L 34.484375 45.859375 L 33.523438 41.183594 L 34.585938 39.8125 L 36.589844 42.207031 C 37.148438 42.875 37.042969 43.867188 36.355469 44.402344 Z M 35.136719 45.355469 " fill-opacity="1" fill-rule="nonzero"/><path fill="#164d63" d="M 44.097656 41.183594 L 43.152344 45.785156 L 42.945312 46.785156 L 41.597656 45.738281 L 38.808594 43.566406 L 42.492188 39.121094 L 43.097656 39.898438 L 43.726562 40.707031 Z M 44.097656 41.183594 " fill-opacity="1" fill-rule="nonzero"/><path fill="#1d5b79" d="M 44.097656 41.183594 L 43.152344 45.785156 L 42.925781 45.609375 L 41.542969 44.535156 C 40.773438 43.933594 40.652344 42.820312 41.277344 42.074219 L 43.097656 39.898438 Z M 44.097656 41.183594 " fill-opacity="1" fill-rule="nonzero"/><path fill="#2b2020" d="M 41.597656 45.738281 L 41.125 46.265625 L 38.808594 48.855469 L 36.753906 46.0625 L 36.332031 45.492188 L 38.808594 43.566406 Z M 41.597656 45.738281 " fill-opacity="1" fill-rule="nonzero"/><path fill="#3f3232" d="M 41.125 46.265625 L 38.808594 48.855469 L 36.753906 46.0625 L 38.082031 45.03125 C 38.507812 44.695312 39.109375 44.695312 39.539062 45.027344 Z M 41.125 46.265625 " fill-opacity="1" fill-rule="nonzero"/><g clip-path="url(#e4170f018c)"><path fill="#2b2020" d="M 41.453125 55.0625 L 36.167969 55.0625 L 37.078125 52.917969 L 40.539062 52.917969 Z M 41.453125 55.0625 " fill-opacity="1" fill-rule="nonzero"/></g><path fill="#3f3232" d="M 40.539062 52.917969 L 37.078125 52.917969 L 38.808594 48.855469 Z M 40.539062 52.917969 " fill-opacity="1" fill-rule="nonzero"/><path fill="#f4b7a2" d="M 42.5625 38.457031 L 42.5625 39.039062 L 42.058594 39.644531 L 41.175781 40.707031 L 38.808594 43.566406 L 36.414062 40.707031 L 35.605469 39.746094 L 35.097656 39.140625 L 35.097656 38.546875 C 36.171875 39.164062 37.417969 39.515625 38.746094 39.515625 C 40.144531 39.515625 41.449219 39.128906 42.5625 38.457031 Z M 42.5625 38.457031 " fill-opacity="1" fill-rule="nonzero"/><path fill="#fac8b2" d="M 42.058594 39.644531 L 38.808594 43.566406 L 35.605469 39.746094 C 35.640625 39.582031 35.789062 39.46875 35.957031 39.46875 C 36.011719 39.46875 36.066406 39.480469 36.117188 39.507812 C 37.066406 39.953125 38.125 40.199219 39.246094 40.199219 C 40.242188 40.199219 41.191406 40 42.058594 39.644531 Z M 42.058594 39.644531 " fill-opacity="1" fill-rule="nonzero"/><path fill="#fac8b2" d="M 46.105469 26.832031 L 46.105469 32.195312 C 46.105469 34.847656 44.6875 37.171875 42.5625 38.457031 C 41.449219 39.128906 40.144531 39.515625 38.746094 39.515625 C 37.417969 39.515625 36.171875 39.164062 35.097656 38.546875 C 32.878906 37.292969 31.386719 34.914062 31.386719 32.195312 L 31.386719 26.976562 C 31.386719 22.972656 34.5625 19.597656 38.589844 19.511719 C 40.683594 19.46875 42.585938 20.296875 43.953125 21.65625 C 45.28125 22.976562 46.105469 24.808594 46.105469 26.832031 Z M 46.105469 26.832031 " fill-opacity="1" fill-rule="nonzero"/><path fill="#f4b7a2" d="M 49.09375 29.472656 C 49.09375 30.136719 48.820312 30.742188 48.382812 31.175781 C 47.996094 31.558594 47.488281 31.816406 46.914062 31.871094 C 46.832031 31.878906 46.75 31.882812 46.667969 31.882812 L 46.105469 31.882812 L 46.105469 27.058594 L 46.667969 27.058594 C 46.996094 27.058594 47.3125 27.125 47.597656 27.246094 C 48.074219 27.441406 48.472656 27.785156 48.738281 28.21875 C 48.960938 28.582031 49.09375 29.011719 49.09375 29.472656 Z M 49.09375 29.472656 " fill-opacity="1" fill-rule="nonzero"/><path fill="#fac8b2" d="M 49.09375 29.472656 C 49.09375 30.136719 48.820312 30.742188 48.382812 31.175781 C 47.996094 31.558594 47.488281 31.816406 46.914062 31.871094 L 46.914062 29.128906 C 46.914062 28.382812 47.632812 27.8125 48.351562 28.027344 C 48.375 28.035156 48.390625 28.042969 48.40625 28.050781 C 48.523438 28.097656 48.632812 28.152344 48.738281 28.21875 C 48.960938 28.582031 49.09375 29.011719 49.09375 29.472656 Z M 49.09375 29.472656 " fill-opacity="1" fill-rule="nonzero"/><path fill="#f4b7a2" d="M 31.386719 27.058594 L 31.386719 31.882812 L 30.828125 31.882812 C 30.796875 31.882812 30.761719 31.882812 30.734375 31.882812 C 29.421875 31.832031 28.300781 30.753906 28.316406 29.445312 C 28.320312 28.953125 28.472656 28.5 28.734375 28.121094 L 28.734375 28.117188 C 28.820312 27.992188 28.921875 27.875 29.027344 27.765625 C 29.261719 27.535156 29.539062 27.347656 29.851562 27.226562 C 30.125 27.117188 30.429688 27.058594 30.742188 27.058594 Z M 31.386719 27.058594 " fill-opacity="1" fill-rule="nonzero"/><path fill="#fac8b2" d="M 30.734375 29.015625 L 30.734375 31.882812 C 29.421875 31.832031 28.300781 30.753906 28.316406 29.445312 C 28.320312 28.953125 28.472656 28.5 28.734375 28.121094 L 28.734375 28.117188 C 28.878906 28.023438 29.035156 27.941406 29.199219 27.878906 C 29.214844 27.871094 29.234375 27.867188 29.253906 27.859375 C 30 27.652344 30.734375 28.242188 30.734375 29.015625 Z M 30.734375 29.015625 " fill-opacity="1" fill-rule="nonzero"/><g clip-path="url(#064bd10551)"><path fill="#3f3232" d="M 47.597656 22.5625 L 47.597656 27.246094 C 47.3125 27.125 46.996094 27.058594 46.667969 27.058594 L 46.105469 27.058594 L 46.105469 26.832031 C 46.105469 24.808594 45.28125 22.976562 43.953125 21.65625 C 42.585938 20.296875 40.683594 19.46875 38.589844 19.511719 C 34.5625 19.597656 31.386719 22.972656 31.386719 26.976562 L 31.386719 27.058594 C 31.386719 27.058594 30.742188 27.058594 30.742188 27.058594 C 30.429688 27.058594 30.125 27.117188 29.851562 27.226562 L 29.851562 21.355469 C 29.851562 18.777344 31.953125 16.6875 34.546875 16.6875 L 42.738281 16.6875 C 44.597656 16.6875 46.105469 18.1875 46.105469 20.035156 L 46.105469 21.078125 C 46.929688 21.078125 47.597656 21.742188 47.597656 22.5625 Z M 47.597656 22.5625 " fill-opacity="1" fill-rule="nonzero"/></g><g clip-path="url(#3e152d2b76)"><path fill="#76b293" d="M 60.640625 48.320312 C 60.640625 52.042969 57.605469 55.0625 53.863281 55.0625 C 53.839844 55.0625 53.8125 55.0625 53.789062 55.0625 C 52.273438 55.046875 50.878906 54.535156 49.757812 53.683594 C 49.449219 53.453125 49.164062 53.195312 48.902344 52.917969 C 48.773438 52.777344 48.648438 52.632812 48.53125 52.484375 C 48.421875 52.347656 48.320312 52.207031 48.222656 52.0625 C 48.199219 52.027344 48.175781 51.992188 48.15625 51.960938 C 48.152344 51.957031 48.148438 51.949219 48.148438 51.945312 C 48.140625 51.9375 48.132812 51.925781 48.125 51.914062 C 48.125 51.910156 48.121094 51.90625 48.121094 51.902344 C 48.097656 51.871094 48.078125 51.835938 48.058594 51.800781 C 47.4375 50.785156 47.082031 49.59375 47.082031 48.320312 C 47.082031 45.140625 49.296875 42.472656 52.277344 41.765625 C 52.785156 41.640625 53.316406 41.578125 53.863281 41.578125 C 56.0625 41.578125 58.019531 42.621094 59.257812 44.238281 C 60.125 45.371094 60.640625 46.785156 60.640625 48.320312 Z M 60.640625 48.320312 " fill-opacity="1" fill-rule="nonzero"/></g><path fill="#76b293" d="M 48.222656 52.0625 C 48.199219 52.027344 48.179688 51.996094 48.15625 51.964844 C 48.15625 51.960938 48.15625 51.960938 48.15625 51.960938 C 48.175781 51.992188 48.199219 52.027344 48.222656 52.0625 Z M 48.222656 52.0625 " fill-opacity="1" fill-rule="nonzero"/><g clip-path="url(#f266b38b27)"><path fill="#90c8ac" d="M 60.640625 48.320312 C 60.640625 52.042969 57.605469 55.0625 53.863281 55.0625 C 52.316406 55.0625 50.894531 54.550781 49.757812 53.683594 C 48.886719 52.550781 48.371094 51.136719 48.371094 49.601562 C 48.371094 45.878906 51.40625 42.859375 55.152344 42.859375 C 56.695312 42.859375 58.117188 43.375 59.257812 44.238281 C 60.125 45.371094 60.640625 46.785156 60.640625 48.320312 Z M 60.640625 48.320312 " fill-opacity="1" fill-rule="nonzero"/></g><path fill="#e5e1c6" d="M 57.042969 50.808594 L 56.792969 50.925781 L 56.359375 51.125 C 56.234375 51.183594 56.089844 51.125 56.039062 51 L 55.90625 50.679688 L 53.554688 44.949219 L 53.546875 44.929688 L 53.484375 44.777344 C 53.433594 44.660156 53.488281 44.527344 53.601562 44.472656 L 54.222656 44.179688 C 54.347656 44.121094 54.492188 44.175781 54.546875 44.300781 L 57.160156 50.503906 C 57.210938 50.621094 57.160156 50.757812 57.042969 50.808594 Z M 57.042969 50.808594 " fill-opacity="1" fill-rule="nonzero"/><path fill="#f4f2de" d="M 56.792969 50.925781 L 56.359375 51.125 C 56.234375 51.183594 56.089844 51.125 56.039062 51 L 55.90625 50.679688 L 53.554688 44.949219 C 53.59375 44.941406 53.632812 44.941406 53.675781 44.941406 C 54.023438 44.941406 54.355469 45.144531 54.5 45.484375 Z M 56.792969 50.925781 " fill-opacity="1" fill-rule="nonzero"/><path fill="#2b2020" d="M 55.90625 50.679688 C 55.753906 50.550781 55.585938 50.449219 55.410156 50.363281 C 54.183594 49.78125 52.496094 50.140625 52.496094 50.140625 L 52.378906 49.832031 L 51.8125 48.316406 L 51.644531 47.871094 L 51.535156 47.578125 C 52.792969 46.957031 53.402344 45.355469 53.546875 44.929688 Z M 55.90625 50.679688 " fill-opacity="1" fill-rule="nonzero"/><path fill="#3f3232" d="M 55.410156 50.363281 C 54.183594 49.78125 52.496094 50.140625 52.496094 50.140625 L 52.378906 49.832031 L 51.8125 48.316406 C 52.3125 47.992188 52.695312 47.511719 52.976562 47.050781 C 53.242188 46.617188 53.890625 46.664062 54.082031 47.132812 Z M 55.410156 50.363281 " fill-opacity="1" fill-rule="nonzero"/><path fill="#e5e1c6" d="M 52.378906 49.832031 L 52.03125 49.949219 L 51.386719 50.167969 L 50.4375 50.488281 C 50.398438 50.5 50.355469 50.511719 50.316406 50.519531 C 50.257812 50.53125 50.199219 50.535156 50.140625 50.535156 C 49.785156 50.535156 49.449219 50.328125 49.296875 49.988281 C 49.273438 49.925781 49.253906 49.867188 49.242188 49.804688 C 49.242188 49.804688 49.238281 49.804688 49.242188 49.804688 C 49.15625 49.40625 49.351562 48.988281 49.738281 48.800781 L 51.644531 47.871094 Z M 52.378906 49.832031 " fill-opacity="1" fill-rule="nonzero"/><path fill="#f4f2de" d="M 52.03125 49.949219 L 51.386719 50.167969 L 50.4375 50.488281 C 50.398438 50.5 50.355469 50.511719 50.316406 50.519531 C 50.257812 50.53125 50.199219 50.535156 50.140625 50.535156 C 49.785156 50.535156 49.449219 50.328125 49.296875 49.988281 C 49.273438 49.925781 49.253906 49.867188 49.242188 49.804688 C 49.242188 49.804688 49.238281 49.804688 49.242188 49.804688 C 49.328125 49.671875 49.449219 49.5625 49.601562 49.488281 L 50.789062 48.910156 C 51.175781 48.71875 51.640625 48.902344 51.789062 49.304688 Z M 52.03125 49.949219 " fill-opacity="1" fill-rule="nonzero"/><path fill="#2b2020" d="M 52.492188 52.378906 C 52.453125 52.429688 52.410156 52.472656 52.359375 52.507812 C 52.09375 52.695312 51.722656 52.625 51.542969 52.355469 L 50.5 50.796875 L 50.316406 50.519531 C 50.355469 50.511719 50.398438 50.5 50.4375 50.488281 L 51.386719 50.167969 L 52.496094 51.703125 C 52.644531 51.910156 52.636719 52.183594 52.492188 52.378906 Z M 52.492188 52.378906 " fill-opacity="1" fill-rule="nonzero"/><path fill="#3f3232" d="M 52.492188 52.378906 C 52.453125 52.429688 52.410156 52.472656 52.359375 52.507812 C 52.09375 52.695312 51.722656 52.625 51.542969 52.355469 L 50.5 50.796875 L 50.890625 50.664062 C 51.117188 50.589844 51.371094 50.667969 51.507812 50.863281 L 52.382812 52.074219 C 52.449219 52.167969 52.484375 52.273438 52.492188 52.378906 Z M 52.492188 52.378906 " fill-opacity="1" fill-rule="nonzero"/><path fill="#321526" d="M 38.769531 43.785156 C 38.679688 43.785156 38.589844 43.746094 38.53125 43.675781 L 37.660156 42.628906 C 37.550781 42.5 37.566406 42.308594 37.699219 42.199219 C 37.828125 42.089844 38.023438 42.109375 38.132812 42.238281 L 39.007812 43.28125 C 39.082031 43.375 39.101562 43.5 39.050781 43.609375 C 39 43.714844 38.890625 43.785156 38.769531 43.785156 Z M 38.769531 43.785156 " fill-opacity="1" fill-rule="nonzero"/><g clip-path="url(#4658cad8dd)"><path fill="#321526" d="M 53.75 55.28125 L 23.71875 55.28125 C 23.546875 55.28125 23.410156 55.144531 23.410156 54.976562 L 23.410156 45.078125 C 23.410156 44.15625 23.675781 43.257812 24.179688 42.488281 C 24.667969 41.738281 25.359375 41.140625 26.171875 40.761719 C 26.808594 40.464844 27.488281 40.316406 28.195312 40.316406 L 33.851562 40.316406 C 33.96875 40.316406 34.078125 40.382812 34.128906 40.488281 C 34.179688 40.59375 34.167969 40.71875 34.097656 40.808594 L 33.8125 41.175781 L 34.75 45.714844 L 34.839844 46.152344 L 36.105469 45.164062 L 38.5625 43.253906 C 38.585938 43.234375 38.609375 43.21875 38.636719 43.203125 C 38.742188 43.152344 38.867188 43.164062 38.960938 43.238281 L 41.75 45.410156 L 42.703125 46.152344 L 42.8125 45.640625 L 43.726562 41.175781 L 43.445312 40.808594 C 43.375 40.71875 43.363281 40.59375 43.414062 40.488281 C 43.464844 40.382812 43.574219 40.316406 43.691406 40.316406 L 49.34375 40.316406 C 50.476562 40.316406 51.578125 40.71875 52.4375 41.445312 C 52.527344 41.519531 52.566406 41.636719 52.539062 41.75 C 52.511719 41.863281 52.425781 41.949219 52.3125 41.976562 C 49.390625 42.671875 47.351562 45.246094 47.351562 48.234375 C 47.351562 49.515625 47.730469 50.75 48.441406 51.804688 C 48.632812 52.09375 48.851562 52.367188 49.089844 52.621094 C 49.335938 52.886719 49.613281 53.132812 49.90625 53.355469 C 51.019531 54.203125 52.351562 54.65625 53.753906 54.667969 C 53.925781 54.671875 54.058594 54.808594 54.058594 54.976562 C 54.058594 55.144531 53.921875 55.28125 53.75 55.28125 Z M 24.027344 54.667969 L 50.925781 54.667969 C 50.433594 54.449219 49.96875 54.175781 49.53125 53.84375 C 49.210938 53.601562 48.910156 53.328125 48.640625 53.039062 C 48.378906 52.761719 48.140625 52.460938 47.929688 52.144531 C 47.148438 50.988281 46.738281 49.636719 46.738281 48.234375 C 46.738281 46.621094 47.273438 45.097656 48.285156 43.839844 C 49.132812 42.785156 50.277344 41.988281 51.550781 41.558594 C 50.894531 41.148438 50.128906 40.929688 49.34375 40.929688 L 44.316406 40.929688 C 44.359375 40.996094 44.375 41.078125 44.359375 41.160156 L 43.414062 45.761719 L 43.207031 46.761719 C 43.1875 46.863281 43.113281 46.949219 43.011719 46.984375 C 42.914062 47.023438 42.800781 47.003906 42.714844 46.941406 L 41.371094 45.894531 L 38.773438 43.871094 L 36.484375 45.648438 L 34.824219 46.941406 C 34.742188 47.003906 34.628906 47.023438 34.53125 46.984375 C 34.429688 46.949219 34.355469 46.863281 34.335938 46.761719 L 34.144531 45.835938 L 33.183594 41.160156 C 33.164062 41.078125 33.183594 40.996094 33.226562 40.929688 L 28.195312 40.929688 C 27.578125 40.929688 26.988281 41.058594 26.433594 41.316406 C 24.972656 41.996094 24.027344 43.472656 24.027344 45.078125 L 24.027344 54.671875 Z M 24.027344 54.667969 " fill-opacity="1" fill-rule="nonzero"/></g><path fill="#321526" d="M 38.769531 43.785156 C 38.679688 43.785156 38.589844 43.746094 38.53125 43.675781 L 37.660156 42.628906 C 37.550781 42.5 37.566406 42.308594 37.699219 42.199219 C 37.828125 42.089844 38.023438 42.109375 38.132812 42.238281 L 39.007812 43.28125 C 39.082031 43.375 39.101562 43.5 39.050781 43.609375 C 39 43.714844 38.890625 43.785156 38.769531 43.785156 Z M 38.769531 43.785156 " fill-opacity="1" fill-rule="nonzero"/><g clip-path="url(#2666926caa)"><path fill="#321526" d="M 29.605469 55.28125 C 29.4375 55.28125 29.296875 55.144531 29.296875 54.976562 L 29.296875 50.316406 C 29.296875 50.148438 29.4375 50.011719 29.605469 50.011719 C 29.777344 50.011719 29.914062 50.148438 29.914062 50.316406 L 29.914062 54.976562 C 29.914062 55.144531 29.777344 55.28125 29.605469 55.28125 Z M 29.605469 55.28125 " fill-opacity="1" fill-rule="nonzero"/></g><g clip-path="url(#7d33bd68a6)"><path fill="#321526" d="M 48.183594 55.28125 C 48.015625 55.28125 47.875 55.144531 47.875 54.976562 L 47.875 51.976562 C 47.875 51.804688 48.015625 51.667969 48.183594 51.667969 C 48.355469 51.667969 48.492188 51.804688 48.492188 51.976562 L 48.492188 54.976562 C 48.492188 55.144531 48.355469 55.28125 48.183594 55.28125 Z M 48.183594 55.28125 " fill-opacity="1" fill-rule="nonzero"/></g><path fill="#321526" d="M 34.636719 47.003906 C 34.601562 47.003906 34.5625 47 34.53125 46.984375 C 34.429688 46.949219 34.355469 46.863281 34.335938 46.757812 L 34.144531 45.835938 L 33.183594 41.160156 C 33.164062 41.074219 33.183594 40.980469 33.238281 40.910156 L 34.824219 38.871094 C 34.882812 38.796875 34.96875 38.753906 35.0625 38.75 C 35.15625 38.75 35.246094 38.789062 35.304688 38.859375 L 38.988281 43.265625 C 39.042969 43.320312 39.078125 43.394531 39.078125 43.480469 C 39.078125 43.574219 39.035156 43.664062 38.960938 43.722656 L 36.484375 45.648438 L 34.824219 46.941406 C 34.769531 46.984375 34.703125 47.003906 34.636719 47.003906 Z M 33.8125 41.175781 L 34.75 45.714844 L 34.839844 46.152344 L 36.105469 45.164062 L 38.332031 43.433594 L 35.078125 39.546875 Z M 33.8125 41.175781 " fill-opacity="1" fill-rule="nonzero"/><path fill="#321526" d="M 42.90625 47.003906 C 42.839844 47.003906 42.773438 46.984375 42.714844 46.941406 L 41.371094 45.894531 L 38.582031 43.71875 C 38.515625 43.667969 38.472656 43.59375 38.464844 43.511719 C 38.457031 43.429688 38.480469 43.347656 38.535156 43.285156 L 42.21875 38.839844 C 42.277344 38.769531 42.367188 38.726562 42.460938 38.726562 C 42.554688 38.730469 42.640625 38.773438 42.699219 38.847656 L 43.304688 39.628906 L 44.300781 40.910156 C 44.355469 40.980469 44.378906 41.074219 44.359375 41.160156 L 43.414062 45.761719 L 43.207031 46.761719 C 43.1875 46.863281 43.113281 46.949219 43.011719 46.984375 C 42.976562 47 42.941406 47.003906 42.90625 47.003906 Z M 39.210938 43.433594 L 41.75 45.410156 L 42.703125 46.152344 L 42.8125 45.640625 L 43.726562 41.175781 L 42.449219 39.527344 Z M 39.210938 43.433594 " fill-opacity="1" fill-rule="nonzero"/><path fill="#321526" d="M 38.769531 49.074219 C 38.765625 49.074219 38.761719 49.074219 38.757812 49.074219 C 38.664062 49.070312 38.578125 49.023438 38.523438 48.949219 L 36.46875 46.15625 L 36.046875 45.589844 C 35.949219 45.453125 35.972656 45.269531 36.105469 45.164062 L 38.5625 43.253906 C 38.585938 43.234375 38.609375 43.21875 38.636719 43.207031 C 38.742188 43.152344 38.867188 43.164062 38.960938 43.238281 L 41.75 45.410156 C 41.816406 45.464844 41.859375 45.539062 41.867188 45.625 C 41.875 45.707031 41.847656 45.792969 41.789062 45.855469 L 41.316406 46.382812 L 39 48.972656 C 38.941406 49.039062 38.859375 49.074219 38.769531 49.074219 Z M 36.71875 45.464844 L 36.964844 45.792969 L 38.792969 48.28125 L 40.855469 45.976562 L 41.113281 45.691406 L 38.773438 43.871094 Z M 36.71875 45.464844 " fill-opacity="1" fill-rule="nonzero"/><g clip-path="url(#da71dc0a6f)"><path fill="#321526" d="M 41.414062 55.28125 L 36.128906 55.28125 C 36.023438 55.28125 35.929688 55.230469 35.871094 55.144531 C 35.816406 55.058594 35.804688 54.953125 35.84375 54.855469 L 38.488281 48.652344 C 38.535156 48.539062 38.648438 48.464844 38.769531 48.464844 C 38.894531 48.464844 39.007812 48.539062 39.054688 48.652344 L 40.785156 52.710938 L 41.699219 54.855469 C 41.738281 54.953125 41.730469 55.058594 41.671875 55.144531 C 41.617188 55.230469 41.519531 55.28125 41.414062 55.28125 Z M 36.59375 54.671875 L 40.949219 54.671875 L 40.21875 52.949219 L 38.769531 49.554688 Z M 36.59375 54.671875 " fill-opacity="1" fill-rule="nonzero"/></g><path fill="#321526" d="M 38.769531 43.785156 C 38.679688 43.785156 38.59375 43.746094 38.535156 43.675781 L 36.136719 40.820312 L 34.824219 39.253906 C 34.777344 39.199219 34.75 39.128906 34.75 39.058594 L 34.75 38.464844 C 34.75 38.355469 34.808594 38.253906 34.90625 38.199219 C 35 38.144531 35.117188 38.144531 35.210938 38.199219 C 36.265625 38.800781 37.476562 39.121094 38.707031 39.121094 C 40 39.121094 41.265625 38.773438 42.363281 38.109375 C 42.457031 38.050781 42.578125 38.050781 42.675781 38.105469 C 42.769531 38.160156 42.832031 38.261719 42.832031 38.371094 L 42.832031 38.953125 C 42.832031 39.023438 42.804688 39.09375 42.761719 39.148438 L 39.007812 43.675781 C 38.949219 43.746094 38.863281 43.785156 38.773438 43.785156 Z M 35.402344 38.988281 L 36.609375 40.425781 L 38.769531 43 L 40.898438 40.429688 L 42.144531 38.929688 C 41.082031 39.457031 39.90625 39.734375 38.707031 39.734375 C 37.558594 39.734375 36.425781 39.476562 35.402344 38.988281 Z M 35.402344 38.988281 " fill-opacity="1" fill-rule="nonzero"/><path fill="#321526" d="M 38.707031 39.734375 C 37.367188 39.734375 36.054688 39.386719 34.90625 38.730469 C 32.523438 37.378906 31.042969 34.839844 31.042969 32.109375 L 31.042969 26.894531 C 31.042969 24.867188 31.8125 22.945312 33.21875 21.476562 C 34.632812 20 36.523438 19.164062 38.542969 19.121094 C 40.65625 19.078125 42.640625 19.871094 44.132812 21.351562 C 45.578125 22.792969 46.375 24.707031 46.375 26.746094 L 46.375 32.109375 C 46.375 33.441406 46.023438 34.757812 45.359375 35.90625 C 44.714844 37.023438 43.789062 37.964844 42.683594 38.632812 C 41.488281 39.355469 40.113281 39.734375 38.707031 39.734375 Z M 38.710938 19.734375 C 38.660156 19.734375 38.609375 19.734375 38.558594 19.734375 C 34.753906 19.8125 31.65625 23.023438 31.65625 26.894531 L 31.65625 32.109375 C 31.65625 34.621094 33.019531 36.953125 35.210938 38.195312 C 36.265625 38.800781 37.476562 39.121094 38.707031 39.121094 C 40 39.121094 41.265625 38.773438 42.363281 38.109375 C 44.492188 36.824219 45.761719 34.582031 45.761719 32.109375 L 45.761719 26.746094 C 45.761719 24.871094 45.027344 23.109375 43.695312 21.785156 C 42.363281 20.457031 40.597656 19.730469 38.710938 19.730469 Z M 38.710938 19.734375 " fill-opacity="1" fill-rule="nonzero"/><path fill="#321526" d="M 46.628906 32.105469 L 46.070312 32.105469 C 45.898438 32.105469 45.761719 31.96875 45.761719 31.800781 L 45.761719 26.972656 C 45.761719 26.804688 45.898438 26.667969 46.070312 26.667969 L 46.628906 26.667969 C 47 26.667969 47.351562 26.738281 47.683594 26.878906 C 48.207031 27.09375 48.664062 27.484375 48.964844 27.972656 C 49.222656 28.394531 49.363281 28.882812 49.363281 29.386719 C 49.363281 30.113281 49.078125 30.796875 48.5625 31.308594 C 48.117188 31.75 47.527344 32.03125 46.90625 32.089844 C 46.800781 32.101562 46.714844 32.105469 46.628906 32.105469 Z M 46.375 31.492188 L 46.628906 31.492188 C 46.695312 31.492188 46.765625 31.488281 46.847656 31.480469 C 47.332031 31.433594 47.777344 31.222656 48.128906 30.875 C 48.527344 30.476562 48.746094 29.949219 48.746094 29.386719 C 48.746094 28.996094 48.640625 28.617188 48.4375 28.292969 C 48.203125 27.910156 47.851562 27.609375 47.445312 27.441406 C 47.1875 27.335938 46.914062 27.28125 46.628906 27.28125 L 46.375 27.28125 Z M 46.375 31.492188 " fill-opacity="1" fill-rule="nonzero"/><path fill="#321526" d="M 31.347656 32.105469 L 30.789062 32.105469 C 30.753906 32.105469 30.714844 32.105469 30.675781 32.101562 C 29.960938 32.074219 29.285156 31.777344 28.773438 31.265625 C 28.246094 30.746094 27.960938 30.066406 27.972656 29.355469 C 27.976562 28.828125 28.132812 28.320312 28.425781 27.886719 C 28.433594 27.875 28.4375 27.867188 28.441406 27.859375 C 28.539062 27.722656 28.648438 27.589844 28.769531 27.464844 C 29.035156 27.199219 29.355469 26.992188 29.703125 26.855469 C 30.015625 26.730469 30.355469 26.667969 30.703125 26.667969 L 31.347656 26.667969 C 31.519531 26.667969 31.65625 26.804688 31.65625 26.972656 L 31.65625 31.800781 C 31.65625 31.96875 31.519531 32.105469 31.347656 32.105469 Z M 28.964844 28.183594 C 28.960938 28.195312 28.957031 28.199219 28.949219 28.207031 C 28.714844 28.546875 28.589844 28.945312 28.585938 29.363281 C 28.574219 30.472656 29.542969 31.445312 30.707031 31.492188 C 30.710938 31.492188 30.714844 31.492188 30.71875 31.492188 C 30.738281 31.492188 30.761719 31.492188 30.789062 31.492188 L 31.042969 31.492188 L 31.042969 27.28125 L 30.703125 27.28125 C 30.4375 27.28125 30.167969 27.332031 29.929688 27.425781 C 29.660156 27.53125 29.410156 27.691406 29.207031 27.894531 C 29.117188 27.988281 29.035156 28.085938 28.964844 28.183594 Z M 28.964844 28.183594 " fill-opacity="1" fill-rule="nonzero"/><g clip-path="url(#e46a4dd00e)"><path fill="#321526" d="M 47.5625 27.464844 C 47.519531 27.464844 47.480469 27.457031 47.441406 27.441406 C 47.1875 27.335938 46.914062 27.28125 46.628906 27.28125 L 46.070312 27.28125 C 45.898438 27.28125 45.761719 27.144531 45.761719 26.972656 L 45.761719 26.746094 C 45.761719 24.871094 45.027344 23.109375 43.695312 21.785156 C 42.324219 20.421875 40.5 19.695312 38.558594 19.734375 C 34.753906 19.8125 31.65625 23.023438 31.65625 26.894531 L 31.65625 26.972656 C 31.65625 27.144531 31.519531 27.28125 31.347656 27.28125 L 30.703125 27.28125 C 30.4375 27.28125 30.167969 27.332031 29.929688 27.425781 C 29.832031 27.464844 29.726562 27.453125 29.640625 27.394531 C 29.558594 27.339844 29.507812 27.242188 29.507812 27.140625 L 29.507812 21.269531 C 29.507812 18.527344 31.75 16.292969 34.511719 16.292969 L 42.699219 16.292969 C 44.726562 16.292969 46.375 17.933594 46.375 19.949219 L 46.375 20.710938 C 47.222656 20.859375 47.871094 21.59375 47.871094 22.476562 L 47.871094 27.160156 C 47.871094 27.261719 47.816406 27.359375 47.730469 27.414062 C 47.679688 27.449219 47.621094 27.464844 47.5625 27.464844 Z M 46.375 26.667969 L 46.628906 26.667969 C 46.84375 26.667969 47.050781 26.691406 47.253906 26.738281 L 47.253906 22.476562 C 47.253906 21.828125 46.722656 21.300781 46.070312 21.300781 C 45.898438 21.300781 45.761719 21.160156 45.761719 20.992188 L 45.761719 19.949219 C 45.761719 18.273438 44.386719 16.90625 42.699219 16.90625 L 34.511719 16.90625 C 32.089844 16.90625 30.121094 18.863281 30.121094 21.269531 L 30.121094 26.730469 C 30.3125 26.6875 30.507812 26.667969 30.703125 26.667969 L 31.042969 26.667969 C 31.097656 24.726562 31.867188 22.890625 33.21875 21.476562 C 34.632812 20 36.523438 19.164062 38.542969 19.121094 C 40.65625 19.078125 42.640625 19.871094 44.132812 21.351562 C 45.558594 22.773438 46.355469 24.660156 46.375 26.667969 Z M 46.375 26.667969 " fill-opacity="1" fill-rule="nonzero"/></g><g clip-path="url(#cb32537683)"><path fill="#321526" d="M 53.824219 55.28125 C 53.796875 55.28125 53.773438 55.28125 53.746094 55.28125 C 52.207031 55.265625 50.75 54.769531 49.53125 53.84375 C 49.210938 53.601562 48.910156 53.328125 48.640625 53.039062 C 48.378906 52.761719 48.140625 52.460938 47.929688 52.144531 C 47.148438 50.988281 46.738281 49.636719 46.738281 48.234375 C 46.738281 46.621094 47.273438 45.097656 48.285156 43.839844 C 49.265625 42.617188 50.644531 41.742188 52.167969 41.378906 C 52.703125 41.253906 53.261719 41.1875 53.824219 41.1875 C 54.949219 41.1875 56.023438 41.441406 57.019531 41.945312 C 57.972656 42.421875 58.816406 43.121094 59.464844 43.96875 C 60.410156 45.203125 60.910156 46.679688 60.910156 48.234375 C 60.910156 52.121094 57.730469 55.28125 53.824219 55.28125 Z M 53.824219 41.800781 C 53.308594 41.800781 52.800781 41.859375 52.3125 41.976562 C 49.390625 42.671875 47.351562 45.246094 47.351562 48.234375 C 47.351562 49.515625 47.730469 50.75 48.441406 51.804688 C 48.632812 52.09375 48.851562 52.367188 49.089844 52.621094 C 49.335938 52.886719 49.613281 53.132812 49.90625 53.355469 C 51.019531 54.203125 52.351562 54.65625 53.753906 54.667969 C 53.757812 54.667969 53.757812 54.667969 53.761719 54.671875 C 53.78125 54.671875 53.804688 54.671875 53.824219 54.671875 C 57.390625 54.671875 60.292969 51.785156 60.292969 48.234375 C 60.292969 46.8125 59.839844 45.464844 58.972656 44.339844 C 57.738281 42.726562 55.859375 41.800781 53.824219 41.800781 Z M 53.824219 41.800781 " fill-opacity="1" fill-rule="nonzero"/></g><path fill="#321526" d="M 56.222656 51.367188 C 56.152344 51.367188 56.085938 51.355469 56.019531 51.332031 C 55.882812 51.277344 55.769531 51.167969 55.714844 51.03125 L 55.585938 50.710938 L 53.160156 44.808594 C 53.050781 44.539062 53.171875 44.234375 53.429688 44.109375 L 54.054688 43.816406 C 54.1875 43.753906 54.34375 43.75 54.480469 43.800781 C 54.621094 43.851562 54.734375 43.960938 54.789062 44.097656 L 57.40625 50.296875 C 57.519531 50.570312 57.402344 50.878906 57.132812 51.003906 L 56.453125 51.316406 C 56.378906 51.351562 56.300781 51.367188 56.222656 51.367188 Z M 53.753906 44.636719 L 53.800781 44.746094 L 56.15625 50.480469 L 56.257812 50.730469 L 56.816406 50.476562 L 54.25 44.402344 Z M 57.003906 50.726562 Z M 56.875 50.449219 Z M 54.316406 44.371094 Z M 54.316406 44.371094 " fill-opacity="1" fill-rule="nonzero"/><path fill="#321526" d="M 55.871094 50.902344 C 55.796875 50.902344 55.726562 50.878906 55.671875 50.828125 C 55.546875 50.722656 55.398438 50.628906 55.238281 50.554688 C 54.121094 50.023438 52.539062 50.351562 52.523438 50.355469 C 52.371094 50.386719 52.222656 50.304688 52.167969 50.164062 L 51.207031 47.601562 C 51.152344 47.453125 51.21875 47.289062 51.359375 47.21875 C 52.527344 46.640625 53.113281 45.058594 53.21875 44.746094 C 53.257812 44.625 53.371094 44.542969 53.5 44.539062 C 53.628906 44.535156 53.746094 44.609375 53.792969 44.730469 L 56.15625 50.480469 C 56.207031 50.609375 56.164062 50.761719 56.050781 50.84375 C 55.996094 50.882812 55.933594 50.902344 55.871094 50.902344 Z M 53.640625 49.636719 C 54.136719 49.636719 54.714844 49.695312 55.25 49.894531 L 53.507812 45.65625 C 53.203125 46.292969 52.679688 47.136719 51.875 47.632812 L 52.65625 49.710938 C 52.882812 49.675781 53.234375 49.636719 53.640625 49.636719 Z M 53.640625 49.636719 " fill-opacity="1" fill-rule="nonzero"/><path fill="#321526" d="M 50.105469 50.757812 C 49.617188 50.757812 49.175781 50.46875 48.980469 50.023438 C 48.945312 49.953125 48.921875 49.875 48.90625 49.796875 C 48.902344 49.785156 48.898438 49.773438 48.898438 49.761719 C 48.796875 49.222656 49.066406 48.683594 49.5625 48.441406 L 51.46875 47.511719 C 51.546875 47.472656 51.636719 47.46875 51.71875 47.5 C 51.800781 47.53125 51.863281 47.597656 51.894531 47.675781 L 52.628906 49.636719 C 52.65625 49.714844 52.65625 49.800781 52.617188 49.875 C 52.582031 49.953125 52.519531 50.007812 52.4375 50.035156 L 51.445312 50.371094 L 50.5 50.691406 C 50.433594 50.710938 50.382812 50.726562 50.332031 50.734375 C 50.257812 50.75 50.183594 50.757812 50.105469 50.757812 Z M 49.503906 49.664062 C 49.515625 49.703125 49.527344 49.742188 49.542969 49.777344 C 49.640625 50 49.859375 50.144531 50.105469 50.144531 C 50.140625 50.144531 50.179688 50.140625 50.214844 50.132812 C 50.21875 50.132812 50.222656 50.132812 50.226562 50.132812 C 50.246094 50.128906 50.273438 50.121094 50.304688 50.109375 L 51.941406 49.554688 L 51.433594 48.207031 L 49.835938 48.988281 C 49.582031 49.113281 49.449219 49.386719 49.503906 49.65625 C 49.503906 49.660156 49.503906 49.664062 49.503906 49.664062 Z M 49.503906 49.664062 " fill-opacity="1" fill-rule="nonzero"/><path fill="#321526" d="M 51.988281 52.835938 C 51.933594 52.835938 51.878906 52.828125 51.824219 52.820312 C 51.585938 52.773438 51.382812 52.640625 51.25 52.441406 L 50.019531 50.601562 C 49.960938 50.515625 49.953125 50.40625 49.996094 50.3125 C 50.035156 50.214844 50.125 50.148438 50.226562 50.132812 C 50.246094 50.128906 50.273438 50.121094 50.304688 50.109375 L 51.246094 49.792969 C 51.375 49.746094 51.519531 49.792969 51.597656 49.902344 L 52.707031 51.441406 C 52.929688 51.75 52.929688 52.167969 52.699219 52.476562 C 52.644531 52.550781 52.574219 52.617188 52.496094 52.671875 C 52.347656 52.777344 52.171875 52.835938 51.988281 52.835938 Z M 52.453125 52.292969 Z M 50.761719 50.601562 L 51.761719 52.101562 C 51.804688 52.164062 51.867188 52.203125 51.9375 52.214844 C 52.011719 52.230469 52.082031 52.214844 52.144531 52.171875 C 52.167969 52.15625 52.1875 52.136719 52.203125 52.113281 C 52.273438 52.019531 52.273438 51.890625 52.207031 51.796875 L 51.230469 50.445312 Z M 50.761719 50.601562 " fill-opacity="1" fill-rule="nonzero"/></svg>