<svg xmlns="http://www.w3.org/2000/svg" xmlns:xlink="http://www.w3.org/1999/xlink" width="300" zoomAndPan="magnify" viewBox="0 0 224.87999 37.5" height="50" preserveAspectRatio="xMidYMid meet" version="1.0"><defs><g/></defs><g fill="#ffffff" fill-opacity="1"><g transform="translate(35.075081, 28.77666)"><g><path d="M 8.296875 -14.078125 C 7.742188 -14.078125 7.296875 -13.914062 6.953125 -13.59375 C 6.617188 -13.269531 6.453125 -12.753906 6.453125 -12.046875 L 6.453125 -11.8125 L 9.890625 -11.8125 C 9.921875 -11.6875 9.945312 -11.519531 9.96875 -11.3125 C 9.988281 -11.113281 10 -10.925781 10 -10.75 C 10 -10.1875 9.957031 -9.765625 9.875 -9.484375 C 9.789062 -9.203125 9.632812 -9.003906 9.40625 -8.890625 C 9.1875 -8.785156 8.863281 -8.734375 8.4375 -8.734375 L 6.453125 -8.734375 L 6.453125 0.09375 C 6.242188 0.125 6 0.148438 5.71875 0.171875 C 5.4375 0.191406 5.1875 0.203125 4.96875 0.203125 C 4.351562 0.203125 3.867188 0.140625 3.515625 0.015625 C 3.171875 -0.0976562 2.921875 -0.3125 2.765625 -0.625 C 2.617188 -0.9375 2.546875 -1.390625 2.546875 -1.984375 L 2.546875 -8.734375 L 0.375 -8.734375 C 0.34375 -8.867188 0.316406 -9.035156 0.296875 -9.234375 C 0.285156 -9.441406 0.28125 -9.640625 0.28125 -9.828125 C 0.28125 -10.378906 0.320312 -10.789062 0.40625 -11.0625 C 0.488281 -11.34375 0.640625 -11.535156 0.859375 -11.640625 C 1.085938 -11.753906 1.414062 -11.8125 1.84375 -11.8125 L 2.546875 -11.8125 C 2.554688 -13.613281 3.015625 -14.960938 3.921875 -15.859375 C 4.835938 -16.765625 6.085938 -17.21875 7.671875 -17.21875 C 8.179688 -17.21875 8.644531 -17.175781 9.0625 -17.09375 C 9.476562 -17.007812 9.832031 -16.878906 10.125 -16.703125 C 10.601562 -16.460938 10.84375 -16.0625 10.84375 -15.5 C 10.84375 -15.195312 10.78125 -14.878906 10.65625 -14.546875 C 10.53125 -14.210938 10.34375 -13.898438 10.09375 -13.609375 C 9.863281 -13.742188 9.59375 -13.851562 9.28125 -13.9375 C 8.96875 -14.03125 8.640625 -14.078125 8.296875 -14.078125 Z M 8.296875 -14.078125 "/></g></g></g><g fill="#ffffff" fill-opacity="1"><g transform="translate(45.890175, 28.77666)"><g><path d="M 8.296875 -14.078125 C 7.742188 -14.078125 7.296875 -13.914062 6.953125 -13.59375 C 6.617188 -13.269531 6.453125 -12.753906 6.453125 -12.046875 L 6.453125 -11.8125 L 9.890625 -11.8125 C 9.921875 -11.6875 9.945312 -11.519531 9.96875 -11.3125 C 9.988281 -11.113281 10 -10.925781 10 -10.75 C 10 -10.1875 9.957031 -9.765625 9.875 -9.484375 C 9.789062 -9.203125 9.632812 -9.003906 9.40625 -8.890625 C 9.1875 -8.785156 8.863281 -8.734375 8.4375 -8.734375 L 6.453125 -8.734375 L 6.453125 0.09375 C 6.242188 0.125 6 0.148438 5.71875 0.171875 C 5.4375 0.191406 5.1875 0.203125 4.96875 0.203125 C 4.351562 0.203125 3.867188 0.140625 3.515625 0.015625 C 3.171875 -0.0976562 2.921875 -0.3125 2.765625 -0.625 C 2.617188 -0.9375 2.546875 -1.390625 2.546875 -1.984375 L 2.546875 -8.734375 L 0.375 -8.734375 C 0.34375 -8.867188 0.316406 -9.035156 0.296875 -9.234375 C 0.285156 -9.441406 0.28125 -9.640625 0.28125 -9.828125 C 0.28125 -10.378906 0.320312 -10.789062 0.40625 -11.0625 C 0.488281 -11.34375 0.640625 -11.535156 0.859375 -11.640625 C 1.085938 -11.753906 1.414062 -11.8125 1.84375 -11.8125 L 2.546875 -11.8125 C 2.554688 -13.613281 3.015625 -14.960938 3.921875 -15.859375 C 4.835938 -16.765625 6.085938 -17.21875 7.671875 -17.21875 C 8.179688 -17.21875 8.644531 -17.175781 9.0625 -17.09375 C 9.476562 -17.007812 9.832031 -16.878906 10.125 -16.703125 C 10.601562 -16.460938 10.84375 -16.0625 10.84375 -15.5 C 10.84375 -15.195312 10.78125 -14.878906 10.65625 -14.546875 C 10.53125 -14.210938 10.34375 -13.898438 10.09375 -13.609375 C 9.863281 -13.742188 9.59375 -13.851562 9.28125 -13.9375 C 8.96875 -14.03125 8.640625 -14.078125 8.296875 -14.078125 Z M 8.296875 -14.078125 "/></g></g></g><g fill="#ffffff" fill-opacity="1"><g transform="translate(56.70527, 28.77666)"><g><path d="M 7.4375 0.375 C 6.050781 0.375 4.859375 0.125 3.859375 -0.375 C 2.867188 -0.875 2.113281 -1.613281 1.59375 -2.59375 C 1.070312 -3.570312 0.8125 -4.765625 0.8125 -6.171875 C 0.8125 -7.546875 1.078125 -8.71875 1.609375 -9.6875 C 2.148438 -10.664062 2.914062 -11.40625 3.90625 -11.90625 C 4.90625 -12.40625 6.078125 -12.65625 7.421875 -12.65625 C 8.804688 -12.65625 9.992188 -12.40625 10.984375 -11.90625 C 11.984375 -11.40625 12.75 -10.664062 13.28125 -9.6875 C 13.8125 -8.71875 14.078125 -7.53125 14.078125 -6.125 C 14.078125 -4.75 13.800781 -3.570312 13.25 -2.59375 C 12.707031 -1.613281 11.9375 -0.875 10.9375 -0.375 C 9.945312 0.125 8.78125 0.375 7.4375 0.375 Z M 7.46875 -2.953125 C 8.25 -2.953125 8.859375 -3.207031 9.296875 -3.71875 C 9.734375 -4.226562 9.953125 -5.03125 9.953125 -6.125 C 9.953125 -7.226562 9.722656 -8.039062 9.265625 -8.5625 C 8.816406 -9.082031 8.191406 -9.34375 7.390625 -9.34375 C 6.609375 -9.34375 6 -9.085938 5.5625 -8.578125 C 5.125 -8.066406 4.90625 -7.265625 4.90625 -6.171875 C 4.90625 -5.054688 5.128906 -4.238281 5.578125 -3.71875 C 6.035156 -3.207031 6.664062 -2.953125 7.46875 -2.953125 Z M 7.46875 -2.953125 "/></g></g></g><g fill="#ffffff" fill-opacity="1"><g transform="translate(71.56446, 28.77666)"><g><path d="M 10.5625 -11.875 C 10.789062 -11.601562 10.90625 -11.226562 10.90625 -10.75 C 10.90625 -10.425781 10.851562 -10.070312 10.75 -9.6875 C 10.65625 -9.300781 10.523438 -8.921875 10.359375 -8.546875 C 9.796875 -8.835938 9.15625 -8.984375 8.4375 -8.984375 C 7.945312 -8.984375 7.46875 -8.867188 7 -8.640625 C 6.539062 -8.421875 6.148438 -8.113281 5.828125 -7.71875 L 5.828125 0.09375 C 5.640625 0.125 5.398438 0.148438 5.109375 0.171875 C 4.828125 0.191406 4.550781 0.203125 4.28125 0.203125 C 3.625 0.203125 3.117188 0.140625 2.765625 0.015625 C 2.410156 -0.0976562 2.148438 -0.3125 1.984375 -0.625 C 1.828125 -0.945312 1.75 -1.398438 1.75 -1.984375 L 1.75 -8.546875 C 1.75 -8.921875 1.6875 -9.1875 1.5625 -9.34375 C 1.445312 -9.507812 1.234375 -9.59375 0.921875 -9.59375 C 0.691406 -9.59375 0.5 -9.566406 0.34375 -9.515625 C 0.269531 -9.765625 0.234375 -10.0625 0.234375 -10.40625 C 0.234375 -11.144531 0.441406 -11.675781 0.859375 -12 C 1.285156 -12.351562 1.9375 -12.53125 2.8125 -12.53125 C 3.601562 -12.53125 4.238281 -12.382812 4.71875 -12.09375 C 5.195312 -11.8125 5.519531 -11.332031 5.6875 -10.65625 C 6.039062 -11.238281 6.5 -11.679688 7.0625 -11.984375 C 7.632812 -12.296875 8.226562 -12.453125 8.84375 -12.453125 C 9.644531 -12.453125 10.21875 -12.257812 10.5625 -11.875 Z M 10.5625 -11.875 "/></g></g></g><g fill="#ffffff" fill-opacity="1"><g transform="translate(83.038075, 28.77666)"><g/></g></g><g fill="#ffffff" fill-opacity="1"><g transform="translate(88.122097, 28.77666)"><g/></g></g><g fill="#ffffff" fill-opacity="1"><g transform="translate(93.20612, 28.77666)"><g/></g></g><g fill="#ffffff" fill-opacity="1"><g transform="translate(98.290142, 28.77666)"><g/></g></g><g fill="#ffffff" fill-opacity="1"><g transform="translate(103.374164, 28.77666)"><g/></g></g><g fill="#ffffff" fill-opacity="1"><g transform="translate(108.458186, 28.77666)"><g/></g></g><g fill="#ffffff" fill-opacity="1"><g transform="translate(113.552486, 28.77666)"><g><path d="M 19.734375 -10.953125 C 19.890625 -10.535156 20.023438 -9.988281 20.140625 -9.3125 C 20.253906 -8.644531 20.3125 -7.867188 20.3125 -6.984375 C 20.3125 -4.742188 19.8125 -2.957031 18.8125 -1.625 C 17.8125 -0.289062 16.1875 0.375 13.9375 0.375 C 13.269531 0.375 12.628906 0.28125 12.015625 0.09375 C 11.398438 -0.09375 10.851562 -0.367188 10.375 -0.734375 C 9.351562 0.00390625 7.984375 0.375 6.265625 0.375 C 5.648438 0.375 5.0625 0.3125 4.5 0.1875 C 3.945312 0.0703125 3.488281 -0.0859375 3.125 -0.296875 C 2.644531 -0.578125 2.296875 -0.925781 2.078125 -1.34375 C 1.859375 -1.757812 1.75 -2.304688 1.75 -2.984375 L 1.75 -8.546875 C 1.75 -8.921875 1.6875 -9.1875 1.5625 -9.34375 C 1.445312 -9.507812 1.234375 -9.59375 0.921875 -9.59375 C 0.691406 -9.59375 0.5 -9.566406 0.34375 -9.515625 C 0.269531 -9.765625 0.234375 -10.0625 0.234375 -10.40625 C 0.234375 -11.144531 0.441406 -11.675781 0.859375 -12 C 1.285156 -12.351562 1.929688 -12.53125 2.796875 -12.53125 C 3.460938 -12.53125 4.007812 -12.429688 4.4375 -12.234375 C 4.863281 -12.046875 5.1875 -11.710938 5.40625 -11.234375 C 5.632812 -10.753906 5.75 -10.097656 5.75 -9.265625 L 5.75 -3.171875 C 6.101562 -3.023438 6.425781 -2.953125 6.71875 -2.953125 C 7.550781 -2.953125 8.191406 -3.289062 8.640625 -3.96875 C 9.085938 -4.644531 9.3125 -5.65625 9.3125 -7 C 9.3125 -7.96875 9.226562 -8.90625 9.0625 -9.8125 C 8.894531 -10.726562 8.6875 -11.539062 8.4375 -12.25 C 8.632812 -12.289062 8.851562 -12.320312 9.09375 -12.34375 C 9.332031 -12.375 9.5625 -12.390625 9.78125 -12.390625 C 10.582031 -12.390625 11.191406 -12.285156 11.609375 -12.078125 C 12.035156 -11.867188 12.359375 -11.492188 12.578125 -10.953125 C 12.722656 -10.554688 12.847656 -10.03125 12.953125 -9.375 C 13.066406 -8.726562 13.125 -8.019531 13.125 -7.25 C 13.125 -5.695312 12.894531 -4.359375 12.4375 -3.234375 C 12.832031 -3.046875 13.265625 -2.953125 13.734375 -2.953125 C 14.265625 -2.953125 14.726562 -3.109375 15.125 -3.421875 C 15.53125 -3.742188 15.84375 -4.203125 16.0625 -4.796875 C 16.28125 -5.398438 16.390625 -6.117188 16.390625 -6.953125 C 16.390625 -8.816406 16.101562 -10.585938 15.53125 -12.265625 C 15.914062 -12.347656 16.414062 -12.390625 17.03125 -12.390625 C 17.769531 -12.390625 18.351562 -12.28125 18.78125 -12.0625 C 19.21875 -11.84375 19.535156 -11.472656 19.734375 -10.953125 Z M 19.734375 -10.953125 "/></g></g></g><g fill="#ffffff" fill-opacity="1"><g transform="translate(134.674264, 28.77666)"><g><path d="M 11.90625 -4.046875 C 12.175781 -3.796875 12.378906 -3.515625 12.515625 -3.203125 C 12.660156 -2.890625 12.734375 -2.566406 12.734375 -2.234375 C 12.734375 -1.421875 12.28125 -0.816406 11.375 -0.421875 C 10.925781 -0.179688 10.367188 0.0078125 9.703125 0.15625 C 9.046875 0.300781 8.332031 0.375 7.5625 0.375 C 6.175781 0.375 4.972656 0.109375 3.953125 -0.421875 C 2.929688 -0.953125 2.148438 -1.707031 1.609375 -2.6875 C 1.078125 -3.664062 0.8125 -4.8125 0.8125 -6.125 C 0.8125 -7.507812 1.09375 -8.691406 1.65625 -9.671875 C 2.226562 -10.648438 3.007812 -11.390625 4 -11.890625 C 5 -12.398438 6.140625 -12.65625 7.421875 -12.65625 C 8.484375 -12.65625 9.441406 -12.492188 10.296875 -12.171875 C 11.148438 -11.847656 11.828125 -11.378906 12.328125 -10.765625 C 12.828125 -10.148438 13.078125 -9.421875 13.078125 -8.578125 C 13.078125 -7.367188 12.597656 -6.445312 11.640625 -5.8125 C 10.691406 -5.175781 9.253906 -4.859375 7.328125 -4.859375 C 6.492188 -4.859375 5.628906 -4.941406 4.734375 -5.109375 C 5.140625 -3.578125 6.265625 -2.8125 8.109375 -2.8125 C 8.910156 -2.8125 9.617188 -2.929688 10.234375 -3.171875 C 10.847656 -3.410156 11.40625 -3.703125 11.90625 -4.046875 Z M 7.484375 -9.796875 C 7.054688 -9.796875 6.640625 -9.707031 6.234375 -9.53125 C 5.835938 -9.351562 5.492188 -9.078125 5.203125 -8.703125 C 4.921875 -8.335938 4.734375 -7.878906 4.640625 -7.328125 C 5.304688 -7.203125 6.023438 -7.140625 6.796875 -7.140625 C 7.671875 -7.140625 8.316406 -7.238281 8.734375 -7.4375 C 9.148438 -7.632812 9.359375 -7.984375 9.359375 -8.484375 C 9.359375 -8.878906 9.179688 -9.195312 8.828125 -9.4375 C 8.484375 -9.675781 8.035156 -9.796875 7.484375 -9.796875 Z M 7.484375 -9.796875 "/></g></g></g><g fill="#ffffff" fill-opacity="1"><g transform="translate(148.863286, 28.77666)"><g><path d="M 5.171875 -4.390625 C 5.171875 -3.898438 5.265625 -3.546875 5.453125 -3.328125 C 5.640625 -3.109375 5.929688 -3 6.328125 -3 C 6.609375 -3 6.898438 -3.066406 7.203125 -3.203125 C 7.503906 -3.347656 7.753906 -3.503906 7.953125 -3.671875 C 8.210938 -3.398438 8.40625 -3.101562 8.53125 -2.78125 C 8.664062 -2.46875 8.734375 -2.164062 8.734375 -1.875 C 8.734375 -1.53125 8.648438 -1.21875 8.484375 -0.9375 C 8.328125 -0.65625 8.101562 -0.421875 7.8125 -0.234375 C 7.195312 0.140625 6.332031 0.328125 5.21875 0.328125 C 4.238281 0.328125 3.445312 0.164062 2.84375 -0.15625 C 2.238281 -0.476562 1.796875 -0.972656 1.515625 -1.640625 C 1.242188 -2.316406 1.109375 -3.195312 1.109375 -4.28125 L 1.109375 -16.921875 C 1.234375 -16.953125 1.457031 -16.984375 1.78125 -17.015625 C 2.113281 -17.046875 2.414062 -17.0625 2.6875 -17.0625 C 3.332031 -17.0625 3.832031 -17 4.1875 -16.875 C 4.539062 -16.75 4.789062 -16.523438 4.9375 -16.203125 C 5.09375 -15.890625 5.171875 -15.441406 5.171875 -14.859375 Z M 5.171875 -4.390625 "/></g></g></g><g fill="#ffffff" fill-opacity="1"><g transform="translate(157.598552, 28.77666)"><g><path d="M 5.171875 -4.390625 C 5.171875 -3.898438 5.265625 -3.546875 5.453125 -3.328125 C 5.640625 -3.109375 5.929688 -3 6.328125 -3 C 6.609375 -3 6.898438 -3.066406 7.203125 -3.203125 C 7.503906 -3.347656 7.753906 -3.503906 7.953125 -3.671875 C 8.210938 -3.398438 8.40625 -3.101562 8.53125 -2.78125 C 8.664062 -2.46875 8.734375 -2.164062 8.734375 -1.875 C 8.734375 -1.53125 8.648438 -1.21875 8.484375 -0.9375 C 8.328125 -0.65625 8.101562 -0.421875 7.8125 -0.234375 C 7.195312 0.140625 6.332031 0.328125 5.21875 0.328125 C 4.238281 0.328125 3.445312 0.164062 2.84375 -0.15625 C 2.238281 -0.476562 1.796875 -0.972656 1.515625 -1.640625 C 1.242188 -2.316406 1.109375 -3.195312 1.109375 -4.28125 L 1.109375 -16.921875 C 1.234375 -16.953125 1.457031 -16.984375 1.78125 -17.015625 C 2.113281 -17.046875 2.414062 -17.0625 2.6875 -17.0625 C 3.332031 -17.0625 3.832031 -17 4.1875 -16.875 C 4.539062 -16.75 4.789062 -16.523438 4.9375 -16.203125 C 5.09375 -15.890625 5.171875 -15.441406 5.171875 -14.859375 Z M 5.171875 -4.390625 "/></g></g></g><g fill="#ffffff" fill-opacity="1"><g transform="translate(5.606222, 29.020183)"><g><path d="M 27.953125 0 C 27.566406 0.0703125 27.085938 0.128906 26.515625 0.171875 C 25.941406 0.222656 25.445312 0.25 25.03125 0.25 C 24.050781 0.25 23.269531 0.175781 22.6875 0.03125 C 22.101562 -0.113281 21.601562 -0.382812 21.1875 -0.78125 C 20.769531 -1.1875 20.414062 -1.78125 20.125 -2.5625 L 18.921875 -5.78125 L 7.6875 -5.78125 C 7.050781 -3.875 6.535156 -1.945312 6.140625 0 C 5.753906 0.0703125 5.273438 0.128906 4.703125 0.171875 C 4.128906 0.222656 3.625 0.25 3.1875 0.25 C 1.207031 0.25 0.21875 -0.414062 0.21875 -1.75 C 0.21875 -2.21875 0.332031 -2.878906 0.5625 -3.734375 C 0.800781 -4.585938 1.125 -5.523438 1.53125 -6.546875 C 2.53125 -9.203125 3.894531 -12.21875 5.625 -15.59375 C 7.363281 -18.976562 9.078125 -21.976562 10.765625 -24.59375 L 10.0625 -26.671875 C 10.425781 -26.742188 10.875 -26.804688 11.40625 -26.859375 C 11.945312 -26.910156 12.4375 -26.9375 12.875 -26.9375 C 14 -26.9375 14.863281 -26.804688 15.46875 -26.546875 C 16.082031 -26.296875 16.597656 -25.851562 17.015625 -25.21875 C 17.429688 -24.582031 17.929688 -23.582031 18.515625 -22.21875 Z M 16.984375 -10.875 L 13.609375 -19.71875 C 12.097656 -16.820312 10.742188 -13.875 9.546875 -10.875 Z M 16.984375 -10.875 "/></g></g></g><g fill="#ffffff" fill-opacity="1"><g transform="translate(82.687403, 29.020183)"><g><path d="M 12.328125 -26.34375 C 17.234375 -26.34375 20.910156 -25.210938 23.359375 -22.953125 C 25.816406 -20.703125 27.046875 -17.441406 27.046875 -13.171875 C 27.046875 -10.535156 26.507812 -8.226562 25.4375 -6.25 C 24.363281 -4.28125 22.707031 -2.742188 20.46875 -1.640625 C 18.238281 -0.546875 15.46875 0 12.15625 0 L 7.359375 0 C 6.179688 0 5.296875 -0.113281 4.703125 -0.34375 C 4.109375 -0.570312 3.691406 -0.96875 3.453125 -1.53125 C 3.222656 -2.09375 3.109375 -2.925781 3.109375 -4.03125 L 3.109375 -21.1875 L 0.515625 -21.1875 C 0.410156 -21.820312 0.359375 -22.578125 0.359375 -23.453125 C 0.359375 -24.210938 0.453125 -24.796875 0.640625 -25.203125 C 0.828125 -25.617188 1.117188 -25.910156 1.515625 -26.078125 C 1.921875 -26.253906 2.488281 -26.34375 3.21875 -26.34375 Z M 11.921875 -5.34375 C 14.859375 -5.34375 16.984375 -6.015625 18.296875 -7.359375 C 19.609375 -8.703125 20.265625 -10.640625 20.265625 -13.171875 C 20.265625 -15.785156 19.59375 -17.75 18.25 -19.0625 C 16.914062 -20.382812 14.785156 -21.046875 11.859375 -21.046875 L 9.484375 -21.046875 L 9.484375 -5.34375 Z M 11.921875 -5.34375 "/></g></g></g></svg>